<svg xmlns="http://www.w3.org/2000/svg" xmlns:xlink="http://www.w3.org/1999/xlink" width="817.841" height="414.69" viewBox="0 0 817.841 414.69">
  <defs>
    <linearGradient id="linear-gradient" x1="0.709" y1="1.071" x2="0.451" y2="0.367" gradientUnits="objectBoundingBox">
      <stop offset="0.41" stop-color="#fff"/>
      <stop offset="1" stop-color="#662d83"/>
    </linearGradient>
    <linearGradient id="linear-gradient-2" x1="0.509" y1="0.922" x2="0.492" y2="0.138" gradientUnits="objectBoundingBox">
      <stop offset="0.1" stop-color="#fff"/>
      <stop offset="1" stop-color="#32c4b4"/>
    </linearGradient>
    <linearGradient id="linear-gradient-3" x1="0.503" y1="1.466" x2="0.499" y2="0.01" gradientUnits="objectBoundingBox">
      <stop offset="0.36" stop-color="#fff"/>
      <stop offset="1" stop-color="#ffa726"/>
    </linearGradient>
  </defs>
  <g id="Grupo_90666" data-name="Grupo 90666" transform="translate(-390.564 -4052.327)">
    <g id="Capa_1" data-name="Capa 1" transform="translate(372.04 3872.003)">
      <path id="Trazado_162006" data-name="Trazado 162006" d="M52.39,555.159s129.466,6.691,294.2-71.812C575.776,374.113,728.676,183.7,728.676,183.7V551.968Z" transform="translate(4.947 0.796)" fill="url(#linear-gradient)"/>
      <path id="Trazado_162007" data-name="Trazado 162007" d="M52.39,519.287s189.955-4.895,291.641-22.874S728.687,433.35,728.687,433.35v85.971Z" transform="translate(4.947 36.668)" fill="url(#linear-gradient-2)"/>
      <path id="Trazado_162008" data-name="Trazado 162008" d="M52.39,513.088s673.873-36.6,676.286-36.6v36.792Z" transform="translate(4.947 42.867)" fill="url(#linear-gradient-3)"/>
      <g id="Grupo_88048" data-name="Grupo 88048" transform="translate(17.96 178.16)">
        <line id="Línea_610" data-name="Línea 610" x2="676.286" transform="translate(39.377 6.37)" fill="none" stroke="#93b3d8" stroke-miterlimit="10" stroke-width="0.5"/>
        <line id="Línea_611" data-name="Línea 611" x2="676.286" transform="translate(39.377 99.226)" fill="#12263f" stroke="#93b3d8" stroke-miterlimit="10" stroke-width="0.5"/>
        <line id="Línea_612" data-name="Línea 612" x2="676.286" transform="translate(39.377 6.37)" fill="#12263f" stroke="#93b3d8" stroke-miterlimit="10" stroke-width="0.5"/>
        <line id="Línea_613" data-name="Línea 613" x2="676.286" transform="translate(39.377 192.083)" fill="#12263f" stroke="#93b3d8" stroke-miterlimit="10" stroke-width="0.5"/>
        <line id="Línea_614" data-name="Línea 614" x2="676.286" transform="translate(39.377 284.939)" fill="#12263f" stroke="#93b3d8" stroke-miterlimit="10" stroke-width="0.5"/>
        <line id="Línea_615" data-name="Línea 615" x2="676.286" transform="translate(39.377 377.795)" fill="#12263f" stroke="#12263f" stroke-miterlimit="10" stroke-width="1"/>
        <line id="Línea_616" data-name="Línea 616" y1="371.424" transform="translate(715.663 6.37)" fill="#12263f" stroke="#93b3d8" stroke-miterlimit="10" stroke-width="0.5"/>
        <path id="Trazado_162009" data-name="Trazado 162009" d="M52.39,555.159s129.466,6.691,294.2-71.812C575.776,374.113,728.676,183.7,728.676,183.7" transform="translate(-13.013 -177.364)" fill="none" stroke="#662d83" stroke-miterlimit="10" stroke-width="2"/>
        <line id="Línea_617" data-name="Línea 617" y2="371.424" transform="translate(39.377 6.37)" fill="none" stroke="#12263f" stroke-miterlimit="10" stroke-width="1"/>
        <line id="Línea_618" data-name="Línea 618" y2="371.424" transform="translate(174.63 6.37)" fill="#12263f" stroke="#93b3d8" stroke-miterlimit="10" stroke-width="0.5"/>
        <line id="Línea_619" data-name="Línea 619" y2="371.424" transform="translate(309.894 6.37)" fill="#12263f" stroke="#93b3d8" stroke-miterlimit="10" stroke-width="0.5"/>
        <line id="Línea_620" data-name="Línea 620" y2="371.424" transform="translate(445.147 6.37)" fill="#12263f" stroke="#93b3d8" stroke-miterlimit="10" stroke-width="0.5"/>
        <line id="Línea_621" data-name="Línea 621" y2="371.424" transform="translate(580.399 6.37)" fill="#12263f" stroke="#93b3d8" stroke-miterlimit="10" stroke-width="0.5"/>
        <path id="Trazado_162010" data-name="Trazado 162010" d="M52.39,519.287s189.955-4.895,291.641-22.874S728.687,433.35,728.687,433.35" transform="translate(-13.013 -141.492)" fill="none" stroke="#2daea0" stroke-miterlimit="10" stroke-width="2"/>
        <path id="Trazado_162011" data-name="Trazado 162011" d="M728.676,476.45c-2.413,0-676.286,36.6-676.286,36.6" transform="translate(-13.013 -135.299)" fill="none" stroke="#ffa726" stroke-miterlimit="10" stroke-width="2"/>
        <line id="Línea_622" data-name="Línea 622" y1="6.004" x2="674.296" transform="translate(39.377 368.611)" fill="none" stroke="#df1c24" stroke-miterlimit="10" stroke-width="2"/>
        <line id="Línea_623" data-name="Línea 623" x1="676.286" transform="translate(39.377 374.615)" fill="none" stroke="#104c82" stroke-miterlimit="10" stroke-width="2"/>
        <path id="Trazado_172243" data-name="Trazado 172243" d="M10.07-5.32A7.037,7.037,0,0,1,9.508-2.4,4.261,4.261,0,0,1,7.914-.5,4.385,4.385,0,0,1,5.508.156,4.347,4.347,0,0,1,3.125-.5,4.363,4.363,0,0,1,1.512-2.387a6.752,6.752,0,0,1-.59-2.832v-.82a6.953,6.953,0,0,1,.57-2.9,4.347,4.347,0,0,1,1.613-1.926,4.329,4.329,0,0,1,2.387-.668,4.41,4.41,0,0,1,2.41.66A4.253,4.253,0,0,1,9.508-8.957a7.071,7.071,0,0,1,.563,2.918ZM8.578-6.055A5.1,5.1,0,0,0,7.766-9.16a2.68,2.68,0,0,0-2.273-1.082A2.651,2.651,0,0,0,3.254-9.16a5,5,0,0,0-.84,3v.836a5.107,5.107,0,0,0,.824,3.082,2.662,2.662,0,0,0,2.27,1.121,2.652,2.652,0,0,0,2.25-1.059,5.079,5.079,0,0,0,.82-3.035Zm3.461,1.438a12.079,12.079,0,0,1,.473-3.391,9.85,9.85,0,0,1,1.41-2.953,6,6,0,0,1,1.945-1.875l.3.953a6.222,6.222,0,0,0-1.871,2.672,11.583,11.583,0,0,0-.8,4.023l-.008.664a11.643,11.643,0,0,0,1.1,5.234,6.252,6.252,0,0,0,1.578,2.078l-.3.883a6.192,6.192,0,0,1-1.984-1.937A10.859,10.859,0,0,1,12.039-4.617ZM22.164,0H20.711V-9.633L17.8-8.562V-9.875l4.141-1.555h.227Zm7.719-4.539a12.084,12.084,0,0,1-.457,3.34,9.876,9.876,0,0,1-1.4,2.949,6.127,6.127,0,0,1-1.973,1.922l-.3-.883A6.281,6.281,0,0,0,27.684-.074a12.387,12.387,0,0,0,.746-4.309v-.25a12.861,12.861,0,0,0-.344-3.051,10.3,10.3,0,0,0-.957-2.527,5.838,5.838,0,0,0-1.379-1.742l.3-.883A6.1,6.1,0,0,1,28.02-10.93a9.9,9.9,0,0,1,1.4,2.945A12.363,12.363,0,0,1,29.883-4.539ZM10.07,13.68A7.037,7.037,0,0,1,9.508,16.6a4.261,4.261,0,0,1-1.594,1.9,4.385,4.385,0,0,1-2.406.656,4.348,4.348,0,0,1-2.383-.66,4.363,4.363,0,0,1-1.613-1.883,6.752,6.752,0,0,1-.59-2.832v-.82a6.953,6.953,0,0,1,.57-2.9A4.347,4.347,0,0,1,3.105,8.137a4.329,4.329,0,0,1,2.387-.668,4.41,4.41,0,0,1,2.41.66,4.253,4.253,0,0,1,1.605,1.914,7.071,7.071,0,0,1,.563,2.918Zm-1.492-.734A5.1,5.1,0,0,0,7.766,9.84,2.68,2.68,0,0,0,5.492,8.758,2.651,2.651,0,0,0,3.254,9.84a5,5,0,0,0-.84,3v.836a5.107,5.107,0,0,0,.824,3.082,2.662,2.662,0,0,0,2.27,1.121,2.652,2.652,0,0,0,2.25-1.059,5.079,5.079,0,0,0,.82-3.035Zm3.461,1.438a12.079,12.079,0,0,1,.473-3.391,9.85,9.85,0,0,1,1.41-2.953,6,6,0,0,1,1.945-1.875l.3.953a6.222,6.222,0,0,0-1.871,2.672,11.583,11.583,0,0,0-.8,4.023l-.008.664a11.643,11.643,0,0,0,1.1,5.234,6.252,6.252,0,0,0,1.578,2.078l-.3.883a6.192,6.192,0,0,1-1.984-1.937A10.859,10.859,0,0,1,12.039,14.383ZM19.133,19H17.688V7h1.445Zm1.93-4.3a4.993,4.993,0,0,1,.488-2.234A3.643,3.643,0,0,1,22.91,10.93a3.7,3.7,0,0,1,1.988-.539,3.565,3.565,0,0,1,2.793,1.2,4.6,4.6,0,0,1,1.066,3.18v.1a5.036,5.036,0,0,1-.473,2.215,3.589,3.589,0,0,1-1.352,1.527,3.743,3.743,0,0,1-2.02.547,3.556,3.556,0,0,1-2.785-1.2A4.575,4.575,0,0,1,21.063,14.8Zm1.453.172a3.616,3.616,0,0,0,.652,2.258,2.211,2.211,0,0,0,3.5-.012,3.955,3.955,0,0,0,.648-2.418,3.61,3.61,0,0,0-.66-2.254,2.1,2.1,0,0,0-1.754-.863,2.075,2.075,0,0,0-1.727.852A3.925,3.925,0,0,0,22.516,14.867Zm7.711-.164a4.968,4.968,0,0,1,.914-3.145,3.151,3.151,0,0,1,4.836-.074l.07-.937h1.32V18.8a3.439,3.439,0,0,1-.973,2.586,3.589,3.589,0,0,1-2.613.945,4.348,4.348,0,0,1-1.789-.391,3.08,3.08,0,0,1-1.336-1.07l.75-.867a2.826,2.826,0,0,0,2.273,1.148,2.214,2.214,0,0,0,1.645-.594,2.269,2.269,0,0,0,.59-1.672v-.727a2.971,2.971,0,0,1-2.367,1,2.887,2.887,0,0,1-2.4-1.2A5.224,5.224,0,0,1,30.227,14.7Zm1.453.164a3.79,3.79,0,0,0,.586,2.246,1.9,1.9,0,0,0,1.641.816,2.117,2.117,0,0,0,2.008-1.242V12.828a2.142,2.142,0,0,0-1.992-1.211,1.921,1.921,0,0,0-1.648.82A4.128,4.128,0,0,0,31.68,14.867Zm7.813-.484a12.079,12.079,0,0,1,.473-3.391,9.85,9.85,0,0,1,1.41-2.953A6,6,0,0,1,43.32,6.164l.3.953a6.222,6.222,0,0,0-1.871,2.672,11.583,11.583,0,0,0-.8,4.023l-.008.664a11.643,11.643,0,0,0,1.1,5.234,6.252,6.252,0,0,0,1.578,2.078l-.3.883a6.192,6.192,0,0,1-1.984-1.937A10.859,10.859,0,0,1,39.492,14.383Zm6.891-3.836.047,1.063a3.08,3.08,0,0,1,2.531-1.219q2.68,0,2.7,3.023V19H50.219V13.406a1.946,1.946,0,0,0-.418-1.352,1.675,1.675,0,0,0-1.277-.437,2.086,2.086,0,0,0-1.234.375,2.546,2.546,0,0,0-.828.984V19H45.016V10.547Zm10.8,3.914a12.084,12.084,0,0,1-.457,3.34,9.876,9.876,0,0,1-1.4,2.949,6.127,6.127,0,0,1-1.973,1.922l-.3-.883a6.281,6.281,0,0,0,1.934-2.863,12.387,12.387,0,0,0,.746-4.309v-.25a12.861,12.861,0,0,0-.344-3.051,10.3,10.3,0,0,0-.957-2.527,5.838,5.838,0,0,0-1.379-1.742l.3-.883A6.1,6.1,0,0,1,55.316,8.07a9.9,9.9,0,0,1,1.4,2.945A12.363,12.363,0,0,1,57.18,14.461Zm5.563,0a12.084,12.084,0,0,1-.457,3.34,9.876,9.876,0,0,1-1.4,2.949,6.127,6.127,0,0,1-1.973,1.922l-.3-.883a6.281,6.281,0,0,0,1.934-2.863,12.387,12.387,0,0,0,.746-4.309v-.25a12.861,12.861,0,0,0-.344-3.051,10.3,10.3,0,0,0-.957-2.527,5.838,5.838,0,0,0-1.379-1.742l.3-.883A6.1,6.1,0,0,1,60.879,8.07a9.9,9.9,0,0,1,1.4,2.945A12.363,12.363,0,0,1,62.742,14.461ZM10.07,32.68A7.037,7.037,0,0,1,9.508,35.6a4.261,4.261,0,0,1-1.594,1.9,4.385,4.385,0,0,1-2.406.656,4.347,4.347,0,0,1-2.383-.66,4.363,4.363,0,0,1-1.613-1.883,6.752,6.752,0,0,1-.59-2.832v-.82a6.953,6.953,0,0,1,.57-2.9,4.347,4.347,0,0,1,1.613-1.926,4.329,4.329,0,0,1,2.387-.668,4.41,4.41,0,0,1,2.41.66,4.253,4.253,0,0,1,1.605,1.914,7.071,7.071,0,0,1,.563,2.918Zm-1.492-.734a5.1,5.1,0,0,0-.812-3.105,2.68,2.68,0,0,0-2.273-1.082A2.651,2.651,0,0,0,3.254,28.84a5,5,0,0,0-.84,3v.836a5.107,5.107,0,0,0,.824,3.082,2.662,2.662,0,0,0,2.27,1.121,2.652,2.652,0,0,0,2.25-1.059,5.079,5.079,0,0,0,.82-3.035Zm3.461,1.438a12.079,12.079,0,0,1,.473-3.391,9.85,9.85,0,0,1,1.41-2.953,6,6,0,0,1,1.945-1.875l.3.953a6.222,6.222,0,0,0-1.871,2.672,11.583,11.583,0,0,0-.8,4.023l-.008.664a11.643,11.643,0,0,0,1.1,5.234,6.252,6.252,0,0,0,1.578,2.078l-.3.883a6.192,6.192,0,0,1-1.984-1.937A10.859,10.859,0,0,1,12.039,33.383Zm6.891-3.836.047,1.063a3.08,3.08,0,0,1,2.531-1.219q2.68,0,2.7,3.023V38H22.766V32.406a1.946,1.946,0,0,0-.418-1.352,1.675,1.675,0,0,0-1.277-.437,2.086,2.086,0,0,0-1.234.375,2.546,2.546,0,0,0-.828.984V38H17.563V29.547Zm10.8,3.914a12.085,12.085,0,0,1-.457,3.34,9.876,9.876,0,0,1-1.4,2.949A6.127,6.127,0,0,1,25.9,41.672l-.3-.883a6.281,6.281,0,0,0,1.934-2.863,12.387,12.387,0,0,0,.746-4.309v-.25a12.861,12.861,0,0,0-.344-3.051,10.3,10.3,0,0,0-.957-2.527,5.838,5.838,0,0,0-1.379-1.742l.3-.883a6.1,6.1,0,0,1,1.965,1.906,9.9,9.9,0,0,1,1.4,2.945A12.363,12.363,0,0,1,29.727,33.461ZM10.07,51.68A7.037,7.037,0,0,1,9.508,54.6a4.261,4.261,0,0,1-1.594,1.9,4.385,4.385,0,0,1-2.406.656,4.347,4.347,0,0,1-2.383-.66,4.363,4.363,0,0,1-1.613-1.883,6.752,6.752,0,0,1-.59-2.832v-.82a6.953,6.953,0,0,1,.57-2.9,4.347,4.347,0,0,1,1.613-1.926,4.329,4.329,0,0,1,2.387-.668,4.41,4.41,0,0,1,2.41.66,4.253,4.253,0,0,1,1.605,1.914,7.071,7.071,0,0,1,.563,2.918Zm-1.492-.734a5.1,5.1,0,0,0-.812-3.105,2.68,2.68,0,0,0-2.273-1.082A2.651,2.651,0,0,0,3.254,47.84a5,5,0,0,0-.84,3v.836a5.107,5.107,0,0,0,.824,3.082,2.662,2.662,0,0,0,2.27,1.121,2.652,2.652,0,0,0,2.25-1.059,5.079,5.079,0,0,0,.82-3.035Zm3.461,1.438a12.079,12.079,0,0,1,.473-3.391,9.85,9.85,0,0,1,1.41-2.953,6,6,0,0,1,1.945-1.875l.3.953a6.222,6.222,0,0,0-1.871,2.672,11.583,11.583,0,0,0-.8,4.023l-.008.664a11.643,11.643,0,0,0,1.1,5.234,6.252,6.252,0,0,0,1.578,2.078l-.3.883a6.192,6.192,0,0,1-1.984-1.937A10.859,10.859,0,0,1,12.039,52.383Zm6.891-3.836.047,1.063a3.08,3.08,0,0,1,2.531-1.219q2.68,0,2.7,3.023V57H22.766V51.406a1.946,1.946,0,0,0-.418-1.352,1.675,1.675,0,0,0-1.277-.437,2.086,2.086,0,0,0-1.234.375,2.546,2.546,0,0,0-.828.984V57H17.563V48.547Zm8.945.77-2.359-.7.359-1.178,2.359.874-.07-2.685h1.2l-.078,2.724,2.32-.859.359,1.186-2.4.71L31.109,51.5l-.969.734-1.453-2.25-1.406,2.2-.977-.711ZM34.852,57H33.406V45h1.445Zm1.93-4.3a4.993,4.993,0,0,1,.488-2.234,3.643,3.643,0,0,1,1.359-1.531,3.7,3.7,0,0,1,1.988-.539,3.565,3.565,0,0,1,2.793,1.2,4.6,4.6,0,0,1,1.066,3.18v.1A5.036,5.036,0,0,1,44,55.082a3.589,3.589,0,0,1-1.352,1.527,3.743,3.743,0,0,1-2.02.547,3.556,3.556,0,0,1-2.785-1.2A4.575,4.575,0,0,1,36.781,52.8Zm1.453.172a3.616,3.616,0,0,0,.652,2.258,2.211,2.211,0,0,0,3.5-.012,3.955,3.955,0,0,0,.648-2.418,3.61,3.61,0,0,0-.66-2.254,2.1,2.1,0,0,0-1.754-.863,2.075,2.075,0,0,0-1.727.852A3.925,3.925,0,0,0,38.234,52.867Zm7.711-.164a4.968,4.968,0,0,1,.914-3.145,3.151,3.151,0,0,1,4.836-.074l.07-.937h1.32V56.8a3.439,3.439,0,0,1-.973,2.586,3.589,3.589,0,0,1-2.613.945,4.348,4.348,0,0,1-1.789-.391,3.08,3.08,0,0,1-1.336-1.07l.75-.867A2.826,2.826,0,0,0,49.4,59.148a2.214,2.214,0,0,0,1.645-.594,2.269,2.269,0,0,0,.59-1.672v-.727a2.971,2.971,0,0,1-2.367,1,2.887,2.887,0,0,1-2.4-1.2A5.224,5.224,0,0,1,45.945,52.7Zm1.453.164a3.79,3.79,0,0,0,.586,2.246,1.9,1.9,0,0,0,1.641.816,2.117,2.117,0,0,0,2.008-1.242V50.828a2.142,2.142,0,0,0-1.992-1.211,1.921,1.921,0,0,0-1.648.82A4.128,4.128,0,0,0,47.4,52.867Zm7.813-.484a12.079,12.079,0,0,1,.473-3.391,9.85,9.85,0,0,1,1.41-2.953,6,6,0,0,1,1.945-1.875l.3.953a6.222,6.222,0,0,0-1.871,2.672,11.583,11.583,0,0,0-.8,4.023l-.008.664a11.643,11.643,0,0,0,1.1,5.234,6.252,6.252,0,0,0,1.578,2.078l-.3.883a6.192,6.192,0,0,1-1.984-1.937A10.859,10.859,0,0,1,55.211,52.383ZM62.1,48.547l.047,1.063a3.08,3.08,0,0,1,2.531-1.219q2.68,0,2.7,3.023V57H65.938V51.406a1.946,1.946,0,0,0-.418-1.352,1.675,1.675,0,0,0-1.277-.437,2.086,2.086,0,0,0-1.234.375,2.546,2.546,0,0,0-.828.984V57H60.734V48.547Zm10.8,3.914a12.085,12.085,0,0,1-.457,3.34,9.876,9.876,0,0,1-1.4,2.949,6.127,6.127,0,0,1-1.973,1.922l-.3-.883A6.281,6.281,0,0,0,70.7,56.926a12.387,12.387,0,0,0,.746-4.309v-.25a12.861,12.861,0,0,0-.344-3.051,10.3,10.3,0,0,0-.957-2.527,5.838,5.838,0,0,0-1.379-1.742l.3-.883a6.1,6.1,0,0,1,1.965,1.906,9.9,9.9,0,0,1,1.4,2.945A12.363,12.363,0,0,1,72.9,52.461Zm5.563,0A12.085,12.085,0,0,1,78,55.8a9.876,9.876,0,0,1-1.4,2.949,6.127,6.127,0,0,1-1.973,1.922l-.3-.883a6.281,6.281,0,0,0,1.934-2.863,12.387,12.387,0,0,0,.746-4.309v-.25a12.861,12.861,0,0,0-.344-3.051,10.3,10.3,0,0,0-.957-2.527,5.838,5.838,0,0,0-1.379-1.742l.3-.883A6.1,6.1,0,0,1,76.6,46.07,9.9,9.9,0,0,1,78,49.016,12.363,12.363,0,0,1,78.461,52.461ZM10.07,70.68A7.037,7.037,0,0,1,9.508,73.6a4.261,4.261,0,0,1-1.594,1.9,4.385,4.385,0,0,1-2.406.656,4.348,4.348,0,0,1-2.383-.66,4.363,4.363,0,0,1-1.613-1.883,6.752,6.752,0,0,1-.59-2.832v-.82a6.953,6.953,0,0,1,.57-2.9,4.347,4.347,0,0,1,1.613-1.926,4.329,4.329,0,0,1,2.387-.668,4.41,4.41,0,0,1,2.41.66,4.253,4.253,0,0,1,1.605,1.914,7.071,7.071,0,0,1,.563,2.918Zm-1.492-.734a5.1,5.1,0,0,0-.812-3.105,2.68,2.68,0,0,0-2.273-1.082A2.651,2.651,0,0,0,3.254,66.84a5,5,0,0,0-.84,3v.836a5.107,5.107,0,0,0,.824,3.082,2.662,2.662,0,0,0,2.27,1.121,2.652,2.652,0,0,0,2.25-1.059,5.079,5.079,0,0,0,.82-3.035Zm3.461,1.438a12.079,12.079,0,0,1,.473-3.391,9.85,9.85,0,0,1,1.41-2.953,6,6,0,0,1,1.945-1.875l.3.953a6.222,6.222,0,0,0-1.871,2.672,11.583,11.583,0,0,0-.8,4.023l-.008.664a11.643,11.643,0,0,0,1.1,5.234,6.252,6.252,0,0,0,1.578,2.078l-.3.883a6.192,6.192,0,0,1-1.984-1.937A10.859,10.859,0,0,1,12.039,71.383Zm6.891-3.836.047,1.063a3.08,3.08,0,0,1,2.531-1.219q2.68,0,2.7,3.023V76H22.766V70.406a1.946,1.946,0,0,0-.418-1.352,1.675,1.675,0,0,0-1.277-.437,2.086,2.086,0,0,0-1.234.375,2.546,2.546,0,0,0-.828.984V76H17.563V67.547Zm8.945.77-2.359-.7.359-1.178,2.359.874-.07-2.685h1.2l-.078,2.724,2.32-.859.359,1.186-2.4.71L31.109,70.5l-.969.734-1.453-2.25-1.406,2.2-.977-.711ZM40.586,76H33.133V74.961l3.938-4.375a9.355,9.355,0,0,0,1.207-1.613,2.693,2.693,0,0,0,.332-1.285,2.041,2.041,0,0,0-.539-1.461,1.885,1.885,0,0,0-1.437-.57,2.232,2.232,0,0,0-1.676.613,2.343,2.343,0,0,0-.6,1.707H32.914a3.355,3.355,0,0,1,1.012-2.539,3.751,3.751,0,0,1,2.707-.969,3.6,3.6,0,0,1,2.508.832,2.838,2.838,0,0,1,.922,2.215q0,1.68-2.141,4l-3.047,3.3h5.711ZM45.6,71.461a12.084,12.084,0,0,1-.457,3.34,9.876,9.876,0,0,1-1.4,2.949,6.127,6.127,0,0,1-1.973,1.922l-.3-.883A6.281,6.281,0,0,0,43.4,75.926a12.387,12.387,0,0,0,.746-4.309v-.25a12.861,12.861,0,0,0-.344-3.051,10.3,10.3,0,0,0-.957-2.527,5.838,5.838,0,0,0-1.379-1.742l.3-.883a6.1,6.1,0,0,1,1.965,1.906,9.9,9.9,0,0,1,1.4,2.945A12.363,12.363,0,0,1,45.6,71.461Z" transform="translate(739.944 15)" fill="#12263f"/>
        <line id="Línea_624" data-name="Línea 624" x1="16.938" transform="translate(718.923 10.453)" fill="none" stroke="#104c82" stroke-miterlimit="10" stroke-width="2"/>
        <line id="Línea_625" data-name="Línea 625" x1="16.938" transform="translate(718.923 29.118)" fill="none" stroke="#df1c24" stroke-miterlimit="10" stroke-width="2"/>
        <line id="Línea_626" data-name="Línea 626" x1="16.938" transform="translate(718.923 47.783)" fill="none" stroke="#ffa726" stroke-miterlimit="10" stroke-width="2"/>
        <line id="Línea_627" data-name="Línea 627" x1="16.938" transform="translate(718.923 66.448)" fill="none" stroke="#2daea0" stroke-miterlimit="10" stroke-width="2"/>
        <line id="Línea_628" data-name="Línea 628" x1="16.938" transform="translate(718.923 85.113)" fill="none" stroke="#662d83" stroke-miterlimit="10" stroke-width="2"/>
        <path id="Trazado_172242" data-name="Trazado 172242" d="M5.339,0H3.977V-9.031l-2.732,1v-1.23l3.882-1.458h.212ZM16-4.548a6.2,6.2,0,0,1-.813,3.538A2.891,2.891,0,0,1,12.642.146,2.912,2.912,0,0,1,10.115-.985a5.882,5.882,0,0,1-.85-3.38V-6.174a6.059,6.059,0,0,1,.813-3.494,2.914,2.914,0,0,1,2.549-1.143,2.94,2.94,0,0,1,2.534,1.1A5.847,5.847,0,0,1,16-6.306ZM14.641-6.4a4.965,4.965,0,0,0-.483-2.509A1.664,1.664,0,0,0,12.627-9.7a1.642,1.642,0,0,0-1.516.784A4.848,4.848,0,0,0,10.62-6.5v2.168a5.045,5.045,0,0,0,.5,2.552,1.661,1.661,0,0,0,1.52.824,1.638,1.638,0,0,0,1.49-.776,4.862,4.862,0,0,0,.509-2.446Zm9.778,1.853a6.2,6.2,0,0,1-.813,3.538A2.891,2.891,0,0,1,21.064.146,2.912,2.912,0,0,1,18.538-.985a5.882,5.882,0,0,1-.85-3.38V-6.174A6.059,6.059,0,0,1,18.5-9.668a2.914,2.914,0,0,1,2.549-1.143,2.94,2.94,0,0,1,2.534,1.1,5.847,5.847,0,0,1,.835,3.4ZM23.064-6.4a4.965,4.965,0,0,0-.483-2.509A1.664,1.664,0,0,0,21.05-9.7a1.642,1.642,0,0,0-1.516.784,4.848,4.848,0,0,0-.491,2.41v2.168a5.045,5.045,0,0,0,.5,2.552,1.661,1.661,0,0,0,1.52.824,1.638,1.638,0,0,0,1.49-.776,4.862,4.862,0,0,0,.509-2.446ZM7.771,67.1,3.354,77H1.934l4.4-9.551H.564V66.336H7.771Zm2.161,4.556.542-5.317h5.464v1.252H11.624L11.3,70.5a3.441,3.441,0,0,1,1.78-.461A2.942,2.942,0,0,1,15.4,71a3.775,3.775,0,0,1,.857,2.6,3.643,3.643,0,0,1-.89,2.6,3.243,3.243,0,0,1-2.487.948,3.371,3.371,0,0,1-2.307-.784,3.128,3.128,0,0,1-1.018-2.168h1.282a2.152,2.152,0,0,0,.652,1.381,2.027,2.027,0,0,0,1.392.465,1.828,1.828,0,0,0,1.483-.645,2.694,2.694,0,0,0,.538-1.78,2.473,2.473,0,0,0-.582-1.718,1.981,1.981,0,0,0-1.549-.648,2.234,2.234,0,0,0-1.392.388l-.359.293Zm-8.423,77,.542-5.317H7.515v1.252H3.2L2.878,147.5a3.441,3.441,0,0,1,1.78-.461A2.942,2.942,0,0,1,6.973,148a3.775,3.775,0,0,1,.857,2.6,3.643,3.643,0,0,1-.89,2.6,3.243,3.243,0,0,1-2.487.948,3.371,3.371,0,0,1-2.307-.784,3.128,3.128,0,0,1-1.018-2.168H2.41a2.152,2.152,0,0,0,.652,1.381,2.027,2.027,0,0,0,1.392.465,1.828,1.828,0,0,0,1.483-.645,2.694,2.694,0,0,0,.538-1.78,2.473,2.473,0,0,0-.582-1.718,1.981,1.981,0,0,0-1.549-.648,2.234,2.234,0,0,0-1.392.388l-.359.293Zm14.487.8a6.2,6.2,0,0,1-.813,3.538,2.891,2.891,0,0,1-2.542,1.157,2.912,2.912,0,0,1-2.527-1.132,5.882,5.882,0,0,1-.85-3.38v-1.809a6.059,6.059,0,0,1,.813-3.494,2.914,2.914,0,0,1,2.549-1.143,2.94,2.94,0,0,1,2.534,1.1,5.847,5.847,0,0,1,.835,3.4ZM14.641,147.6a4.965,4.965,0,0,0-.483-2.509,1.664,1.664,0,0,0-1.531-.787,1.642,1.642,0,0,0-1.516.784,4.848,4.848,0,0,0-.491,2.41v2.168a5.045,5.045,0,0,0,.5,2.552,1.661,1.661,0,0,0,1.52.824,1.638,1.638,0,0,0,1.49-.776,4.862,4.862,0,0,0,.509-2.446ZM7.874,231H.886v-.974l3.691-4.1a8.77,8.77,0,0,0,1.132-1.512,2.524,2.524,0,0,0,.311-1.2,1.913,1.913,0,0,0-.505-1.37,1.767,1.767,0,0,0-1.348-.535,2.093,2.093,0,0,0-1.571.575,2.2,2.2,0,0,0-.56,1.6H.681a3.145,3.145,0,0,1,.948-2.38,3.516,3.516,0,0,1,2.538-.908,3.379,3.379,0,0,1,2.351.78,2.661,2.661,0,0,1,.864,2.076q0,1.575-2.007,3.75l-2.856,3.1H7.874Zm2.058-5.347.542-5.317h5.464v1.252H11.624L11.3,224.5a3.441,3.441,0,0,1,1.78-.461A2.942,2.942,0,0,1,15.4,225a3.775,3.775,0,0,1,.857,2.6,3.643,3.643,0,0,1-.89,2.6,3.243,3.243,0,0,1-2.487.948,3.371,3.371,0,0,1-2.307-.784,3.128,3.128,0,0,1-1.018-2.168h1.282a2.152,2.152,0,0,0,.652,1.381,2.027,2.027,0,0,0,1.392.465,1.828,1.828,0,0,0,1.483-.645,2.694,2.694,0,0,0,.538-1.78,2.473,2.473,0,0,0-.582-1.718,1.981,1.981,0,0,0-1.549-.648,2.234,2.234,0,0,0-1.392.388l-.359.293Zm-2.358,77.8a6.2,6.2,0,0,1-.813,3.538,2.891,2.891,0,0,1-2.542,1.157,2.912,2.912,0,0,1-2.527-1.132,5.882,5.882,0,0,1-.85-3.38v-1.809a6.059,6.059,0,0,1,.813-3.494A2.914,2.914,0,0,1,4.2,297.189a2.94,2.94,0,0,1,2.534,1.1,5.847,5.847,0,0,1,.835,3.4ZM6.218,301.6a4.965,4.965,0,0,0-.483-2.509A1.664,1.664,0,0,0,4.2,298.3a1.642,1.642,0,0,0-1.516.784A4.848,4.848,0,0,0,2.2,301.5v2.168a5.045,5.045,0,0,0,.5,2.552,1.661,1.661,0,0,0,1.52.824,1.638,1.638,0,0,0,1.49-.776,4.862,4.862,0,0,0,.509-2.446Z" transform="translate(0 14)"/>
        <path id="Trazado_172244" data-name="Trazado 172244" d="M8.62-8.88h-3.1L3.985,0H2.707L4.245-8.88h-3.1L1.34-9.953H8.812ZM11.294,0a1.657,1.657,0,0,1-.048-.39l.021-.39a3.032,3.032,0,0,1-2.16.916A2.21,2.21,0,0,1,7.517-.482,1.872,1.872,0,0,1,6.96-2,2.277,2.277,0,0,1,7.989-3.832a4.38,4.38,0,0,1,2.526-.66l1.292.007.082-.588a1.352,1.352,0,0,0-.256-1.049,1.237,1.237,0,0,0-.974-.4,1.908,1.908,0,0,0-1.125.311,1.324,1.324,0,0,0-.6.858l-1.244.007A1.983,1.983,0,0,1,8.2-6.5a2.943,2.943,0,0,1,1.142-.779,3.688,3.688,0,0,1,1.442-.263,2.452,2.452,0,0,1,1.8.7,2.173,2.173,0,0,1,.54,1.788l-.6,3.664-.034.526a2.58,2.58,0,0,0,.082.745L12.552,0ZM9.352-.957a2.158,2.158,0,0,0,1.125-.284,2.847,2.847,0,0,0,.913-.824l.267-1.524L10.72-3.6a3.547,3.547,0,0,0-1.791.369,1.36,1.36,0,0,0-.7,1.046,1.059,1.059,0,0,0,.243.865A1.156,1.156,0,0,0,9.352-.957ZM16.667-7.4l-.157.827a2.892,2.892,0,0,1,2.249-.957,2.282,2.282,0,0,1,1.193.321,1.576,1.576,0,0,1,.673.868,3.054,3.054,0,0,1,2.454-1.189,1.956,1.956,0,0,1,1.634.745A2.662,2.662,0,0,1,25.1-4.86L24.289,0h-1.23l.807-4.874a2.575,2.575,0,0,0,0-.649q-.13-.93-1.217-.95a1.869,1.869,0,0,0-1.227.42,1.945,1.945,0,0,0-.708,1.138L19.873,0H18.629l.82-4.867a1.563,1.563,0,0,0-.229-1.169,1.2,1.2,0,0,0-.988-.424,2.026,2.026,0,0,0-1.839,1.053L15.457,0H14.22L15.5-7.4ZM30.722,0a1.657,1.657,0,0,1-.048-.39l.021-.39a3.032,3.032,0,0,1-2.16.916,2.21,2.21,0,0,1-1.589-.619A1.872,1.872,0,0,1,26.388-2a2.277,2.277,0,0,1,1.029-1.835,4.38,4.38,0,0,1,2.526-.66l1.292.007.082-.588a1.352,1.352,0,0,0-.256-1.049,1.237,1.237,0,0,0-.974-.4,1.908,1.908,0,0,0-1.125.311,1.324,1.324,0,0,0-.6.858l-1.244.007A1.983,1.983,0,0,1,27.625-6.5a2.943,2.943,0,0,1,1.142-.779,3.688,3.688,0,0,1,1.442-.263,2.452,2.452,0,0,1,1.8.7,2.173,2.173,0,0,1,.54,1.788l-.6,3.664-.034.526a2.58,2.58,0,0,0,.082.745L31.979,0ZM28.78-.957A2.158,2.158,0,0,0,29.9-1.241a2.847,2.847,0,0,0,.913-.824l.267-1.524L30.147-3.6a3.547,3.547,0,0,0-1.791.369,1.36,1.36,0,0,0-.7,1.046,1.059,1.059,0,0,0,.243.865A1.156,1.156,0,0,0,28.78-.957ZM36.108-7.4l-.178.937A2.916,2.916,0,0,1,38.2-7.533a1.835,1.835,0,0,1,1.545.725,2.815,2.815,0,0,1,.369,1.962L39.307,0H38.07l.813-4.862a2.592,2.592,0,0,0,.007-.621,1.022,1.022,0,0,0-1.128-.976,2.329,2.329,0,0,0-1.955,1.188L34.891,0H33.654l1.285-7.4Zm4.5-2.885a2.086,2.086,0,0,1-.5,1.217,1.363,1.363,0,0,1-1.053.458,1,1,0,0,1-.461-.106q-.208-.106-.414-.236a4.19,4.19,0,0,0-.417-.232.974.974,0,0,0-.458-.1q-.581.021-.793.766l-.834-.048a2.142,2.142,0,0,1,.509-1.23,1.326,1.326,0,0,1,1.063-.465,1.007,1.007,0,0,1,.345.058,3.409,3.409,0,0,1,.523.28,3.489,3.489,0,0,0,.53.284A.913.913,0,0,0,39-9.584q.588,0,.807-.772Zm4.717,2.755a2.666,2.666,0,0,1,1.593.506A2.874,2.874,0,0,1,47.9-5.67a4.2,4.2,0,0,1,.215,1.89l-.014.15a4.975,4.975,0,0,1-.643,1.952A3.77,3.77,0,0,1,46.13-.321a3.234,3.234,0,0,1-1.784.458,2.671,2.671,0,0,1-1.589-.506,2.809,2.809,0,0,1-.974-1.34,4.314,4.314,0,0,1-.219-1.866,5.04,5.04,0,0,1,.622-2.064,3.858,3.858,0,0,1,1.336-1.418A3.2,3.2,0,0,1,45.323-7.533ZM42.807-3.568a4.2,4.2,0,0,0,0,.9,2.194,2.194,0,0,0,.482,1.285,1.447,1.447,0,0,0,1.1.5,1.971,1.971,0,0,0,1.135-.3,2.554,2.554,0,0,0,.875-.981,4.131,4.131,0,0,0,.458-1.456,6.558,6.558,0,0,0,.021-1.06A2.277,2.277,0,0,0,46.383-6,1.479,1.479,0,0,0,45.275-6.5a2.016,2.016,0,0,0-1.627.752,3.715,3.715,0,0,0-.827,2.023Zm10.008-.144a5.755,5.755,0,0,1,.622-2.037,3.527,3.527,0,0,1,1.2-1.36A2.736,2.736,0,0,1,56.2-7.54a2.31,2.31,0,0,1,1.9.9L58.81-10.5h1.237L58.229,0H57.1l.13-.793a2.727,2.727,0,0,1-2.16.93,2.043,2.043,0,0,1-1.634-.8,3.5,3.5,0,0,1-.656-2.082A6.648,6.648,0,0,1,52.815-3.712ZM54-3.005a2.563,2.563,0,0,0,.349,1.516,1.258,1.258,0,0,0,1.08.553,2.235,2.235,0,0,0,1.907-1.079l.588-3.414a1.535,1.535,0,0,0-1.49-1.038,1.875,1.875,0,0,0-1.289.44,2.849,2.849,0,0,0-.848,1.29A5.322,5.322,0,0,0,54-3.005ZM63.384.137a2.667,2.667,0,0,1-2.16-1.019,3.505,3.505,0,0,1-.656-2.536l.034-.294a4.921,4.921,0,0,1,.653-2.01,3.8,3.8,0,0,1,1.309-1.371,3.054,3.054,0,0,1,1.668-.441,2.352,2.352,0,0,1,1.791.759,3.121,3.121,0,0,1,.711,1.982,5.793,5.793,0,0,1-.027.889l-.075.567H61.8a2.5,2.5,0,0,0,.332,1.709A1.57,1.57,0,0,0,63.486-.9,2.631,2.631,0,0,0,65.51-1.88l.711.6a3.253,3.253,0,0,1-1.2,1.049A3.4,3.4,0,0,1,63.384.137ZM64.17-6.5a1.807,1.807,0,0,0-1.336.52,3.693,3.693,0,0,0-.906,1.606l3.6.007.027-.109a2.024,2.024,0,0,0-.277-1.432A1.3,1.3,0,0,0,64.17-6.5ZM74.075.137a2.667,2.667,0,0,1-2.16-1.019,3.505,3.505,0,0,1-.656-2.536l.034-.294a4.921,4.921,0,0,1,.653-2.01,3.8,3.8,0,0,1,1.309-1.371,3.054,3.054,0,0,1,1.668-.441,2.352,2.352,0,0,1,1.791.759,3.121,3.121,0,0,1,.711,1.982A5.793,5.793,0,0,1,77.4-3.9l-.075.567H72.489a2.5,2.5,0,0,0,.332,1.709A1.57,1.57,0,0,0,74.178-.9,2.631,2.631,0,0,0,76.2-1.88l.711.6a3.253,3.253,0,0,1-1.2,1.049A3.4,3.4,0,0,1,74.075.137ZM74.861-6.5a1.807,1.807,0,0,0-1.336.52,3.693,3.693,0,0,0-.906,1.606l3.6.007.027-.109a2.024,2.024,0,0,0-.277-1.432A1.3,1.3,0,0,0,74.861-6.5Zm5.729-.9-.178.937a2.916,2.916,0,0,1,2.27-1.066,1.835,1.835,0,0,1,1.545.725A2.815,2.815,0,0,1,84.6-4.847L83.789,0H82.552l.813-4.862a2.592,2.592,0,0,0,.007-.621,1.022,1.022,0,0,0-1.128-.976,2.329,2.329,0,0,0-1.955,1.188L79.373,0H78.136l1.285-7.4Zm8.374-1.784L88.649-7.4H90l-.171.978h-1.34l-.772,4.6a1.6,1.6,0,0,0-.007.328.521.521,0,0,0,.581.533,3.544,3.544,0,0,0,.6-.068l-.1,1.032a3.366,3.366,0,0,1-.9.123,1.292,1.292,0,0,1-1.107-.543A2.1,2.1,0,0,1,86.5-1.839l.752-4.58H85.942l.171-.978h1.306l.314-1.791ZM94.8-6.269l-.581-.062a2.117,2.117,0,0,0-1.873,1.073L91.438,0H90.2l1.285-7.4,1.2-.007-.185.861a2.211,2.211,0,0,1,1.853-1,2.27,2.27,0,0,1,.588.1ZM98.835,0a1.657,1.657,0,0,1-.048-.39l.021-.39a3.032,3.032,0,0,1-2.16.916,2.21,2.21,0,0,1-1.589-.619A1.872,1.872,0,0,1,94.5-2,2.277,2.277,0,0,1,95.53-3.832a4.38,4.38,0,0,1,2.526-.66l1.292.007.082-.588a1.352,1.352,0,0,0-.256-1.049,1.237,1.237,0,0,0-.974-.4,1.908,1.908,0,0,0-1.125.311,1.324,1.324,0,0,0-.6.858l-1.244.007A1.983,1.983,0,0,1,95.738-6.5a2.943,2.943,0,0,1,1.142-.779,3.688,3.688,0,0,1,1.442-.263,2.452,2.452,0,0,1,1.8.7,2.173,2.173,0,0,1,.54,1.788l-.6,3.664-.034.526a2.58,2.58,0,0,0,.082.745L100.093,0ZM96.894-.957a2.158,2.158,0,0,0,1.125-.284,2.847,2.847,0,0,0,.913-.824L99.2-3.589,98.261-3.6a3.547,3.547,0,0,0-1.791.369,1.36,1.36,0,0,0-.7,1.046,1.059,1.059,0,0,0,.243.865A1.156,1.156,0,0,0,96.894-.957Zm5.229-2.755a5.755,5.755,0,0,1,.622-2.037,3.527,3.527,0,0,1,1.2-1.36,2.736,2.736,0,0,1,1.565-.431,2.31,2.31,0,0,1,1.9.9l.711-3.862h1.237L107.537,0h-1.128l.13-.793a2.727,2.727,0,0,1-2.16.93,2.043,2.043,0,0,1-1.634-.8,3.5,3.5,0,0,1-.656-2.082A6.647,6.647,0,0,1,102.123-3.712Zm1.189.707a2.563,2.563,0,0,0,.349,1.516,1.258,1.258,0,0,0,1.08.553,2.235,2.235,0,0,0,1.907-1.079l.588-3.414a1.535,1.535,0,0,0-1.49-1.038,1.875,1.875,0,0,0-1.289.44,2.849,2.849,0,0,0-.848,1.29A5.321,5.321,0,0,0,103.313-3.005ZM114.018,0a1.657,1.657,0,0,1-.048-.39l.021-.39a3.032,3.032,0,0,1-2.16.916,2.21,2.21,0,0,1-1.589-.619A1.872,1.872,0,0,1,109.684-2a2.277,2.277,0,0,1,1.029-1.835,4.38,4.38,0,0,1,2.526-.66l1.292.007.082-.588a1.352,1.352,0,0,0-.256-1.049,1.237,1.237,0,0,0-.974-.4,1.908,1.908,0,0,0-1.125.311,1.324,1.324,0,0,0-.6.858l-1.244.007a1.983,1.983,0,0,1,.506-1.152,2.943,2.943,0,0,1,1.142-.779,3.688,3.688,0,0,1,1.442-.263,2.452,2.452,0,0,1,1.8.7,2.173,2.173,0,0,1,.54,1.788l-.6,3.664-.034.526a2.58,2.58,0,0,0,.082.745L115.276,0Zm-1.941-.957a2.158,2.158,0,0,0,1.125-.284,2.847,2.847,0,0,0,.913-.824l.267-1.524-.937-.007a3.547,3.547,0,0,0-1.791.369,1.36,1.36,0,0,0-.7,1.046,1.059,1.059,0,0,0,.243.865A1.156,1.156,0,0,0,112.076-.957Zm9-3.056a12.941,12.941,0,0,1,.837-3.076,9.532,9.532,0,0,1,1.5-2.553,6.164,6.164,0,0,1,1.982-1.6l.185.848A7.1,7.1,0,0,0,123.742-8.3a10.746,10.746,0,0,0-1.186,3.063,14.73,14.73,0,0,0-.4,3.5,7.744,7.744,0,0,0,.366,2.492,3.932,3.932,0,0,0,1.056,1.7l-.308.766A4.936,4.936,0,0,1,121.52.868a9.043,9.043,0,0,1-.55-3.555,10.808,10.808,0,0,1,.1-1.251ZM127.546-7.4l-.178.937a2.916,2.916,0,0,1,2.27-1.066,1.835,1.835,0,0,1,1.545.725,2.815,2.815,0,0,1,.369,1.962L130.745,0h-1.237l.813-4.862a2.592,2.592,0,0,0,.007-.621A1.022,1.022,0,0,0,129.2-6.46a2.329,2.329,0,0,0-1.955,1.188L126.329,0h-1.237l1.285-7.4ZM136.18-4a12.684,12.684,0,0,1-.868,3.155A9.486,9.486,0,0,1,133.8,1.665a6.268,6.268,0,0,1-1.945,1.555l-.191-.786A8.976,8.976,0,0,0,134.8-3.233a14.73,14.73,0,0,0,.3-3.028,5.572,5.572,0,0,0-1.422-4.2l.321-.766a4.532,4.532,0,0,1,1.3,1.418,6.689,6.689,0,0,1,.779,2.058,10.537,10.537,0,0,1,.222,2.43,11.676,11.676,0,0,1-.1,1.251Z" transform="translate(297.851 413.634)" fill="#12263f"/>
      </g>
    </g>
  </g>
</svg>
