<svg xmlns="http://www.w3.org/2000/svg" width="277.83" height="323.944" viewBox="0 0 277.83 323.944">
  <g id="Grupo_90673" data-name="Grupo 90673" transform="translate(-986.5 -6825.5)">
    <g id="Capa_1" data-name="Capa 1" transform="translate(959.16 6799.22)">
      <rect id="Rectángulo_37840" data-name="Rectángulo 37840" width="276.83" height="40" transform="translate(27.84 26.78)" fill="#edffff" stroke="#12263f" stroke-miterlimit="10" stroke-width="1"/>
      <rect id="Rectángulo_37841" data-name="Rectángulo 37841" width="124.13" height="40" transform="translate(27.84 101.57)" fill="#edffff" stroke="#12263f" stroke-miterlimit="10" stroke-width="1"/>
      <rect id="Rectángulo_37842" data-name="Rectángulo 37842" width="126.41" height="40" transform="translate(178.26 101.57)" fill="#edffff" stroke="#12263f" stroke-miterlimit="10" stroke-width="1"/>
      <rect id="Rectángulo_37843" data-name="Rectángulo 37843" width="29.28" height="40" transform="translate(27.84 176.35)" fill="#edffff" stroke="#12263f" stroke-miterlimit="10" stroke-width="1"/>
      <rect id="Rectángulo_37844" data-name="Rectángulo 37844" width="29.28" height="40" transform="translate(88.46 249.71)" fill="#edffff" stroke="#12263f" stroke-miterlimit="10" stroke-width="1"/>
      <rect id="Rectángulo_37845" data-name="Rectángulo 37845" width="29.28" height="40" transform="translate(275.39 249.71)" fill="#edffff" stroke="#12263f" stroke-miterlimit="10" stroke-width="1"/>
      <rect id="Rectángulo_37846" data-name="Rectángulo 37846" width="29.28" height="40" transform="translate(182.26 176.35)" fill="#edffff" stroke="#12263f" stroke-miterlimit="10" stroke-width="1"/>
      <rect id="Rectángulo_37847" data-name="Rectángulo 37847" width="60.2" height="40" transform="translate(89.91 176.35)" fill="#edffff" stroke="#12263f" stroke-miterlimit="10" stroke-width="1"/>
      <rect id="Rectángulo_37848" data-name="Rectángulo 37848" width="60.2" height="40" transform="translate(244.47 176.35)" fill="#edffff" stroke="#12263f" stroke-miterlimit="10" stroke-width="1"/>
      <rect id="Rectángulo_37849" data-name="Rectángulo 37849" width="39" height="28.28" transform="translate(56.63 27.28) rotate(90)" fill="#91e6dd"/>
      <rect id="Rectángulo_37850" data-name="Rectángulo 37850" width="39" height="28.28" transform="translate(56.63 102.06) rotate(90)" fill="#91e6dd"/>
      <rect id="Rectángulo_37851" data-name="Rectángulo 37851" width="39" height="28.28" transform="translate(207.05 102.06) rotate(90)" fill="#91e6dd"/>
      <rect id="Rectángulo_37852" data-name="Rectángulo 37852" width="39" height="25.23" transform="translate(270.21 176.85) rotate(90)" fill="#91e6dd"/>
      <rect id="Rectángulo_37853" data-name="Rectángulo 37853" width="39" height="25.23" transform="translate(115.72 176.85) rotate(90)" fill="#91e6dd"/>
      <g id="Grupo_88269" data-name="Grupo 88269">
        <path id="Trazado_162802" data-name="Trazado 162802" d="M38.63,44.48l.66-5.78h6.37v1.89H41.14L40.86,43a3.67,3.67,0,0,1,1.71-.43,3.31,3.31,0,0,1,2.55,1A4,4,0,0,1,46,46.43a4.13,4.13,0,0,1-.47,2,3.26,3.26,0,0,1-1.33,1.35,4.17,4.17,0,0,1-2.05.48,4.4,4.4,0,0,1-1.91-.41,3.35,3.35,0,0,1-1.39-1.18,3.12,3.12,0,0,1-.55-1.73h2.24A1.64,1.64,0,0,0,41.07,48a1.61,1.61,0,0,0,1.12.39,1.39,1.39,0,0,0,1.18-.55,2.55,2.55,0,0,0,.41-1.55,2.1,2.1,0,0,0-.48-1.49,1.73,1.73,0,0,0-1.3-.49,2,2,0,0,0-1.3.42l-.22.2Z"/>
        <path id="Trazado_162803" data-name="Trazado 162803" d="M76.57,50.08h-7.8V48.53l3.68-3.92a8.259,8.259,0,0,0,1.12-1.45A2.25,2.25,0,0,0,73.94,42a1.72,1.72,0,0,0-.39-1.19,1.37,1.37,0,0,0-1.09-.43,1.48,1.48,0,0,0-1.21.53,2.09,2.09,0,0,0-.44,1.38H68.55a3.76,3.76,0,0,1,.49-1.9A3.48,3.48,0,0,1,70.44,39a4.24,4.24,0,0,1,2.06-.49,4.05,4.05,0,0,1,2.73.84,3,3,0,0,1,1,2.38,3.7,3.7,0,0,1-.44,1.72,9.14,9.14,0,0,1-1.5,2l-2.58,2.73H76.6Z"/>
        <path id="Trazado_162804" data-name="Trazado 162804" d="M107,40l-4.4,10.12h-2.4l4.41-9.56H99V38.7h8Z"/>
        <path id="Trazado_162805" data-name="Trazado 162805" d="M132,43.39h1.2a1.69,1.69,0,0,0,1.3-.39,1.59,1.59,0,0,0,.41-1.14,1.37,1.37,0,0,0-.41-1.07,1.61,1.61,0,0,0-1.13-.38,1.69,1.69,0,0,0-1.08.35,1.16,1.16,0,0,0-.44.93h-2.26a2.79,2.79,0,0,1,.48-1.6,3.15,3.15,0,0,1,1.35-1.1,4.4,4.4,0,0,1,1.9-.4,4.31,4.31,0,0,1,2.83.86,3,3,0,0,1,1,2.38,2.4,2.4,0,0,1-.48,1.44,3,3,0,0,1-1.25,1,2.88,2.88,0,0,1,1.44,1,2.81,2.81,0,0,1,.47,1.62,3,3,0,0,1-1.11,2.43,4.42,4.42,0,0,1-2.92.91,4.21,4.21,0,0,1-2.79-.89A2.94,2.94,0,0,1,129.45,47h2.26a1.31,1.31,0,0,0,.48,1,1.76,1.76,0,0,0,1.18.4,1.78,1.78,0,0,0,1.26-.42,1.46,1.46,0,0,0,.46-1.13c0-1.14-.62-1.7-1.87-1.7H132Z"/>
        <path id="Trazado_162806" data-name="Trazado 162806" d="M165.69,50.08h-2.26v-8.7l-2.7.83V40.38l4.71-1.69h.25Z"/>
        <path id="Trazado_162807" data-name="Trazado 162807" d="M198.09,41.73a2.71,2.71,0,0,1-.41,1.47,3.13,3.13,0,0,1-1.14,1,3.22,3.22,0,0,1,1.31,1.1,2.81,2.81,0,0,1,.48,1.64,3,3,0,0,1-1,2.4,4.95,4.95,0,0,1-5.62,0,3,3,0,0,1-1-2.39,2.86,2.86,0,0,1,.48-1.65,3.23,3.23,0,0,1,1.3-1.09,3,3,0,0,1-1.13-1,2.63,2.63,0,0,1-.41-1.47,3,3,0,0,1,1-2.32,4.47,4.47,0,0,1,5.26,0,2.94,2.94,0,0,1,.88,2.31Zm-2,5.07a1.67,1.67,0,0,0-.43-1.19,1.71,1.71,0,0,0-2.31,0,1.65,1.65,0,0,0-.43,1.19,1.61,1.61,0,0,0,.43,1.17,1.76,1.76,0,0,0,2.32,0,1.61,1.61,0,0,0,.4-1.17Zm-.24-5a1.53,1.53,0,0,0-.35-1.07,1.23,1.23,0,0,0-1-.4,1.28,1.28,0,0,0-1,.39,1.58,1.58,0,0,0-.35,1.08,1.66,1.66,0,0,0,.35,1.09,1.41,1.41,0,0,0,2,0,1.65,1.65,0,0,0,.33-1.05Z"/>
        <path id="Trazado_162808" data-name="Trazado 162808" d="M229,50.08h-7.8V48.53l3.68-3.92A8.26,8.26,0,0,0,226,43.16a2.25,2.25,0,0,0,.37-1.17,1.72,1.72,0,0,0-.39-1.19,1.37,1.37,0,0,0-1.09-.43,1.48,1.48,0,0,0-1.21.53,2.09,2.09,0,0,0-.44,1.38h-2.26a3.76,3.76,0,0,1,.49-1.9,3.48,3.48,0,0,1,1.4-1.34,4.24,4.24,0,0,1,2.06-.49,4.05,4.05,0,0,1,2.73.84,3,3,0,0,1,1,2.38,3.8,3.8,0,0,1-.43,1.72,9.83,9.83,0,0,1-1.5,2l-2.59,2.73H229Z"/>
        <path id="Trazado_162809" data-name="Trazado 162809" d="M257.75,38.59v1.86h-.21a3.83,3.83,0,0,0-2.47.79A3.23,3.23,0,0,0,254,43.39a3.09,3.09,0,0,1,2.29-.92,2.9,2.9,0,0,1,2.36,1.06,4.28,4.28,0,0,1,.87,2.8,4.2,4.2,0,0,1-.48,2,3.37,3.37,0,0,1-1.36,1.39,3.87,3.87,0,0,1-2,.5,3.68,3.68,0,0,1-2.9-1.25,4.86,4.86,0,0,1-1.1-3.33v-.81a7.22,7.22,0,0,1,.7-3.27,5.08,5.08,0,0,1,2-2.2,5.85,5.85,0,0,1,3-.78Zm-2.2,5.7a1.81,1.81,0,0,0-1,.28,1.73,1.73,0,0,0-.66.76V46a3,3,0,0,0,.45,1.77,1.52,1.52,0,0,0,2.42.06,2.69,2.69,0,0,0,0-3,1.48,1.48,0,0,0-1.21-.54Z"/>
        <path id="Trazado_162810" data-name="Trazado 162810" d="M287.39,45.53a2.86,2.86,0,0,1-2.07.87,3,3,0,0,1-2.41-1,4.11,4.11,0,0,1-.91-2.79,4.43,4.43,0,0,1,.49-2,3.59,3.59,0,0,1,1.36-1.45,3.77,3.77,0,0,1,2-.52,3.55,3.55,0,0,1,3.36,2.18,5.73,5.73,0,0,1,.5,2.41V44a6.62,6.62,0,0,1-1.42,4.47,5.34,5.34,0,0,1-4,1.73h-.55V48.31h.5C286.16,48.21,287.22,47.29,287.39,45.53Zm-1.51-.86a1.56,1.56,0,0,0,.94-.28,1.94,1.94,0,0,0,.6-.68v-.93A3.12,3.12,0,0,0,287,41a1.35,1.35,0,0,0-1.17-.63,1.3,1.3,0,0,0-1.12.62,2.64,2.64,0,0,0-.44,1.56,2.56,2.56,0,0,0,.43,1.52A1.38,1.38,0,0,0,285.88,44.67Z"/>
        <path id="Trazado_162811" data-name="Trazado 162811" d="M46.09,125.08H38.3v-1.55l3.7-3.92a9.37,9.37,0,0,0,1.12-1.45,2.33,2.33,0,0,0,.36-1.17,1.77,1.77,0,0,0-.38-1.19,1.39,1.39,0,0,0-1.1-.43,1.45,1.45,0,0,0-1.2.53,2,2,0,0,0-.44,1.38H38.07a3.77,3.77,0,0,1,.5-1.9A3.42,3.42,0,0,1,40,114a4.2,4.2,0,0,1,2.05-.49,4.05,4.05,0,0,1,2.73.84,3,3,0,0,1,1,2.38,3.82,3.82,0,0,1-.44,1.72,9.14,9.14,0,0,1-1.5,2l-2.59,2.73h4.89Z"/>
        <path id="Trazado_162812" data-name="Trazado 162812" d="M71.07,118.39h1.2a1.69,1.69,0,0,0,1.28-.43,1.59,1.59,0,0,0,.41-1.14,1.41,1.41,0,0,0-.41-1.07,1.61,1.61,0,0,0-1.13-.38,1.74,1.74,0,0,0-1.09.35,1.15,1.15,0,0,0-.43.93H68.64a2.79,2.79,0,0,1,.48-1.6,3.18,3.18,0,0,1,1.34-1.1,4.45,4.45,0,0,1,1.91-.4,4.26,4.26,0,0,1,2.82.86,2.94,2.94,0,0,1,1,2.38,2.4,2.4,0,0,1-.48,1.44,3.09,3.09,0,0,1-1.25,1,2.8,2.8,0,0,1,1.43,1,2.74,2.74,0,0,1,.48,1.62,3,3,0,0,1-1.11,2.43,4.44,4.44,0,0,1-2.92.91,4.21,4.21,0,0,1-2.79-.89A2.94,2.94,0,0,1,68.5,122h2.26a1.31,1.31,0,0,0,.48,1.05,1.76,1.76,0,0,0,1.18.4,1.78,1.78,0,0,0,1.26-.42,1.46,1.46,0,0,0,.46-1.13c0-1.14-.63-1.7-1.88-1.7H71.07Z"/>
        <path id="Trazado_162813" data-name="Trazado 162813" d="M104.73,125.08h-2.25v-8.7l-2.7.83v-1.83l4.71-1.69h.24Z"/>
        <path id="Trazado_162814" data-name="Trazado 162814" d="M137.52,125.08h-7.8v-1.55l3.68-3.92a8.92,8.92,0,0,0,1.13-1.45,2.33,2.33,0,0,0,.36-1.17,1.77,1.77,0,0,0-.38-1.19,1.39,1.39,0,0,0-1.1-.43,1.45,1.45,0,0,0-1.2.53,2,2,0,0,0-.45,1.38H129.5a3.76,3.76,0,0,1,.49-1.9A3.44,3.44,0,0,1,131.4,114a4.2,4.2,0,0,1,2-.49,4.05,4.05,0,0,1,2.73.84,3,3,0,0,1,1,2.38,3.8,3.8,0,0,1-.43,1.72,9.14,9.14,0,0,1-1.5,2l-2.59,2.73h4.89Z"/>
        <path id="Trazado_162815" data-name="Trazado 162815" d="M161,119.38l.57-5.68h5.83V115h-4.6l-.34,3.1a3.63,3.63,0,0,1,1.9-.49,3.1,3.1,0,0,1,2.46,1,4,4,0,0,1,.92,2.77,3.88,3.88,0,0,1-.95,2.77,3.44,3.44,0,0,1-2.65,1,3.56,3.56,0,0,1-2.46-.83,3.34,3.34,0,0,1-1.09-2.31H162a2.32,2.32,0,0,0,.69,1.47,2.18,2.18,0,0,0,1.49.5,1.94,1.94,0,0,0,1.58-.69,2.89,2.89,0,0,0,.57-1.9,2.6,2.6,0,0,0-.62-1.83,2.1,2.1,0,0,0-1.65-.69,2.35,2.35,0,0,0-1.48.41l-.39.31Z"/>
        <path id="Trazado_162816" data-name="Trazado 162816" d="M198.19,115l-4.4,10.12h-2.38l4.41-9.56h-5.66V113.7h8Z"/>
        <path id="Trazado_162817" data-name="Trazado 162817" d="M228.35,116.73a2.63,2.63,0,0,1-.42,1.47,3,3,0,0,1-1.14,1,3.25,3.25,0,0,1,1.32,1.1,2.81,2.81,0,0,1,.48,1.64,3,3,0,0,1-1,2.4,4.95,4.95,0,0,1-5.62,0,3,3,0,0,1-1-2.39,2.79,2.79,0,0,1,.49-1.65,3.23,3.23,0,0,1,1.3-1.09,3,3,0,0,1-1.13-1,2.63,2.63,0,0,1-.41-1.47,3,3,0,0,1,1-2.32,4.49,4.49,0,0,1,5.27,0,3,3,0,0,1,.86,2.31Zm-2,5.07a1.66,1.66,0,0,0-.42-1.19,1.54,1.54,0,0,0-1.16-.45,1.52,1.52,0,0,0-1.15.45,1.61,1.61,0,0,0-.43,1.19,1.65,1.65,0,0,0,.42,1.17,1.52,1.52,0,0,0,1.17.44,1.54,1.54,0,0,0,1.16-.43,1.6,1.6,0,0,0,.38-1.18Zm-.23-5a1.58,1.58,0,0,0-.35-1.07,1.25,1.25,0,0,0-1-.4,1.27,1.27,0,0,0-1,.39,1.58,1.58,0,0,0-.35,1.08,1.66,1.66,0,0,0,.35,1.09,1.23,1.23,0,0,0,1,.41,1.2,1.2,0,0,0,1-.41,1.66,1.66,0,0,0,.32-1.05Z"/>
        <path id="Trazado_162818" data-name="Trazado 162818" d="M257.54,113.59v1.86h-.22a3.84,3.84,0,0,0-2.47.79,3.27,3.27,0,0,0-1.12,2.15,3.09,3.09,0,0,1,2.29-.92,2.89,2.89,0,0,1,2.36,1.06,4.28,4.28,0,0,1,.87,2.8,4.2,4.2,0,0,1-.48,2,3.37,3.37,0,0,1-1.36,1.39,3.84,3.84,0,0,1-2,.5,3.68,3.68,0,0,1-2.91-1.25,4.86,4.86,0,0,1-1.1-3.33v-.81a7.22,7.22,0,0,1,.7-3.27,5.08,5.08,0,0,1,2-2.2,5.85,5.85,0,0,1,3-.78Zm-2.21,5.7a1.81,1.81,0,0,0-1,.28,1.73,1.73,0,0,0-.66.76V121a3,3,0,0,0,.45,1.77,1.44,1.44,0,0,0,1.25.63,1.41,1.41,0,0,0,1.17-.57,2.69,2.69,0,0,0,0-3,1.48,1.48,0,0,0-1.21-.54Z"/>
        <path id="Trazado_162819" data-name="Trazado 162819" d="M287.17,120.53a2.86,2.86,0,0,1-2.07.87,3,3,0,0,1-2.41-1,4.11,4.11,0,0,1-.91-2.79,4.43,4.43,0,0,1,.49-2,3.55,3.55,0,0,1,1.37-1.45,3.73,3.73,0,0,1,2-.52,3.55,3.55,0,0,1,3.36,2.18,5.73,5.73,0,0,1,.5,2.41V119a6.57,6.57,0,0,1-1.42,4.47,5.34,5.34,0,0,1-4,1.73h-.55v-1.88h.5C285.94,123.21,287,122.29,287.17,120.53Zm-1.51-.86a1.56,1.56,0,0,0,.94-.28,1.94,1.94,0,0,0,.6-.68v-.93a3.12,3.12,0,0,0-.44-1.78,1.35,1.35,0,0,0-1.17-.63,1.31,1.31,0,0,0-1.12.62,2.64,2.64,0,0,0-.44,1.56,2.56,2.56,0,0,0,.43,1.52,1.38,1.38,0,0,0,1.2.6Z"/>
        <path id="Trazado_162820" data-name="Trazado 162820" d="M43.78,200.08H41.52v-8.7l-2.69.83v-1.83l4.71-1.69h.24Z"/>
        <path id="Trazado_162821" data-name="Trazado 162821" d="M76.4,200.08H68.94v-1l3.94-4.38a8.739,8.739,0,0,0,1.21-1.61,2.68,2.68,0,0,0,.33-1.28,2,2,0,0,0-.54-1.46,1.9,1.9,0,0,0-1.44-.58,2.23,2.23,0,0,0-1.67.62,2.34,2.34,0,0,0-.6,1.71H68.73a3.32,3.32,0,0,1,1-2.54,3.71,3.71,0,0,1,2.7-1,3.57,3.57,0,0,1,2.51.83,2.8,2.8,0,0,1,.92,2.21c0,1.12-.71,2.46-2.14,4l-3,3.31H76.4Z"/>
        <path id="Trazado_162822" data-name="Trazado 162822" d="M101.33,193.39h1.2a1.67,1.67,0,0,0,1.27-.43,1.56,1.56,0,0,0,.42-1.14,1.41,1.41,0,0,0-.41-1.07,1.62,1.62,0,0,0-1.13-.38,1.72,1.72,0,0,0-1.09.35,1.16,1.16,0,0,0-.44.93H98.9a2.79,2.79,0,0,1,.48-1.6,3.18,3.18,0,0,1,1.34-1.1,4.43,4.43,0,0,1,1.9-.4,4.27,4.27,0,0,1,2.83.86,3,3,0,0,1,1,2.38,2.4,2.4,0,0,1-.48,1.44,3.16,3.16,0,0,1-1.25,1,2.8,2.8,0,0,1,1.43,1,2.74,2.74,0,0,1,.47,1.62,3,3,0,0,1-1.1,2.43,4.45,4.45,0,0,1-2.93.91,4.2,4.2,0,0,1-2.78-.89,2.94,2.94,0,0,1-1.05-2.3H101a1.31,1.31,0,0,0,.48,1,2,2,0,0,0,2.45,0,1.5,1.5,0,0,0,.46-1.13c0-1.14-.63-1.7-1.88-1.7h-1.19Z"/>
        <path id="Trazado_162823" data-name="Trazado 162823" d="M137.3,200.08h-7.79v-1.55l3.68-3.92a9.371,9.371,0,0,0,1.12-1.45,2.33,2.33,0,0,0,.36-1.17,1.77,1.77,0,0,0-.38-1.19,1.39,1.39,0,0,0-1.1-.43,1.45,1.45,0,0,0-1.2.53,2,2,0,0,0-.45,1.38h-2.26a3.67,3.67,0,0,1,.5-1.9,3.42,3.42,0,0,1,1.4-1.34,4.2,4.2,0,0,1,2-.49,4.05,4.05,0,0,1,2.73.84,3,3,0,0,1,1,2.38,3.82,3.82,0,0,1-.44,1.72,9.14,9.14,0,0,1-1.5,2l-2.59,2.73h4.89Z"/>
        <path id="Trazado_162824" data-name="Trazado 162824" d="M160.82,194.38l.58-5.68h5.82V190h-4.6l-.34,3.1a3.66,3.66,0,0,1,1.9-.49,3.14,3.14,0,0,1,2.47,1,4,4,0,0,1,.91,2.77,3.88,3.88,0,0,1-.95,2.77,3.44,3.44,0,0,1-2.65,1,3.56,3.56,0,0,1-2.46-.83,3.34,3.34,0,0,1-1.09-2.31h1.37a2.32,2.32,0,0,0,.69,1.47,2.18,2.18,0,0,0,1.49.5,1.94,1.94,0,0,0,1.58-.69,2.89,2.89,0,0,0,.57-1.9,2.6,2.6,0,0,0-.62-1.83,2.1,2.1,0,0,0-1.65-.69,2.35,2.35,0,0,0-1.48.41l-.39.31Z"/>
        <path id="Trazado_162825" data-name="Trazado 162825" d="M196.36,188.59v1.86h-.21a3.83,3.83,0,0,0-2.47.79,3.23,3.23,0,0,0-1.12,2.15,3.09,3.09,0,0,1,2.29-.92,2.9,2.9,0,0,1,2.36,1.06,4.28,4.28,0,0,1,.87,2.8,4.2,4.2,0,0,1-.48,2,3.37,3.37,0,0,1-1.36,1.39,3.87,3.87,0,0,1-2,.5,3.68,3.68,0,0,1-2.9-1.25,4.86,4.86,0,0,1-1.1-3.33v-.81a7.22,7.22,0,0,1,.7-3.27,5.08,5.08,0,0,1,2-2.2,5.85,5.85,0,0,1,3-.78Zm-2.2,5.7a1.81,1.81,0,0,0-1,.28,1.73,1.73,0,0,0-.66.76V196a3,3,0,0,0,.45,1.77,1.52,1.52,0,0,0,2.42.06,2.69,2.69,0,0,0,0-3,1.48,1.48,0,0,0-1.21-.54Z"/>
        <path id="Trazado_162826" data-name="Trazado 162826" d="M228.23,189.52l-4.71,10.56H222l4.7-10.19h-6.16V188.7h7.69Z"/>
        <path id="Trazado_162827" data-name="Trazado 162827" d="M258.39,191.73a2.63,2.63,0,0,1-.42,1.47,3,3,0,0,1-1.14,1,3.22,3.22,0,0,1,1.31,1.1,2.74,2.74,0,0,1,.49,1.64,3,3,0,0,1-1,2.4,4.95,4.95,0,0,1-5.62,0,3,3,0,0,1-1-2.39,2.79,2.79,0,0,1,.49-1.65,3.16,3.16,0,0,1,1.3-1.09,3.13,3.13,0,0,1-1.14-1,2.71,2.71,0,0,1-.41-1.47,3,3,0,0,1,1-2.32,3.87,3.87,0,0,1,2.64-.86,3.81,3.81,0,0,1,2.62.85A3,3,0,0,1,258.39,191.73Zm-2,5.07a1.63,1.63,0,0,0-.43-1.19,1.69,1.69,0,0,0-2.3,0,1.61,1.61,0,0,0-.43,1.19,1.65,1.65,0,0,0,.42,1.17,1.52,1.52,0,0,0,1.17.44A1.54,1.54,0,0,0,256,198a1.64,1.64,0,0,0,.36-1.2Zm-.23-5a1.58,1.58,0,0,0-.35-1.07,1.25,1.25,0,0,0-1-.4,1.27,1.27,0,0,0-1,.39,1.58,1.58,0,0,0-.35,1.08,1.66,1.66,0,0,0,.35,1.09,1.23,1.23,0,0,0,1,.41,1.2,1.2,0,0,0,1-.41,1.66,1.66,0,0,0,.32-1.05Z"/>
        <path id="Trazado_162828" data-name="Trazado 162828" d="M286.73,195.53a2.85,2.85,0,0,1-2.06.87,3.07,3.07,0,0,1-2.42-1,4.1,4.1,0,0,1-.9-2.79,4.31,4.31,0,0,1,.49-2,3.53,3.53,0,0,1,1.36-1.45,3.74,3.74,0,0,1,2-.52,3.59,3.59,0,0,1,2,.56,3.71,3.71,0,0,1,1.36,1.62,5.89,5.89,0,0,1,.49,2.41V194a6.57,6.57,0,0,1-1.42,4.47,5.32,5.32,0,0,1-4,1.73H283v-1.88h.5C285.51,198.21,286.57,197.29,286.73,195.53Zm-1.51-.86a1.54,1.54,0,0,0,.94-.28,1.76,1.76,0,0,0,.6-.68v-.93a3,3,0,0,0-.44-1.78,1.35,1.35,0,0,0-1.17-.63A1.32,1.32,0,0,0,284,191a2.64,2.64,0,0,0-.43,1.56,2.55,2.55,0,0,0,.42,1.52,1.4,1.4,0,0,0,1.23.59Z"/>
        <path id="Trazado_162829" data-name="Trazado 162829" d="M43.22,275.08H41.77v-9.63l-2.92,1.07V265.2L43,263.65h.23Z"/>
        <path id="Trazado_162830" data-name="Trazado 162830" d="M77,275.08H69.49v-1l3.94-4.38a9.23,9.23,0,0,0,1.21-1.61,2.68,2.68,0,0,0,.33-1.28,2,2,0,0,0-.54-1.46,1.9,1.9,0,0,0-1.44-.58,2.22,2.22,0,0,0-1.67.62,2.34,2.34,0,0,0-.6,1.71H69.27a3.33,3.33,0,0,1,1-2.54,3.71,3.71,0,0,1,2.7-1,3.57,3.57,0,0,1,2.51.83,2.8,2.8,0,0,1,.92,2.21c0,1.12-.71,2.46-2.14,4l-3,3.31H77Z"/>
        <path id="Trazado_162831" data-name="Trazado 162831" d="M108.14,275.08h-7.79v-1.55l3.68-3.92a8.781,8.781,0,0,0,1.12-1.45,2.33,2.33,0,0,0,.36-1.17,1.77,1.77,0,0,0-.38-1.19,1.39,1.39,0,0,0-1.1-.43,1.45,1.45,0,0,0-1.2.53,2,2,0,0,0-.44,1.38h-2.27a3.77,3.77,0,0,1,.5-1.9A3.42,3.42,0,0,1,102,264a4.2,4.2,0,0,1,2-.49,4,4,0,0,1,2.73.84,3,3,0,0,1,1,2.38,3.82,3.82,0,0,1-.44,1.72,9.141,9.141,0,0,1-1.5,2l-2.59,2.73h4.89Z"/>
        <path id="Trazado_162832" data-name="Trazado 162832" d="M133.84,268.69h1.09a2.38,2.38,0,0,0,1.61-.54,1.8,1.8,0,0,0,.58-1.42,1.76,1.76,0,0,0-2-2,2.09,2.09,0,0,0-1.5.54,1.88,1.88,0,0,0-.55,1.42h-1.45a2.91,2.91,0,0,1,1-2.25,3.62,3.62,0,0,1,2.51-.89,3.54,3.54,0,0,1,2.52.85,3.09,3.09,0,0,1,.92,2.37,2.48,2.48,0,0,1-.48,1.43,2.88,2.88,0,0,1-1.31,1,2.82,2.82,0,0,1,1.45,1,2.75,2.75,0,0,1,.51,1.68,3.1,3.1,0,0,1-1,2.43,3.73,3.73,0,0,1-2.6.89,3.84,3.84,0,0,1-2.61-.86,2.87,2.87,0,0,1-1-2.29H133a1.87,1.87,0,0,0,.59,1.44,2.58,2.58,0,0,0,3.17,0,2.12,2.12,0,0,0,.55-1.57,1.92,1.92,0,0,0-.61-1.53,2.65,2.65,0,0,0-1.75-.54h-1.09Z"/>
        <path id="Trazado_162833" data-name="Trazado 162833" d="M163.43,269.38l.58-5.68h5.83V265h-4.61l-.34,3.1a3.659,3.659,0,0,1,1.9-.49,3.14,3.14,0,0,1,2.47,1,4,4,0,0,1,.91,2.77,3.88,3.88,0,0,1-.95,2.77,3.44,3.44,0,0,1-2.65,1,3.56,3.56,0,0,1-2.46-.83,3.34,3.34,0,0,1-1.09-2.31h1.37a2.28,2.28,0,0,0,.7,1.47,2.14,2.14,0,0,0,1.48.5,1.94,1.94,0,0,0,1.58-.69,2.89,2.89,0,0,0,.58-1.9,2.61,2.61,0,0,0-.63-1.83,2.1,2.1,0,0,0-1.65-.69,2.35,2.35,0,0,0-1.48.41l-.38.31Z"/>
        <path id="Trazado_162834" data-name="Trazado 162834" d="M199.46,263.7v1.22h-.26a3.83,3.83,0,0,0-2.69,1,4.2,4.2,0,0,0-1.16,2.73,3.09,3.09,0,0,1,2.46-1,3,3,0,0,1,2.37,1,4.62,4.62,0,0,1-.07,5.52,3.32,3.32,0,0,1-2.57,1.05,3.24,3.24,0,0,1-2.65-1.25,4.93,4.93,0,0,1-1-3.23v-.55a7.42,7.42,0,0,1,1.34-4.8,4.88,4.88,0,0,1,4-1.7Zm-1.9,5.12a2.46,2.46,0,0,0-2.23,1.56v.53a3.75,3.75,0,0,0,.63,2.27,1.91,1.91,0,0,0,1.58.86,1.86,1.86,0,0,0,1.54-.72,3,3,0,0,0,.55-1.88,3.06,3.06,0,0,0-.56-1.9,1.83,1.83,0,0,0-1.51-.72Z"/>
        <path id="Trazado_162835" data-name="Trazado 162835" d="M232.16,264.52l-4.71,10.56h-1.52l4.7-10.19h-6.16V263.7h7.69Z"/>
        <path id="Trazado_162836" data-name="Trazado 162836" d="M262.74,266.67a2.64,2.64,0,0,1-.45,1.52,3.07,3.07,0,0,1-1.21,1,3.32,3.32,0,0,1,1.41,1.11A2.87,2.87,0,0,1,263,272a3,3,0,0,1-1,2.35,4.4,4.4,0,0,1-5.25,0,3.17,3.17,0,0,1-.5-4.02,3.18,3.18,0,0,1,1.4-1.12,3,3,0,0,1-1.2-1,2.69,2.69,0,0,1-.43-1.51,2.91,2.91,0,0,1,.92-2.28,3.92,3.92,0,0,1,4.85,0A2.92,2.92,0,0,1,262.74,266.67ZM261.56,272a2.08,2.08,0,0,0-.61-1.56,2.14,2.14,0,0,0-1.58-.6,2.2,2.2,0,0,0-1.58,3.68,2.55,2.55,0,0,0,3.19,0A2,2,0,0,0,261.56,272Zm-2.17-7.25a1.87,1.87,0,0,0-1.38.53,2,2,0,0,0-.53,1.44,1.93,1.93,0,0,0,.52,1.4,1.88,1.88,0,0,0,1.39.53,1.84,1.84,0,0,0,1.38-.53,1.93,1.93,0,0,0,.52-1.4,2,2,0,0,0-.54-1.42,1.83,1.83,0,0,0-1.36-.57Z"/>
        <path id="Trazado_162837" data-name="Trazado 162837" d="M292,270.53a2.86,2.86,0,0,1-2.07.87,3,3,0,0,1-2.41-1,4.06,4.06,0,0,1-.91-2.79,4.43,4.43,0,0,1,.49-2.05,3.59,3.59,0,0,1,1.36-1.45,3.77,3.77,0,0,1,2-.52,3.55,3.55,0,0,1,3.36,2.18,5.73,5.73,0,0,1,.49,2.41V269a6.62,6.62,0,0,1-1.41,4.47,5.34,5.34,0,0,1-4,1.73h-.55v-1.88h.5C290.75,273.21,291.81,272.29,292,270.53Zm-1.51-.86a1.56,1.56,0,0,0,.94-.28,1.94,1.94,0,0,0,.6-.68v-.93a3.12,3.12,0,0,0-.44-1.78,1.35,1.35,0,0,0-1.17-.63,1.3,1.3,0,0,0-1.12.62,2.64,2.64,0,0,0-.44,1.56,2.49,2.49,0,0,0,.43,1.52,1.38,1.38,0,0,0,1.18.6Z"/>
        <path id="Trazado_162838" data-name="Trazado 162838" d="M43.22,350.08H41.77v-9.63l-2.92,1.07V340.2L43,338.65h.23Z"/>
        <path id="Trazado_162839" data-name="Trazado 162839" d="M77,350.08H69.49v-1l3.94-4.38a9.229,9.229,0,0,0,1.21-1.61,2.68,2.68,0,0,0,.33-1.28,2,2,0,0,0-.54-1.46,1.9,1.9,0,0,0-1.44-.58,2.22,2.22,0,0,0-1.67.62,2.34,2.34,0,0,0-.6,1.71H69.27a3.33,3.33,0,0,1,1-2.54,3.71,3.71,0,0,1,2.7-1,3.57,3.57,0,0,1,2.51.83,2.8,2.8,0,0,1,.92,2.21c0,1.12-.71,2.46-2.14,4l-3,3.31H77Z"/>
        <path id="Trazado_162840" data-name="Trazado 162840" d="M108,350.08h-7.45v-1l3.94-4.38a9.07,9.07,0,0,0,1.2-1.61,2.69,2.69,0,0,0,.34-1.28,2,2,0,0,0-.54-1.46,1.9,1.9,0,0,0-1.44-.58,2.24,2.24,0,0,0-1.68.62,2.34,2.34,0,0,0-.59,1.71H100.3a3.36,3.36,0,0,1,1-2.54,3.75,3.75,0,0,1,2.71-1,3.59,3.59,0,0,1,2.51.83,2.84,2.84,0,0,1,.92,2.21c0,1.12-.72,2.46-2.14,4l-3,3.31H108Z"/>
        <path id="Trazado_162841" data-name="Trazado 162841" d="M133.65,343.69h1.08a2.38,2.38,0,0,0,1.61-.54,1.81,1.81,0,0,0,.59-1.42,1.77,1.77,0,0,0-2-2,2.05,2.05,0,0,0-1.49.54,1.89,1.89,0,0,0-.56,1.42h-1.45a2.91,2.91,0,0,1,1-2.25,3.63,3.63,0,0,1,2.51-.89,3.55,3.55,0,0,1,2.53.85,3.08,3.08,0,0,1,.91,2.37,2.48,2.48,0,0,1-.48,1.43,2.83,2.83,0,0,1-1.31,1,2.78,2.78,0,0,1,1.45,1,2.75,2.75,0,0,1,.51,1.68,3.1,3.1,0,0,1-1,2.43,3.72,3.72,0,0,1-2.6.89,3.81,3.81,0,0,1-2.6-.86,2.88,2.88,0,0,1-1-2.29h1.46a1.86,1.86,0,0,0,.58,1.44,2.23,2.23,0,0,0,1.57.54,2.2,2.2,0,0,0,1.6-.55,2.12,2.12,0,0,0,.56-1.57,1.92,1.92,0,0,0-.61-1.53,2.68,2.68,0,0,0-1.76-.54h-1.08Z"/>
        <path id="Trazado_162842" data-name="Trazado 162842" d="M163.23,344.38l.58-5.68h5.83V340H165l-.35,3.1a3.659,3.659,0,0,1,1.9-.49,3.12,3.12,0,0,1,2.47,1,4,4,0,0,1,.92,2.77,3.88,3.88,0,0,1-.95,2.77,3.46,3.46,0,0,1-2.66,1,3.59,3.59,0,0,1-2.46-.83,3.37,3.37,0,0,1-1.08-2.31h1.36a2.28,2.28,0,0,0,.7,1.47,2.16,2.16,0,0,0,1.48.5,2,2,0,0,0,1.59-.69,2.89,2.89,0,0,0,.57-1.9,2.65,2.65,0,0,0-.62-1.83,2.11,2.11,0,0,0-1.65-.69,2.38,2.38,0,0,0-1.49.41l-.38.31Z"/>
        <path id="Trazado_162843" data-name="Trazado 162843" d="M199.27,338.7v1.22H199a3.85,3.85,0,0,0-2.69,1,4.19,4.19,0,0,0-1.15,2.73,3.07,3.07,0,0,1,2.45-1,3,3,0,0,1,2.37,1,4.06,4.06,0,0,1,.89,2.71,4,4,0,0,1-1,2.81,3.3,3.3,0,0,1-2.57,1.05,3.22,3.22,0,0,1-2.6-1.22,4.94,4.94,0,0,1-1-3.23v-.55a7.48,7.48,0,0,1,1.34-4.8,4.89,4.89,0,0,1,4-1.7Zm-1.9,5.12a2.29,2.29,0,0,0-1.37.45,2.35,2.35,0,0,0-.87,1.11v.53a3.68,3.68,0,0,0,.64,2.27,1.89,1.89,0,0,0,1.57.86,1.83,1.83,0,0,0,1.54-.72,3.44,3.44,0,0,0,0-3.78,1.82,1.82,0,0,0-1.51-.72Z"/>
        <path id="Trazado_162844" data-name="Trazado 162844" d="M232,339.52l-4.71,10.56h-1.51l4.69-10.19h-6.15V338.7H232Z"/>
        <path id="Trazado_162845" data-name="Trazado 162845" d="M262.54,341.67a2.64,2.64,0,0,1-.45,1.52,3,3,0,0,1-1.21,1,3.32,3.32,0,0,1,1.41,1.11,2.8,2.8,0,0,1,.52,1.67,3,3,0,0,1-1,2.35,4.4,4.4,0,0,1-5.25,0,3,3,0,0,1-1-2.35,2.88,2.88,0,0,1,.5-1.67,3.15,3.15,0,0,1,1.39-1.12,3,3,0,0,1-1.19-1,2.7,2.7,0,0,1-.44-1.51,3,3,0,0,1,.92-2.28,3.93,3.93,0,0,1,4.86,0,2.91,2.91,0,0,1,.94,2.28ZM261.36,347a2.11,2.11,0,0,0-.6-1.56,2.16,2.16,0,0,0-1.58-.6,2.2,2.2,0,0,0-1.61,3.68,2.57,2.57,0,0,0,3.2,0,2,2,0,0,0,.59-1.52Zm-2.17-7.25a1.89,1.89,0,0,0-1.38.53,2.2,2.2,0,0,0,0,2.84,1.84,1.84,0,0,0,1.38.53,1.88,1.88,0,0,0,1.39-.53,1.93,1.93,0,0,0,.52-1.4,2,2,0,0,0-.54-1.42,1.87,1.87,0,0,0-1.37-.57Z"/>
        <path id="Trazado_162846" data-name="Trazado 162846" d="M292.21,345.08a3.511,3.511,0,0,1-1.08.87,3.24,3.24,0,0,1-3.1-.16,3.15,3.15,0,0,1-1.12-1.36,4.63,4.63,0,0,1-.4-1.95,4.7,4.7,0,0,1,.43-2.05,3.24,3.24,0,0,1,1.23-1.4,3.53,3.53,0,0,1,1.86-.48,3.17,3.17,0,0,1,2.66,1.26,5.49,5.49,0,0,1,1,3.44v.42c0,2.22-.43,3.83-1.31,4.85a5,5,0,0,1-4,1.57h-.28v-1.23h.3a3.457,3.457,0,0,0,3.81-3.78Zm-2.23,0a2.21,2.21,0,0,0,1.34-.45,2.59,2.59,0,0,0,.9-1.1V343a4,4,0,0,0-.62-2.31,1.88,1.88,0,0,0-3.09-.16,3,3,0,0,0-.58,1.93,3.07,3.07,0,0,0,.56,1.91,1.75,1.75,0,0,0,1.51.71Z"/>
      </g>
      <g id="Grupo_88270" data-name="Grupo 88270">
        <line id="Línea_643" data-name="Línea 643" x1="23.5" y2="30.44" transform="translate(46.91 67.05)" fill="none" stroke="#12263f" stroke-miterlimit="10" stroke-width="1"/>
        <path id="Trazado_162847" data-name="Trazado 162847" d="M44.77,94.55l-.93,6.91,6.46-2.65Z" fill="#12263f"/>
      </g>
      <g id="Grupo_88271" data-name="Grupo 88271">
        <line id="Línea_644" data-name="Línea 644" x2="118.52" y2="33.75" transform="translate(41.43 66.44)" fill="none" stroke="#12263f" stroke-miterlimit="10" stroke-width="1"/>
        <path id="Trazado_162848" data-name="Trazado 162848" d="M158.02,103.27l6.76-1.7-4.85-5.01Z" fill="#12263f"/>
      </g>
      <g id="Grupo_88272" data-name="Grupo 88272">
        <line id="Línea_645" data-name="Línea 645" x2="89.47" y2="32.4" transform="translate(100.29 66.75)" fill="none" stroke="#12263f" stroke-miterlimit="10" stroke-width="1"/>
        <path id="Trazado_162849" data-name="Trazado 162849" d="M187.61,102.08l6.87-1.22-4.49-5.34Z" fill="#12263f"/>
      </g>
      <g id="Grupo_88273" data-name="Grupo 88273">
        <line id="Línea_646" data-name="Línea 646" x1="51.61" y2="32.92" transform="translate(77.36 66.14)" fill="none" stroke="#12263f" stroke-miterlimit="10" stroke-width="1"/>
        <path id="Trazado_162850" data-name="Trazado 162850" d="M76.34,95.57l-3.22,6.19,6.98-.3Z" fill="#12263f"/>
      </g>
      <g id="Grupo_88274" data-name="Grupo 88274">
        <line id="Línea_647" data-name="Línea 647" x1="51.62" y2="32.92" transform="translate(110.47 66.14)" fill="none" stroke="#12263f" stroke-miterlimit="10" stroke-width="1"/>
        <path id="Trazado_162851" data-name="Trazado 162851" d="M109.46,95.57l-3.22,6.19,6.97-.3Z" fill="#12263f"/>
      </g>
      <g id="Grupo_88275" data-name="Grupo 88275">
        <line id="Línea_648" data-name="Línea 648" x2="27.18" y2="30.94" transform="translate(196.29 66.75)" fill="none" stroke="#12263f" stroke-miterlimit="10" stroke-width="1"/>
        <path id="Trazado_162852" data-name="Trazado 162852" d="M220.17,99.22l6.61,2.24-1.36-6.84Z" fill="#12263f"/>
      </g>
      <g id="Grupo_88276" data-name="Grupo 88276">
        <line id="Línea_649" data-name="Línea 649" x1="79.88" y2="32.81" transform="translate(143.58 67.05)" fill="none" stroke="#12263f" stroke-miterlimit="10" stroke-width="1"/>
        <path id="Trazado_162853" data-name="Trazado 162853" d="M143.2,96.24l-4.26,5.52,6.91.94Z" fill="#12263f"/>
      </g>
      <g id="Grupo_88277" data-name="Grupo 88277">
        <line id="Línea_650" data-name="Línea 650" y2="29.39" transform="translate(256.97 67.05)" fill="none" stroke="#12263f" stroke-miterlimit="10" stroke-width="1"/>
        <path id="Trazado_162854" data-name="Trazado 162854" d="M253.48,95.42l3.49,6.04,3.49-6.04Z" fill="#12263f"/>
      </g>
      <g id="Grupo_88278" data-name="Grupo 88278">
        <line id="Línea_651" data-name="Línea 651" y2="29.39" transform="translate(286.26 67.05)" fill="none" stroke="#12263f" stroke-miterlimit="10" stroke-width="1"/>
        <path id="Trazado_162855" data-name="Trazado 162855" d="M282.77,95.42l3.49,6.04,3.49-6.04Z" fill="#12263f"/>
      </g>
      <g id="Grupo_88279" data-name="Grupo 88279">
        <line id="Línea_652" data-name="Línea 652" y2="29.39" transform="translate(286.26 141.75)" fill="none" stroke="#12263f" stroke-miterlimit="10" stroke-width="1"/>
        <path id="Trazado_162856" data-name="Trazado 162856" d="M282.77,170.12l3.49,6.05,3.49-6.05Z" fill="#12263f"/>
      </g>
      <g id="Grupo_88280" data-name="Grupo 88280">
        <line id="Línea_653" data-name="Línea 653" y2="29.39" transform="translate(286.26 216.35)" fill="none" stroke="#12263f" stroke-miterlimit="10" stroke-width="1"/>
        <path id="Trazado_162857" data-name="Trazado 162857" d="M282.77,244.72l3.49,6.04,3.49-6.04Z" fill="#12263f"/>
      </g>
      <g id="Grupo_88281" data-name="Grupo 88281">
        <line id="Línea_654" data-name="Línea 654" y2="29.39" transform="translate(196.38 216.35)" fill="none" stroke="#12263f" stroke-miterlimit="10" stroke-width="1"/>
        <path id="Trazado_162858" data-name="Trazado 162858" d="M192.89,244.72l3.49,6.04,3.49-6.04Z" fill="#12263f"/>
      </g>
      <g id="Grupo_88282" data-name="Grupo 88282">
        <line id="Línea_655" data-name="Línea 655" y2="29.39" transform="translate(103.11 290.49)" fill="none" stroke="#12263f" stroke-miterlimit="10" stroke-width="1"/>
        <path id="Trazado_162859" data-name="Trazado 162859" d="M99.61,318.86l3.5,6.05,3.48-6.05Z" fill="#12263f"/>
      </g>
      <g id="Grupo_88283" data-name="Grupo 88283">
        <line id="Línea_656" data-name="Línea 656" y2="29.39" transform="translate(290.03 290.49)" fill="none" stroke="#12263f" stroke-miterlimit="10" stroke-width="1"/>
        <path id="Trazado_162860" data-name="Trazado 162860" d="M286.54,318.86l3.49,6.05,3.49-6.05Z" fill="#12263f"/>
      </g>
      <g id="Grupo_88284" data-name="Grupo 88284">
        <line id="Línea_657" data-name="Línea 657" y2="29.39" transform="translate(42.48 216.35)" fill="none" stroke="#12263f" stroke-miterlimit="10" stroke-width="1"/>
        <path id="Trazado_162861" data-name="Trazado 162861" d="M38.99,244.72l3.49,6.04,3.49-6.04Z" fill="#12263f"/>
      </g>
      <g id="Grupo_88285" data-name="Grupo 88285">
        <line id="Línea_658" data-name="Línea 658" x1="26.45" y2="29.61" transform="translate(106.45 216.35)" fill="none" stroke="#12263f" stroke-miterlimit="10" stroke-width="1"/>
        <path id="Trazado_162862" data-name="Trazado 162862" d="M104.53,242.88l-1.42,6.83,6.62-2.18Z" fill="#12263f"/>
      </g>
      <g id="Grupo_88286" data-name="Grupo 88286">
        <line id="Línea_659" data-name="Línea 659" x2="30.58" y2="30.59" transform="translate(103.11 216.35)" fill="none" stroke="#12263f" stroke-miterlimit="10" stroke-width="1"/>
        <path id="Trazado_162863" data-name="Trazado 162863" d="M130.5,248.69l6.75,1.8-1.81-6.74Z" fill="#12263f"/>
      </g>
      <g id="Grupo_88287" data-name="Grupo 88287">
        <line id="Línea_660" data-name="Línea 660" x1="56.9" y2="31.96" transform="translate(200.07 141.75)" fill="none" stroke="#12263f" stroke-miterlimit="10" stroke-width="1"/>
        <path id="Trazado_162864" data-name="Trazado 162864" d="M199.25,170.16l-3.56,6,6.98.09Z" fill="#12263f"/>
      </g>
      <g id="Grupo_88288" data-name="Grupo 88288">
        <line id="Línea_661" data-name="Línea 661" y2="29.39" transform="translate(134.16 141.75)" fill="none" stroke="#12263f" stroke-miterlimit="10" stroke-width="1"/>
        <path id="Trazado_162865" data-name="Trazado 162865" d="M130.67,170.12l3.49,6.04,3.49-6.04Z" fill="#12263f"/>
      </g>
      <g id="Grupo_88289" data-name="Grupo 88289">
        <line id="Línea_662" data-name="Línea 662" x1="56.26" y2="31.94" transform="translate(46.85 141.75)" fill="none" stroke="#12263f" stroke-miterlimit="10" stroke-width="1"/>
        <path id="Trazado_162866" data-name="Trazado 162866" d="M46.02,170.15l-3.54,6.01,6.98.06Z" fill="#12263f"/>
      </g>
      <g id="Grupo_88290" data-name="Grupo 88290">
        <line id="Línea_663" data-name="Línea 663" x2="27.69" y2="30.53" transform="translate(42.48 141.57)" fill="none" stroke="#12263f" stroke-miterlimit="10" stroke-width="1"/>
        <path id="Trazado_162867" data-name="Trazado 162867" d="M66.43,173.91l7.6,2.44-1.69-7.8Z" fill="#12263f"/>
      </g>
      <g id="Grupo_88291" data-name="Grupo 88291">
        <line id="Línea_664" data-name="Línea 664" x2="27.69" y2="30.53" transform="translate(72.69 141.57)" fill="none" stroke="#12263f" stroke-miterlimit="10" stroke-width="1"/>
        <path id="Trazado_162868" data-name="Trazado 162868" d="M96.64,173.91l7.6,2.44-1.69-7.8Z" fill="#12263f"/>
      </g>
      <g id="Grupo_88292" data-name="Grupo 88292">
        <line id="Línea_665" data-name="Línea 665" x2="27.69" y2="30.53" transform="translate(196.05 141.57)" fill="none" stroke="#12263f" stroke-miterlimit="10" stroke-width="1"/>
        <path id="Trazado_162869" data-name="Trazado 162869" d="M220,173.91l7.59,2.44-1.68-7.8Z" fill="#12263f"/>
      </g>
      <g id="Grupo_88293" data-name="Grupo 88293">
        <line id="Línea_666" data-name="Línea 666" x2="27.69" y2="30.53" transform="translate(228.7 141.57)" fill="none" stroke="#12263f" stroke-miterlimit="10" stroke-width="1"/>
        <path id="Trazado_162870" data-name="Trazado 162870" d="M252.65,173.91l7.6,2.44-1.69-7.8Z" fill="#12263f"/>
      </g>
    </g>
  </g>
</svg>
