<svg xmlns="http://www.w3.org/2000/svg" xmlns:xlink="http://www.w3.org/1999/xlink" width="604" height="400" viewBox="0 0 604 400">
  <defs>
    <linearGradient id="linear-gradient" x1="0.5" y1="1" x2="0.5" gradientUnits="objectBoundingBox">
      <stop offset="0" stop-color="#71d9e7"/>
      <stop offset="1" stop-color="#edffff"/>
    </linearGradient>
  </defs>
  <g id="Grupo_90673" data-name="Grupo 90673" transform="translate(-810 -5453)">
    <g id="Capa_1" data-name="Capa 1" transform="translate(810 5453)">
      <path id="Trazado_172247" data-name="Trazado 172247" d="M8.078-4.852a6.61,6.61,0,0,1-.867,3.773A3.084,3.084,0,0,1,4.5.156,3.107,3.107,0,0,1,1.8-1.051,6.274,6.274,0,0,1,.9-4.656v-1.93a6.463,6.463,0,0,1,.867-3.727,3.108,3.108,0,0,1,2.719-1.219,3.136,3.136,0,0,1,2.7,1.176,6.237,6.237,0,0,1,.891,3.629ZM6.633-6.828A5.3,5.3,0,0,0,6.117-9.5a1.775,1.775,0,0,0-1.633-.84,1.751,1.751,0,0,0-1.617.836,5.171,5.171,0,0,0-.523,2.57v2.313A5.381,5.381,0,0,0,2.879-1.9,1.771,1.771,0,0,0,4.5-1.023a1.747,1.747,0,0,0,1.59-.828,5.186,5.186,0,0,0,.543-2.609ZM5.7,40H4.242V30.367l-2.914,1.07V30.125L5.469,28.57H5.7ZM8.4,80H.945V78.961l3.938-4.375A9.355,9.355,0,0,0,6.09,72.973a2.693,2.693,0,0,0,.332-1.285,2.041,2.041,0,0,0-.539-1.461,1.885,1.885,0,0,0-1.437-.57,2.232,2.232,0,0,0-1.676.613,2.343,2.343,0,0,0-.6,1.707H.727a3.355,3.355,0,0,1,1.012-2.539,3.751,3.751,0,0,1,2.707-.969,3.6,3.6,0,0,1,2.508.832,2.838,2.838,0,0,1,.922,2.215q0,1.68-2.141,4l-3.047,3.3H8.4ZM3.047,113.609H4.133a2.387,2.387,0,0,0,1.609-.539,1.8,1.8,0,0,0,.586-1.414,1.764,1.764,0,0,0-1.992-2,2.072,2.072,0,0,0-1.5.535,1.873,1.873,0,0,0-.559,1.418H.836a2.9,2.9,0,0,1,.988-2.246,3.6,3.6,0,0,1,2.512-.895,3.558,3.558,0,0,1,2.523.852,3.076,3.076,0,0,1,.914,2.367,2.5,2.5,0,0,1-.48,1.438,2.9,2.9,0,0,1-1.309,1.039,2.8,2.8,0,0,1,1.449.984,2.734,2.734,0,0,1,.512,1.68,3.1,3.1,0,0,1-1,2.43,3.745,3.745,0,0,1-2.6.9,3.844,3.844,0,0,1-2.605-.867,2.877,2.877,0,0,1-1-2.289H2.188a1.859,1.859,0,0,0,.586,1.438,2.229,2.229,0,0,0,1.57.539,2.187,2.187,0,0,0,1.6-.547,2.108,2.108,0,0,0,.555-1.57,1.912,1.912,0,0,0-.609-1.523,2.655,2.655,0,0,0-1.758-.547H3.047Zm4,42.57H8.625v1.18H7.047V160H5.594v-2.641H.414v-.852l5.094-7.883H7.047Zm-4.992,0H5.594V150.6l-.172.313ZM1.609,194.3l.578-5.672H8.016v1.336h-4.6l-.344,3.1a3.671,3.671,0,0,1,1.9-.492A3.138,3.138,0,0,1,7.438,193.6a4.026,4.026,0,0,1,.914,2.777,3.886,3.886,0,0,1-.949,2.77,3.46,3.46,0,0,1-2.652,1.012,3.6,3.6,0,0,1-2.461-.836A3.337,3.337,0,0,1,1.2,197.008H2.57a2.3,2.3,0,0,0,.7,1.473,2.162,2.162,0,0,0,1.484.5,1.95,1.95,0,0,0,1.582-.687,2.874,2.874,0,0,0,.574-1.9,2.638,2.638,0,0,0-.621-1.832,2.113,2.113,0,0,0-1.652-.691,2.383,2.383,0,0,0-1.484.414l-.383.313Z" transform="translate(27.39 88.38)" fill="#12263f"/>
      <rect id="Rectángulo_37715" data-name="Rectángulo 37715" width="40" height="240" transform="translate(50.51 63.33)" fill="url(#linear-gradient)"/>
      <rect id="Rectángulo_37716" data-name="Rectángulo 37716" width="40" height="40" transform="translate(50.51 63.33)" fill="none" stroke="#12263f" stroke-miterlimit="10" stroke-width="1"/>
      <rect id="Rectángulo_37717" data-name="Rectángulo 37717" width="40" height="40" transform="translate(50.51 103.33)" fill="none" stroke="#12263f" stroke-miterlimit="10" stroke-width="1"/>
      <rect id="Rectángulo_37718" data-name="Rectángulo 37718" width="40" height="40" transform="translate(50.51 143.33)" fill="none" stroke="#12263f" stroke-miterlimit="10" stroke-width="1"/>
      <rect id="Rectángulo_37719" data-name="Rectángulo 37719" width="40" height="40" transform="translate(50.51 183.33)" fill="none" stroke="#12263f" stroke-miterlimit="10" stroke-width="1"/>
      <rect id="Rectángulo_37720" data-name="Rectángulo 37720" width="40" height="40" transform="translate(50.51 223.33)" fill="none" stroke="#12263f" stroke-miterlimit="10" stroke-width="1"/>
      <rect id="Rectángulo_37721" data-name="Rectángulo 37721" width="40" height="40" transform="translate(50.51 263.33)" fill="none" stroke="#12263f" stroke-miterlimit="10" stroke-width="1"/>
      <path id="Trazado_172246" data-name="Trazado 172246" d="M1.609-5.7l.578-5.672H8.016v1.336h-4.6l-.344,3.1a3.671,3.671,0,0,1,1.9-.492A3.138,3.138,0,0,1,7.438-6.4a4.026,4.026,0,0,1,.914,2.777A3.886,3.886,0,0,1,7.4-.855,3.46,3.46,0,0,1,4.75.156,3.6,3.6,0,0,1,2.289-.68,3.337,3.337,0,0,1,1.2-2.992H2.57a2.3,2.3,0,0,0,.7,1.473,2.162,2.162,0,0,0,1.484.5,1.95,1.95,0,0,0,1.582-.687,2.874,2.874,0,0,0,.574-1.9,2.638,2.638,0,0,0-.621-1.832,2.113,2.113,0,0,0-1.652-.691,2.383,2.383,0,0,0-1.484.414l-.383.313Zm6.234,37.3a2.641,2.641,0,0,1-.449,1.516A3.057,3.057,0,0,1,6.18,34.148a3.26,3.26,0,0,1,1.41,1.117,2.811,2.811,0,0,1,.52,1.664,2.972,2.972,0,0,1-1,2.352,3.827,3.827,0,0,1-2.621.875,3.81,3.81,0,0,1-2.629-.879A2.986,2.986,0,0,1,.875,36.93a2.9,2.9,0,0,1,.5-1.664,3.136,3.136,0,0,1,1.395-1.125,2.981,2.981,0,0,1-1.2-1.039,2.679,2.679,0,0,1-.437-1.508,2.94,2.94,0,0,1,.922-2.281,3.458,3.458,0,0,1,2.43-.844,3.461,3.461,0,0,1,2.426.844A2.934,2.934,0,0,1,7.844,31.594Zm-1.18,5.3a2.1,2.1,0,0,0-.605-1.555,2.147,2.147,0,0,0-1.582-.6,2.11,2.11,0,0,0-1.566.594A2.12,2.12,0,0,0,2.32,36.9a2.019,2.019,0,0,0,.574,1.523,2.2,2.2,0,0,0,1.6.555,2.2,2.2,0,0,0,1.594-.559A2.014,2.014,0,0,0,6.664,36.9ZM4.492,29.656a1.865,1.865,0,0,0-1.379.527,2.182,2.182,0,0,0-.008,2.836,1.844,1.844,0,0,0,1.387.535,1.844,1.844,0,0,0,1.387-.535,2.138,2.138,0,0,0-.02-2.816A1.839,1.839,0,0,0,4.492,29.656Zm3.8,39.781L3.578,80H2.063l4.7-10.187H.6V68.625H8.289ZM5.7,120H4.242v-9.633l-2.914,1.07v-1.312l4.141-1.555H5.7ZM3.047,153.609H4.133a2.387,2.387,0,0,0,1.609-.539,1.8,1.8,0,0,0,.586-1.414,1.764,1.764,0,0,0-1.992-2,2.072,2.072,0,0,0-1.5.535,1.873,1.873,0,0,0-.559,1.418H.836a2.9,2.9,0,0,1,.988-2.246,3.6,3.6,0,0,1,2.512-.895,3.558,3.558,0,0,1,2.523.852,3.076,3.076,0,0,1,.914,2.367,2.5,2.5,0,0,1-.48,1.438,2.9,2.9,0,0,1-1.309,1.039,2.8,2.8,0,0,1,1.449.984,2.734,2.734,0,0,1,.512,1.68,3.1,3.1,0,0,1-1,2.43,3.745,3.745,0,0,1-2.6.9,3.844,3.844,0,0,1-2.605-.867,2.877,2.877,0,0,1-1-2.289H2.188a1.859,1.859,0,0,0,.586,1.438,2.229,2.229,0,0,0,1.57.539,2.187,2.187,0,0,0,1.6-.547,2.108,2.108,0,0,0,.555-1.57,1.912,1.912,0,0,0-.609-1.523,2.655,2.655,0,0,0-1.758-.547H3.047Zm3.57,35.008v1.227H6.352a3.805,3.805,0,0,0-2.687,1,4.161,4.161,0,0,0-1.156,2.727,3.085,3.085,0,0,1,2.453-1.031,2.95,2.95,0,0,1,2.371,1.047,4.588,4.588,0,0,1-.07,5.516A3.3,3.3,0,0,1,4.7,200.156,3.247,3.247,0,0,1,2.047,198.9a4.97,4.97,0,0,1-1.016-3.23v-.555a7.488,7.488,0,0,1,1.34-4.8,4.921,4.921,0,0,1,3.988-1.7Zm-1.9,5.125a2.306,2.306,0,0,0-1.367.445,2.32,2.32,0,0,0-.867,1.117v.531a3.731,3.731,0,0,0,.633,2.266,1.9,1.9,0,0,0,1.578.859,1.838,1.838,0,0,0,1.535-.719,3.452,3.452,0,0,0-.008-3.777A1.816,1.816,0,0,0,4.719,193.742Z" transform="translate(65.68 88.38)" fill="#12263f"/>
      <rect id="Rectángulo_37722" data-name="Rectángulo 37722" width="40" height="240" transform="translate(139.05 63.33)" fill="url(#linear-gradient)"/>
      <rect id="Rectángulo_37723" data-name="Rectángulo 37723" width="40" height="40" transform="translate(139.05 63.33)" fill="none" stroke="#12263f" stroke-miterlimit="10" stroke-width="1"/>
      <rect id="Rectángulo_37724" data-name="Rectángulo 37724" width="40" height="40" transform="translate(139.05 103.33)" fill="none" stroke="#12263f" stroke-miterlimit="10" stroke-width="1"/>
      <rect id="Rectángulo_37725" data-name="Rectángulo 37725" width="40" height="40" transform="translate(139.05 143.33)" fill="none" stroke="#12263f" stroke-miterlimit="10" stroke-width="1"/>
      <rect id="Rectángulo_37726" data-name="Rectángulo 37726" width="40" height="40" transform="translate(139.05 183.33)" fill="none" stroke="#12263f" stroke-miterlimit="10" stroke-width="1"/>
      <rect id="Rectángulo_37727" data-name="Rectángulo 37727" width="40" height="40" transform="translate(139.05 223.33)" fill="none" stroke="#12263f" stroke-miterlimit="10" stroke-width="1"/>
      <rect id="Rectángulo_37728" data-name="Rectángulo 37728" width="40" height="40" transform="translate(139.05 263.33)" fill="none" stroke="#12263f" stroke-miterlimit="10" stroke-width="1"/>
      <path id="Trazado_172248" data-name="Trazado 172248" d="M1.609-5.7l.578-5.672H8.016v1.336h-4.6l-.344,3.1a3.671,3.671,0,0,1,1.9-.492A3.138,3.138,0,0,1,7.438-6.4a4.026,4.026,0,0,1,.914,2.777A3.886,3.886,0,0,1,7.4-.855,3.46,3.46,0,0,1,4.75.156,3.6,3.6,0,0,1,2.289-.68,3.337,3.337,0,0,1,1.2-2.992H2.57a2.3,2.3,0,0,0,.7,1.473,2.162,2.162,0,0,0,1.484.5,1.95,1.95,0,0,0,1.582-.687,2.874,2.874,0,0,0,.574-1.9,2.638,2.638,0,0,0-.621-1.832,2.113,2.113,0,0,0-1.652-.691,2.383,2.383,0,0,0-1.484.414l-.383.313Zm6.234,37.3a2.641,2.641,0,0,1-.449,1.516A3.057,3.057,0,0,1,6.18,34.148a3.26,3.26,0,0,1,1.41,1.117,2.811,2.811,0,0,1,.52,1.664,2.972,2.972,0,0,1-1,2.352,3.827,3.827,0,0,1-2.621.875,3.81,3.81,0,0,1-2.629-.879A2.986,2.986,0,0,1,.875,36.93a2.9,2.9,0,0,1,.5-1.664,3.136,3.136,0,0,1,1.395-1.125,2.981,2.981,0,0,1-1.2-1.039,2.679,2.679,0,0,1-.437-1.508,2.94,2.94,0,0,1,.922-2.281,3.458,3.458,0,0,1,2.43-.844,3.461,3.461,0,0,1,2.426.844A2.934,2.934,0,0,1,7.844,31.594Zm-1.18,5.3a2.1,2.1,0,0,0-.605-1.555,2.147,2.147,0,0,0-1.582-.6,2.11,2.11,0,0,0-1.566.594A2.12,2.12,0,0,0,2.32,36.9a2.019,2.019,0,0,0,.574,1.523,2.2,2.2,0,0,0,1.6.555,2.2,2.2,0,0,0,1.594-.559A2.014,2.014,0,0,0,6.664,36.9ZM4.492,29.656a1.865,1.865,0,0,0-1.379.527,2.182,2.182,0,0,0-.008,2.836,1.844,1.844,0,0,0,1.387.535,1.844,1.844,0,0,0,1.387-.535,2.138,2.138,0,0,0-.02-2.816A1.839,1.839,0,0,0,4.492,29.656Zm3.8,39.781L3.578,80H2.063l4.7-10.187H.6V68.625H8.289ZM5.7,120H4.242v-9.633l-2.914,1.07v-1.312l4.141-1.555H5.7ZM3.047,153.609H4.133a2.387,2.387,0,0,0,1.609-.539,1.8,1.8,0,0,0,.586-1.414,1.764,1.764,0,0,0-1.992-2,2.072,2.072,0,0,0-1.5.535,1.873,1.873,0,0,0-.559,1.418H.836a2.9,2.9,0,0,1,.988-2.246,3.6,3.6,0,0,1,2.512-.895,3.558,3.558,0,0,1,2.523.852,3.076,3.076,0,0,1,.914,2.367,2.5,2.5,0,0,1-.48,1.438,2.9,2.9,0,0,1-1.309,1.039,2.8,2.8,0,0,1,1.449.984,2.734,2.734,0,0,1,.512,1.68,3.1,3.1,0,0,1-1,2.43,3.745,3.745,0,0,1-2.6.9,3.844,3.844,0,0,1-2.605-.867,2.877,2.877,0,0,1-1-2.289H2.188a1.859,1.859,0,0,0,.586,1.438,2.229,2.229,0,0,0,1.57.539,2.187,2.187,0,0,0,1.6-.547,2.108,2.108,0,0,0,.555-1.57,1.912,1.912,0,0,0-.609-1.523,2.655,2.655,0,0,0-1.758-.547H3.047Zm3.57,35.008v1.227H6.352a3.805,3.805,0,0,0-2.687,1,4.161,4.161,0,0,0-1.156,2.727,3.085,3.085,0,0,1,2.453-1.031,2.95,2.95,0,0,1,2.371,1.047,4.588,4.588,0,0,1-.07,5.516A3.3,3.3,0,0,1,4.7,200.156,3.247,3.247,0,0,1,2.047,198.9a4.97,4.97,0,0,1-1.016-3.23v-.555a7.488,7.488,0,0,1,1.34-4.8,4.921,4.921,0,0,1,3.988-1.7Zm-1.9,5.125a2.306,2.306,0,0,0-1.367.445,2.32,2.32,0,0,0-.867,1.117v.531a3.731,3.731,0,0,0,.633,2.266,1.9,1.9,0,0,0,1.578.859,1.838,1.838,0,0,0,1.535-.719,3.452,3.452,0,0,0-.008-3.777A1.816,1.816,0,0,0,4.719,193.742Z" transform="translate(154.23 88.38)" fill="#12263f"/>
      <rect id="Rectángulo_37729" data-name="Rectángulo 37729" width="40" height="240" transform="translate(233.68 63.33)" fill="url(#linear-gradient)"/>
      <rect id="Rectángulo_37730" data-name="Rectángulo 37730" width="40" height="40" transform="translate(233.68 63.33)" fill="none" stroke="#12263f" stroke-miterlimit="10" stroke-width="1"/>
      <rect id="Rectángulo_37731" data-name="Rectángulo 37731" width="40" height="40" transform="translate(233.68 103.33)" fill="none" stroke="#12263f" stroke-miterlimit="10" stroke-width="1"/>
      <rect id="Rectángulo_37732" data-name="Rectángulo 37732" width="40" height="40" transform="translate(233.68 143.33)" fill="none" stroke="#12263f" stroke-miterlimit="10" stroke-width="1"/>
      <rect id="Rectángulo_37733" data-name="Rectángulo 37733" width="40" height="40" transform="translate(233.68 183.33)" fill="none" stroke="#12263f" stroke-miterlimit="10" stroke-width="1"/>
      <rect id="Rectángulo_37734" data-name="Rectángulo 37734" width="40" height="40" transform="translate(233.68 223.33)" fill="none" stroke="#12263f" stroke-miterlimit="10" stroke-width="1"/>
      <rect id="Rectángulo_37735" data-name="Rectángulo 37735" width="40" height="40" transform="translate(233.68 263.33)" fill="none" stroke="#12263f" stroke-miterlimit="10" stroke-width="1"/>
      <path id="Trazado_172249" data-name="Trazado 172249" d="M1.609-5.7l.578-5.672H8.016v1.336h-4.6l-.344,3.1a3.671,3.671,0,0,1,1.9-.492A3.138,3.138,0,0,1,7.438-6.4a4.026,4.026,0,0,1,.914,2.777A3.886,3.886,0,0,1,7.4-.855,3.46,3.46,0,0,1,4.75.156,3.6,3.6,0,0,1,2.289-.68,3.337,3.337,0,0,1,1.2-2.992H2.57a2.3,2.3,0,0,0,.7,1.473,2.162,2.162,0,0,0,1.484.5,1.95,1.95,0,0,0,1.582-.687,2.874,2.874,0,0,0,.574-1.9,2.638,2.638,0,0,0-.621-1.832,2.113,2.113,0,0,0-1.652-.691,2.383,2.383,0,0,0-1.484.414l-.383.313Zm6.68,35.141L3.578,40H2.063l4.7-10.187H.6V28.625H8.289ZM7.844,71.594a2.641,2.641,0,0,1-.449,1.516A3.056,3.056,0,0,1,6.18,74.148a3.26,3.26,0,0,1,1.41,1.117,2.811,2.811,0,0,1,.52,1.664,2.972,2.972,0,0,1-1,2.352,3.827,3.827,0,0,1-2.621.875,3.81,3.81,0,0,1-2.629-.879A2.986,2.986,0,0,1,.875,76.93a2.9,2.9,0,0,1,.5-1.664,3.136,3.136,0,0,1,1.395-1.125,2.981,2.981,0,0,1-1.2-1.039,2.679,2.679,0,0,1-.437-1.508,2.94,2.94,0,0,1,.922-2.281,3.458,3.458,0,0,1,2.43-.844,3.461,3.461,0,0,1,2.426.844A2.934,2.934,0,0,1,7.844,71.594Zm-1.18,5.3a2.1,2.1,0,0,0-.605-1.555,2.147,2.147,0,0,0-1.582-.6,2.11,2.11,0,0,0-1.566.594A2.12,2.12,0,0,0,2.32,76.9a2.019,2.019,0,0,0,.574,1.523,2.2,2.2,0,0,0,1.6.555,2.2,2.2,0,0,0,1.594-.559A2.014,2.014,0,0,0,6.664,76.9ZM4.492,69.656a1.865,1.865,0,0,0-1.379.527,2.182,2.182,0,0,0-.008,2.836,1.844,1.844,0,0,0,1.387.535,1.844,1.844,0,0,0,1.387-.535,2.138,2.138,0,0,0-.02-2.816A1.839,1.839,0,0,0,4.492,69.656ZM5.7,120H4.242v-9.633l-2.914,1.07v-1.312l4.141-1.555H5.7ZM3.047,153.609H4.133a2.387,2.387,0,0,0,1.609-.539,1.8,1.8,0,0,0,.586-1.414,1.764,1.764,0,0,0-1.992-2,2.072,2.072,0,0,0-1.5.535,1.873,1.873,0,0,0-.559,1.418H.836a2.9,2.9,0,0,1,.988-2.246,3.6,3.6,0,0,1,2.512-.895,3.558,3.558,0,0,1,2.523.852,3.076,3.076,0,0,1,.914,2.367,2.5,2.5,0,0,1-.48,1.438,2.9,2.9,0,0,1-1.309,1.039,2.8,2.8,0,0,1,1.449.984,2.734,2.734,0,0,1,.512,1.68,3.1,3.1,0,0,1-1,2.43,3.745,3.745,0,0,1-2.6.9,3.844,3.844,0,0,1-2.605-.867,2.877,2.877,0,0,1-1-2.289H2.188a1.859,1.859,0,0,0,.586,1.438,2.229,2.229,0,0,0,1.57.539,2.187,2.187,0,0,0,1.6-.547,2.108,2.108,0,0,0,.555-1.57,1.912,1.912,0,0,0-.609-1.523,2.655,2.655,0,0,0-1.758-.547H3.047Zm3.57,35.008v1.227H6.352a3.805,3.805,0,0,0-2.687,1,4.161,4.161,0,0,0-1.156,2.727,3.085,3.085,0,0,1,2.453-1.031,2.95,2.95,0,0,1,2.371,1.047,4.588,4.588,0,0,1-.07,5.516A3.3,3.3,0,0,1,4.7,200.156,3.247,3.247,0,0,1,2.047,198.9a4.97,4.97,0,0,1-1.016-3.23v-.555a7.488,7.488,0,0,1,1.34-4.8,4.921,4.921,0,0,1,3.988-1.7Zm-1.9,5.125a2.306,2.306,0,0,0-1.367.445,2.32,2.32,0,0,0-.867,1.117v.531a3.731,3.731,0,0,0,.633,2.266,1.9,1.9,0,0,0,1.578.859,1.838,1.838,0,0,0,1.535-.719,3.452,3.452,0,0,0-.008-3.777A1.816,1.816,0,0,0,4.719,193.742Z" transform="translate(248.86 88.38)" fill="#12263f"/>
      <rect id="Rectángulo_37736" data-name="Rectángulo 37736" width="40" height="240" transform="translate(324.31 63.33)" fill="url(#linear-gradient)"/>
      <rect id="Rectángulo_37737" data-name="Rectángulo 37737" width="40" height="40" transform="translate(324.31 63.33)" fill="none" stroke="#12263f" stroke-miterlimit="10" stroke-width="1"/>
      <rect id="Rectángulo_37738" data-name="Rectángulo 37738" width="40" height="40" transform="translate(324.31 103.33)" fill="none" stroke="#12263f" stroke-miterlimit="10" stroke-width="1"/>
      <rect id="Rectángulo_37739" data-name="Rectángulo 37739" width="40" height="40" transform="translate(324.31 143.33)" fill="none" stroke="#12263f" stroke-miterlimit="10" stroke-width="1"/>
      <rect id="Rectángulo_37740" data-name="Rectángulo 37740" width="40" height="40" transform="translate(324.31 183.33)" fill="none" stroke="#12263f" stroke-miterlimit="10" stroke-width="1"/>
      <rect id="Rectángulo_37741" data-name="Rectángulo 37741" width="40" height="40" transform="translate(324.31 223.33)" fill="none" stroke="#12263f" stroke-miterlimit="10" stroke-width="1"/>
      <rect id="Rectángulo_37742" data-name="Rectángulo 37742" width="40" height="40" transform="translate(324.31 263.33)" fill="none" stroke="#12263f" stroke-miterlimit="10" stroke-width="1"/>
      <path id="Trazado_172250" data-name="Trazado 172250" d="M1.609-5.7l.578-5.672H8.016v1.336h-4.6l-.344,3.1a3.671,3.671,0,0,1,1.9-.492A3.138,3.138,0,0,1,7.438-6.4a4.026,4.026,0,0,1,.914,2.777A3.886,3.886,0,0,1,7.4-.855,3.46,3.46,0,0,1,4.75.156,3.6,3.6,0,0,1,2.289-.68,3.337,3.337,0,0,1,1.2-2.992H2.57a2.3,2.3,0,0,0,.7,1.473,2.162,2.162,0,0,0,1.484.5,1.95,1.95,0,0,0,1.582-.687,2.874,2.874,0,0,0,.574-1.9,2.638,2.638,0,0,0-.621-1.832,2.113,2.113,0,0,0-1.652-.691,2.383,2.383,0,0,0-1.484.414l-.383.313Zm6.68,35.141L3.578,40H2.063l4.7-10.187H.6V28.625H8.289ZM5.7,80H4.242V70.367l-2.914,1.07V70.125L5.469,68.57H5.7Zm2.148,31.594a2.641,2.641,0,0,1-.449,1.516,3.056,3.056,0,0,1-1.215,1.039,3.26,3.26,0,0,1,1.41,1.117,2.811,2.811,0,0,1,.52,1.664,2.972,2.972,0,0,1-1,2.352,3.827,3.827,0,0,1-2.621.875,3.81,3.81,0,0,1-2.629-.879,2.986,2.986,0,0,1-.988-2.348,2.9,2.9,0,0,1,.5-1.664,3.136,3.136,0,0,1,1.395-1.125,2.981,2.981,0,0,1-1.2-1.039,2.679,2.679,0,0,1-.437-1.508,2.94,2.94,0,0,1,.922-2.281,3.458,3.458,0,0,1,2.43-.844,3.461,3.461,0,0,1,2.426.844A2.934,2.934,0,0,1,7.844,111.594Zm-1.18,5.3a2.1,2.1,0,0,0-.605-1.555,2.147,2.147,0,0,0-1.582-.6,2.11,2.11,0,0,0-1.566.594,2.12,2.12,0,0,0-.59,1.563,2.019,2.019,0,0,0,.574,1.523,2.2,2.2,0,0,0,1.6.555,2.2,2.2,0,0,0,1.594-.559A2.014,2.014,0,0,0,6.664,116.9Zm-2.172-7.242a1.865,1.865,0,0,0-1.379.527,2.182,2.182,0,0,0-.008,2.836,1.844,1.844,0,0,0,1.387.535,1.844,1.844,0,0,0,1.387-.535,2.138,2.138,0,0,0-.02-2.816A1.839,1.839,0,0,0,4.492,109.656ZM3.047,153.609H4.133a2.387,2.387,0,0,0,1.609-.539,1.8,1.8,0,0,0,.586-1.414,1.764,1.764,0,0,0-1.992-2,2.072,2.072,0,0,0-1.5.535,1.873,1.873,0,0,0-.559,1.418H.836a2.9,2.9,0,0,1,.988-2.246,3.6,3.6,0,0,1,2.512-.895,3.558,3.558,0,0,1,2.523.852,3.076,3.076,0,0,1,.914,2.367,2.5,2.5,0,0,1-.48,1.438,2.9,2.9,0,0,1-1.309,1.039,2.8,2.8,0,0,1,1.449.984,2.734,2.734,0,0,1,.512,1.68,3.1,3.1,0,0,1-1,2.43,3.745,3.745,0,0,1-2.6.9,3.844,3.844,0,0,1-2.605-.867,2.877,2.877,0,0,1-1-2.289H2.188a1.859,1.859,0,0,0,.586,1.438,2.229,2.229,0,0,0,1.57.539,2.187,2.187,0,0,0,1.6-.547,2.108,2.108,0,0,0,.555-1.57,1.912,1.912,0,0,0-.609-1.523,2.655,2.655,0,0,0-1.758-.547H3.047Zm3.57,35.008v1.227H6.352a3.805,3.805,0,0,0-2.687,1,4.161,4.161,0,0,0-1.156,2.727,3.085,3.085,0,0,1,2.453-1.031,2.95,2.95,0,0,1,2.371,1.047,4.588,4.588,0,0,1-.07,5.516A3.3,3.3,0,0,1,4.7,200.156,3.247,3.247,0,0,1,2.047,198.9a4.97,4.97,0,0,1-1.016-3.23v-.555a7.488,7.488,0,0,1,1.34-4.8,4.921,4.921,0,0,1,3.988-1.7Zm-1.9,5.125a2.306,2.306,0,0,0-1.367.445,2.32,2.32,0,0,0-.867,1.117v.531a3.731,3.731,0,0,0,.633,2.266,1.9,1.9,0,0,0,1.578.859,1.838,1.838,0,0,0,1.535-.719,3.452,3.452,0,0,0-.008-3.777A1.816,1.816,0,0,0,4.719,193.742Z" transform="translate(339.49 88.38)" fill="#12263f"/>
      <rect id="Rectángulo_37743" data-name="Rectángulo 37743" width="40" height="240" transform="translate(414.94 63.33)" fill="url(#linear-gradient)"/>
      <rect id="Rectángulo_37744" data-name="Rectángulo 37744" width="40" height="40" transform="translate(414.94 63.33)" fill="none" stroke="#12263f" stroke-miterlimit="10" stroke-width="1"/>
      <rect id="Rectángulo_37745" data-name="Rectángulo 37745" width="40" height="40" transform="translate(414.94 103.33)" fill="none" stroke="#12263f" stroke-miterlimit="10" stroke-width="1"/>
      <rect id="Rectángulo_37746" data-name="Rectángulo 37746" width="40" height="40" transform="translate(414.94 143.33)" fill="none" stroke="#12263f" stroke-miterlimit="10" stroke-width="1"/>
      <rect id="Rectángulo_37747" data-name="Rectángulo 37747" width="40" height="40" transform="translate(414.94 183.33)" fill="none" stroke="#12263f" stroke-miterlimit="10" stroke-width="1"/>
      <rect id="Rectángulo_37748" data-name="Rectángulo 37748" width="40" height="40" transform="translate(414.94 223.33)" fill="none" stroke="#12263f" stroke-miterlimit="10" stroke-width="1"/>
      <rect id="Rectángulo_37749" data-name="Rectángulo 37749" width="40" height="40" transform="translate(414.94 263.33)" fill="none" stroke="#12263f" stroke-miterlimit="10" stroke-width="1"/>
      <path id="Trazado_172251" data-name="Trazado 172251" d="M1.609-5.7l.578-5.672H8.016v1.336h-4.6l-.344,3.1a3.671,3.671,0,0,1,1.9-.492A3.138,3.138,0,0,1,7.438-6.4a4.026,4.026,0,0,1,.914,2.777A3.886,3.886,0,0,1,7.4-.855,3.46,3.46,0,0,1,4.75.156,3.6,3.6,0,0,1,2.289-.68,3.337,3.337,0,0,1,1.2-2.992H2.57a2.3,2.3,0,0,0,.7,1.473,2.162,2.162,0,0,0,1.484.5,1.95,1.95,0,0,0,1.582-.687,2.874,2.874,0,0,0,.574-1.9,2.638,2.638,0,0,0-.621-1.832,2.113,2.113,0,0,0-1.652-.691,2.383,2.383,0,0,0-1.484.414l-.383.313Zm6.68,35.141L3.578,40H2.063l4.7-10.187H.6V28.625H8.289ZM5.7,80H4.242V70.367l-2.914,1.07V70.125L5.469,68.57H5.7ZM3.047,113.609H4.133a2.387,2.387,0,0,0,1.609-.539,1.8,1.8,0,0,0,.586-1.414,1.764,1.764,0,0,0-1.992-2,2.072,2.072,0,0,0-1.5.535,1.873,1.873,0,0,0-.559,1.418H.836a2.9,2.9,0,0,1,.988-2.246,3.6,3.6,0,0,1,2.512-.895,3.558,3.558,0,0,1,2.523.852,3.076,3.076,0,0,1,.914,2.367,2.5,2.5,0,0,1-.48,1.438,2.9,2.9,0,0,1-1.309,1.039,2.8,2.8,0,0,1,1.449.984,2.734,2.734,0,0,1,.512,1.68,3.1,3.1,0,0,1-1,2.43,3.745,3.745,0,0,1-2.6.9,3.844,3.844,0,0,1-2.605-.867,2.877,2.877,0,0,1-1-2.289H2.188a1.859,1.859,0,0,0,.586,1.438,2.229,2.229,0,0,0,1.57.539,2.187,2.187,0,0,0,1.6-.547,2.108,2.108,0,0,0,.555-1.57,1.912,1.912,0,0,0-.609-1.523,2.655,2.655,0,0,0-1.758-.547H3.047Zm4.8,37.984a2.641,2.641,0,0,1-.449,1.516,3.057,3.057,0,0,1-1.215,1.039,3.26,3.26,0,0,1,1.41,1.117,2.811,2.811,0,0,1,.52,1.664,2.972,2.972,0,0,1-1,2.352,3.827,3.827,0,0,1-2.621.875,3.81,3.81,0,0,1-2.629-.879,2.986,2.986,0,0,1-.988-2.348,2.9,2.9,0,0,1,.5-1.664,3.136,3.136,0,0,1,1.395-1.125,2.981,2.981,0,0,1-1.2-1.039,2.679,2.679,0,0,1-.437-1.508,2.94,2.94,0,0,1,.922-2.281,3.458,3.458,0,0,1,2.43-.844,3.461,3.461,0,0,1,2.426.844A2.934,2.934,0,0,1,7.844,151.594Zm-1.18,5.3a2.1,2.1,0,0,0-.605-1.555,2.147,2.147,0,0,0-1.582-.6,2.11,2.11,0,0,0-1.566.594,2.12,2.12,0,0,0-.59,1.563,2.019,2.019,0,0,0,.574,1.523,2.2,2.2,0,0,0,1.6.555,2.2,2.2,0,0,0,1.594-.559A2.014,2.014,0,0,0,6.664,156.9Zm-2.172-7.242a1.865,1.865,0,0,0-1.379.527,2.182,2.182,0,0,0-.008,2.836,1.844,1.844,0,0,0,1.387.535,1.844,1.844,0,0,0,1.387-.535,2.138,2.138,0,0,0-.02-2.816A1.839,1.839,0,0,0,4.492,149.656Zm2.125,38.961v1.227H6.352a3.805,3.805,0,0,0-2.687,1,4.161,4.161,0,0,0-1.156,2.727,3.085,3.085,0,0,1,2.453-1.031,2.95,2.95,0,0,1,2.371,1.047,4.588,4.588,0,0,1-.07,5.516A3.3,3.3,0,0,1,4.7,200.156,3.247,3.247,0,0,1,2.047,198.9a4.97,4.97,0,0,1-1.016-3.23v-.555a7.488,7.488,0,0,1,1.34-4.8,4.921,4.921,0,0,1,3.988-1.7Zm-1.9,5.125a2.306,2.306,0,0,0-1.367.445,2.32,2.32,0,0,0-.867,1.117v.531a3.731,3.731,0,0,0,.633,2.266,1.9,1.9,0,0,0,1.578.859,1.838,1.838,0,0,0,1.535-.719,3.452,3.452,0,0,0-.008-3.777A1.816,1.816,0,0,0,4.719,193.742Z" transform="translate(430.12 88.38)" fill="#12263f"/>
      <rect id="Rectángulo_37750" data-name="Rectángulo 37750" width="40" height="240" transform="translate(505.57 63.33)" fill="url(#linear-gradient)"/>
      <rect id="Rectángulo_37751" data-name="Rectángulo 37751" width="40" height="40" transform="translate(505.57 63.33)" fill="none" stroke="#12263f" stroke-miterlimit="10" stroke-width="1"/>
      <rect id="Rectángulo_37752" data-name="Rectángulo 37752" width="40" height="40" transform="translate(505.57 103.33)" fill="none" stroke="#12263f" stroke-miterlimit="10" stroke-width="1"/>
      <rect id="Rectángulo_37753" data-name="Rectángulo 37753" width="40" height="40" transform="translate(505.57 143.33)" fill="none" stroke="#12263f" stroke-miterlimit="10" stroke-width="1"/>
      <rect id="Rectángulo_37754" data-name="Rectángulo 37754" width="40" height="40" transform="translate(505.57 183.33)" fill="none" stroke="#12263f" stroke-miterlimit="10" stroke-width="1"/>
      <rect id="Rectángulo_37755" data-name="Rectángulo 37755" width="40" height="40" transform="translate(505.57 223.33)" fill="none" stroke="#12263f" stroke-miterlimit="10" stroke-width="1"/>
      <rect id="Rectángulo_37756" data-name="Rectángulo 37756" width="40" height="40" transform="translate(505.57 263.33)" fill="none" stroke="#12263f" stroke-miterlimit="10" stroke-width="1"/>
      <path id="Trazado_172252" data-name="Trazado 172252" d="M1.609-5.7l.578-5.672H8.016v1.336h-4.6l-.344,3.1a3.671,3.671,0,0,1,1.9-.492A3.138,3.138,0,0,1,7.438-6.4a4.026,4.026,0,0,1,.914,2.777A3.886,3.886,0,0,1,7.4-.855,3.46,3.46,0,0,1,4.75.156,3.6,3.6,0,0,1,2.289-.68,3.337,3.337,0,0,1,1.2-2.992H2.57a2.3,2.3,0,0,0,.7,1.473,2.162,2.162,0,0,0,1.484.5,1.95,1.95,0,0,0,1.582-.687,2.874,2.874,0,0,0,.574-1.9,2.638,2.638,0,0,0-.621-1.832,2.113,2.113,0,0,0-1.652-.691,2.383,2.383,0,0,0-1.484.414l-.383.313Zm6.68,35.141L3.578,40H2.063l4.7-10.187H.6V28.625H8.289ZM5.7,80H4.242V70.367l-2.914,1.07V70.125L5.469,68.57H5.7ZM3.047,113.609H4.133a2.387,2.387,0,0,0,1.609-.539,1.8,1.8,0,0,0,.586-1.414,1.764,1.764,0,0,0-1.992-2,2.072,2.072,0,0,0-1.5.535,1.873,1.873,0,0,0-.559,1.418H.836a2.9,2.9,0,0,1,.988-2.246,3.6,3.6,0,0,1,2.512-.895,3.558,3.558,0,0,1,2.523.852,3.076,3.076,0,0,1,.914,2.367,2.5,2.5,0,0,1-.48,1.438,2.9,2.9,0,0,1-1.309,1.039,2.8,2.8,0,0,1,1.449.984,2.734,2.734,0,0,1,.512,1.68,3.1,3.1,0,0,1-1,2.43,3.745,3.745,0,0,1-2.6.9,3.844,3.844,0,0,1-2.605-.867,2.877,2.877,0,0,1-1-2.289H2.188a1.859,1.859,0,0,0,.586,1.438,2.229,2.229,0,0,0,1.57.539,2.187,2.187,0,0,0,1.6-.547,2.108,2.108,0,0,0,.555-1.57,1.912,1.912,0,0,0-.609-1.523,2.655,2.655,0,0,0-1.758-.547H3.047Zm3.57,35.008v1.227H6.352a3.805,3.805,0,0,0-2.687,1,4.161,4.161,0,0,0-1.156,2.727,3.085,3.085,0,0,1,2.453-1.031,2.95,2.95,0,0,1,2.371,1.047,4.588,4.588,0,0,1-.07,5.516A3.3,3.3,0,0,1,4.7,160.156,3.247,3.247,0,0,1,2.047,158.9a4.97,4.97,0,0,1-1.016-3.23v-.555a7.488,7.488,0,0,1,1.34-4.8,4.921,4.921,0,0,1,3.988-1.7Zm-1.9,5.125a2.306,2.306,0,0,0-1.367.445,2.32,2.32,0,0,0-.867,1.117v.531a3.731,3.731,0,0,0,.633,2.266,1.9,1.9,0,0,0,1.578.859,1.838,1.838,0,0,0,1.535-.719,3.452,3.452,0,0,0-.008-3.777A1.816,1.816,0,0,0,4.719,153.742Zm3.125,37.852a2.641,2.641,0,0,1-.449,1.516,3.057,3.057,0,0,1-1.215,1.039,3.26,3.26,0,0,1,1.41,1.117,2.811,2.811,0,0,1,.52,1.664,2.972,2.972,0,0,1-1,2.352,3.827,3.827,0,0,1-2.621.875,3.81,3.81,0,0,1-2.629-.879,2.986,2.986,0,0,1-.988-2.348,2.9,2.9,0,0,1,.5-1.664,3.136,3.136,0,0,1,1.395-1.125,2.981,2.981,0,0,1-1.2-1.039,2.679,2.679,0,0,1-.437-1.508,2.94,2.94,0,0,1,.922-2.281,3.458,3.458,0,0,1,2.43-.844,3.461,3.461,0,0,1,2.426.844A2.934,2.934,0,0,1,7.844,191.594Zm-1.18,5.3a2.1,2.1,0,0,0-.605-1.555,2.147,2.147,0,0,0-1.582-.6,2.11,2.11,0,0,0-1.566.594,2.12,2.12,0,0,0-.59,1.563,2.019,2.019,0,0,0,.574,1.523,2.2,2.2,0,0,0,1.6.555,2.2,2.2,0,0,0,1.594-.559A2.014,2.014,0,0,0,6.664,196.9Zm-2.172-7.242a1.865,1.865,0,0,0-1.379.527,2.182,2.182,0,0,0-.008,2.836,1.844,1.844,0,0,0,1.387.535,1.844,1.844,0,0,0,1.387-.535,2.138,2.138,0,0,0-.02-2.816A1.839,1.839,0,0,0,4.492,189.656Z" transform="translate(520.75 88.38)" fill="#12263f"/>
      <g id="Grupo_88243" data-name="Grupo 88243">
        <text id="i" transform="translate(111.37 91.62)" fill="#12263f" font-size="16" font-family="Roboto-Regular, Roboto"><tspan x="0" y="0">i</tspan></text>
        <g id="Grupo_88242" data-name="Grupo 88242">
          <line id="Línea_637" data-name="Línea 637" x1="12.57" transform="translate(97.31 86.06)" fill="none" stroke="#024e73" stroke-miterlimit="10" stroke-width="2"/>
          <path id="Trazado_162624" data-name="Trazado 162624" d="M98.39,82.37,92,86.06l6.39,3.69Z" fill="#024e73"/>
        </g>
      </g>
      <g id="Grupo_88245" data-name="Grupo 88245">
        <text id="i-2" data-name="i" transform="translate(201.52 127.46)" fill="#12263f" font-size="16" font-family="Roboto-Regular, Roboto"><tspan x="0" y="0">i</tspan></text>
        <g id="Grupo_88244" data-name="Grupo 88244">
          <line id="Línea_638" data-name="Línea 638" x1="12.57" transform="translate(187.46 121.9)" fill="none" stroke="#024e73" stroke-miterlimit="10" stroke-width="2"/>
          <path id="Trazado_162625" data-name="Trazado 162625" d="M188.54,118.21l-6.39,3.69,6.39,3.69Z" fill="#024e73"/>
        </g>
      </g>
      <g id="Grupo_88247" data-name="Grupo 88247">
        <text id="i-3" data-name="i" transform="translate(297.67 163.3)" fill="#12263f" font-size="16" font-family="Roboto-Regular, Roboto"><tspan x="0" y="0">i</tspan></text>
        <g id="Grupo_88246" data-name="Grupo 88246">
          <line id="Línea_639" data-name="Línea 639" x1="12.57" transform="translate(283.61 157.74)" fill="none" stroke="#024e73" stroke-miterlimit="10" stroke-width="2"/>
          <path id="Trazado_162626" data-name="Trazado 162626" d="M284.69,154.05l-6.39,3.69,6.39,3.69Z" fill="#024e73"/>
        </g>
      </g>
      <g id="Grupo_88249" data-name="Grupo 88249">
        <text id="i-4" data-name="i" transform="translate(388.73 207.46)" fill="#12263f" font-size="16" font-family="Roboto-Regular, Roboto"><tspan x="0" y="0">i</tspan></text>
        <g id="Grupo_88248" data-name="Grupo 88248">
          <line id="Línea_640" data-name="Línea 640" x1="12.57" transform="translate(374.67 201.9)" fill="none" stroke="#024e73" stroke-miterlimit="10" stroke-width="2"/>
          <path id="Trazado_162627" data-name="Trazado 162627" d="M375.75,198.21l-6.39,3.69,6.39,3.69Z" fill="#024e73"/>
        </g>
      </g>
      <g id="Grupo_88251" data-name="Grupo 88251">
        <text id="i-5" data-name="i" transform="translate(479.36 247.46)" fill="#12263f" font-size="16" font-family="Roboto-Regular, Roboto"><tspan x="0" y="0">i</tspan></text>
        <g id="Grupo_88250" data-name="Grupo 88250">
          <line id="Línea_641" data-name="Línea 641" x1="12.57" transform="translate(465.3 241.9)" fill="none" stroke="#024e73" stroke-miterlimit="10" stroke-width="2"/>
          <path id="Trazado_162628" data-name="Trazado 162628" d="M466.38,238.21l-6.39,3.69,6.39,3.69Z" fill="#024e73"/>
        </g>
      </g>
      <g id="Grupo_88253" data-name="Grupo 88253">
        <text id="i-6" data-name="i" transform="translate(569.66 287.46)" fill="#12263f" font-size="16" font-family="Roboto-Regular, Roboto"><tspan x="0" y="0">i</tspan></text>
        <g id="Grupo_88252" data-name="Grupo 88252">
          <line id="Línea_642" data-name="Línea 642" x1="12.57" transform="translate(555.6 281.9)" fill="none" stroke="#024e73" stroke-miterlimit="10" stroke-width="2"/>
          <path id="Trazado_162629" data-name="Trazado 162629" d="M556.68,278.21l-6.39,3.69,6.39,3.69Z" fill="#024e73"/>
        </g>
      </g>
      <g id="Grupo_88254" data-name="Grupo 88254">
        <path id="Trazado_162630" data-name="Trazado 162630" d="M77.32,316a89.9,89.9,0,0,0,68.16,2.29" fill="none" stroke="#024e73" stroke-miterlimit="10" stroke-width="2"/>
        <path id="Trazado_162631" data-name="Trazado 162631" d="M145.87,322.57l5.18-6.58-8.29-1.2Z" fill="#024e73"/>
      </g>
      <g id="Grupo_88255" data-name="Grupo 88255">
        <path id="Trazado_162632" data-name="Trazado 162632" d="M169.32,316a89.9,89.9,0,0,0,68.16,2.29" fill="none" stroke="#024e73" stroke-miterlimit="10" stroke-width="2"/>
        <path id="Trazado_162633" data-name="Trazado 162633" d="M237.87,322.57l5.18-6.58-8.29-1.2Z" fill="#024e73"/>
      </g>
      <g id="Grupo_88256" data-name="Grupo 88256">
        <path id="Trazado_162634" data-name="Trazado 162634" d="M261.31,316a89.9,89.9,0,0,0,68.16,2.29" fill="none" stroke="#024e73" stroke-miterlimit="10" stroke-width="2"/>
        <path id="Trazado_162635" data-name="Trazado 162635" d="M329.87,322.57l5.18-6.58-8.29-1.2Z" fill="#024e73"/>
      </g>
      <g id="Grupo_88257" data-name="Grupo 88257">
        <path id="Trazado_162636" data-name="Trazado 162636" d="M353.31,316a89.9,89.9,0,0,0,68.16,2.29" fill="none" stroke="#024e73" stroke-miterlimit="10" stroke-width="2"/>
        <path id="Trazado_162637" data-name="Trazado 162637" d="M421.87,322.57l5.18-6.58-8.29-1.2Z" fill="#024e73"/>
      </g>
      <g id="Grupo_88258" data-name="Grupo 88258">
        <path id="Trazado_162638" data-name="Trazado 162638" d="M445.31,316a89.9,89.9,0,0,0,68.16,2.29" fill="none" stroke="#024e73" stroke-miterlimit="10" stroke-width="2"/>
        <path id="Trazado_162639" data-name="Trazado 162639" d="M513.86,322.57l5.18-6.58-8.29-1.2Z" fill="#024e73"/>
      </g>
      <g id="Grupo">
        <path id="Trazado_172255" data-name="Trazado 172255" d="M2.38,0H1.162V-9.242H2.38ZM5.535-6.868,5.573-6A2.5,2.5,0,0,1,7.63-7q2.177,0,2.2,2.457V0H8.652V-4.545a1.581,1.581,0,0,0-.34-1.1A1.361,1.361,0,0,0,7.274-6a1.7,1.7,0,0,0-1,.3,2.069,2.069,0,0,0-.673.8V0H4.424V-6.868ZM13.19-8.531v1.663h1.282v.908H13.19V-1.7a.953.953,0,0,0,.171.62.721.721,0,0,0,.584.207A2.843,2.843,0,0,0,14.5-.946V0a3.424,3.424,0,0,1-.9.126,1.462,1.462,0,0,1-1.187-.476,2.045,2.045,0,0,1-.4-1.352V-5.96h-1.25v-.908h1.25V-8.531Zm5.5,8.658A3,3,0,0,1,16.421-.79a3.4,3.4,0,0,1-.876-2.453v-.216a4.121,4.121,0,0,1,.39-1.825,3.045,3.045,0,0,1,1.092-1.257A2.745,2.745,0,0,1,18.548-7a2.572,2.572,0,0,1,2.082.882,3.82,3.82,0,0,1,.743,2.526V-3.1H16.72a2.441,2.441,0,0,0,.594,1.641,1.866,1.866,0,0,0,1.444.625,2.045,2.045,0,0,0,1.054-.254,2.648,2.648,0,0,0,.755-.673l.717.559A2.884,2.884,0,0,1,18.694.127ZM18.548-6.03a1.566,1.566,0,0,0-1.193.517,2.515,2.515,0,0,0-.6,1.45H20.2v-.089a2.237,2.237,0,0,0-.482-1.387A1.475,1.475,0,0,0,18.548-6.03Z" transform="translate(169.89 343.74)" fill="#12263f"/>
        <text id="r" transform="translate(191.73 343.74)" fill="#12263f" font-size="13" font-family="Roboto-Regular, Roboto" letter-spacing="-0.01em"><tspan x="0" y="0">r</tspan></text>
        <path id="Trazado_172254" data-name="Trazado 172254" d="M3.644-.832a1.692,1.692,0,0,0,1.1-.381,1.34,1.34,0,0,0,.521-.952H6.373a2.13,2.13,0,0,1-.406,1.124,2.676,2.676,0,0,1-1,.851A2.885,2.885,0,0,1,3.644.127,2.829,2.829,0,0,1,1.412-.809,3.729,3.729,0,0,1,.584-3.371v-.2A4.135,4.135,0,0,1,.952-5.351,2.8,2.8,0,0,1,2.009-6.563,3,3,0,0,1,3.637-7a2.755,2.755,0,0,1,1.92.692,2.473,2.473,0,0,1,.816,1.8H5.262a1.618,1.618,0,0,0-.5-1.095,1.57,1.57,0,0,0-1.12-.428,1.644,1.644,0,0,0-1.387.644,3.026,3.026,0,0,0-.492,1.863V-3.3a2.965,2.965,0,0,0,.489,1.828A1.651,1.651,0,0,0,3.644-.832ZM11.934,0a2.467,2.467,0,0,1-.165-.724A2.62,2.62,0,0,1,9.813.127,2.424,2.424,0,0,1,8.147-.448,1.859,1.859,0,0,1,7.5-1.9a1.942,1.942,0,0,1,.816-1.666,3.846,3.846,0,0,1,2.295-.594H11.75V-4.7a1.319,1.319,0,0,0-.368-.981A1.48,1.48,0,0,0,10.3-6.049a1.712,1.712,0,0,0-1.054.317.935.935,0,0,0-.425.768H7.636A1.621,1.621,0,0,1,8-5.957a2.491,2.491,0,0,1,.99-.759A3.331,3.331,0,0,1,10.366-7a2.715,2.715,0,0,1,1.86.594,2.141,2.141,0,0,1,.7,1.635v3.161a3.865,3.865,0,0,0,.241,1.5V0ZM9.985-.9a2.064,2.064,0,0,0,1.047-.286,1.728,1.728,0,0,0,.717-.743V-3.333h-.92q-2.158,0-2.158,1.263a1.069,1.069,0,0,0,.368.863A1.415,1.415,0,0,0,9.985-.9Zm5.884-5.973.032.762A2.536,2.536,0,0,1,17.938-7a1.964,1.964,0,0,1,1.961,1.1,2.6,2.6,0,0,1,.892-.8,2.634,2.634,0,0,1,1.3-.3q2.26,0,2.3,2.393V0H23.213V-4.532a1.577,1.577,0,0,0-.336-1.1A1.482,1.482,0,0,0,21.747-6a1.557,1.557,0,0,0-1.085.39,1.584,1.584,0,0,0-.5,1.051V0H18.979V-4.5A1.31,1.31,0,0,0,17.513-6a1.571,1.571,0,0,0-1.581.984V0H14.758V-6.868Zm16.1,3.51a4.084,4.084,0,0,1-.724,2.53,2.312,2.312,0,0,1-1.942.955,2.394,2.394,0,0,1-2.012-.92L27.238,0H26.159V-9.75h1.174v3.637A2.381,2.381,0,0,1,29.294-7a2.326,2.326,0,0,1,1.965.946,4.206,4.206,0,0,1,.714,2.59ZM30.8-3.491a3.173,3.173,0,0,0-.463-1.854A1.534,1.534,0,0,0,29-6a1.724,1.724,0,0,0-1.669,1.079v2.971A1.772,1.772,0,0,0,29.015-.87a1.526,1.526,0,0,0,1.314-.654A3.375,3.375,0,0,0,30.8-3.491ZM34.728,0H33.554V-6.868h1.174Zm-1.27-8.69a.7.7,0,0,1,.175-.482.655.655,0,0,1,.517-.2.666.666,0,0,1,.521.2.694.694,0,0,1,.178.482.671.671,0,0,1-.178.476.678.678,0,0,1-.521.19.667.667,0,0,1-.517-.19A.678.678,0,0,1,33.458-8.69ZM40.847,0a2.467,2.467,0,0,1-.165-.724,2.62,2.62,0,0,1-1.955.851,2.424,2.424,0,0,1-1.666-.574A1.859,1.859,0,0,1,36.41-1.9a1.942,1.942,0,0,1,.816-1.666,3.846,3.846,0,0,1,2.295-.594h1.143V-4.7a1.319,1.319,0,0,0-.368-.981,1.48,1.48,0,0,0-1.085-.365,1.712,1.712,0,0,0-1.054.317.935.935,0,0,0-.425.768H36.55a1.621,1.621,0,0,1,.365-.993,2.491,2.491,0,0,1,.99-.759A3.331,3.331,0,0,1,39.279-7a2.715,2.715,0,0,1,1.86.594,2.141,2.141,0,0,1,.7,1.635v3.161a3.865,3.865,0,0,0,.241,1.5V0ZM38.9-.9a2.064,2.064,0,0,0,1.047-.286,1.728,1.728,0,0,0,.717-.743V-3.333h-.92q-2.158,0-2.158,1.263a1.069,1.069,0,0,0,.368.863A1.415,1.415,0,0,0,38.9-.9ZM47-5.814a3.519,3.519,0,0,0-.578-.044,1.547,1.547,0,0,0-1.568.984V0H43.678V-6.868h1.143l.019.793A1.829,1.829,0,0,1,46.478-7,1.2,1.2,0,0,1,47-6.906Z" transform="translate(196.01 343.74)" fill="#12263f"/>
        <path id="Trazado_172253" data-name="Trazado 172253" d="M5.129,0a2.467,2.467,0,0,1-.165-.724A2.62,2.62,0,0,1,3.009.127,2.424,2.424,0,0,1,1.343-.448,1.859,1.859,0,0,1,.692-1.9a1.942,1.942,0,0,1,.816-1.666A3.846,3.846,0,0,1,3.8-4.164H4.945V-4.7a1.319,1.319,0,0,0-.368-.981,1.48,1.48,0,0,0-1.085-.365,1.712,1.712,0,0,0-1.054.317.935.935,0,0,0-.425.768H.832A1.621,1.621,0,0,1,1.2-5.957a2.491,2.491,0,0,1,.99-.759A3.331,3.331,0,0,1,3.561-7a2.715,2.715,0,0,1,1.86.594,2.141,2.141,0,0,1,.7,1.635v3.161A3.865,3.865,0,0,0,6.36-.1V0ZM3.18-.9a2.064,2.064,0,0,0,1.047-.286,1.728,1.728,0,0,0,.717-.743V-3.333h-.92q-2.158,0-2.158,1.263a1.069,1.069,0,0,0,.368.863A1.415,1.415,0,0,0,3.18-.9Zm7.211-8.7H9.179V1.016h1.212V1.98H8V-10.562h2.393ZM15.146,0H13.965V-7.827l-2.368.87V-8.023l3.364-1.263h.184Zm2.729-10.562h2.4V1.98h-2.4V1.016H19.1V-9.6H17.875ZM28.126-.832a1.692,1.692,0,0,0,1.1-.381,1.34,1.34,0,0,0,.521-.952h1.111a2.13,2.13,0,0,1-.406,1.124,2.676,2.676,0,0,1-1,.851,2.885,2.885,0,0,1-1.323.317A2.829,2.829,0,0,1,25.9-.809a3.729,3.729,0,0,1-.828-2.561v-.2a4.135,4.135,0,0,1,.368-1.784,2.8,2.8,0,0,1,1.057-1.212A3,3,0,0,1,28.12-7a2.755,2.755,0,0,1,1.92.692,2.473,2.473,0,0,1,.816,1.8H29.745a1.618,1.618,0,0,0-.5-1.095,1.57,1.57,0,0,0-1.12-.428,1.644,1.644,0,0,0-1.387.644,3.026,3.026,0,0,0-.492,1.863V-3.3a2.965,2.965,0,0,0,.489,1.828A1.651,1.651,0,0,0,28.126-.832ZM31.865-3.5a4.057,4.057,0,0,1,.4-1.815,2.96,2.96,0,0,1,1.1-1.244A3.007,3.007,0,0,1,34.982-7a2.9,2.9,0,0,1,2.269.971,3.736,3.736,0,0,1,.866,2.583v.083a4.092,4.092,0,0,1-.384,1.8,2.916,2.916,0,0,1-1.1,1.241,3.041,3.041,0,0,1-1.641.444,2.889,2.889,0,0,1-2.263-.971,3.718,3.718,0,0,1-.866-2.571Zm1.181.14a2.938,2.938,0,0,0,.53,1.834,1.7,1.7,0,0,0,1.419.692,1.686,1.686,0,0,0,1.422-.7A3.213,3.213,0,0,0,36.943-3.5a2.933,2.933,0,0,0-.536-1.831,1.705,1.705,0,0,0-1.425-.7,1.686,1.686,0,0,0-1.4.692A3.189,3.189,0,0,0,33.046-3.358ZM40.7-6.868,40.739-6A2.5,2.5,0,0,1,42.8-7q2.177,0,2.2,2.457V0H43.818V-4.545a1.581,1.581,0,0,0-.34-1.1A1.361,1.361,0,0,0,42.44-6a1.7,1.7,0,0,0-1,.3,2.069,2.069,0,0,0-.673.8V0H39.59V-6.868ZM54.222,0a2.467,2.467,0,0,1-.165-.724A2.62,2.62,0,0,1,52.1.127a2.424,2.424,0,0,1-1.666-.574A1.859,1.859,0,0,1,49.785-1.9,1.942,1.942,0,0,1,50.6-3.571,3.846,3.846,0,0,1,52.9-4.164h1.143V-4.7a1.319,1.319,0,0,0-.368-.981,1.48,1.48,0,0,0-1.085-.365,1.712,1.712,0,0,0-1.054.317.935.935,0,0,0-.425.768H49.924a1.621,1.621,0,0,1,.365-.993,2.491,2.491,0,0,1,.99-.759A3.331,3.331,0,0,1,52.654-7a2.715,2.715,0,0,1,1.86.594,2.141,2.141,0,0,1,.7,1.635v3.161a3.865,3.865,0,0,0,.241,1.5V0ZM52.273-.9a2.064,2.064,0,0,0,1.047-.286,1.728,1.728,0,0,0,.717-.743V-3.333h-.92q-2.158,0-2.158,1.263a1.069,1.069,0,0,0,.368.863A1.415,1.415,0,0,0,52.273-.9Zm7.211-8.7H58.271V1.016h1.212V1.98H57.091V-10.562h2.393ZM66.435,0H60.379V-.844l3.2-3.555a7.6,7.6,0,0,0,.981-1.311,2.188,2.188,0,0,0,.27-1.044,1.658,1.658,0,0,0-.438-1.187A1.531,1.531,0,0,0,63.223-8.4a1.814,1.814,0,0,0-1.362.5,1.9,1.9,0,0,0-.486,1.387H60.2a2.726,2.726,0,0,1,.822-2.063,3.047,3.047,0,0,1,2.2-.787,2.928,2.928,0,0,1,2.038.676,2.306,2.306,0,0,1,.749,1.8,5.287,5.287,0,0,1-1.739,3.25L61.794-.958h4.64Zm.533-10.562h2.4V1.98h-2.4V1.016h1.225V-9.6H66.968Z" transform="translate(171.37 359.34)" fill="#12263f"/>
      </g>
      <g id="Grupo-2" data-name="Grupo">
        <path id="Trazado_172257" data-name="Trazado 172257" d="M2.38,0H1.162V-9.242H2.38ZM5.535-6.868,5.573-6A2.5,2.5,0,0,1,7.63-7q2.177,0,2.2,2.457V0H8.652V-4.545a1.581,1.581,0,0,0-.34-1.1A1.361,1.361,0,0,0,7.274-6a1.7,1.7,0,0,0-1,.3,2.069,2.069,0,0,0-.673.8V0H4.424V-6.868ZM13.19-8.531v1.663h1.282v.908H13.19V-1.7a.953.953,0,0,0,.171.62.721.721,0,0,0,.584.207A2.843,2.843,0,0,0,14.5-.946V0a3.424,3.424,0,0,1-.9.126,1.462,1.462,0,0,1-1.187-.476,2.045,2.045,0,0,1-.4-1.352V-5.96h-1.25v-.908h1.25V-8.531Zm5.5,8.658A3,3,0,0,1,16.421-.79a3.4,3.4,0,0,1-.876-2.453v-.216a4.121,4.121,0,0,1,.39-1.825,3.045,3.045,0,0,1,1.092-1.257A2.745,2.745,0,0,1,18.548-7a2.572,2.572,0,0,1,2.082.882,3.82,3.82,0,0,1,.743,2.526V-3.1H16.72a2.441,2.441,0,0,0,.594,1.641,1.866,1.866,0,0,0,1.444.625,2.045,2.045,0,0,0,1.054-.254,2.648,2.648,0,0,0,.755-.673l.717.559A2.884,2.884,0,0,1,18.694.127ZM18.548-6.03a1.566,1.566,0,0,0-1.193.517,2.515,2.515,0,0,0-.6,1.45H20.2v-.089a2.237,2.237,0,0,0-.482-1.387A1.475,1.475,0,0,0,18.548-6.03Z" transform="translate(261.83 343.74)" fill="#12263f"/>
        <text id="r-2" data-name="r" transform="translate(283.67 343.74)" fill="#12263f" font-size="13" font-family="Roboto-Regular, Roboto" letter-spacing="-0.01em"><tspan x="0" y="0">r</tspan></text>
        <path id="Trazado_172256" data-name="Trazado 172256" d="M3.644-.832a1.692,1.692,0,0,0,1.1-.381,1.34,1.34,0,0,0,.521-.952H6.373a2.13,2.13,0,0,1-.406,1.124,2.676,2.676,0,0,1-1,.851A2.885,2.885,0,0,1,3.644.127,2.829,2.829,0,0,1,1.412-.809,3.729,3.729,0,0,1,.584-3.371v-.2A4.135,4.135,0,0,1,.952-5.351,2.8,2.8,0,0,1,2.009-6.563,3,3,0,0,1,3.637-7a2.755,2.755,0,0,1,1.92.692,2.473,2.473,0,0,1,.816,1.8H5.262a1.618,1.618,0,0,0-.5-1.095,1.57,1.57,0,0,0-1.12-.428,1.644,1.644,0,0,0-1.387.644,3.026,3.026,0,0,0-.492,1.863V-3.3a2.965,2.965,0,0,0,.489,1.828A1.651,1.651,0,0,0,3.644-.832ZM11.934,0a2.467,2.467,0,0,1-.165-.724A2.62,2.62,0,0,1,9.813.127,2.424,2.424,0,0,1,8.147-.448,1.859,1.859,0,0,1,7.5-1.9a1.942,1.942,0,0,1,.816-1.666,3.846,3.846,0,0,1,2.295-.594H11.75V-4.7a1.319,1.319,0,0,0-.368-.981A1.48,1.48,0,0,0,10.3-6.049a1.712,1.712,0,0,0-1.054.317.935.935,0,0,0-.425.768H7.636A1.621,1.621,0,0,1,8-5.957a2.491,2.491,0,0,1,.99-.759A3.331,3.331,0,0,1,10.366-7a2.715,2.715,0,0,1,1.86.594,2.141,2.141,0,0,1,.7,1.635v3.161a3.865,3.865,0,0,0,.241,1.5V0ZM9.985-.9a2.064,2.064,0,0,0,1.047-.286,1.728,1.728,0,0,0,.717-.743V-3.333h-.92q-2.158,0-2.158,1.263a1.069,1.069,0,0,0,.368.863A1.415,1.415,0,0,0,9.985-.9Zm5.884-5.973.032.762A2.536,2.536,0,0,1,17.938-7a1.964,1.964,0,0,1,1.961,1.1,2.6,2.6,0,0,1,.892-.8,2.634,2.634,0,0,1,1.3-.3q2.26,0,2.3,2.393V0H23.213V-4.532a1.577,1.577,0,0,0-.336-1.1A1.482,1.482,0,0,0,21.747-6a1.557,1.557,0,0,0-1.085.39,1.584,1.584,0,0,0-.5,1.051V0H18.979V-4.5A1.31,1.31,0,0,0,17.513-6a1.571,1.571,0,0,0-1.581.984V0H14.758V-6.868Zm16.1,3.51a4.084,4.084,0,0,1-.724,2.53,2.312,2.312,0,0,1-1.942.955,2.394,2.394,0,0,1-2.012-.92L27.238,0H26.159V-9.75h1.174v3.637A2.381,2.381,0,0,1,29.294-7a2.326,2.326,0,0,1,1.965.946,4.206,4.206,0,0,1,.714,2.59ZM30.8-3.491a3.173,3.173,0,0,0-.463-1.854A1.534,1.534,0,0,0,29-6a1.724,1.724,0,0,0-1.669,1.079v2.971A1.772,1.772,0,0,0,29.015-.87a1.526,1.526,0,0,0,1.314-.654A3.375,3.375,0,0,0,30.8-3.491ZM34.728,0H33.554V-6.868h1.174Zm-1.27-8.69a.7.7,0,0,1,.175-.482.655.655,0,0,1,.517-.2.666.666,0,0,1,.521.2.694.694,0,0,1,.178.482.671.671,0,0,1-.178.476.678.678,0,0,1-.521.19.667.667,0,0,1-.517-.19A.678.678,0,0,1,33.458-8.69ZM40.847,0a2.467,2.467,0,0,1-.165-.724,2.62,2.62,0,0,1-1.955.851,2.424,2.424,0,0,1-1.666-.574A1.859,1.859,0,0,1,36.41-1.9a1.942,1.942,0,0,1,.816-1.666,3.846,3.846,0,0,1,2.295-.594h1.143V-4.7a1.319,1.319,0,0,0-.368-.981,1.48,1.48,0,0,0-1.085-.365,1.712,1.712,0,0,0-1.054.317.935.935,0,0,0-.425.768H36.55a1.621,1.621,0,0,1,.365-.993,2.491,2.491,0,0,1,.99-.759A3.331,3.331,0,0,1,39.279-7a2.715,2.715,0,0,1,1.86.594,2.141,2.141,0,0,1,.7,1.635v3.161a3.865,3.865,0,0,0,.241,1.5V0ZM38.9-.9a2.064,2.064,0,0,0,1.047-.286,1.728,1.728,0,0,0,.717-.743V-3.333h-.92q-2.158,0-2.158,1.263a1.069,1.069,0,0,0,.368.863A1.415,1.415,0,0,0,38.9-.9ZM47-5.814a3.519,3.519,0,0,0-.578-.044,1.547,1.547,0,0,0-1.568.984V0H43.678V-6.868h1.143l.019.793A1.829,1.829,0,0,1,46.478-7,1.2,1.2,0,0,1,47-6.906Z" transform="translate(287.95 343.74)" fill="#12263f"/>
        <path id="Trazado_172258" data-name="Trazado 172258" d="M5.129,0a2.467,2.467,0,0,1-.165-.724A2.62,2.62,0,0,1,3.009.127,2.424,2.424,0,0,1,1.343-.448,1.859,1.859,0,0,1,.692-1.9a1.942,1.942,0,0,1,.816-1.666A3.846,3.846,0,0,1,3.8-4.164H4.945V-4.7a1.319,1.319,0,0,0-.368-.981,1.48,1.48,0,0,0-1.085-.365,1.712,1.712,0,0,0-1.054.317.935.935,0,0,0-.425.768H.832A1.621,1.621,0,0,1,1.2-5.957a2.491,2.491,0,0,1,.99-.759A3.331,3.331,0,0,1,3.561-7a2.715,2.715,0,0,1,1.86.594,2.141,2.141,0,0,1,.7,1.635v3.161A3.865,3.865,0,0,0,6.36-.1V0ZM3.18-.9a2.064,2.064,0,0,0,1.047-.286,1.728,1.728,0,0,0,.717-.743V-3.333h-.92q-2.158,0-2.158,1.263a1.069,1.069,0,0,0,.368.863A1.415,1.415,0,0,0,3.18-.9Zm7.211-8.7H9.179V1.016h1.212V1.98H8V-10.562h2.393ZM17.342,0H11.286V-.844l3.2-3.555a7.6,7.6,0,0,0,.981-1.311,2.188,2.188,0,0,0,.27-1.044A1.658,1.658,0,0,0,15.3-7.941,1.531,1.531,0,0,0,14.13-8.4a1.814,1.814,0,0,0-1.362.5,1.9,1.9,0,0,0-.486,1.387H11.108a2.726,2.726,0,0,1,.822-2.063,3.047,3.047,0,0,1,2.2-.787,2.928,2.928,0,0,1,2.038.676,2.306,2.306,0,0,1,.749,1.8,5.287,5.287,0,0,1-1.739,3.25L12.7-.958h4.64Zm.533-10.562h2.4V1.98h-2.4V1.016H19.1V-9.6H17.875ZM28.126-.832a1.692,1.692,0,0,0,1.1-.381,1.34,1.34,0,0,0,.521-.952h1.111a2.13,2.13,0,0,1-.406,1.124,2.676,2.676,0,0,1-1,.851,2.885,2.885,0,0,1-1.323.317A2.829,2.829,0,0,1,25.9-.809a3.729,3.729,0,0,1-.828-2.561v-.2a4.135,4.135,0,0,1,.368-1.784,2.8,2.8,0,0,1,1.057-1.212A3,3,0,0,1,28.12-7a2.755,2.755,0,0,1,1.92.692,2.473,2.473,0,0,1,.816,1.8H29.745a1.618,1.618,0,0,0-.5-1.095,1.57,1.57,0,0,0-1.12-.428,1.644,1.644,0,0,0-1.387.644,3.026,3.026,0,0,0-.492,1.863V-3.3a2.965,2.965,0,0,0,.489,1.828A1.651,1.651,0,0,0,28.126-.832ZM31.865-3.5a4.057,4.057,0,0,1,.4-1.815,2.96,2.96,0,0,1,1.1-1.244A3.007,3.007,0,0,1,34.982-7a2.9,2.9,0,0,1,2.269.971,3.736,3.736,0,0,1,.866,2.583v.083a4.092,4.092,0,0,1-.384,1.8,2.916,2.916,0,0,1-1.1,1.241,3.041,3.041,0,0,1-1.641.444,2.889,2.889,0,0,1-2.263-.971,3.718,3.718,0,0,1-.866-2.571Zm1.181.14a2.938,2.938,0,0,0,.53,1.834,1.7,1.7,0,0,0,1.419.692,1.686,1.686,0,0,0,1.422-.7A3.213,3.213,0,0,0,36.943-3.5a2.933,2.933,0,0,0-.536-1.831,1.705,1.705,0,0,0-1.425-.7,1.686,1.686,0,0,0-1.4.692A3.189,3.189,0,0,0,33.046-3.358ZM40.7-6.868,40.739-6A2.5,2.5,0,0,1,42.8-7q2.177,0,2.2,2.457V0H43.818V-4.545a1.581,1.581,0,0,0-.34-1.1A1.361,1.361,0,0,0,42.44-6a1.7,1.7,0,0,0-1,.3,2.069,2.069,0,0,0-.673.8V0H39.59V-6.868ZM54.222,0a2.467,2.467,0,0,1-.165-.724A2.62,2.62,0,0,1,52.1.127a2.424,2.424,0,0,1-1.666-.574A1.859,1.859,0,0,1,49.785-1.9,1.942,1.942,0,0,1,50.6-3.571,3.846,3.846,0,0,1,52.9-4.164h1.143V-4.7a1.319,1.319,0,0,0-.368-.981,1.48,1.48,0,0,0-1.085-.365,1.712,1.712,0,0,0-1.054.317.935.935,0,0,0-.425.768H49.924a1.621,1.621,0,0,1,.365-.993,2.491,2.491,0,0,1,.99-.759A3.331,3.331,0,0,1,52.654-7a2.715,2.715,0,0,1,1.86.594,2.141,2.141,0,0,1,.7,1.635v3.161a3.865,3.865,0,0,0,.241,1.5V0ZM52.273-.9a2.064,2.064,0,0,0,1.047-.286,1.728,1.728,0,0,0,.717-.743V-3.333h-.92q-2.158,0-2.158,1.263a1.069,1.069,0,0,0,.368.863A1.415,1.415,0,0,0,52.273-.9Zm7.211-8.7H58.271V1.016h1.212V1.98H57.091V-10.562h2.393Zm2.6,4.405h.882a1.939,1.939,0,0,0,1.308-.438,1.463,1.463,0,0,0,.476-1.149A1.434,1.434,0,0,0,63.134-8.4a1.684,1.684,0,0,0-1.216.435,1.522,1.522,0,0,0-.454,1.152H60.29a2.358,2.358,0,0,1,.8-1.825,2.925,2.925,0,0,1,2.041-.727,2.891,2.891,0,0,1,2.05.692,2.5,2.5,0,0,1,.743,1.923,2.029,2.029,0,0,1-.39,1.168,2.357,2.357,0,0,1-1.063.844,2.271,2.271,0,0,1,1.177.8,2.221,2.221,0,0,1,.416,1.365A2.521,2.521,0,0,1,65.254-.6a3.043,3.043,0,0,1-2.114.73,3.123,3.123,0,0,1-2.117-.7,2.337,2.337,0,0,1-.816-1.86h1.181a1.511,1.511,0,0,0,.476,1.168,1.811,1.811,0,0,0,1.276.438,1.777,1.777,0,0,0,1.3-.444,1.712,1.712,0,0,0,.451-1.276,1.554,1.554,0,0,0-.5-1.238,2.157,2.157,0,0,0-1.428-.444h-.882Zm4.881-5.37h2.4V1.98h-2.4V1.016h1.225V-9.6H66.968Z" transform="translate(263.31 359.34)" fill="#12263f"/>
      </g>
      <g id="Grupo-3" data-name="Grupo">
        <path id="Trazado_172259" data-name="Trazado 172259" d="M2.38,0H1.162V-9.242H2.38ZM5.535-6.868,5.573-6A2.5,2.5,0,0,1,7.63-7q2.177,0,2.2,2.457V0H8.652V-4.545a1.581,1.581,0,0,0-.34-1.1A1.361,1.361,0,0,0,7.274-6a1.7,1.7,0,0,0-1,.3,2.069,2.069,0,0,0-.673.8V0H4.424V-6.868ZM13.19-8.531v1.663h1.282v.908H13.19V-1.7a.953.953,0,0,0,.171.62.721.721,0,0,0,.584.207A2.843,2.843,0,0,0,14.5-.946V0a3.424,3.424,0,0,1-.9.126,1.462,1.462,0,0,1-1.187-.476,2.045,2.045,0,0,1-.4-1.352V-5.96h-1.25v-.908h1.25V-8.531Zm5.5,8.658A3,3,0,0,1,16.421-.79a3.4,3.4,0,0,1-.876-2.453v-.216a4.121,4.121,0,0,1,.39-1.825,3.045,3.045,0,0,1,1.092-1.257A2.745,2.745,0,0,1,18.548-7a2.572,2.572,0,0,1,2.082.882,3.82,3.82,0,0,1,.743,2.526V-3.1H16.72a2.441,2.441,0,0,0,.594,1.641,1.866,1.866,0,0,0,1.444.625,2.045,2.045,0,0,0,1.054-.254,2.648,2.648,0,0,0,.755-.673l.717.559A2.884,2.884,0,0,1,18.694.127ZM18.548-6.03a1.566,1.566,0,0,0-1.193.517,2.515,2.515,0,0,0-.6,1.45H20.2v-.089a2.237,2.237,0,0,0-.482-1.387A1.475,1.475,0,0,0,18.548-6.03Z" transform="translate(352.08 343.74)" fill="#12263f"/>
        <text id="r-3" data-name="r" transform="translate(373.92 343.74)" fill="#12263f" font-size="13" font-family="Roboto-Regular, Roboto" letter-spacing="-0.01em"><tspan x="0" y="0">r</tspan></text>
        <path id="Trazado_172260" data-name="Trazado 172260" d="M3.644-.832a1.692,1.692,0,0,0,1.1-.381,1.34,1.34,0,0,0,.521-.952H6.373a2.13,2.13,0,0,1-.406,1.124,2.676,2.676,0,0,1-1,.851A2.885,2.885,0,0,1,3.644.127,2.829,2.829,0,0,1,1.412-.809,3.729,3.729,0,0,1,.584-3.371v-.2A4.135,4.135,0,0,1,.952-5.351,2.8,2.8,0,0,1,2.009-6.563,3,3,0,0,1,3.637-7a2.755,2.755,0,0,1,1.92.692,2.473,2.473,0,0,1,.816,1.8H5.262a1.618,1.618,0,0,0-.5-1.095,1.57,1.57,0,0,0-1.12-.428,1.644,1.644,0,0,0-1.387.644,3.026,3.026,0,0,0-.492,1.863V-3.3a2.965,2.965,0,0,0,.489,1.828A1.651,1.651,0,0,0,3.644-.832ZM11.934,0a2.467,2.467,0,0,1-.165-.724A2.62,2.62,0,0,1,9.813.127,2.424,2.424,0,0,1,8.147-.448,1.859,1.859,0,0,1,7.5-1.9a1.942,1.942,0,0,1,.816-1.666,3.846,3.846,0,0,1,2.295-.594H11.75V-4.7a1.319,1.319,0,0,0-.368-.981A1.48,1.48,0,0,0,10.3-6.049a1.712,1.712,0,0,0-1.054.317.935.935,0,0,0-.425.768H7.636A1.621,1.621,0,0,1,8-5.957a2.491,2.491,0,0,1,.99-.759A3.331,3.331,0,0,1,10.366-7a2.715,2.715,0,0,1,1.86.594,2.141,2.141,0,0,1,.7,1.635v3.161a3.865,3.865,0,0,0,.241,1.5V0ZM9.985-.9a2.064,2.064,0,0,0,1.047-.286,1.728,1.728,0,0,0,.717-.743V-3.333h-.92q-2.158,0-2.158,1.263a1.069,1.069,0,0,0,.368.863A1.415,1.415,0,0,0,9.985-.9Zm5.884-5.973.032.762A2.536,2.536,0,0,1,17.938-7a1.964,1.964,0,0,1,1.961,1.1,2.6,2.6,0,0,1,.892-.8,2.634,2.634,0,0,1,1.3-.3q2.26,0,2.3,2.393V0H23.213V-4.532a1.577,1.577,0,0,0-.336-1.1A1.482,1.482,0,0,0,21.747-6a1.557,1.557,0,0,0-1.085.39,1.584,1.584,0,0,0-.5,1.051V0H18.979V-4.5A1.31,1.31,0,0,0,17.513-6a1.571,1.571,0,0,0-1.581.984V0H14.758V-6.868Zm16.1,3.51a4.084,4.084,0,0,1-.724,2.53,2.312,2.312,0,0,1-1.942.955,2.394,2.394,0,0,1-2.012-.92L27.238,0H26.159V-9.75h1.174v3.637A2.381,2.381,0,0,1,29.294-7a2.326,2.326,0,0,1,1.965.946,4.206,4.206,0,0,1,.714,2.59ZM30.8-3.491a3.173,3.173,0,0,0-.463-1.854A1.534,1.534,0,0,0,29-6a1.724,1.724,0,0,0-1.669,1.079v2.971A1.772,1.772,0,0,0,29.015-.87a1.526,1.526,0,0,0,1.314-.654A3.375,3.375,0,0,0,30.8-3.491ZM34.728,0H33.554V-6.868h1.174Zm-1.27-8.69a.7.7,0,0,1,.175-.482.655.655,0,0,1,.517-.2.666.666,0,0,1,.521.2.694.694,0,0,1,.178.482.671.671,0,0,1-.178.476.678.678,0,0,1-.521.19.667.667,0,0,1-.517-.19A.678.678,0,0,1,33.458-8.69ZM40.847,0a2.467,2.467,0,0,1-.165-.724,2.62,2.62,0,0,1-1.955.851,2.424,2.424,0,0,1-1.666-.574A1.859,1.859,0,0,1,36.41-1.9a1.942,1.942,0,0,1,.816-1.666,3.846,3.846,0,0,1,2.295-.594h1.143V-4.7a1.319,1.319,0,0,0-.368-.981,1.48,1.48,0,0,0-1.085-.365,1.712,1.712,0,0,0-1.054.317.935.935,0,0,0-.425.768H36.55a1.621,1.621,0,0,1,.365-.993,2.491,2.491,0,0,1,.99-.759A3.331,3.331,0,0,1,39.279-7a2.715,2.715,0,0,1,1.86.594,2.141,2.141,0,0,1,.7,1.635v3.161a3.865,3.865,0,0,0,.241,1.5V0ZM38.9-.9a2.064,2.064,0,0,0,1.047-.286,1.728,1.728,0,0,0,.717-.743V-3.333h-.92q-2.158,0-2.158,1.263a1.069,1.069,0,0,0,.368.863A1.415,1.415,0,0,0,38.9-.9ZM47-5.814a3.519,3.519,0,0,0-.578-.044,1.547,1.547,0,0,0-1.568.984V0H43.678V-6.868h1.143l.019.793A1.829,1.829,0,0,1,46.478-7,1.2,1.2,0,0,1,47-6.906Z" transform="translate(378.2 343.74)" fill="#12263f"/>
        <path id="Trazado_172261" data-name="Trazado 172261" d="M5.129,0a2.467,2.467,0,0,1-.165-.724A2.62,2.62,0,0,1,3.009.127,2.424,2.424,0,0,1,1.343-.448,1.859,1.859,0,0,1,.692-1.9a1.942,1.942,0,0,1,.816-1.666A3.846,3.846,0,0,1,3.8-4.164H4.945V-4.7a1.319,1.319,0,0,0-.368-.981,1.48,1.48,0,0,0-1.085-.365,1.712,1.712,0,0,0-1.054.317.935.935,0,0,0-.425.768H.832A1.621,1.621,0,0,1,1.2-5.957a2.491,2.491,0,0,1,.99-.759A3.331,3.331,0,0,1,3.561-7a2.715,2.715,0,0,1,1.86.594,2.141,2.141,0,0,1,.7,1.635v3.161A3.865,3.865,0,0,0,6.36-.1V0ZM3.18-.9a2.064,2.064,0,0,0,1.047-.286,1.728,1.728,0,0,0,.717-.743V-3.333h-.92q-2.158,0-2.158,1.263a1.069,1.069,0,0,0,.368.863A1.415,1.415,0,0,0,3.18-.9Zm7.211-8.7H9.179V1.016h1.212V1.98H8V-10.562h2.393Zm2.6,4.405h.882a1.939,1.939,0,0,0,1.308-.438,1.463,1.463,0,0,0,.476-1.149A1.434,1.434,0,0,0,14.041-8.4a1.684,1.684,0,0,0-1.216.435,1.522,1.522,0,0,0-.454,1.152H11.2A2.358,2.358,0,0,1,12-8.642a2.925,2.925,0,0,1,2.041-.727,2.891,2.891,0,0,1,2.05.692,2.5,2.5,0,0,1,.743,1.923,2.029,2.029,0,0,1-.39,1.168,2.357,2.357,0,0,1-1.063.844,2.271,2.271,0,0,1,1.177.8,2.221,2.221,0,0,1,.416,1.365A2.521,2.521,0,0,1,16.161-.6a3.043,3.043,0,0,1-2.114.73,3.123,3.123,0,0,1-2.117-.7,2.337,2.337,0,0,1-.816-1.86H12.3a1.511,1.511,0,0,0,.476,1.168,1.811,1.811,0,0,0,1.276.438,1.777,1.777,0,0,0,1.3-.444A1.712,1.712,0,0,0,15.8-2.552a1.554,1.554,0,0,0-.5-1.238,2.157,2.157,0,0,0-1.428-.444h-.882Zm4.881-5.37h2.4V1.98h-2.4V1.016H19.1V-9.6H17.875ZM28.126-.832a1.692,1.692,0,0,0,1.1-.381,1.34,1.34,0,0,0,.521-.952h1.111a2.13,2.13,0,0,1-.406,1.124,2.676,2.676,0,0,1-1,.851,2.885,2.885,0,0,1-1.323.317A2.829,2.829,0,0,1,25.9-.809a3.729,3.729,0,0,1-.828-2.561v-.2a4.135,4.135,0,0,1,.368-1.784,2.8,2.8,0,0,1,1.057-1.212A3,3,0,0,1,28.12-7a2.755,2.755,0,0,1,1.92.692,2.473,2.473,0,0,1,.816,1.8H29.745a1.618,1.618,0,0,0-.5-1.095,1.57,1.57,0,0,0-1.12-.428,1.644,1.644,0,0,0-1.387.644,3.026,3.026,0,0,0-.492,1.863V-3.3a2.965,2.965,0,0,0,.489,1.828A1.651,1.651,0,0,0,28.126-.832ZM31.865-3.5a4.057,4.057,0,0,1,.4-1.815,2.96,2.96,0,0,1,1.1-1.244A3.007,3.007,0,0,1,34.982-7a2.9,2.9,0,0,1,2.269.971,3.736,3.736,0,0,1,.866,2.583v.083a4.092,4.092,0,0,1-.384,1.8,2.916,2.916,0,0,1-1.1,1.241,3.041,3.041,0,0,1-1.641.444,2.889,2.889,0,0,1-2.263-.971,3.718,3.718,0,0,1-.866-2.571Zm1.181.14a2.938,2.938,0,0,0,.53,1.834,1.7,1.7,0,0,0,1.419.692,1.686,1.686,0,0,0,1.422-.7A3.213,3.213,0,0,0,36.943-3.5a2.933,2.933,0,0,0-.536-1.831,1.705,1.705,0,0,0-1.425-.7,1.686,1.686,0,0,0-1.4.692A3.189,3.189,0,0,0,33.046-3.358ZM40.7-6.868,40.739-6A2.5,2.5,0,0,1,42.8-7q2.177,0,2.2,2.457V0H43.818V-4.545a1.581,1.581,0,0,0-.34-1.1A1.361,1.361,0,0,0,42.44-6a1.7,1.7,0,0,0-1,.3,2.069,2.069,0,0,0-.673.8V0H39.59V-6.868ZM54.222,0a2.467,2.467,0,0,1-.165-.724A2.62,2.62,0,0,1,52.1.127a2.424,2.424,0,0,1-1.666-.574A1.859,1.859,0,0,1,49.785-1.9,1.942,1.942,0,0,1,50.6-3.571,3.846,3.846,0,0,1,52.9-4.164h1.143V-4.7a1.319,1.319,0,0,0-.368-.981,1.48,1.48,0,0,0-1.085-.365,1.712,1.712,0,0,0-1.054.317.935.935,0,0,0-.425.768H49.924a1.621,1.621,0,0,1,.365-.993,2.491,2.491,0,0,1,.99-.759A3.331,3.331,0,0,1,52.654-7a2.715,2.715,0,0,1,1.86.594,2.141,2.141,0,0,1,.7,1.635v3.161a3.865,3.865,0,0,0,.241,1.5V0ZM52.273-.9a2.064,2.064,0,0,0,1.047-.286,1.728,1.728,0,0,0,.717-.743V-3.333h-.92q-2.158,0-2.158,1.263a1.069,1.069,0,0,0,.368.863A1.415,1.415,0,0,0,52.273-.9Zm7.211-8.7H58.271V1.016h1.212V1.98H57.091V-10.562h2.393ZM65.336-3.1h1.282v.958H65.336V0H64.156V-2.146H59.947v-.692l4.139-6.4h1.25Zm-4.056,0h2.875V-7.636l-.14.254Zm5.688-7.458h2.4V1.98h-2.4V1.016h1.225V-9.6H66.968Z" transform="translate(353.56 359.34)" fill="#12263f"/>
      </g>
      <path id="Trazado_172245" data-name="Trazado 172245" d="M6.176-2.418H2.3L1.435,0H.178L3.707-9.242H4.773L8.309,0H7.059Zm-3.5-1H5.814L4.24-7.738ZM10.645,0H9.471V-9.75h1.174Zm1.6-3.491a4.037,4.037,0,0,1,.743-2.555A2.375,2.375,0,0,1,14.955-7a2.363,2.363,0,0,1,1.961.889l.057-.762h1.073v6.7a2.794,2.794,0,0,1-.79,2.1,2.916,2.916,0,0,1-2.123.768,3.532,3.532,0,0,1-1.454-.317,2.5,2.5,0,0,1-1.085-.87l.609-.7a2.3,2.3,0,0,0,1.847.933,1.8,1.8,0,0,0,1.336-.482A1.844,1.844,0,0,0,16.866-.1v-.59a2.414,2.414,0,0,1-1.923.813A2.346,2.346,0,0,1,12.99-.844,4.244,4.244,0,0,1,12.245-3.491Zm1.181.133A3.08,3.08,0,0,0,13.9-1.533a1.547,1.547,0,0,0,1.333.663,1.72,1.72,0,0,0,1.631-1.009V-5.015A1.74,1.74,0,0,0,15.247-6a1.561,1.561,0,0,0-1.339.667A3.354,3.354,0,0,0,13.425-3.358Zm6.081-.14a4.057,4.057,0,0,1,.4-1.815,2.96,2.96,0,0,1,1.1-1.244A3.007,3.007,0,0,1,22.623-7a2.9,2.9,0,0,1,2.269.971,3.736,3.736,0,0,1,.866,2.583v.083a4.092,4.092,0,0,1-.384,1.8,2.916,2.916,0,0,1-1.1,1.241,3.041,3.041,0,0,1-1.641.444,2.889,2.889,0,0,1-2.263-.971,3.718,3.718,0,0,1-.866-2.571Zm1.181.14a2.938,2.938,0,0,0,.53,1.834,1.7,1.7,0,0,0,1.419.692,1.686,1.686,0,0,0,1.422-.7A3.213,3.213,0,0,0,24.584-3.5a2.933,2.933,0,0,0-.536-1.831,1.705,1.705,0,0,0-1.425-.7,1.686,1.686,0,0,0-1.4.692A3.189,3.189,0,0,0,20.687-3.358Zm9.864-2.457a3.519,3.519,0,0,0-.578-.044,1.547,1.547,0,0,0-1.568.984V0H27.231V-6.868h1.143l.019.793A1.829,1.829,0,0,1,30.031-7a1.2,1.2,0,0,1,.521.089ZM32.906,0H31.732V-6.868h1.174Zm-1.27-8.69a.7.7,0,0,1,.175-.482.655.655,0,0,1,.517-.2.666.666,0,0,1,.521.2.694.694,0,0,1,.178.482.671.671,0,0,1-.178.476.678.678,0,0,1-.521.19.667.667,0,0,1-.517-.19A.678.678,0,0,1,31.637-8.69Zm4.742.159v1.663h1.282v.908H36.378V-1.7a.953.953,0,0,0,.171.62.721.721,0,0,0,.584.207,2.843,2.843,0,0,0,.559-.076V0a3.424,3.424,0,0,1-.9.126A1.462,1.462,0,0,1,35.6-.349,2.045,2.045,0,0,1,35.2-1.7V-5.96h-1.25v-.908H35.2V-8.531Zm3.758,1.663.032.762A2.536,2.536,0,0,1,42.206-7a1.964,1.964,0,0,1,1.961,1.1,2.6,2.6,0,0,1,.892-.8,2.634,2.634,0,0,1,1.3-.3q2.26,0,2.3,2.393V0H47.48V-4.532a1.577,1.577,0,0,0-.336-1.1A1.482,1.482,0,0,0,46.014-6a1.557,1.557,0,0,0-1.085.39,1.584,1.584,0,0,0-.5,1.051V0H43.247V-4.5A1.31,1.31,0,0,0,41.78-6a1.571,1.571,0,0,0-1.581.984V0H39.025V-6.868ZM50.115-3.5a4.057,4.057,0,0,1,.4-1.815,2.96,2.96,0,0,1,1.1-1.244A3.007,3.007,0,0,1,53.231-7a2.9,2.9,0,0,1,2.269.971,3.736,3.736,0,0,1,.866,2.583v.083a4.092,4.092,0,0,1-.384,1.8,2.916,2.916,0,0,1-1.1,1.241,3.041,3.041,0,0,1-1.641.444,2.889,2.889,0,0,1-2.263-.971,3.718,3.718,0,0,1-.866-2.571Zm1.181.14a2.938,2.938,0,0,0,.53,1.834,1.7,1.7,0,0,0,1.419.692,1.686,1.686,0,0,0,1.422-.7A3.213,3.213,0,0,0,55.193-3.5a2.933,2.933,0,0,0-.536-1.831,1.705,1.705,0,0,0-1.425-.7,1.686,1.686,0,0,0-1.4.692A3.189,3.189,0,0,0,51.3-3.358Zm9.477-.133a4.023,4.023,0,0,1,.749-2.542A2.369,2.369,0,0,1,63.483-7a2.382,2.382,0,0,1,1.911.825V-9.75h1.174V0H65.489l-.057-.736A2.391,2.391,0,0,1,63.47.127a2.346,2.346,0,0,1-1.946-.978A4.069,4.069,0,0,1,60.772-3.4Zm1.174.133a3.046,3.046,0,0,0,.482,1.828,1.56,1.56,0,0,0,1.333.66,1.713,1.713,0,0,0,1.631-1V-5.027A1.726,1.726,0,0,0,63.775-6a1.567,1.567,0,0,0-1.346.667A3.354,3.354,0,0,0,61.947-3.358ZM71.24.127A3,3,0,0,1,68.967-.79a3.4,3.4,0,0,1-.876-2.453v-.216a4.121,4.121,0,0,1,.39-1.825,3.045,3.045,0,0,1,1.092-1.257A2.745,2.745,0,0,1,71.094-7a2.572,2.572,0,0,1,2.082.882,3.82,3.82,0,0,1,.743,2.526V-3.1H69.266a2.441,2.441,0,0,0,.594,1.641A1.866,1.866,0,0,0,71.3-.832a2.045,2.045,0,0,0,1.054-.254,2.648,2.648,0,0,0,.755-.673l.717.559A2.884,2.884,0,0,1,71.24.127ZM71.094-6.03a1.566,1.566,0,0,0-1.193.517,2.515,2.515,0,0,0-.6,1.45h3.44v-.089a2.237,2.237,0,0,0-.482-1.387A1.475,1.475,0,0,0,71.094-6.03ZM79.771,0H78.6V-9.75h1.174ZM85.89,0a2.467,2.467,0,0,1-.165-.724A2.62,2.62,0,0,1,83.77.127,2.424,2.424,0,0,1,82.1-.448,1.859,1.859,0,0,1,81.453-1.9a1.942,1.942,0,0,1,.816-1.666,3.846,3.846,0,0,1,2.295-.594h1.143V-4.7a1.319,1.319,0,0,0-.368-.981,1.48,1.48,0,0,0-1.085-.365,1.712,1.712,0,0,0-1.054.317.935.935,0,0,0-.425.768H81.593a1.621,1.621,0,0,1,.365-.993,2.491,2.491,0,0,1,.99-.759A3.331,3.331,0,0,1,84.322-7a2.715,2.715,0,0,1,1.86.594,2.141,2.141,0,0,1,.7,1.635v3.161a3.865,3.865,0,0,0,.241,1.5V0ZM83.941-.9a2.064,2.064,0,0,0,1.047-.286,1.728,1.728,0,0,0,.717-.743V-3.333h-.92q-2.158,0-2.158,1.263A1.069,1.069,0,0,0,83-1.206,1.415,1.415,0,0,0,83.941-.9ZM97.754-3.358a4.084,4.084,0,0,1-.724,2.53,2.312,2.312,0,0,1-1.942.955,2.394,2.394,0,0,1-2.012-.92L93.019,0H91.939V-9.75h1.174v3.637A2.381,2.381,0,0,1,95.075-7a2.326,2.326,0,0,1,1.965.946,4.206,4.206,0,0,1,.714,2.59ZM96.58-3.491a3.173,3.173,0,0,0-.463-1.854A1.534,1.534,0,0,0,94.783-6a1.724,1.724,0,0,0-1.669,1.079v2.971A1.772,1.772,0,0,0,94.8-.87a1.526,1.526,0,0,0,1.314-.654A3.375,3.375,0,0,0,96.58-3.491Zm6.894,2.812a2.494,2.494,0,0,1-2.012.806,2.135,2.135,0,0,1-1.673-.638A2.761,2.761,0,0,1,99.208-2.4V-6.868h1.174v4.437q0,1.562,1.27,1.562a1.758,1.758,0,0,0,1.79-1v-5h1.174V0H103.5Zm6.246-5.135a3.519,3.519,0,0,0-.578-.044,1.547,1.547,0,0,0-1.568.984V0H106.4V-6.868h1.143l.019.793A1.829,1.829,0,0,1,109.2-7a1.2,1.2,0,0,1,.521.089Zm6.894,2.457a4.084,4.084,0,0,1-.724,2.53,2.312,2.312,0,0,1-1.942.955,2.394,2.394,0,0,1-2.012-.92L111.877,0H110.8V-9.75h1.174v3.637A2.381,2.381,0,0,1,113.934-7a2.326,2.326,0,0,1,1.965.946,4.206,4.206,0,0,1,.714,2.59Zm-1.174-.133a3.173,3.173,0,0,0-.463-1.854A1.534,1.534,0,0,0,113.642-6a1.724,1.724,0,0,0-1.669,1.079v2.971A1.772,1.772,0,0,0,113.655-.87a1.526,1.526,0,0,0,1.314-.654A3.375,3.375,0,0,0,115.438-3.491Zm6.894,2.812a2.494,2.494,0,0,1-2.012.806,2.135,2.135,0,0,1-1.673-.638,2.761,2.761,0,0,1-.581-1.888V-6.868h1.174v4.437q0,1.562,1.27,1.562a1.758,1.758,0,0,0,1.79-1v-5h1.174V0h-1.117Zm4.139-6.189V.793q0,1.98-1.8,1.98a2.191,2.191,0,0,1-.717-.114V1.727a2.27,2.27,0,0,0,.533.051.8.8,0,0,0,.6-.213,1.052,1.052,0,0,0,.206-.74V-6.868ZM125.176-8.69a.7.7,0,0,1,.175-.479.642.642,0,0,1,.511-.2.666.666,0,0,1,.521.2.694.694,0,0,1,.178.482.671.671,0,0,1-.178.476.678.678,0,0,1-.521.19.657.657,0,0,1-.514-.19A.685.685,0,0,1,125.176-8.69ZM132.6,0a2.467,2.467,0,0,1-.165-.724,2.62,2.62,0,0,1-1.955.851,2.424,2.424,0,0,1-1.666-.574,1.859,1.859,0,0,1-.651-1.457,1.942,1.942,0,0,1,.816-1.666,3.846,3.846,0,0,1,2.295-.594h1.143V-4.7a1.319,1.319,0,0,0-.368-.981,1.48,1.48,0,0,0-1.085-.365,1.712,1.712,0,0,0-1.054.317.935.935,0,0,0-.425.768h-1.181a1.621,1.621,0,0,1,.365-.993,2.491,2.491,0,0,1,.99-.759A3.331,3.331,0,0,1,131.035-7a2.715,2.715,0,0,1,1.86.594,2.141,2.141,0,0,1,.7,1.635v3.161a3.865,3.865,0,0,0,.241,1.5V0Zm-1.949-.9a2.064,2.064,0,0,0,1.047-.286,1.728,1.728,0,0,0,.717-.743V-3.333h-.92q-2.158,0-2.158,1.263a1.069,1.069,0,0,0,.368.863A1.415,1.415,0,0,0,130.654-.9Z" transform="translate(234.73 30.24)" fill="#12263f"/>
      <g id="Grupo-4" data-name="Grupo">
        <path id="Trazado_172262" data-name="Trazado 172262" d="M2.38,0H1.162V-9.242H2.38ZM5.535-6.868,5.573-6A2.5,2.5,0,0,1,7.63-7q2.177,0,2.2,2.457V0H8.652V-4.545a1.581,1.581,0,0,0-.34-1.1A1.361,1.361,0,0,0,7.274-6a1.7,1.7,0,0,0-1,.3,2.069,2.069,0,0,0-.673.8V0H4.424V-6.868ZM13.19-8.531v1.663h1.282v.908H13.19V-1.7a.953.953,0,0,0,.171.62.721.721,0,0,0,.584.207A2.843,2.843,0,0,0,14.5-.946V0a3.424,3.424,0,0,1-.9.126,1.462,1.462,0,0,1-1.187-.476,2.045,2.045,0,0,1-.4-1.352V-5.96h-1.25v-.908h1.25V-8.531Zm5.5,8.658A3,3,0,0,1,16.421-.79a3.4,3.4,0,0,1-.876-2.453v-.216a4.121,4.121,0,0,1,.39-1.825,3.045,3.045,0,0,1,1.092-1.257A2.745,2.745,0,0,1,18.548-7a2.572,2.572,0,0,1,2.082.882,3.82,3.82,0,0,1,.743,2.526V-3.1H16.72a2.441,2.441,0,0,0,.594,1.641,1.866,1.866,0,0,0,1.444.625,2.045,2.045,0,0,0,1.054-.254,2.648,2.648,0,0,0,.755-.673l.717.559A2.884,2.884,0,0,1,18.694.127ZM18.548-6.03a1.566,1.566,0,0,0-1.193.517,2.515,2.515,0,0,0-.6,1.45H20.2v-.089a2.237,2.237,0,0,0-.482-1.387A1.475,1.475,0,0,0,18.548-6.03Z" transform="translate(442.71 343.74)" fill="#12263f"/>
        <text id="r-4" data-name="r" transform="translate(464.55 343.74)" fill="#12263f" font-size="13" font-family="Roboto-Regular, Roboto" letter-spacing="-0.01em"><tspan x="0" y="0">r</tspan></text>
        <path id="Trazado_172264" data-name="Trazado 172264" d="M3.644-.832a1.692,1.692,0,0,0,1.1-.381,1.34,1.34,0,0,0,.521-.952H6.373a2.13,2.13,0,0,1-.406,1.124,2.676,2.676,0,0,1-1,.851A2.885,2.885,0,0,1,3.644.127,2.829,2.829,0,0,1,1.412-.809,3.729,3.729,0,0,1,.584-3.371v-.2A4.135,4.135,0,0,1,.952-5.351,2.8,2.8,0,0,1,2.009-6.563,3,3,0,0,1,3.637-7a2.755,2.755,0,0,1,1.92.692,2.473,2.473,0,0,1,.816,1.8H5.262a1.618,1.618,0,0,0-.5-1.095,1.57,1.57,0,0,0-1.12-.428,1.644,1.644,0,0,0-1.387.644,3.026,3.026,0,0,0-.492,1.863V-3.3a2.965,2.965,0,0,0,.489,1.828A1.651,1.651,0,0,0,3.644-.832ZM11.934,0a2.467,2.467,0,0,1-.165-.724A2.62,2.62,0,0,1,9.813.127,2.424,2.424,0,0,1,8.147-.448,1.859,1.859,0,0,1,7.5-1.9a1.942,1.942,0,0,1,.816-1.666,3.846,3.846,0,0,1,2.295-.594H11.75V-4.7a1.319,1.319,0,0,0-.368-.981A1.48,1.48,0,0,0,10.3-6.049a1.712,1.712,0,0,0-1.054.317.935.935,0,0,0-.425.768H7.636A1.621,1.621,0,0,1,8-5.957a2.491,2.491,0,0,1,.99-.759A3.331,3.331,0,0,1,10.366-7a2.715,2.715,0,0,1,1.86.594,2.141,2.141,0,0,1,.7,1.635v3.161a3.865,3.865,0,0,0,.241,1.5V0ZM9.985-.9a2.064,2.064,0,0,0,1.047-.286,1.728,1.728,0,0,0,.717-.743V-3.333h-.92q-2.158,0-2.158,1.263a1.069,1.069,0,0,0,.368.863A1.415,1.415,0,0,0,9.985-.9Zm5.884-5.973.032.762A2.536,2.536,0,0,1,17.938-7a1.964,1.964,0,0,1,1.961,1.1,2.6,2.6,0,0,1,.892-.8,2.634,2.634,0,0,1,1.3-.3q2.26,0,2.3,2.393V0H23.213V-4.532a1.577,1.577,0,0,0-.336-1.1A1.482,1.482,0,0,0,21.747-6a1.557,1.557,0,0,0-1.085.39,1.584,1.584,0,0,0-.5,1.051V0H18.979V-4.5A1.31,1.31,0,0,0,17.513-6a1.571,1.571,0,0,0-1.581.984V0H14.758V-6.868Zm16.1,3.51a4.084,4.084,0,0,1-.724,2.53,2.312,2.312,0,0,1-1.942.955,2.394,2.394,0,0,1-2.012-.92L27.238,0H26.159V-9.75h1.174v3.637A2.381,2.381,0,0,1,29.294-7a2.326,2.326,0,0,1,1.965.946,4.206,4.206,0,0,1,.714,2.59ZM30.8-3.491a3.173,3.173,0,0,0-.463-1.854A1.534,1.534,0,0,0,29-6a1.724,1.724,0,0,0-1.669,1.079v2.971A1.772,1.772,0,0,0,29.015-.87a1.526,1.526,0,0,0,1.314-.654A3.375,3.375,0,0,0,30.8-3.491ZM34.728,0H33.554V-6.868h1.174Zm-1.27-8.69a.7.7,0,0,1,.175-.482.655.655,0,0,1,.517-.2.666.666,0,0,1,.521.2.694.694,0,0,1,.178.482.671.671,0,0,1-.178.476.678.678,0,0,1-.521.19.667.667,0,0,1-.517-.19A.678.678,0,0,1,33.458-8.69ZM40.847,0a2.467,2.467,0,0,1-.165-.724,2.62,2.62,0,0,1-1.955.851,2.424,2.424,0,0,1-1.666-.574A1.859,1.859,0,0,1,36.41-1.9a1.942,1.942,0,0,1,.816-1.666,3.846,3.846,0,0,1,2.295-.594h1.143V-4.7a1.319,1.319,0,0,0-.368-.981,1.48,1.48,0,0,0-1.085-.365,1.712,1.712,0,0,0-1.054.317.935.935,0,0,0-.425.768H36.55a1.621,1.621,0,0,1,.365-.993,2.491,2.491,0,0,1,.99-.759A3.331,3.331,0,0,1,39.279-7a2.715,2.715,0,0,1,1.86.594,2.141,2.141,0,0,1,.7,1.635v3.161a3.865,3.865,0,0,0,.241,1.5V0ZM38.9-.9a2.064,2.064,0,0,0,1.047-.286,1.728,1.728,0,0,0,.717-.743V-3.333h-.92q-2.158,0-2.158,1.263a1.069,1.069,0,0,0,.368.863A1.415,1.415,0,0,0,38.9-.9ZM47-5.814a3.519,3.519,0,0,0-.578-.044,1.547,1.547,0,0,0-1.568.984V0H43.678V-6.868h1.143l.019.793A1.829,1.829,0,0,1,46.478-7,1.2,1.2,0,0,1,47-6.906Z" transform="translate(468.83 343.74)" fill="#12263f"/>
        <path id="Trazado_172263" data-name="Trazado 172263" d="M5.129,0a2.467,2.467,0,0,1-.165-.724A2.62,2.62,0,0,1,3.009.127,2.424,2.424,0,0,1,1.343-.448,1.859,1.859,0,0,1,.692-1.9a1.942,1.942,0,0,1,.816-1.666A3.846,3.846,0,0,1,3.8-4.164H4.945V-4.7a1.319,1.319,0,0,0-.368-.981,1.48,1.48,0,0,0-1.085-.365,1.712,1.712,0,0,0-1.054.317.935.935,0,0,0-.425.768H.832A1.621,1.621,0,0,1,1.2-5.957a2.491,2.491,0,0,1,.99-.759A3.331,3.331,0,0,1,3.561-7a2.715,2.715,0,0,1,1.86.594,2.141,2.141,0,0,1,.7,1.635v3.161A3.865,3.865,0,0,0,6.36-.1V0ZM3.18-.9a2.064,2.064,0,0,0,1.047-.286,1.728,1.728,0,0,0,.717-.743V-3.333h-.92q-2.158,0-2.158,1.263a1.069,1.069,0,0,0,.368.863A1.415,1.415,0,0,0,3.18-.9Zm7.211-8.7H9.179V1.016h1.212V1.98H8V-10.562h2.393ZM16.244-3.1h1.282v.958H16.244V0H15.063V-2.146H10.854v-.692l4.139-6.4h1.25Zm-4.056,0h2.875V-7.636l-.14.254Zm5.688-7.458h2.4V1.98h-2.4V1.016H19.1V-9.6H17.875ZM28.126-.832a1.692,1.692,0,0,0,1.1-.381,1.34,1.34,0,0,0,.521-.952h1.111a2.13,2.13,0,0,1-.406,1.124,2.676,2.676,0,0,1-1,.851,2.885,2.885,0,0,1-1.323.317A2.829,2.829,0,0,1,25.9-.809a3.729,3.729,0,0,1-.828-2.561v-.2a4.135,4.135,0,0,1,.368-1.784,2.8,2.8,0,0,1,1.057-1.212A3,3,0,0,1,28.12-7a2.755,2.755,0,0,1,1.92.692,2.473,2.473,0,0,1,.816,1.8H29.745a1.618,1.618,0,0,0-.5-1.095,1.57,1.57,0,0,0-1.12-.428,1.644,1.644,0,0,0-1.387.644,3.026,3.026,0,0,0-.492,1.863V-3.3a2.965,2.965,0,0,0,.489,1.828A1.651,1.651,0,0,0,28.126-.832ZM31.865-3.5a4.057,4.057,0,0,1,.4-1.815,2.96,2.96,0,0,1,1.1-1.244A3.007,3.007,0,0,1,34.982-7a2.9,2.9,0,0,1,2.269.971,3.736,3.736,0,0,1,.866,2.583v.083a4.092,4.092,0,0,1-.384,1.8,2.916,2.916,0,0,1-1.1,1.241,3.041,3.041,0,0,1-1.641.444,2.889,2.889,0,0,1-2.263-.971,3.718,3.718,0,0,1-.866-2.571Zm1.181.14a2.938,2.938,0,0,0,.53,1.834,1.7,1.7,0,0,0,1.419.692,1.686,1.686,0,0,0,1.422-.7A3.213,3.213,0,0,0,36.943-3.5a2.933,2.933,0,0,0-.536-1.831,1.705,1.705,0,0,0-1.425-.7,1.686,1.686,0,0,0-1.4.692A3.189,3.189,0,0,0,33.046-3.358ZM40.7-6.868,40.739-6A2.5,2.5,0,0,1,42.8-7q2.177,0,2.2,2.457V0H43.818V-4.545a1.581,1.581,0,0,0-.34-1.1A1.361,1.361,0,0,0,42.44-6a1.7,1.7,0,0,0-1,.3,2.069,2.069,0,0,0-.673.8V0H39.59V-6.868ZM54.222,0a2.467,2.467,0,0,1-.165-.724A2.62,2.62,0,0,1,52.1.127a2.424,2.424,0,0,1-1.666-.574A1.859,1.859,0,0,1,49.785-1.9,1.942,1.942,0,0,1,50.6-3.571,3.846,3.846,0,0,1,52.9-4.164h1.143V-4.7a1.319,1.319,0,0,0-.368-.981,1.48,1.48,0,0,0-1.085-.365,1.712,1.712,0,0,0-1.054.317.935.935,0,0,0-.425.768H49.924a1.621,1.621,0,0,1,.365-.993,2.491,2.491,0,0,1,.99-.759A3.331,3.331,0,0,1,52.654-7a2.715,2.715,0,0,1,1.86.594,2.141,2.141,0,0,1,.7,1.635v3.161a3.865,3.865,0,0,0,.241,1.5V0ZM52.273-.9a2.064,2.064,0,0,0,1.047-.286,1.728,1.728,0,0,0,.717-.743V-3.333h-.92q-2.158,0-2.158,1.263a1.069,1.069,0,0,0,.368.863A1.415,1.415,0,0,0,52.273-.9Zm7.211-8.7H58.271V1.016h1.212V1.98H57.091V-10.562h2.393Zm1.435,4.964.47-4.608h4.735v1.085H62.385l-.279,2.52a2.983,2.983,0,0,1,1.542-.4,2.55,2.55,0,0,1,2.006.835A3.271,3.271,0,0,1,66.4-2.945,3.158,3.158,0,0,1,65.625-.7,2.811,2.811,0,0,1,63.47.127a2.921,2.921,0,0,1-2-.679,2.711,2.711,0,0,1-.882-1.879H61.7a1.865,1.865,0,0,0,.565,1.2,1.757,1.757,0,0,0,1.206.4,1.585,1.585,0,0,0,1.285-.559,2.335,2.335,0,0,0,.467-1.542,2.143,2.143,0,0,0-.5-1.489,1.717,1.717,0,0,0-1.343-.562,1.936,1.936,0,0,0-1.206.336l-.311.254Zm6.049-5.929h2.4V1.98h-2.4V1.016h1.225V-9.6H66.968Z" transform="translate(444.19 359.34)" fill="#12263f"/>
      </g>
      <rect id="Rectángulo_37757" data-name="Rectángulo 37757" width="604" height="400" fill="none"/>
    </g>
  </g>
</svg>
