<svg xmlns="http://www.w3.org/2000/svg" width="110" height="111" viewBox="0 0 110 111">
  <g id="Grupo_90672" data-name="Grupo 90672" transform="translate(-1205 -5284)">
    <g id="Capa_1" data-name="Capa 1" transform="translate(1204.507 5284.042)">
      <rect id="Rectángulo_37861" data-name="Rectángulo 37861" width="110" height="111" transform="translate(0.493 -0.041)" fill="none" stroke="#1565b2" stroke-miterlimit="10" stroke-width="0"/>
      <circle id="Elipse_7432" data-name="Elipse 7432" cx="13.565" cy="13.565" r="13.565" transform="translate(74.475 18.652)" fill="none" stroke="#1565b2" stroke-miterlimit="10" stroke-width="3"/>
      <circle id="Elipse_7433" data-name="Elipse 7433" cx="13.565" cy="13.565" r="13.565" transform="translate(80.145 64.029)" fill="none" stroke="#1565b2" stroke-miterlimit="10" stroke-width="3"/>
      <circle id="Elipse_7434" data-name="Elipse 7434" cx="15.429" cy="15.429" r="15.429" transform="translate(41.032 16.788)" fill="none" stroke="#1565b2" stroke-miterlimit="10" stroke-width="3"/>
      <circle id="Elipse_7435" data-name="Elipse 7435" cx="10.025" cy="10.025" r="10.025" transform="translate(3.717 22.192)" fill="none" stroke="#ffa726" stroke-miterlimit="10" stroke-width="3"/>
      <circle id="Elipse_7436" data-name="Elipse 7436" cx="10.025" cy="10.025" r="10.025" transform="translate(21.165 67.568)" fill="none" stroke="#ffa726" stroke-miterlimit="10" stroke-width="3"/>
      <circle id="Elipse_7437" data-name="Elipse 7437" cx="5.775" cy="5.775" r="5.775" transform="translate(26.541 26.441)" fill="none" stroke="#1565b2" stroke-miterlimit="10" stroke-width="3"/>
      <circle id="Elipse_7438" data-name="Elipse 7438" cx="15.429" cy="15.429" r="15.429" transform="translate(44.444 63.313)" fill="none" stroke="#1565b2" stroke-miterlimit="10" stroke-width="3"/>
      <circle id="Elipse_7439" data-name="Elipse 7439" cx="5.775" cy="5.775" r="5.775" transform="translate(3.684 70.703)" fill="none" stroke="#1565b2" stroke-miterlimit="10" stroke-width="3"/>
      <g id="Grupo_89114" data-name="Grupo 89114" transform="translate(23.767 42.242)">
        <line id="Línea_667" data-name="Línea 667" x2="8.438" y2="20.672" fill="none" stroke="#1565b2" stroke-linecap="round" stroke-miterlimit="10" stroke-width="2"/>
        <path id="Trazado_164716" data-name="Trazado 164716" d="M47.97,107.288l.466-1.01,4.965,2.3,1.931-5.121,1.043.394-2.358,6.236Z" transform="translate(-45.124 -88.303)" fill="#1565b2"/>
      </g>
    </g>
  </g>
</svg>
