<svg xmlns="http://www.w3.org/2000/svg" width="587.61" height="507.25" viewBox="0 0 587.61 507.25">
  <g id="Grupo_90660" data-name="Grupo 90660" transform="translate(-715 -2137.75)">
    <g id="Capa_1" data-name="Capa 1" transform="translate(632.79 2101.04)">
      <circle id="Elipse_7385" data-name="Elipse 7385" cx="38.04" cy="38.04" r="38.04" transform="translate(351.54 38.71)" fill="#c0ebe7" stroke="#024e73" stroke-miterlimit="10" stroke-width="4"/>
      <circle id="Elipse_7386" data-name="Elipse 7386" cx="38.04" cy="38.04" r="38.04" transform="translate(503.01 178.64)" fill="#c0ebe7" stroke="#024e73" stroke-miterlimit="10" stroke-width="4"/>
      <circle id="Elipse_7387" data-name="Elipse 7387" cx="38.04" cy="38.04" r="38.04" transform="translate(591.74 313.05)" fill="#c0ebe7" stroke="#024e73" stroke-miterlimit="10" stroke-width="4"/>
      <circle id="Elipse_7388" data-name="Elipse 7388" cx="38.04" cy="38.04" r="38.04" transform="translate(176.55 178.64)" fill="#c0ebe7" stroke="#024e73" stroke-miterlimit="10" stroke-width="4"/>
      <circle id="Elipse_7389" data-name="Elipse 7389" cx="38.04" cy="38.04" r="38.04" transform="translate(271.96 313.05)" fill="#c0ebe7" stroke="#024e73" stroke-miterlimit="10" stroke-width="4"/>
      <circle id="Elipse_7390" data-name="Elipse 7390" cx="38.04" cy="38.04" r="38.04" transform="translate(84.21 313.05)" fill="#c0ebe7" stroke="#024e73" stroke-miterlimit="10" stroke-width="4"/>
      <circle id="Elipse_7391" data-name="Elipse 7391" cx="38.04" cy="38.04" r="38.04" transform="translate(360.61 465.88)" fill="#c0ebe7" stroke="#024e73" stroke-miterlimit="10" stroke-width="4"/>
      <circle id="Elipse_7392" data-name="Elipse 7392" cx="38.04" cy="38.04" r="38.04" transform="translate(535.16 465.88)" fill="#c0ebe7" stroke="#024e73" stroke-miterlimit="10" stroke-width="4"/>
      <circle id="Elipse_7393" data-name="Elipse 7393" cx="38.04" cy="38.04" r="38.04" transform="translate(172.86 465.88)" fill="#c0ebe7" stroke="#024e73" stroke-miterlimit="10" stroke-width="4"/>
      <g id="Grupo_87877" data-name="Grupo 87877">
        <line id="Línea_575" data-name="Línea 575" x2="84.24" y2="84.25" transform="translate(423.66 107.84)" fill="#c0ebe7"/>
        <g id="Grupo_87876" data-name="Grupo 87876">
          <line id="Línea_576" data-name="Línea 576" x2="76.73" y2="76.74" transform="translate(423.66 107.84)" fill="none" stroke="#024e73" stroke-miterlimit="10" stroke-width="4"/>
          <path id="Trazado_160993" data-name="Trazado 160993" d="M493.65,188.27l14.25,3.82-3.82-14.25Z" fill="#024e73"/>
        </g>
      </g>
      <g id="Grupo_87879" data-name="Grupo 87879">
        <line id="Línea_577" data-name="Línea 577" x1="113.22" y2="93.41" transform="translate(239.33 94.39)" fill="#c0ebe7"/>
        <g id="Grupo_87878" data-name="Grupo 87878">
          <line id="Línea_578" data-name="Línea 578" x1="105.03" y2="86.65" transform="translate(247.52 94.39)" fill="none" stroke="#024e73" stroke-miterlimit="10" stroke-width="4"/>
          <path id="Trazado_160994" data-name="Trazado 160994" d="M244.49,173.97l-5.16,13.83,14.55-2.44Z" fill="#024e73"/>
        </g>
      </g>
      <g id="Grupo_87881" data-name="Grupo 87881">
        <line id="Línea_579" data-name="Línea 579" x1="44.56" y2="74.92" transform="translate(141.65 246.36)" fill="#c0ebe7"/>
        <g id="Grupo_87880" data-name="Grupo 87880">
          <line id="Línea_580" data-name="Línea 580" x1="39.13" y2="65.79" transform="translate(147.08 246.36)" fill="none" stroke="#024e73" stroke-miterlimit="10" stroke-width="4"/>
          <path id="Trazado_160995" data-name="Trazado 160995" d="M141.84,306.53l-.19,14.75,12.88-7.21Z" fill="#024e73"/>
        </g>
      </g>
      <g id="Grupo_87883" data-name="Grupo 87883">
        <line id="Línea_581" data-name="Línea 581" x2="51.06" y2="70.01" transform="translate(562.5 246.68)" fill="#c0ebe7"/>
        <g id="Grupo_87882" data-name="Grupo 87882">
          <line id="Línea_582" data-name="Línea 582" x2="44.8" y2="61.43" transform="translate(562.5 246.68)" fill="none" stroke="#024e73" stroke-miterlimit="10" stroke-width="4"/>
          <path id="Trazado_160996" data-name="Trazado 160996" d="M600.07,310.71l13.49,5.98-1.57-14.68Z" fill="#024e73"/>
        </g>
      </g>
      <g id="Grupo_87885" data-name="Grupo 87885">
        <line id="Línea_583" data-name="Línea 583" x2="51.06" y2="70.01" transform="translate(236.2 246.68)" fill="#c0ebe7"/>
        <g id="Grupo_87884" data-name="Grupo 87884">
          <line id="Línea_584" data-name="Línea 584" x2="44.8" y2="61.43" transform="translate(236.2 246.68)" fill="none" stroke="#024e73" stroke-miterlimit="10" stroke-width="4"/>
          <path id="Trazado_160997" data-name="Trazado 160997" d="M273.76,310.71l13.5,5.98-1.57-14.68Z" fill="#024e73"/>
        </g>
      </g>
      <g id="Grupo_87887" data-name="Grupo 87887">
        <line id="Línea_585" data-name="Línea 585" x2="48.28" y2="80.23" transform="translate(328.85 389.13)" fill="#c0ebe7"/>
        <g id="Grupo_87886" data-name="Grupo 87886">
          <line id="Línea_586" data-name="Línea 586" x2="42.81" y2="71.13" transform="translate(328.85 389.13)" fill="none" stroke="#024e73" stroke-miterlimit="10" stroke-width="4"/>
          <path id="Trazado_160998" data-name="Trazado 160998" d="M364.22,462.21l12.91,7.15-.26-14.76Z" fill="#024e73"/>
        </g>
      </g>
      <g id="Grupo_87889" data-name="Grupo 87889">
        <line id="Línea_587" data-name="Línea 587" x1="57.2" y2="81.37" transform="translate(229.08 389.13)" fill="#c0ebe7"/>
        <g id="Grupo_87888" data-name="Grupo 87888">
          <line id="Línea_588" data-name="Línea 588" x1="51.09" y2="72.69" transform="translate(235.19 389.13)" fill="none" stroke="#024e73" stroke-miterlimit="10" stroke-width="4"/>
          <path id="Trazado_160999" data-name="Trazado 160999" d="M230.39,455.81l-1.31,14.69,13.38-6.21Z" fill="#024e73"/>
        </g>
      </g>
      <g id="Grupo_87891" data-name="Grupo 87891">
        <line id="Línea_589" data-name="Línea 589" x1="32.32" y2="76.76" transform="translate(588.03 389.13)" fill="#c0ebe7"/>
        <g id="Grupo_87890" data-name="Grupo 87890">
          <line id="Línea_590" data-name="Línea 590" x1="28.2" y2="66.97" transform="translate(592.15 389.13)" fill="none" stroke="#024e73" stroke-miterlimit="10" stroke-width="4"/>
          <path id="Trazado_161000" data-name="Trazado 161000" d="M586.19,451.25l1.84,14.64,11.76-8.92Z" fill="#024e73"/>
        </g>
      </g>
      <path id="Trazado_172230" data-name="Trazado 172230" d="M16.6,0H1.5V-3l7.129-7.6A17.588,17.588,0,0,0,10.8-13.4a4.5,4.5,0,0,0,.7-2.271,3.366,3.366,0,0,0-.742-2.308,2.677,2.677,0,0,0-2.119-.84A2.888,2.888,0,0,0,6.3-17.793a4.047,4.047,0,0,0-.855,2.687H1.06a7.225,7.225,0,0,1,.961-3.678A6.774,6.774,0,0,1,4.738-21.4a8.258,8.258,0,0,1,3.981-.946,7.819,7.819,0,0,1,5.29,1.635,5.784,5.784,0,0,1,1.885,4.617,7.41,7.41,0,0,1-.848,3.33A18.506,18.506,0,0,1,12.14-8.81L7.129-3.527H16.6Z" transform="translate(380.68 86.01)" fill="#12263f"/>
      <path id="Trazado_172233" data-name="Trazado 172233" d="M16.6,0H1.5V-3l7.129-7.6A17.588,17.588,0,0,0,10.8-13.4a4.5,4.5,0,0,0,.7-2.271,3.366,3.366,0,0,0-.742-2.308,2.677,2.677,0,0,0-2.119-.84A2.888,2.888,0,0,0,6.3-17.793a4.047,4.047,0,0,0-.855,2.687H1.06a7.225,7.225,0,0,1,.961-3.678A6.774,6.774,0,0,1,4.738-21.4a8.258,8.258,0,0,1,3.981-.946,7.819,7.819,0,0,1,5.29,1.635,5.784,5.784,0,0,1,1.885,4.617,7.41,7.41,0,0,1-.848,3.33A18.506,18.506,0,0,1,12.14-8.81L7.129-3.527H16.6Z" transform="translate(113.35 362.02)" fill="#12263f"/>
      <path id="Trazado_172231" data-name="Trazado 172231" d="M16.484-19.6,7.962,0H3.345l8.537-18.512H.923v-3.527H16.484Z" transform="translate(205.7 228.27)" fill="#12263f"/>
      <path id="Trazado_172232" data-name="Trazado 172232" d="M2.149-10.838l1.271-11.2H15.772v3.648H7.008l-.545,4.738a6.935,6.935,0,0,1,3.315-.833,6.353,6.353,0,0,1,4.935,1.953A7.8,7.8,0,0,1,16.5-7.069a7.99,7.99,0,0,1-.9,3.822A6.357,6.357,0,0,1,13.018-.628,8.057,8.057,0,0,1,9.052.3a8.555,8.555,0,0,1-3.708-.81,6.578,6.578,0,0,1-2.7-2.278A6.209,6.209,0,0,1,1.589-6.13H5.918A3.234,3.234,0,0,0,6.88-3.989a3.047,3.047,0,0,0,2.157.764,2.689,2.689,0,0,0,2.286-1.067,4.944,4.944,0,0,0,.8-3.02,4.088,4.088,0,0,0-.923-2.876,3.388,3.388,0,0,0-2.619-1,3.787,3.787,0,0,0-2.528.817l-.424.394Z" transform="translate(531.3 228.27)" fill="#12263f"/>
      <path id="Trazado_172236" data-name="Trazado 172236" d="M2.149-10.838l1.271-11.2H15.772v3.648H7.008l-.545,4.738a6.935,6.935,0,0,1,3.315-.833,6.353,6.353,0,0,1,4.935,1.953A7.8,7.8,0,0,1,16.5-7.069a7.99,7.99,0,0,1-.9,3.822A6.357,6.357,0,0,1,13.018-.628,8.057,8.057,0,0,1,9.052.3a8.555,8.555,0,0,1-3.708-.81,6.578,6.578,0,0,1-2.7-2.278A6.209,6.209,0,0,1,1.589-6.13H5.918A3.234,3.234,0,0,0,6.88-3.989a3.047,3.047,0,0,0,2.157.764,2.689,2.689,0,0,0,2.286-1.067,4.944,4.944,0,0,0,.8-3.02,4.088,4.088,0,0,0-.923-2.876,3.388,3.388,0,0,0-2.619-1,3.787,3.787,0,0,0-2.528.817l-.424.394Z" transform="translate(201.09 515.14)" fill="#12263f"/>
      <path id="Trazado_172237" data-name="Trazado 172237" d="M12.125,0H7.75V-16.862l-5.222,1.62V-18.8l9.127-3.27h.469ZM29.91,0H25.536V-16.862l-5.222,1.62V-18.8l9.127-3.27h.469Z" transform="translate(381.83 515.14)" fill="#12263f"/>
      <path id="Trazado_172234" data-name="Trazado 172234" d="M13.366-22.266v3.6h-.424A7.432,7.432,0,0,0,8.166-17.12a6.273,6.273,0,0,0-2.172,4.163,5.958,5.958,0,0,1,4.435-1.786A5.614,5.614,0,0,1,15-12.685a8.252,8.252,0,0,1,1.7,5.419,8.117,8.117,0,0,1-.931,3.89A6.676,6.676,0,0,1,13.131-.666,7.652,7.652,0,0,1,9.279.3,7.147,7.147,0,0,1,3.656-2.119,9.4,9.4,0,0,1,1.514-8.583v-1.574a14.148,14.148,0,0,1,1.355-6.335,9.934,9.934,0,0,1,3.89-4.253,11.4,11.4,0,0,1,5.881-1.521ZM9.1-11.216a3.5,3.5,0,0,0-1.922.551A3.322,3.322,0,0,0,5.9-9.207v1.329a5.89,5.89,0,0,0,.863,3.422A2.788,2.788,0,0,0,9.188-3.224a2.757,2.757,0,0,0,2.278-1.11,4.529,4.529,0,0,0,.87-2.878,4.52,4.52,0,0,0-.878-2.9A2.861,2.861,0,0,0,9.1-11.216Z" transform="translate(301.53 362.02)" fill="#12263f"/>
      <path id="Trazado_172235" data-name="Trazado 172235" d="M11.731-8.81a5.524,5.524,0,0,1-4,1.68A5.908,5.908,0,0,1,3.058-9.135,7.926,7.926,0,0,1,1.3-14.546a8.442,8.442,0,0,1,.946-3.973,6.939,6.939,0,0,1,2.641-2.815A7.328,7.328,0,0,1,8.7-22.342a7.009,7.009,0,0,1,3.875,1.09,7.165,7.165,0,0,1,2.634,3.133,11.25,11.25,0,0,1,.954,4.677v1.62q0,5.51-2.74,8.658A10.358,10.358,0,0,1,5.661.2L4.586.212V-3.436l.969-.015Q11.262-3.708,11.731-8.81ZM8.81-10.475a3.06,3.06,0,0,0,1.824-.545,3.641,3.641,0,0,0,1.158-1.317v-1.8a6.015,6.015,0,0,0-.848-3.451,2.631,2.631,0,0,0-2.271-1.226,2.554,2.554,0,0,0-2.165,1.2,5.117,5.117,0,0,0-.848,3.02,4.979,4.979,0,0,0,.825,2.959A2.687,2.687,0,0,0,8.81-10.475Z" transform="translate(624.51 362.02)" fill="#12263f"/>
      <path id="Trazado_172238" data-name="Trazado 172238" d="M14.44-8.295h2.5v3.527h-2.5V0H10.066V-4.768H1.029l-.2-2.755,9.188-14.516h4.42Zm-9.249,0h4.874v-7.78l-.288.5Z" transform="translate(567.45 515.14)" fill="#12263f"/>
    </g>
  </g>
</svg>
