<svg xmlns="http://www.w3.org/2000/svg" xmlns:xlink="http://www.w3.org/1999/xlink" width="604" height="400" viewBox="0 0 604 400">
  <defs>
    <linearGradient id="linear-gradient" x1="0.5" y1="1" x2="0.5" gradientUnits="objectBoundingBox">
      <stop offset="0" stop-color="#71d9e7"/>
      <stop offset="1" stop-color="#edffff"/>
    </linearGradient>
  </defs>
  <g id="Grupo_90673" data-name="Grupo 90673" transform="translate(-810 -5907)">
    <g id="Capa_1" data-name="Capa 1" transform="translate(810 5907)">
      <path id="Trazado_172266" data-name="Trazado 172266" d="M8.078-4.852a6.61,6.61,0,0,1-.867,3.773A3.084,3.084,0,0,1,4.5.156,3.107,3.107,0,0,1,1.8-1.051,6.274,6.274,0,0,1,.9-4.656v-1.93a6.463,6.463,0,0,1,.867-3.727,3.108,3.108,0,0,1,2.719-1.219,3.136,3.136,0,0,1,2.7,1.176,6.237,6.237,0,0,1,.891,3.629ZM6.633-6.828A5.3,5.3,0,0,0,6.117-9.5a1.775,1.775,0,0,0-1.633-.84,1.751,1.751,0,0,0-1.617.836,5.171,5.171,0,0,0-.523,2.57v2.313A5.381,5.381,0,0,0,2.879-1.9,1.771,1.771,0,0,0,4.5-1.023a1.747,1.747,0,0,0,1.59-.828,5.186,5.186,0,0,0,.543-2.609ZM5.7,40H4.242V30.367l-2.914,1.07V30.125L5.469,28.57H5.7ZM8.4,80H.945V78.961l3.938-4.375A9.355,9.355,0,0,0,6.09,72.973a2.693,2.693,0,0,0,.332-1.285,2.041,2.041,0,0,0-.539-1.461,1.885,1.885,0,0,0-1.437-.57,2.232,2.232,0,0,0-1.676.613,2.343,2.343,0,0,0-.6,1.707H.727a3.355,3.355,0,0,1,1.012-2.539,3.751,3.751,0,0,1,2.707-.969,3.6,3.6,0,0,1,2.508.832,2.838,2.838,0,0,1,.922,2.215q0,1.68-2.141,4l-3.047,3.3H8.4ZM3.047,113.609H4.133a2.387,2.387,0,0,0,1.609-.539,1.8,1.8,0,0,0,.586-1.414,1.764,1.764,0,0,0-1.992-2,2.072,2.072,0,0,0-1.5.535,1.873,1.873,0,0,0-.559,1.418H.836a2.9,2.9,0,0,1,.988-2.246,3.6,3.6,0,0,1,2.512-.895,3.558,3.558,0,0,1,2.523.852,3.076,3.076,0,0,1,.914,2.367,2.5,2.5,0,0,1-.48,1.438,2.9,2.9,0,0,1-1.309,1.039,2.8,2.8,0,0,1,1.449.984,2.734,2.734,0,0,1,.512,1.68,3.1,3.1,0,0,1-1,2.43,3.745,3.745,0,0,1-2.6.9,3.844,3.844,0,0,1-2.605-.867,2.877,2.877,0,0,1-1-2.289H2.188a1.859,1.859,0,0,0,.586,1.438,2.229,2.229,0,0,0,1.57.539,2.187,2.187,0,0,0,1.6-.547,2.108,2.108,0,0,0,.555-1.57,1.912,1.912,0,0,0-.609-1.523,2.655,2.655,0,0,0-1.758-.547H3.047Zm4,42.57H8.625v1.18H7.047V160H5.594v-2.641H.414v-.852l5.094-7.883H7.047Zm-4.992,0H5.594V150.6l-.172.313ZM1.609,194.3l.578-5.672H8.016v1.336h-4.6l-.344,3.1a3.671,3.671,0,0,1,1.9-.492A3.138,3.138,0,0,1,7.438,193.6a4.026,4.026,0,0,1,.914,2.777,3.886,3.886,0,0,1-.949,2.77,3.46,3.46,0,0,1-2.652,1.012,3.6,3.6,0,0,1-2.461-.836A3.337,3.337,0,0,1,1.2,197.008H2.57a2.3,2.3,0,0,0,.7,1.473,2.162,2.162,0,0,0,1.484.5,1.95,1.95,0,0,0,1.582-.687,2.874,2.874,0,0,0,.574-1.9,2.638,2.638,0,0,0-.621-1.832,2.113,2.113,0,0,0-1.652-.691,2.383,2.383,0,0,0-1.484.414l-.383.313Z" transform="translate(27.39 88.38)" fill="#12263f"/>
      <rect id="Rectángulo_37672" data-name="Rectángulo 37672" width="40" height="240" transform="translate(50.51 63.33)" fill="url(#linear-gradient)"/>
      <rect id="Rectángulo_37673" data-name="Rectángulo 37673" width="40" height="40" transform="translate(50.51 63.33)" fill="none" stroke="#12263f" stroke-miterlimit="10" stroke-width="1"/>
      <rect id="Rectángulo_37674" data-name="Rectángulo 37674" width="40" height="40" transform="translate(50.51 103.33)" fill="none" stroke="#12263f" stroke-miterlimit="10" stroke-width="1"/>
      <rect id="Rectángulo_37675" data-name="Rectángulo 37675" width="40" height="40" transform="translate(50.51 143.33)" fill="none" stroke="#12263f" stroke-miterlimit="10" stroke-width="1"/>
      <rect id="Rectángulo_37676" data-name="Rectángulo 37676" width="40" height="40" transform="translate(50.51 183.33)" fill="none" stroke="#12263f" stroke-miterlimit="10" stroke-width="1"/>
      <rect id="Rectángulo_37677" data-name="Rectángulo 37677" width="40" height="40" transform="translate(50.51 223.33)" fill="none" stroke="#12263f" stroke-miterlimit="10" stroke-width="1"/>
      <rect id="Rectángulo_37678" data-name="Rectángulo 37678" width="40" height="40" transform="translate(50.51 263.33)" fill="none" stroke="#12263f" stroke-miterlimit="10" stroke-width="1"/>
      <path id="Trazado_172267" data-name="Trazado 172267" d="M1.609-5.7l.578-5.672H8.016v1.336h-4.6l-.344,3.1a3.671,3.671,0,0,1,1.9-.492A3.138,3.138,0,0,1,7.438-6.4a4.026,4.026,0,0,1,.914,2.777A3.886,3.886,0,0,1,7.4-.855,3.46,3.46,0,0,1,4.75.156,3.6,3.6,0,0,1,2.289-.68,3.337,3.337,0,0,1,1.2-2.992H2.57a2.3,2.3,0,0,0,.7,1.473,2.162,2.162,0,0,0,1.484.5,1.95,1.95,0,0,0,1.582-.687,2.874,2.874,0,0,0,.574-1.9,2.638,2.638,0,0,0-.621-1.832,2.113,2.113,0,0,0-1.652-.691,2.383,2.383,0,0,0-1.484.414l-.383.313Zm6.234,37.3a2.641,2.641,0,0,1-.449,1.516A3.057,3.057,0,0,1,6.18,34.148a3.26,3.26,0,0,1,1.41,1.117,2.811,2.811,0,0,1,.52,1.664,2.972,2.972,0,0,1-1,2.352,3.827,3.827,0,0,1-2.621.875,3.81,3.81,0,0,1-2.629-.879A2.986,2.986,0,0,1,.875,36.93a2.9,2.9,0,0,1,.5-1.664,3.136,3.136,0,0,1,1.395-1.125,2.981,2.981,0,0,1-1.2-1.039,2.679,2.679,0,0,1-.437-1.508,2.94,2.94,0,0,1,.922-2.281,3.458,3.458,0,0,1,2.43-.844,3.461,3.461,0,0,1,2.426.844A2.934,2.934,0,0,1,7.844,31.594Zm-1.18,5.3a2.1,2.1,0,0,0-.605-1.555,2.147,2.147,0,0,0-1.582-.6,2.11,2.11,0,0,0-1.566.594A2.12,2.12,0,0,0,2.32,36.9a2.019,2.019,0,0,0,.574,1.523,2.2,2.2,0,0,0,1.6.555,2.2,2.2,0,0,0,1.594-.559A2.014,2.014,0,0,0,6.664,36.9ZM4.492,29.656a1.865,1.865,0,0,0-1.379.527,2.182,2.182,0,0,0-.008,2.836,1.844,1.844,0,0,0,1.387.535,1.844,1.844,0,0,0,1.387-.535,2.138,2.138,0,0,0-.02-2.816A1.839,1.839,0,0,0,4.492,29.656Zm3.8,39.781L3.578,80H2.063l4.7-10.187H.6V68.625H8.289ZM5.7,120H4.242v-9.633l-2.914,1.07v-1.312l4.141-1.555H5.7ZM3.047,153.609H4.133a2.387,2.387,0,0,0,1.609-.539,1.8,1.8,0,0,0,.586-1.414,1.764,1.764,0,0,0-1.992-2,2.072,2.072,0,0,0-1.5.535,1.873,1.873,0,0,0-.559,1.418H.836a2.9,2.9,0,0,1,.988-2.246,3.6,3.6,0,0,1,2.512-.895,3.558,3.558,0,0,1,2.523.852,3.076,3.076,0,0,1,.914,2.367,2.5,2.5,0,0,1-.48,1.438,2.9,2.9,0,0,1-1.309,1.039,2.8,2.8,0,0,1,1.449.984,2.734,2.734,0,0,1,.512,1.68,3.1,3.1,0,0,1-1,2.43,3.745,3.745,0,0,1-2.6.9,3.844,3.844,0,0,1-2.605-.867,2.877,2.877,0,0,1-1-2.289H2.188a1.859,1.859,0,0,0,.586,1.438,2.229,2.229,0,0,0,1.57.539,2.187,2.187,0,0,0,1.6-.547,2.108,2.108,0,0,0,.555-1.57,1.912,1.912,0,0,0-.609-1.523,2.655,2.655,0,0,0-1.758-.547H3.047Zm3.57,35.008v1.227H6.352a3.805,3.805,0,0,0-2.687,1,4.161,4.161,0,0,0-1.156,2.727,3.085,3.085,0,0,1,2.453-1.031,2.95,2.95,0,0,1,2.371,1.047,4.588,4.588,0,0,1-.07,5.516A3.3,3.3,0,0,1,4.7,200.156,3.247,3.247,0,0,1,2.047,198.9a4.97,4.97,0,0,1-1.016-3.23v-.555a7.488,7.488,0,0,1,1.34-4.8,4.921,4.921,0,0,1,3.988-1.7Zm-1.9,5.125a2.306,2.306,0,0,0-1.367.445,2.32,2.32,0,0,0-.867,1.117v.531a3.731,3.731,0,0,0,.633,2.266,1.9,1.9,0,0,0,1.578.859,1.838,1.838,0,0,0,1.535-.719,3.452,3.452,0,0,0-.008-3.777A1.816,1.816,0,0,0,4.719,193.742Z" transform="translate(65.68 88.38)" fill="#12263f"/>
      <rect id="Rectángulo_37679" data-name="Rectángulo 37679" width="40" height="240" transform="translate(139.05 63.33)" fill="url(#linear-gradient)"/>
      <rect id="Rectángulo_37680" data-name="Rectángulo 37680" width="40" height="40" transform="translate(139.05 63.33)" fill="none" stroke="#12263f" stroke-miterlimit="10" stroke-width="1"/>
      <rect id="Rectángulo_37681" data-name="Rectángulo 37681" width="40" height="40" transform="translate(139.05 103.33)" fill="none" stroke="#12263f" stroke-miterlimit="10" stroke-width="1"/>
      <rect id="Rectángulo_37682" data-name="Rectángulo 37682" width="40" height="40" transform="translate(139.05 143.33)" fill="none" stroke="#12263f" stroke-miterlimit="10" stroke-width="1"/>
      <rect id="Rectángulo_37683" data-name="Rectángulo 37683" width="40" height="40" transform="translate(139.05 183.33)" fill="none" stroke="#12263f" stroke-miterlimit="10" stroke-width="1"/>
      <rect id="Rectángulo_37684" data-name="Rectángulo 37684" width="40" height="40" transform="translate(139.05 223.33)" fill="none" stroke="#12263f" stroke-miterlimit="10" stroke-width="1"/>
      <rect id="Rectángulo_37685" data-name="Rectángulo 37685" width="40" height="40" transform="translate(139.05 263.33)" fill="none" stroke="#12263f" stroke-miterlimit="10" stroke-width="1"/>
      <path id="Trazado_172268" data-name="Trazado 172268" d="M5.7,0H4.242V-9.633L1.328-8.562V-9.875L5.469-11.43H5.7ZM7.844,31.594a2.641,2.641,0,0,1-.449,1.516A3.057,3.057,0,0,1,6.18,34.148a3.26,3.26,0,0,1,1.41,1.117,2.811,2.811,0,0,1,.52,1.664,2.972,2.972,0,0,1-1,2.352,3.827,3.827,0,0,1-2.621.875,3.81,3.81,0,0,1-2.629-.879A2.986,2.986,0,0,1,.875,36.93a2.9,2.9,0,0,1,.5-1.664,3.136,3.136,0,0,1,1.395-1.125,2.981,2.981,0,0,1-1.2-1.039,2.679,2.679,0,0,1-.437-1.508,2.94,2.94,0,0,1,.922-2.281,3.458,3.458,0,0,1,2.43-.844,3.461,3.461,0,0,1,2.426.844A2.934,2.934,0,0,1,7.844,31.594Zm-1.18,5.3a2.1,2.1,0,0,0-.605-1.555,2.147,2.147,0,0,0-1.582-.6,2.11,2.11,0,0,0-1.566.594A2.12,2.12,0,0,0,2.32,36.9a2.019,2.019,0,0,0,.574,1.523,2.2,2.2,0,0,0,1.6.555,2.2,2.2,0,0,0,1.594-.559A2.014,2.014,0,0,0,6.664,36.9ZM4.492,29.656a1.865,1.865,0,0,0-1.379.527,2.182,2.182,0,0,0-.008,2.836,1.844,1.844,0,0,0,1.387.535,1.844,1.844,0,0,0,1.387-.535,2.138,2.138,0,0,0-.02-2.816A1.839,1.839,0,0,0,4.492,29.656Zm3.8,39.781L3.578,80H2.063l4.7-10.187H.6V68.625H8.289ZM1.609,114.3l.578-5.672H8.016v1.336h-4.6l-.344,3.1a3.671,3.671,0,0,1,1.9-.492A3.138,3.138,0,0,1,7.438,113.6a4.026,4.026,0,0,1,.914,2.777,3.886,3.886,0,0,1-.949,2.77,3.46,3.46,0,0,1-2.652,1.012,3.6,3.6,0,0,1-2.461-.836A3.337,3.337,0,0,1,1.2,117.008H2.57a2.3,2.3,0,0,0,.7,1.473,2.162,2.162,0,0,0,1.484.5,1.95,1.95,0,0,0,1.582-.687,2.874,2.874,0,0,0,.574-1.9,2.638,2.638,0,0,0-.621-1.832,2.113,2.113,0,0,0-1.652-.691,2.383,2.383,0,0,0-1.484.414l-.383.313Zm1.438,39.313H4.133a2.387,2.387,0,0,0,1.609-.539,1.8,1.8,0,0,0,.586-1.414,1.764,1.764,0,0,0-1.992-2,2.072,2.072,0,0,0-1.5.535,1.873,1.873,0,0,0-.559,1.418H.836a2.9,2.9,0,0,1,.988-2.246,3.6,3.6,0,0,1,2.512-.895,3.558,3.558,0,0,1,2.523.852,3.076,3.076,0,0,1,.914,2.367,2.5,2.5,0,0,1-.48,1.438,2.9,2.9,0,0,1-1.309,1.039,2.8,2.8,0,0,1,1.449.984,2.734,2.734,0,0,1,.512,1.68,3.1,3.1,0,0,1-1,2.43,3.745,3.745,0,0,1-2.6.9,3.844,3.844,0,0,1-2.605-.867,2.877,2.877,0,0,1-1-2.289H2.188a1.859,1.859,0,0,0,.586,1.438,2.229,2.229,0,0,0,1.57.539,2.187,2.187,0,0,0,1.6-.547,2.108,2.108,0,0,0,.555-1.57,1.912,1.912,0,0,0-.609-1.523,2.655,2.655,0,0,0-1.758-.547H3.047Zm3.57,35.008v1.227H6.352a3.805,3.805,0,0,0-2.687,1,4.161,4.161,0,0,0-1.156,2.727,3.085,3.085,0,0,1,2.453-1.031,2.95,2.95,0,0,1,2.371,1.047,4.588,4.588,0,0,1-.07,5.516A3.3,3.3,0,0,1,4.7,200.156,3.247,3.247,0,0,1,2.047,198.9a4.97,4.97,0,0,1-1.016-3.23v-.555a7.488,7.488,0,0,1,1.34-4.8,4.921,4.921,0,0,1,3.988-1.7Zm-1.9,5.125a2.306,2.306,0,0,0-1.367.445,2.32,2.32,0,0,0-.867,1.117v.531a3.731,3.731,0,0,0,.633,2.266,1.9,1.9,0,0,0,1.578.859,1.838,1.838,0,0,0,1.535-.719,3.452,3.452,0,0,0-.008-3.777A1.816,1.816,0,0,0,4.719,193.742Z" transform="translate(154.23 88.38)" fill="#12263f"/>
      <rect id="Rectángulo_37686" data-name="Rectángulo 37686" width="40" height="240" transform="translate(233.68 63.33)" fill="url(#linear-gradient)"/>
      <rect id="Rectángulo_37687" data-name="Rectángulo 37687" width="40" height="40" transform="translate(233.68 63.33)" fill="none" stroke="#12263f" stroke-miterlimit="10" stroke-width="1"/>
      <rect id="Rectángulo_37688" data-name="Rectángulo 37688" width="40" height="40" transform="translate(233.68 103.33)" fill="none" stroke="#12263f" stroke-miterlimit="10" stroke-width="1"/>
      <rect id="Rectángulo_37689" data-name="Rectángulo 37689" width="40" height="40" transform="translate(233.68 143.33)" fill="none" stroke="#12263f" stroke-miterlimit="10" stroke-width="1"/>
      <rect id="Rectángulo_37690" data-name="Rectángulo 37690" width="40" height="40" transform="translate(233.68 183.33)" fill="none" stroke="#12263f" stroke-miterlimit="10" stroke-width="1"/>
      <rect id="Rectángulo_37691" data-name="Rectángulo 37691" width="40" height="40" transform="translate(233.68 223.33)" fill="none" stroke="#12263f" stroke-miterlimit="10" stroke-width="1"/>
      <rect id="Rectángulo_37692" data-name="Rectángulo 37692" width="40" height="40" transform="translate(233.68 263.33)" fill="none" stroke="#12263f" stroke-miterlimit="10" stroke-width="1"/>
      <path id="Trazado_172269" data-name="Trazado 172269" d="M5.7,0H4.242V-9.633L1.328-8.562V-9.875L5.469-11.43H5.7ZM3.047,33.609H4.133a2.387,2.387,0,0,0,1.609-.539,1.8,1.8,0,0,0,.586-1.414,1.764,1.764,0,0,0-1.992-2,2.072,2.072,0,0,0-1.5.535,1.873,1.873,0,0,0-.559,1.418H.836a2.9,2.9,0,0,1,.988-2.246,3.6,3.6,0,0,1,2.512-.895,3.558,3.558,0,0,1,2.523.852,3.076,3.076,0,0,1,.914,2.367,2.5,2.5,0,0,1-.48,1.438,2.9,2.9,0,0,1-1.309,1.039,2.8,2.8,0,0,1,1.449.984,2.734,2.734,0,0,1,.512,1.68,3.1,3.1,0,0,1-1,2.43,3.745,3.745,0,0,1-2.6.9,3.844,3.844,0,0,1-2.605-.867A2.877,2.877,0,0,1,.734,37H2.188a1.859,1.859,0,0,0,.586,1.438,2.229,2.229,0,0,0,1.57.539,2.187,2.187,0,0,0,1.6-.547,2.108,2.108,0,0,0,.555-1.57,1.912,1.912,0,0,0-.609-1.523,2.655,2.655,0,0,0-1.758-.547H3.047ZM8.289,69.438,3.578,80H2.063l4.7-10.187H.6V68.625H8.289ZM1.609,114.3l.578-5.672H8.016v1.336h-4.6l-.344,3.1a3.671,3.671,0,0,1,1.9-.492A3.138,3.138,0,0,1,7.438,113.6a4.026,4.026,0,0,1,.914,2.777,3.886,3.886,0,0,1-.949,2.77,3.46,3.46,0,0,1-2.652,1.012,3.6,3.6,0,0,1-2.461-.836A3.337,3.337,0,0,1,1.2,117.008H2.57a2.3,2.3,0,0,0,.7,1.473,2.162,2.162,0,0,0,1.484.5,1.95,1.95,0,0,0,1.582-.687,2.874,2.874,0,0,0,.574-1.9,2.638,2.638,0,0,0-.621-1.832,2.113,2.113,0,0,0-1.652-.691,2.383,2.383,0,0,0-1.484.414l-.383.313Zm6.234,37.3a2.641,2.641,0,0,1-.449,1.516,3.057,3.057,0,0,1-1.215,1.039,3.26,3.26,0,0,1,1.41,1.117,2.811,2.811,0,0,1,.52,1.664,2.972,2.972,0,0,1-1,2.352,3.827,3.827,0,0,1-2.621.875,3.81,3.81,0,0,1-2.629-.879,2.986,2.986,0,0,1-.988-2.348,2.9,2.9,0,0,1,.5-1.664,3.136,3.136,0,0,1,1.395-1.125,2.981,2.981,0,0,1-1.2-1.039,2.679,2.679,0,0,1-.437-1.508,2.94,2.94,0,0,1,.922-2.281,3.458,3.458,0,0,1,2.43-.844,3.461,3.461,0,0,1,2.426.844A2.934,2.934,0,0,1,7.844,151.594Zm-1.18,5.3a2.1,2.1,0,0,0-.605-1.555,2.147,2.147,0,0,0-1.582-.6,2.11,2.11,0,0,0-1.566.594,2.12,2.12,0,0,0-.59,1.563,2.019,2.019,0,0,0,.574,1.523,2.2,2.2,0,0,0,1.6.555,2.2,2.2,0,0,0,1.594-.559A2.014,2.014,0,0,0,6.664,156.9Zm-2.172-7.242a1.865,1.865,0,0,0-1.379.527,2.182,2.182,0,0,0-.008,2.836,1.844,1.844,0,0,0,1.387.535,1.844,1.844,0,0,0,1.387-.535,2.138,2.138,0,0,0-.02-2.816A1.839,1.839,0,0,0,4.492,149.656Zm2.125,38.961v1.227H6.352a3.805,3.805,0,0,0-2.687,1,4.161,4.161,0,0,0-1.156,2.727,3.085,3.085,0,0,1,2.453-1.031,2.95,2.95,0,0,1,2.371,1.047,4.588,4.588,0,0,1-.07,5.516A3.3,3.3,0,0,1,4.7,200.156,3.247,3.247,0,0,1,2.047,198.9a4.97,4.97,0,0,1-1.016-3.23v-.555a7.488,7.488,0,0,1,1.34-4.8,4.921,4.921,0,0,1,3.988-1.7Zm-1.9,5.125a2.306,2.306,0,0,0-1.367.445,2.32,2.32,0,0,0-.867,1.117v.531a3.731,3.731,0,0,0,.633,2.266,1.9,1.9,0,0,0,1.578.859,1.838,1.838,0,0,0,1.535-.719,3.452,3.452,0,0,0-.008-3.777A1.816,1.816,0,0,0,4.719,193.742Z" transform="translate(248.86 88.38)" fill="#12263f"/>
      <rect id="Rectángulo_37693" data-name="Rectángulo 37693" width="40" height="240" transform="translate(324.31 63.33)" fill="url(#linear-gradient)"/>
      <rect id="Rectángulo_37694" data-name="Rectángulo 37694" width="40" height="40" transform="translate(324.31 63.33)" fill="none" stroke="#12263f" stroke-miterlimit="10" stroke-width="1"/>
      <rect id="Rectángulo_37695" data-name="Rectángulo 37695" width="40" height="40" transform="translate(324.31 103.33)" fill="none" stroke="#12263f" stroke-miterlimit="10" stroke-width="1"/>
      <rect id="Rectángulo_37696" data-name="Rectángulo 37696" width="40" height="40" transform="translate(324.31 143.33)" fill="none" stroke="#12263f" stroke-miterlimit="10" stroke-width="1"/>
      <rect id="Rectángulo_37697" data-name="Rectángulo 37697" width="40" height="40" transform="translate(324.31 183.33)" fill="none" stroke="#12263f" stroke-miterlimit="10" stroke-width="1"/>
      <rect id="Rectángulo_37698" data-name="Rectángulo 37698" width="40" height="40" transform="translate(324.31 223.33)" fill="none" stroke="#12263f" stroke-miterlimit="10" stroke-width="1"/>
      <rect id="Rectángulo_37699" data-name="Rectángulo 37699" width="40" height="40" transform="translate(324.31 263.33)" fill="none" stroke="#12263f" stroke-miterlimit="10" stroke-width="1"/>
      <path id="Trazado_172270" data-name="Trazado 172270" d="M5.7,0H4.242V-9.633L1.328-8.562V-9.875L5.469-11.43H5.7ZM3.047,33.609H4.133a2.387,2.387,0,0,0,1.609-.539,1.8,1.8,0,0,0,.586-1.414,1.764,1.764,0,0,0-1.992-2,2.072,2.072,0,0,0-1.5.535,1.873,1.873,0,0,0-.559,1.418H.836a2.9,2.9,0,0,1,.988-2.246,3.6,3.6,0,0,1,2.512-.895,3.558,3.558,0,0,1,2.523.852,3.076,3.076,0,0,1,.914,2.367,2.5,2.5,0,0,1-.48,1.438,2.9,2.9,0,0,1-1.309,1.039,2.8,2.8,0,0,1,1.449.984,2.734,2.734,0,0,1,.512,1.68,3.1,3.1,0,0,1-1,2.43,3.745,3.745,0,0,1-2.6.9,3.844,3.844,0,0,1-2.605-.867A2.877,2.877,0,0,1,.734,37H2.188a1.859,1.859,0,0,0,.586,1.438,2.229,2.229,0,0,0,1.57.539,2.187,2.187,0,0,0,1.6-.547,2.108,2.108,0,0,0,.555-1.57,1.912,1.912,0,0,0-.609-1.523,2.655,2.655,0,0,0-1.758-.547H3.047ZM1.609,74.3l.578-5.672H8.016v1.336h-4.6l-.344,3.1a3.671,3.671,0,0,1,1.9-.492A3.138,3.138,0,0,1,7.438,73.6a4.026,4.026,0,0,1,.914,2.777,3.886,3.886,0,0,1-.949,2.77A3.46,3.46,0,0,1,4.75,80.156a3.6,3.6,0,0,1-2.461-.836A3.337,3.337,0,0,1,1.2,77.008H2.57a2.3,2.3,0,0,0,.7,1.473,2.162,2.162,0,0,0,1.484.5,1.95,1.95,0,0,0,1.582-.687,2.874,2.874,0,0,0,.574-1.9,2.638,2.638,0,0,0-.621-1.832,2.113,2.113,0,0,0-1.652-.691,2.383,2.383,0,0,0-1.484.414l-.383.313Zm6.68,35.141L3.578,120H2.063l4.7-10.187H.6v-1.187H8.289Zm-.445,42.156a2.641,2.641,0,0,1-.449,1.516,3.057,3.057,0,0,1-1.215,1.039,3.26,3.26,0,0,1,1.41,1.117,2.811,2.811,0,0,1,.52,1.664,2.972,2.972,0,0,1-1,2.352,3.827,3.827,0,0,1-2.621.875,3.81,3.81,0,0,1-2.629-.879,2.986,2.986,0,0,1-.988-2.348,2.9,2.9,0,0,1,.5-1.664,3.136,3.136,0,0,1,1.395-1.125,2.981,2.981,0,0,1-1.2-1.039,2.679,2.679,0,0,1-.437-1.508,2.94,2.94,0,0,1,.922-2.281,3.458,3.458,0,0,1,2.43-.844,3.461,3.461,0,0,1,2.426.844A2.934,2.934,0,0,1,7.844,151.594Zm-1.18,5.3a2.1,2.1,0,0,0-.605-1.555,2.147,2.147,0,0,0-1.582-.6,2.11,2.11,0,0,0-1.566.594,2.12,2.12,0,0,0-.59,1.563,2.019,2.019,0,0,0,.574,1.523,2.2,2.2,0,0,0,1.6.555,2.2,2.2,0,0,0,1.594-.559A2.014,2.014,0,0,0,6.664,156.9Zm-2.172-7.242a1.865,1.865,0,0,0-1.379.527,2.182,2.182,0,0,0-.008,2.836,1.844,1.844,0,0,0,1.387.535,1.844,1.844,0,0,0,1.387-.535,2.138,2.138,0,0,0-.02-2.816A1.839,1.839,0,0,0,4.492,149.656Zm2.125,38.961v1.227H6.352a3.805,3.805,0,0,0-2.687,1,4.161,4.161,0,0,0-1.156,2.727,3.085,3.085,0,0,1,2.453-1.031,2.95,2.95,0,0,1,2.371,1.047,4.588,4.588,0,0,1-.07,5.516A3.3,3.3,0,0,1,4.7,200.156,3.247,3.247,0,0,1,2.047,198.9a4.97,4.97,0,0,1-1.016-3.23v-.555a7.488,7.488,0,0,1,1.34-4.8,4.921,4.921,0,0,1,3.988-1.7Zm-1.9,5.125a2.306,2.306,0,0,0-1.367.445,2.32,2.32,0,0,0-.867,1.117v.531a3.731,3.731,0,0,0,.633,2.266,1.9,1.9,0,0,0,1.578.859,1.838,1.838,0,0,0,1.535-.719,3.452,3.452,0,0,0-.008-3.777A1.816,1.816,0,0,0,4.719,193.742Z" transform="translate(339.49 88.38)" fill="#12263f"/>
      <rect id="Rectángulo_37700" data-name="Rectángulo 37700" width="40" height="240" transform="translate(414.94 63.33)" fill="url(#linear-gradient)"/>
      <rect id="Rectángulo_37701" data-name="Rectángulo 37701" width="40" height="40" transform="translate(414.94 63.33)" fill="none" stroke="#12263f" stroke-miterlimit="10" stroke-width="1"/>
      <rect id="Rectángulo_37702" data-name="Rectángulo 37702" width="40" height="40" transform="translate(414.94 103.33)" fill="none" stroke="#12263f" stroke-miterlimit="10" stroke-width="1"/>
      <rect id="Rectángulo_37703" data-name="Rectángulo 37703" width="40" height="40" transform="translate(414.94 143.33)" fill="none" stroke="#12263f" stroke-miterlimit="10" stroke-width="1"/>
      <rect id="Rectángulo_37704" data-name="Rectángulo 37704" width="40" height="40" transform="translate(414.94 183.33)" fill="none" stroke="#12263f" stroke-miterlimit="10" stroke-width="1"/>
      <rect id="Rectángulo_37705" data-name="Rectángulo 37705" width="40" height="40" transform="translate(414.94 223.33)" fill="none" stroke="#12263f" stroke-miterlimit="10" stroke-width="1"/>
      <rect id="Rectángulo_37706" data-name="Rectángulo 37706" width="40" height="40" transform="translate(414.94 263.33)" fill="none" stroke="#12263f" stroke-miterlimit="10" stroke-width="1"/>
      <path id="Trazado_172271" data-name="Trazado 172271" d="M5.7,0H4.242V-9.633L1.328-8.562V-9.875L5.469-11.43H5.7ZM3.047,33.609H4.133a2.387,2.387,0,0,0,1.609-.539,1.8,1.8,0,0,0,.586-1.414,1.764,1.764,0,0,0-1.992-2,2.072,2.072,0,0,0-1.5.535,1.873,1.873,0,0,0-.559,1.418H.836a2.9,2.9,0,0,1,.988-2.246,3.6,3.6,0,0,1,2.512-.895,3.558,3.558,0,0,1,2.523.852,3.076,3.076,0,0,1,.914,2.367,2.5,2.5,0,0,1-.48,1.438,2.9,2.9,0,0,1-1.309,1.039,2.8,2.8,0,0,1,1.449.984,2.734,2.734,0,0,1,.512,1.68,3.1,3.1,0,0,1-1,2.43,3.745,3.745,0,0,1-2.6.9,3.844,3.844,0,0,1-2.605-.867A2.877,2.877,0,0,1,.734,37H2.188a1.859,1.859,0,0,0,.586,1.438,2.229,2.229,0,0,0,1.57.539,2.187,2.187,0,0,0,1.6-.547,2.108,2.108,0,0,0,.555-1.57,1.912,1.912,0,0,0-.609-1.523,2.655,2.655,0,0,0-1.758-.547H3.047ZM1.609,74.3l.578-5.672H8.016v1.336h-4.6l-.344,3.1a3.671,3.671,0,0,1,1.9-.492A3.138,3.138,0,0,1,7.438,73.6a4.026,4.026,0,0,1,.914,2.777,3.886,3.886,0,0,1-.949,2.77A3.46,3.46,0,0,1,4.75,80.156a3.6,3.6,0,0,1-2.461-.836A3.337,3.337,0,0,1,1.2,77.008H2.57a2.3,2.3,0,0,0,.7,1.473,2.162,2.162,0,0,0,1.484.5,1.95,1.95,0,0,0,1.582-.687,2.874,2.874,0,0,0,.574-1.9,2.638,2.638,0,0,0-.621-1.832,2.113,2.113,0,0,0-1.652-.691,2.383,2.383,0,0,0-1.484.414l-.383.313Zm5.008,34.32v1.227H6.352a3.805,3.805,0,0,0-2.687,1,4.161,4.161,0,0,0-1.156,2.727,3.085,3.085,0,0,1,2.453-1.031,2.95,2.95,0,0,1,2.371,1.047,4.588,4.588,0,0,1-.07,5.516A3.3,3.3,0,0,1,4.7,120.156,3.247,3.247,0,0,1,2.047,118.9a4.97,4.97,0,0,1-1.016-3.23v-.555a7.488,7.488,0,0,1,1.34-4.8,4.921,4.921,0,0,1,3.988-1.7Zm-1.9,5.125a2.306,2.306,0,0,0-1.367.445,2.32,2.32,0,0,0-.867,1.117v.531a3.731,3.731,0,0,0,.633,2.266,1.9,1.9,0,0,0,1.578.859,1.838,1.838,0,0,0,1.535-.719,3.452,3.452,0,0,0-.008-3.777A1.816,1.816,0,0,0,4.719,113.742Zm3.125,37.852a2.641,2.641,0,0,1-.449,1.516,3.057,3.057,0,0,1-1.215,1.039,3.26,3.26,0,0,1,1.41,1.117,2.811,2.811,0,0,1,.52,1.664,2.972,2.972,0,0,1-1,2.352,3.827,3.827,0,0,1-2.621.875,3.81,3.81,0,0,1-2.629-.879,2.986,2.986,0,0,1-.988-2.348,2.9,2.9,0,0,1,.5-1.664,3.136,3.136,0,0,1,1.395-1.125,2.981,2.981,0,0,1-1.2-1.039,2.679,2.679,0,0,1-.437-1.508,2.94,2.94,0,0,1,.922-2.281,3.458,3.458,0,0,1,2.43-.844,3.461,3.461,0,0,1,2.426.844A2.934,2.934,0,0,1,7.844,151.594Zm-1.18,5.3a2.1,2.1,0,0,0-.605-1.555,2.147,2.147,0,0,0-1.582-.6,2.11,2.11,0,0,0-1.566.594,2.12,2.12,0,0,0-.59,1.563,2.019,2.019,0,0,0,.574,1.523,2.2,2.2,0,0,0,1.6.555,2.2,2.2,0,0,0,1.594-.559A2.014,2.014,0,0,0,6.664,156.9Zm-2.172-7.242a1.865,1.865,0,0,0-1.379.527,2.182,2.182,0,0,0-.008,2.836,1.844,1.844,0,0,0,1.387.535,1.844,1.844,0,0,0,1.387-.535,2.138,2.138,0,0,0-.02-2.816A1.839,1.839,0,0,0,4.492,149.656Zm3.8,39.781L3.578,200H2.063l4.7-10.187H.6v-1.187H8.289Z" transform="translate(430.12 88.38)" fill="#12263f"/>
      <rect id="Rectángulo_37707" data-name="Rectángulo 37707" width="40" height="240" transform="translate(505.57 63.33)" fill="url(#linear-gradient)"/>
      <rect id="Rectángulo_37708" data-name="Rectángulo 37708" width="40" height="40" transform="translate(505.57 63.33)" fill="none" stroke="#12263f" stroke-miterlimit="10" stroke-width="1"/>
      <rect id="Rectángulo_37709" data-name="Rectángulo 37709" width="40" height="40" transform="translate(505.57 103.33)" fill="none" stroke="#12263f" stroke-miterlimit="10" stroke-width="1"/>
      <rect id="Rectángulo_37710" data-name="Rectángulo 37710" width="40" height="40" transform="translate(505.57 143.33)" fill="none" stroke="#12263f" stroke-miterlimit="10" stroke-width="1"/>
      <rect id="Rectángulo_37711" data-name="Rectángulo 37711" width="40" height="40" transform="translate(505.57 183.33)" fill="none" stroke="#12263f" stroke-miterlimit="10" stroke-width="1"/>
      <rect id="Rectángulo_37712" data-name="Rectángulo 37712" width="40" height="40" transform="translate(505.57 223.33)" fill="none" stroke="#12263f" stroke-miterlimit="10" stroke-width="1"/>
      <rect id="Rectángulo_37713" data-name="Rectángulo 37713" width="40" height="40" transform="translate(505.57 263.33)" fill="none" stroke="#12263f" stroke-miterlimit="10" stroke-width="1"/>
      <path id="Trazado_172272" data-name="Trazado 172272" d="M5.7,0H4.242V-9.633L1.328-8.562V-9.875L5.469-11.43H5.7ZM3.047,33.609H4.133a2.387,2.387,0,0,0,1.609-.539,1.8,1.8,0,0,0,.586-1.414,1.764,1.764,0,0,0-1.992-2,2.072,2.072,0,0,0-1.5.535,1.873,1.873,0,0,0-.559,1.418H.836a2.9,2.9,0,0,1,.988-2.246,3.6,3.6,0,0,1,2.512-.895,3.558,3.558,0,0,1,2.523.852,3.076,3.076,0,0,1,.914,2.367,2.5,2.5,0,0,1-.48,1.438,2.9,2.9,0,0,1-1.309,1.039,2.8,2.8,0,0,1,1.449.984,2.734,2.734,0,0,1,.512,1.68,3.1,3.1,0,0,1-1,2.43,3.745,3.745,0,0,1-2.6.9,3.844,3.844,0,0,1-2.605-.867A2.877,2.877,0,0,1,.734,37H2.188a1.859,1.859,0,0,0,.586,1.438,2.229,2.229,0,0,0,1.57.539,2.187,2.187,0,0,0,1.6-.547,2.108,2.108,0,0,0,.555-1.57,1.912,1.912,0,0,0-.609-1.523,2.655,2.655,0,0,0-1.758-.547H3.047ZM1.609,74.3l.578-5.672H8.016v1.336h-4.6l-.344,3.1a3.671,3.671,0,0,1,1.9-.492A3.138,3.138,0,0,1,7.438,73.6a4.026,4.026,0,0,1,.914,2.777,3.886,3.886,0,0,1-.949,2.77A3.46,3.46,0,0,1,4.75,80.156a3.6,3.6,0,0,1-2.461-.836A3.337,3.337,0,0,1,1.2,77.008H2.57a2.3,2.3,0,0,0,.7,1.473,2.162,2.162,0,0,0,1.484.5,1.95,1.95,0,0,0,1.582-.687,2.874,2.874,0,0,0,.574-1.9,2.638,2.638,0,0,0-.621-1.832,2.113,2.113,0,0,0-1.652-.691,2.383,2.383,0,0,0-1.484.414l-.383.313Zm5.008,34.32v1.227H6.352a3.805,3.805,0,0,0-2.687,1,4.161,4.161,0,0,0-1.156,2.727,3.085,3.085,0,0,1,2.453-1.031,2.95,2.95,0,0,1,2.371,1.047,4.588,4.588,0,0,1-.07,5.516A3.3,3.3,0,0,1,4.7,120.156,3.247,3.247,0,0,1,2.047,118.9a4.97,4.97,0,0,1-1.016-3.23v-.555a7.488,7.488,0,0,1,1.34-4.8,4.921,4.921,0,0,1,3.988-1.7Zm-1.9,5.125a2.306,2.306,0,0,0-1.367.445,2.32,2.32,0,0,0-.867,1.117v.531a3.731,3.731,0,0,0,.633,2.266,1.9,1.9,0,0,0,1.578.859,1.838,1.838,0,0,0,1.535-.719,3.452,3.452,0,0,0-.008-3.777A1.816,1.816,0,0,0,4.719,113.742Zm3.57,35.7L3.578,160H2.063l4.7-10.187H.6v-1.187H8.289Zm-.445,42.156a2.641,2.641,0,0,1-.449,1.516,3.057,3.057,0,0,1-1.215,1.039,3.26,3.26,0,0,1,1.41,1.117,2.811,2.811,0,0,1,.52,1.664,2.972,2.972,0,0,1-1,2.352,3.827,3.827,0,0,1-2.621.875,3.81,3.81,0,0,1-2.629-.879,2.986,2.986,0,0,1-.988-2.348,2.9,2.9,0,0,1,.5-1.664,3.136,3.136,0,0,1,1.395-1.125,2.981,2.981,0,0,1-1.2-1.039,2.679,2.679,0,0,1-.437-1.508,2.94,2.94,0,0,1,.922-2.281,3.458,3.458,0,0,1,2.43-.844,3.461,3.461,0,0,1,2.426.844A2.934,2.934,0,0,1,7.844,191.594Zm-1.18,5.3a2.1,2.1,0,0,0-.605-1.555,2.147,2.147,0,0,0-1.582-.6,2.11,2.11,0,0,0-1.566.594,2.12,2.12,0,0,0-.59,1.563,2.019,2.019,0,0,0,.574,1.523,2.2,2.2,0,0,0,1.6.555,2.2,2.2,0,0,0,1.594-.559A2.014,2.014,0,0,0,6.664,196.9Zm-2.172-7.242a1.865,1.865,0,0,0-1.379.527,2.182,2.182,0,0,0-.008,2.836,1.844,1.844,0,0,0,1.387.535,1.844,1.844,0,0,0,1.387-.535,2.138,2.138,0,0,0-.02-2.816A1.839,1.839,0,0,0,4.492,189.656Z" transform="translate(520.75 88.38)" fill="#12263f"/>
      <g id="Grupo_88227" data-name="Grupo 88227">
        <path id="Trazado_162594" data-name="Trazado 162594" d="M77.32,316a89.9,89.9,0,0,0,68.16,2.29" fill="none" stroke="#024e73" stroke-miterlimit="10" stroke-width="2"/>
        <path id="Trazado_162595" data-name="Trazado 162595" d="M145.87,322.57l5.18-6.58-8.29-1.2Z" fill="#024e73"/>
      </g>
      <g id="Grupo_88228" data-name="Grupo 88228">
        <path id="Trazado_162596" data-name="Trazado 162596" d="M169.32,316a89.9,89.9,0,0,0,68.16,2.29" fill="none" stroke="#024e73" stroke-miterlimit="10" stroke-width="2"/>
        <path id="Trazado_162597" data-name="Trazado 162597" d="M237.87,322.57l5.18-6.58-8.29-1.2Z" fill="#024e73"/>
      </g>
      <g id="Grupo_88229" data-name="Grupo 88229">
        <path id="Trazado_162598" data-name="Trazado 162598" d="M261.31,316a89.9,89.9,0,0,0,68.16,2.29" fill="none" stroke="#024e73" stroke-miterlimit="10" stroke-width="2"/>
        <path id="Trazado_162599" data-name="Trazado 162599" d="M329.87,322.57l5.18-6.58-8.29-1.2Z" fill="#024e73"/>
      </g>
      <g id="Grupo_88230" data-name="Grupo 88230">
        <path id="Trazado_162600" data-name="Trazado 162600" d="M353.31,316a89.9,89.9,0,0,0,68.16,2.29" fill="none" stroke="#024e73" stroke-miterlimit="10" stroke-width="2"/>
        <path id="Trazado_162601" data-name="Trazado 162601" d="M421.87,322.57l5.18-6.58-8.29-1.2Z" fill="#024e73"/>
      </g>
      <g id="Grupo_88231" data-name="Grupo 88231">
        <path id="Trazado_162602" data-name="Trazado 162602" d="M445.31,316a89.9,89.9,0,0,0,68.16,2.29" fill="none" stroke="#024e73" stroke-miterlimit="10" stroke-width="2"/>
        <path id="Trazado_162603" data-name="Trazado 162603" d="M513.86,322.57l5.18-6.58-8.29-1.2Z" fill="#024e73"/>
      </g>
      <g id="Grupo">
        <path id="Trazado_172278" data-name="Trazado 172278" d="M2.38,0H1.162V-9.242H2.38ZM5.535-6.868,5.573-6A2.5,2.5,0,0,1,7.63-7q2.177,0,2.2,2.457V0H8.652V-4.545a1.581,1.581,0,0,0-.34-1.1A1.361,1.361,0,0,0,7.274-6a1.7,1.7,0,0,0-1,.3,2.069,2.069,0,0,0-.673.8V0H4.424V-6.868ZM13.19-8.531v1.663h1.282v.908H13.19V-1.7a.953.953,0,0,0,.171.62.721.721,0,0,0,.584.207A2.843,2.843,0,0,0,14.5-.946V0a3.424,3.424,0,0,1-.9.126,1.462,1.462,0,0,1-1.187-.476,2.045,2.045,0,0,1-.4-1.352V-5.96h-1.25v-.908h1.25V-8.531Zm5.5,8.658A3,3,0,0,1,16.421-.79a3.4,3.4,0,0,1-.876-2.453v-.216a4.121,4.121,0,0,1,.39-1.825,3.045,3.045,0,0,1,1.092-1.257A2.745,2.745,0,0,1,18.548-7a2.572,2.572,0,0,1,2.082.882,3.82,3.82,0,0,1,.743,2.526V-3.1H16.72a2.441,2.441,0,0,0,.594,1.641,1.866,1.866,0,0,0,1.444.625,2.045,2.045,0,0,0,1.054-.254,2.648,2.648,0,0,0,.755-.673l.717.559A2.884,2.884,0,0,1,18.694.127ZM18.548-6.03a1.566,1.566,0,0,0-1.193.517,2.515,2.515,0,0,0-.6,1.45H20.2v-.089a2.237,2.237,0,0,0-.482-1.387A1.475,1.475,0,0,0,18.548-6.03Z" transform="translate(169.89 343.74)" fill="#12263f"/>
        <text id="r" transform="translate(191.73 343.74)" fill="#12263f" font-size="13" font-family="Roboto-Regular, Roboto" letter-spacing="-0.01em"><tspan x="0" y="0">r</tspan></text>
        <path id="Trazado_172276" data-name="Trazado 172276" d="M3.644-.832a1.692,1.692,0,0,0,1.1-.381,1.34,1.34,0,0,0,.521-.952H6.373a2.13,2.13,0,0,1-.406,1.124,2.676,2.676,0,0,1-1,.851A2.885,2.885,0,0,1,3.644.127,2.829,2.829,0,0,1,1.412-.809,3.729,3.729,0,0,1,.584-3.371v-.2A4.135,4.135,0,0,1,.952-5.351,2.8,2.8,0,0,1,2.009-6.563,3,3,0,0,1,3.637-7a2.755,2.755,0,0,1,1.92.692,2.473,2.473,0,0,1,.816,1.8H5.262a1.618,1.618,0,0,0-.5-1.095,1.57,1.57,0,0,0-1.12-.428,1.644,1.644,0,0,0-1.387.644,3.026,3.026,0,0,0-.492,1.863V-3.3a2.965,2.965,0,0,0,.489,1.828A1.651,1.651,0,0,0,3.644-.832ZM11.934,0a2.467,2.467,0,0,1-.165-.724A2.62,2.62,0,0,1,9.813.127,2.424,2.424,0,0,1,8.147-.448,1.859,1.859,0,0,1,7.5-1.9a1.942,1.942,0,0,1,.816-1.666,3.846,3.846,0,0,1,2.295-.594H11.75V-4.7a1.319,1.319,0,0,0-.368-.981A1.48,1.48,0,0,0,10.3-6.049a1.712,1.712,0,0,0-1.054.317.935.935,0,0,0-.425.768H7.636A1.621,1.621,0,0,1,8-5.957a2.491,2.491,0,0,1,.99-.759A3.331,3.331,0,0,1,10.366-7a2.715,2.715,0,0,1,1.86.594,2.141,2.141,0,0,1,.7,1.635v3.161a3.865,3.865,0,0,0,.241,1.5V0ZM9.985-.9a2.064,2.064,0,0,0,1.047-.286,1.728,1.728,0,0,0,.717-.743V-3.333h-.92q-2.158,0-2.158,1.263a1.069,1.069,0,0,0,.368.863A1.415,1.415,0,0,0,9.985-.9Zm5.884-5.973.032.762A2.536,2.536,0,0,1,17.938-7a1.964,1.964,0,0,1,1.961,1.1,2.6,2.6,0,0,1,.892-.8,2.634,2.634,0,0,1,1.3-.3q2.26,0,2.3,2.393V0H23.213V-4.532a1.577,1.577,0,0,0-.336-1.1A1.482,1.482,0,0,0,21.747-6a1.557,1.557,0,0,0-1.085.39,1.584,1.584,0,0,0-.5,1.051V0H18.979V-4.5A1.31,1.31,0,0,0,17.513-6a1.571,1.571,0,0,0-1.581.984V0H14.758V-6.868Zm16.1,3.51a4.084,4.084,0,0,1-.724,2.53,2.312,2.312,0,0,1-1.942.955,2.394,2.394,0,0,1-2.012-.92L27.238,0H26.159V-9.75h1.174v3.637A2.381,2.381,0,0,1,29.294-7a2.326,2.326,0,0,1,1.965.946,4.206,4.206,0,0,1,.714,2.59ZM30.8-3.491a3.173,3.173,0,0,0-.463-1.854A1.534,1.534,0,0,0,29-6a1.724,1.724,0,0,0-1.669,1.079v2.971A1.772,1.772,0,0,0,29.015-.87a1.526,1.526,0,0,0,1.314-.654A3.375,3.375,0,0,0,30.8-3.491ZM34.728,0H33.554V-6.868h1.174Zm-1.27-8.69a.7.7,0,0,1,.175-.482.655.655,0,0,1,.517-.2.666.666,0,0,1,.521.2.694.694,0,0,1,.178.482.671.671,0,0,1-.178.476.678.678,0,0,1-.521.19.667.667,0,0,1-.517-.19A.678.678,0,0,1,33.458-8.69ZM40.847,0a2.467,2.467,0,0,1-.165-.724,2.62,2.62,0,0,1-1.955.851,2.424,2.424,0,0,1-1.666-.574A1.859,1.859,0,0,1,36.41-1.9a1.942,1.942,0,0,1,.816-1.666,3.846,3.846,0,0,1,2.295-.594h1.143V-4.7a1.319,1.319,0,0,0-.368-.981,1.48,1.48,0,0,0-1.085-.365,1.712,1.712,0,0,0-1.054.317.935.935,0,0,0-.425.768H36.55a1.621,1.621,0,0,1,.365-.993,2.491,2.491,0,0,1,.99-.759A3.331,3.331,0,0,1,39.279-7a2.715,2.715,0,0,1,1.86.594,2.141,2.141,0,0,1,.7,1.635v3.161a3.865,3.865,0,0,0,.241,1.5V0ZM38.9-.9a2.064,2.064,0,0,0,1.047-.286,1.728,1.728,0,0,0,.717-.743V-3.333h-.92q-2.158,0-2.158,1.263a1.069,1.069,0,0,0,.368.863A1.415,1.415,0,0,0,38.9-.9ZM47-5.814a3.519,3.519,0,0,0-.578-.044,1.547,1.547,0,0,0-1.568.984V0H43.678V-6.868h1.143l.019.793A1.829,1.829,0,0,1,46.478-7,1.2,1.2,0,0,1,47-6.906Z" transform="translate(196.01 343.74)" fill="#12263f"/>
        <path id="Trazado_172277" data-name="Trazado 172277" d="M5.129,0a2.467,2.467,0,0,1-.165-.724A2.62,2.62,0,0,1,3.009.127,2.424,2.424,0,0,1,1.343-.448,1.859,1.859,0,0,1,.692-1.9a1.942,1.942,0,0,1,.816-1.666A3.846,3.846,0,0,1,3.8-4.164H4.945V-4.7a1.319,1.319,0,0,0-.368-.981,1.48,1.48,0,0,0-1.085-.365,1.712,1.712,0,0,0-1.054.317.935.935,0,0,0-.425.768H.832A1.621,1.621,0,0,1,1.2-5.957a2.491,2.491,0,0,1,.99-.759A3.331,3.331,0,0,1,3.561-7a2.715,2.715,0,0,1,1.86.594,2.141,2.141,0,0,1,.7,1.635v3.161A3.865,3.865,0,0,0,6.36-.1V0ZM3.18-.9a2.064,2.064,0,0,0,1.047-.286,1.728,1.728,0,0,0,.717-.743V-3.333h-.92q-2.158,0-2.158,1.263a1.069,1.069,0,0,0,.368.863A1.415,1.415,0,0,0,3.18-.9Zm7.211-8.7H9.179V1.016h1.212V1.98H8V-10.562h2.393ZM15.146,0H13.965V-7.827l-2.368.87V-8.023l3.364-1.263h.184Zm2.729-10.562h2.4V1.98h-2.4V1.016H19.1V-9.6H17.875ZM28.126-.832a1.692,1.692,0,0,0,1.1-.381,1.34,1.34,0,0,0,.521-.952h1.111a2.13,2.13,0,0,1-.406,1.124,2.676,2.676,0,0,1-1,.851,2.885,2.885,0,0,1-1.323.317A2.829,2.829,0,0,1,25.9-.809a3.729,3.729,0,0,1-.828-2.561v-.2a4.135,4.135,0,0,1,.368-1.784,2.8,2.8,0,0,1,1.057-1.212A3,3,0,0,1,28.12-7a2.755,2.755,0,0,1,1.92.692,2.473,2.473,0,0,1,.816,1.8H29.745a1.618,1.618,0,0,0-.5-1.095,1.57,1.57,0,0,0-1.12-.428,1.644,1.644,0,0,0-1.387.644,3.026,3.026,0,0,0-.492,1.863V-3.3a2.965,2.965,0,0,0,.489,1.828A1.651,1.651,0,0,0,28.126-.832ZM31.865-3.5a4.057,4.057,0,0,1,.4-1.815,2.96,2.96,0,0,1,1.1-1.244A3.007,3.007,0,0,1,34.982-7a2.9,2.9,0,0,1,2.269.971,3.736,3.736,0,0,1,.866,2.583v.083a4.092,4.092,0,0,1-.384,1.8,2.916,2.916,0,0,1-1.1,1.241,3.041,3.041,0,0,1-1.641.444,2.889,2.889,0,0,1-2.263-.971,3.718,3.718,0,0,1-.866-2.571Zm1.181.14a2.938,2.938,0,0,0,.53,1.834,1.7,1.7,0,0,0,1.419.692,1.686,1.686,0,0,0,1.422-.7A3.213,3.213,0,0,0,36.943-3.5a2.933,2.933,0,0,0-.536-1.831,1.705,1.705,0,0,0-1.425-.7,1.686,1.686,0,0,0-1.4.692A3.189,3.189,0,0,0,33.046-3.358ZM40.7-6.868,40.739-6A2.5,2.5,0,0,1,42.8-7q2.177,0,2.2,2.457V0H43.818V-4.545a1.581,1.581,0,0,0-.34-1.1A1.361,1.361,0,0,0,42.44-6a1.7,1.7,0,0,0-1,.3,2.069,2.069,0,0,0-.673.8V0H39.59V-6.868ZM54.222,0a2.467,2.467,0,0,1-.165-.724A2.62,2.62,0,0,1,52.1.127a2.424,2.424,0,0,1-1.666-.574A1.859,1.859,0,0,1,49.785-1.9,1.942,1.942,0,0,1,50.6-3.571,3.846,3.846,0,0,1,52.9-4.164h1.143V-4.7a1.319,1.319,0,0,0-.368-.981,1.48,1.48,0,0,0-1.085-.365,1.712,1.712,0,0,0-1.054.317.935.935,0,0,0-.425.768H49.924a1.621,1.621,0,0,1,.365-.993,2.491,2.491,0,0,1,.99-.759A3.331,3.331,0,0,1,52.654-7a2.715,2.715,0,0,1,1.86.594,2.141,2.141,0,0,1,.7,1.635v3.161a3.865,3.865,0,0,0,.241,1.5V0ZM52.273-.9a2.064,2.064,0,0,0,1.047-.286,1.728,1.728,0,0,0,.717-.743V-3.333h-.92q-2.158,0-2.158,1.263a1.069,1.069,0,0,0,.368.863A1.415,1.415,0,0,0,52.273-.9Zm7.211-8.7H58.271V1.016h1.212V1.98H57.091V-10.562h2.393ZM65.336-3.1h1.282v.958H65.336V0H64.156V-2.146H59.947v-.692l4.139-6.4h1.25Zm-4.056,0h2.875V-7.636l-.14.254Zm5.688-7.458h2.4V1.98h-2.4V1.016h1.225V-9.6H66.968Z" transform="translate(171.37 359.34)" fill="#12263f"/>
      </g>
      <g id="Grupo-2" data-name="Grupo">
        <path id="Trazado_172275" data-name="Trazado 172275" d="M2.38,0H1.162V-9.242H2.38ZM5.535-6.868,5.573-6A2.5,2.5,0,0,1,7.63-7q2.177,0,2.2,2.457V0H8.652V-4.545a1.581,1.581,0,0,0-.34-1.1A1.361,1.361,0,0,0,7.274-6a1.7,1.7,0,0,0-1,.3,2.069,2.069,0,0,0-.673.8V0H4.424V-6.868ZM13.19-8.531v1.663h1.282v.908H13.19V-1.7a.953.953,0,0,0,.171.62.721.721,0,0,0,.584.207A2.843,2.843,0,0,0,14.5-.946V0a3.424,3.424,0,0,1-.9.126,1.462,1.462,0,0,1-1.187-.476,2.045,2.045,0,0,1-.4-1.352V-5.96h-1.25v-.908h1.25V-8.531Zm5.5,8.658A3,3,0,0,1,16.421-.79a3.4,3.4,0,0,1-.876-2.453v-.216a4.121,4.121,0,0,1,.39-1.825,3.045,3.045,0,0,1,1.092-1.257A2.745,2.745,0,0,1,18.548-7a2.572,2.572,0,0,1,2.082.882,3.82,3.82,0,0,1,.743,2.526V-3.1H16.72a2.441,2.441,0,0,0,.594,1.641,1.866,1.866,0,0,0,1.444.625,2.045,2.045,0,0,0,1.054-.254,2.648,2.648,0,0,0,.755-.673l.717.559A2.884,2.884,0,0,1,18.694.127ZM18.548-6.03a1.566,1.566,0,0,0-1.193.517,2.515,2.515,0,0,0-.6,1.45H20.2v-.089a2.237,2.237,0,0,0-.482-1.387A1.475,1.475,0,0,0,18.548-6.03Z" transform="translate(80.96 343.74)" fill="#12263f"/>
        <text id="r-2" data-name="r" transform="translate(102.8 343.74)" fill="#12263f" font-size="13" font-family="Roboto-Regular, Roboto" letter-spacing="-0.01em"><tspan x="0" y="0">r</tspan></text>
        <path id="Trazado_172274" data-name="Trazado 172274" d="M3.644-.832a1.692,1.692,0,0,0,1.1-.381,1.34,1.34,0,0,0,.521-.952H6.373a2.13,2.13,0,0,1-.406,1.124,2.676,2.676,0,0,1-1,.851A2.885,2.885,0,0,1,3.644.127,2.829,2.829,0,0,1,1.412-.809,3.729,3.729,0,0,1,.584-3.371v-.2A4.135,4.135,0,0,1,.952-5.351,2.8,2.8,0,0,1,2.009-6.563,3,3,0,0,1,3.637-7a2.755,2.755,0,0,1,1.92.692,2.473,2.473,0,0,1,.816,1.8H5.262a1.618,1.618,0,0,0-.5-1.095,1.57,1.57,0,0,0-1.12-.428,1.644,1.644,0,0,0-1.387.644,3.026,3.026,0,0,0-.492,1.863V-3.3a2.965,2.965,0,0,0,.489,1.828A1.651,1.651,0,0,0,3.644-.832ZM11.934,0a2.467,2.467,0,0,1-.165-.724A2.62,2.62,0,0,1,9.813.127,2.424,2.424,0,0,1,8.147-.448,1.859,1.859,0,0,1,7.5-1.9a1.942,1.942,0,0,1,.816-1.666,3.846,3.846,0,0,1,2.295-.594H11.75V-4.7a1.319,1.319,0,0,0-.368-.981A1.48,1.48,0,0,0,10.3-6.049a1.712,1.712,0,0,0-1.054.317.935.935,0,0,0-.425.768H7.636A1.621,1.621,0,0,1,8-5.957a2.491,2.491,0,0,1,.99-.759A3.331,3.331,0,0,1,10.366-7a2.715,2.715,0,0,1,1.86.594,2.141,2.141,0,0,1,.7,1.635v3.161a3.865,3.865,0,0,0,.241,1.5V0ZM9.985-.9a2.064,2.064,0,0,0,1.047-.286,1.728,1.728,0,0,0,.717-.743V-3.333h-.92q-2.158,0-2.158,1.263a1.069,1.069,0,0,0,.368.863A1.415,1.415,0,0,0,9.985-.9Zm5.884-5.973.032.762A2.536,2.536,0,0,1,17.938-7a1.964,1.964,0,0,1,1.961,1.1,2.6,2.6,0,0,1,.892-.8,2.634,2.634,0,0,1,1.3-.3q2.26,0,2.3,2.393V0H23.213V-4.532a1.577,1.577,0,0,0-.336-1.1A1.482,1.482,0,0,0,21.747-6a1.557,1.557,0,0,0-1.085.39,1.584,1.584,0,0,0-.5,1.051V0H18.979V-4.5A1.31,1.31,0,0,0,17.513-6a1.571,1.571,0,0,0-1.581.984V0H14.758V-6.868Zm16.1,3.51a4.084,4.084,0,0,1-.724,2.53,2.312,2.312,0,0,1-1.942.955,2.394,2.394,0,0,1-2.012-.92L27.238,0H26.159V-9.75h1.174v3.637A2.381,2.381,0,0,1,29.294-7a2.326,2.326,0,0,1,1.965.946,4.206,4.206,0,0,1,.714,2.59ZM30.8-3.491a3.173,3.173,0,0,0-.463-1.854A1.534,1.534,0,0,0,29-6a1.724,1.724,0,0,0-1.669,1.079v2.971A1.772,1.772,0,0,0,29.015-.87a1.526,1.526,0,0,0,1.314-.654A3.375,3.375,0,0,0,30.8-3.491ZM34.728,0H33.554V-6.868h1.174Zm-1.27-8.69a.7.7,0,0,1,.175-.482.655.655,0,0,1,.517-.2.666.666,0,0,1,.521.2.694.694,0,0,1,.178.482.671.671,0,0,1-.178.476.678.678,0,0,1-.521.19.667.667,0,0,1-.517-.19A.678.678,0,0,1,33.458-8.69ZM40.847,0a2.467,2.467,0,0,1-.165-.724,2.62,2.62,0,0,1-1.955.851,2.424,2.424,0,0,1-1.666-.574A1.859,1.859,0,0,1,36.41-1.9a1.942,1.942,0,0,1,.816-1.666,3.846,3.846,0,0,1,2.295-.594h1.143V-4.7a1.319,1.319,0,0,0-.368-.981,1.48,1.48,0,0,0-1.085-.365,1.712,1.712,0,0,0-1.054.317.935.935,0,0,0-.425.768H36.55a1.621,1.621,0,0,1,.365-.993,2.491,2.491,0,0,1,.99-.759A3.331,3.331,0,0,1,39.279-7a2.715,2.715,0,0,1,1.86.594,2.141,2.141,0,0,1,.7,1.635v3.161a3.865,3.865,0,0,0,.241,1.5V0ZM38.9-.9a2.064,2.064,0,0,0,1.047-.286,1.728,1.728,0,0,0,.717-.743V-3.333h-.92q-2.158,0-2.158,1.263a1.069,1.069,0,0,0,.368.863A1.415,1.415,0,0,0,38.9-.9ZM47-5.814a3.519,3.519,0,0,0-.578-.044,1.547,1.547,0,0,0-1.568.984V0H43.678V-6.868h1.143l.019.793A1.829,1.829,0,0,1,46.478-7,1.2,1.2,0,0,1,47-6.906Z" transform="translate(107.08 343.74)" fill="#12263f"/>
        <path id="Trazado_172273" data-name="Trazado 172273" d="M5.129,0a2.467,2.467,0,0,1-.165-.724A2.62,2.62,0,0,1,3.009.127,2.424,2.424,0,0,1,1.343-.448,1.859,1.859,0,0,1,.692-1.9a1.942,1.942,0,0,1,.816-1.666A3.846,3.846,0,0,1,3.8-4.164H4.945V-4.7a1.319,1.319,0,0,0-.368-.981,1.48,1.48,0,0,0-1.085-.365,1.712,1.712,0,0,0-1.054.317.935.935,0,0,0-.425.768H.832A1.621,1.621,0,0,1,1.2-5.957a2.491,2.491,0,0,1,.99-.759A3.331,3.331,0,0,1,3.561-7a2.715,2.715,0,0,1,1.86.594,2.141,2.141,0,0,1,.7,1.635v3.161A3.865,3.865,0,0,0,6.36-.1V0ZM3.18-.9a2.064,2.064,0,0,0,1.047-.286,1.728,1.728,0,0,0,.717-.743V-3.333h-.92q-2.158,0-2.158,1.263a1.069,1.069,0,0,0,.368.863A1.415,1.415,0,0,0,3.18-.9Zm7.211-8.7H9.179V1.016h1.212V1.98H8V-10.562h2.393Zm6.69,5.656a5.371,5.371,0,0,1-.7,3.066,2.506,2.506,0,0,1-2.2,1,2.524,2.524,0,0,1-2.19-.981,5.1,5.1,0,0,1-.736-2.929V-5.351a5.251,5.251,0,0,1,.7-3.028,2.525,2.525,0,0,1,2.209-.99,2.548,2.548,0,0,1,2.2.955,5.068,5.068,0,0,1,.724,2.948ZM15.907-5.548a4.3,4.3,0,0,0-.419-2.174A1.442,1.442,0,0,0,14.162-8.4a1.423,1.423,0,0,0-1.314.679,4.2,4.2,0,0,0-.425,2.088v1.879a4.372,4.372,0,0,0,.435,2.212,1.439,1.439,0,0,0,1.317.714A1.42,1.42,0,0,0,15.466-1.5a4.214,4.214,0,0,0,.441-2.12Zm1.968-5.015h2.4V1.98h-2.4V1.016H19.1V-9.6H17.875ZM28.126-.832a1.692,1.692,0,0,0,1.1-.381,1.34,1.34,0,0,0,.521-.952h1.111a2.13,2.13,0,0,1-.406,1.124,2.676,2.676,0,0,1-1,.851,2.885,2.885,0,0,1-1.323.317A2.829,2.829,0,0,1,25.9-.809a3.729,3.729,0,0,1-.828-2.561v-.2a4.135,4.135,0,0,1,.368-1.784,2.8,2.8,0,0,1,1.057-1.212A3,3,0,0,1,28.12-7a2.755,2.755,0,0,1,1.92.692,2.473,2.473,0,0,1,.816,1.8H29.745a1.618,1.618,0,0,0-.5-1.095,1.57,1.57,0,0,0-1.12-.428,1.644,1.644,0,0,0-1.387.644,3.026,3.026,0,0,0-.492,1.863V-3.3a2.965,2.965,0,0,0,.489,1.828A1.651,1.651,0,0,0,28.126-.832ZM31.865-3.5a4.057,4.057,0,0,1,.4-1.815,2.96,2.96,0,0,1,1.1-1.244A3.007,3.007,0,0,1,34.982-7a2.9,2.9,0,0,1,2.269.971,3.736,3.736,0,0,1,.866,2.583v.083a4.092,4.092,0,0,1-.384,1.8,2.916,2.916,0,0,1-1.1,1.241,3.041,3.041,0,0,1-1.641.444,2.889,2.889,0,0,1-2.263-.971,3.718,3.718,0,0,1-.866-2.571Zm1.181.14a2.938,2.938,0,0,0,.53,1.834,1.7,1.7,0,0,0,1.419.692,1.686,1.686,0,0,0,1.422-.7A3.213,3.213,0,0,0,36.943-3.5a2.933,2.933,0,0,0-.536-1.831,1.705,1.705,0,0,0-1.425-.7,1.686,1.686,0,0,0-1.4.692A3.189,3.189,0,0,0,33.046-3.358ZM40.7-6.868,40.739-6A2.5,2.5,0,0,1,42.8-7q2.177,0,2.2,2.457V0H43.818V-4.545a1.581,1.581,0,0,0-.34-1.1A1.361,1.361,0,0,0,42.44-6a1.7,1.7,0,0,0-1,.3,2.069,2.069,0,0,0-.673.8V0H39.59V-6.868ZM54.222,0a2.467,2.467,0,0,1-.165-.724A2.62,2.62,0,0,1,52.1.127a2.424,2.424,0,0,1-1.666-.574A1.859,1.859,0,0,1,49.785-1.9,1.942,1.942,0,0,1,50.6-3.571,3.846,3.846,0,0,1,52.9-4.164h1.143V-4.7a1.319,1.319,0,0,0-.368-.981,1.48,1.48,0,0,0-1.085-.365,1.712,1.712,0,0,0-1.054.317.935.935,0,0,0-.425.768H49.924a1.621,1.621,0,0,1,.365-.993,2.491,2.491,0,0,1,.99-.759A3.331,3.331,0,0,1,52.654-7a2.715,2.715,0,0,1,1.86.594,2.141,2.141,0,0,1,.7,1.635v3.161a3.865,3.865,0,0,0,.241,1.5V0ZM52.273-.9a2.064,2.064,0,0,0,1.047-.286,1.728,1.728,0,0,0,.717-.743V-3.333h-.92q-2.158,0-2.158,1.263a1.069,1.069,0,0,0,.368.863A1.415,1.415,0,0,0,52.273-.9Zm7.211-8.7H58.271V1.016h1.212V1.98H57.091V-10.562h2.393Zm2.6,4.405h.882a1.939,1.939,0,0,0,1.308-.438,1.463,1.463,0,0,0,.476-1.149A1.434,1.434,0,0,0,63.134-8.4a1.684,1.684,0,0,0-1.216.435,1.522,1.522,0,0,0-.454,1.152H60.29a2.358,2.358,0,0,1,.8-1.825,2.925,2.925,0,0,1,2.041-.727,2.891,2.891,0,0,1,2.05.692,2.5,2.5,0,0,1,.743,1.923,2.029,2.029,0,0,1-.39,1.168,2.357,2.357,0,0,1-1.063.844,2.271,2.271,0,0,1,1.177.8,2.221,2.221,0,0,1,.416,1.365A2.521,2.521,0,0,1,65.254-.6a3.043,3.043,0,0,1-2.114.73,3.123,3.123,0,0,1-2.117-.7,2.337,2.337,0,0,1-.816-1.86h1.181a1.511,1.511,0,0,0,.476,1.168,1.811,1.811,0,0,0,1.276.438,1.777,1.777,0,0,0,1.3-.444,1.712,1.712,0,0,0,.451-1.276,1.554,1.554,0,0,0-.5-1.238,2.157,2.157,0,0,0-1.428-.444h-.882Zm4.881-5.37h2.4V1.98h-2.4V1.016h1.225V-9.6H66.968Z" transform="translate(82.44 359.34)" fill="#12263f"/>
      </g>
      <g id="Grupo-3" data-name="Grupo">
        <path id="Trazado_172280" data-name="Trazado 172280" d="M2.38,0H1.162V-9.242H2.38ZM5.535-6.868,5.573-6A2.5,2.5,0,0,1,7.63-7q2.177,0,2.2,2.457V0H8.652V-4.545a1.581,1.581,0,0,0-.34-1.1A1.361,1.361,0,0,0,7.274-6a1.7,1.7,0,0,0-1,.3,2.069,2.069,0,0,0-.673.8V0H4.424V-6.868ZM13.19-8.531v1.663h1.282v.908H13.19V-1.7a.953.953,0,0,0,.171.62.721.721,0,0,0,.584.207A2.843,2.843,0,0,0,14.5-.946V0a3.424,3.424,0,0,1-.9.126,1.462,1.462,0,0,1-1.187-.476,2.045,2.045,0,0,1-.4-1.352V-5.96h-1.25v-.908h1.25V-8.531Zm5.5,8.658A3,3,0,0,1,16.421-.79a3.4,3.4,0,0,1-.876-2.453v-.216a4.121,4.121,0,0,1,.39-1.825,3.045,3.045,0,0,1,1.092-1.257A2.745,2.745,0,0,1,18.548-7a2.572,2.572,0,0,1,2.082.882,3.82,3.82,0,0,1,.743,2.526V-3.1H16.72a2.441,2.441,0,0,0,.594,1.641,1.866,1.866,0,0,0,1.444.625,2.045,2.045,0,0,0,1.054-.254,2.648,2.648,0,0,0,.755-.673l.717.559A2.884,2.884,0,0,1,18.694.127ZM18.548-6.03a1.566,1.566,0,0,0-1.193.517,2.515,2.515,0,0,0-.6,1.45H20.2v-.089a2.237,2.237,0,0,0-.482-1.387A1.475,1.475,0,0,0,18.548-6.03Z" transform="translate(261.83 343.74)" fill="#12263f"/>
        <text id="r-3" data-name="r" transform="translate(283.67 343.74)" fill="#12263f" font-size="13" font-family="Roboto-Regular, Roboto" letter-spacing="-0.01em"><tspan x="0" y="0">r</tspan></text>
        <path id="Trazado_172279" data-name="Trazado 172279" d="M3.644-.832a1.692,1.692,0,0,0,1.1-.381,1.34,1.34,0,0,0,.521-.952H6.373a2.13,2.13,0,0,1-.406,1.124,2.676,2.676,0,0,1-1,.851A2.885,2.885,0,0,1,3.644.127,2.829,2.829,0,0,1,1.412-.809,3.729,3.729,0,0,1,.584-3.371v-.2A4.135,4.135,0,0,1,.952-5.351,2.8,2.8,0,0,1,2.009-6.563,3,3,0,0,1,3.637-7a2.755,2.755,0,0,1,1.92.692,2.473,2.473,0,0,1,.816,1.8H5.262a1.618,1.618,0,0,0-.5-1.095,1.57,1.57,0,0,0-1.12-.428,1.644,1.644,0,0,0-1.387.644,3.026,3.026,0,0,0-.492,1.863V-3.3a2.965,2.965,0,0,0,.489,1.828A1.651,1.651,0,0,0,3.644-.832ZM11.934,0a2.467,2.467,0,0,1-.165-.724A2.62,2.62,0,0,1,9.813.127,2.424,2.424,0,0,1,8.147-.448,1.859,1.859,0,0,1,7.5-1.9a1.942,1.942,0,0,1,.816-1.666,3.846,3.846,0,0,1,2.295-.594H11.75V-4.7a1.319,1.319,0,0,0-.368-.981A1.48,1.48,0,0,0,10.3-6.049a1.712,1.712,0,0,0-1.054.317.935.935,0,0,0-.425.768H7.636A1.621,1.621,0,0,1,8-5.957a2.491,2.491,0,0,1,.99-.759A3.331,3.331,0,0,1,10.366-7a2.715,2.715,0,0,1,1.86.594,2.141,2.141,0,0,1,.7,1.635v3.161a3.865,3.865,0,0,0,.241,1.5V0ZM9.985-.9a2.064,2.064,0,0,0,1.047-.286,1.728,1.728,0,0,0,.717-.743V-3.333h-.92q-2.158,0-2.158,1.263a1.069,1.069,0,0,0,.368.863A1.415,1.415,0,0,0,9.985-.9Zm5.884-5.973.032.762A2.536,2.536,0,0,1,17.938-7a1.964,1.964,0,0,1,1.961,1.1,2.6,2.6,0,0,1,.892-.8,2.634,2.634,0,0,1,1.3-.3q2.26,0,2.3,2.393V0H23.213V-4.532a1.577,1.577,0,0,0-.336-1.1A1.482,1.482,0,0,0,21.747-6a1.557,1.557,0,0,0-1.085.39,1.584,1.584,0,0,0-.5,1.051V0H18.979V-4.5A1.31,1.31,0,0,0,17.513-6a1.571,1.571,0,0,0-1.581.984V0H14.758V-6.868Zm16.1,3.51a4.084,4.084,0,0,1-.724,2.53,2.312,2.312,0,0,1-1.942.955,2.394,2.394,0,0,1-2.012-.92L27.238,0H26.159V-9.75h1.174v3.637A2.381,2.381,0,0,1,29.294-7a2.326,2.326,0,0,1,1.965.946,4.206,4.206,0,0,1,.714,2.59ZM30.8-3.491a3.173,3.173,0,0,0-.463-1.854A1.534,1.534,0,0,0,29-6a1.724,1.724,0,0,0-1.669,1.079v2.971A1.772,1.772,0,0,0,29.015-.87a1.526,1.526,0,0,0,1.314-.654A3.375,3.375,0,0,0,30.8-3.491ZM34.728,0H33.554V-6.868h1.174Zm-1.27-8.69a.7.7,0,0,1,.175-.482.655.655,0,0,1,.517-.2.666.666,0,0,1,.521.2.694.694,0,0,1,.178.482.671.671,0,0,1-.178.476.678.678,0,0,1-.521.19.667.667,0,0,1-.517-.19A.678.678,0,0,1,33.458-8.69ZM40.847,0a2.467,2.467,0,0,1-.165-.724,2.62,2.62,0,0,1-1.955.851,2.424,2.424,0,0,1-1.666-.574A1.859,1.859,0,0,1,36.41-1.9a1.942,1.942,0,0,1,.816-1.666,3.846,3.846,0,0,1,2.295-.594h1.143V-4.7a1.319,1.319,0,0,0-.368-.981,1.48,1.48,0,0,0-1.085-.365,1.712,1.712,0,0,0-1.054.317.935.935,0,0,0-.425.768H36.55a1.621,1.621,0,0,1,.365-.993,2.491,2.491,0,0,1,.99-.759A3.331,3.331,0,0,1,39.279-7a2.715,2.715,0,0,1,1.86.594,2.141,2.141,0,0,1,.7,1.635v3.161a3.865,3.865,0,0,0,.241,1.5V0ZM38.9-.9a2.064,2.064,0,0,0,1.047-.286,1.728,1.728,0,0,0,.717-.743V-3.333h-.92q-2.158,0-2.158,1.263a1.069,1.069,0,0,0,.368.863A1.415,1.415,0,0,0,38.9-.9ZM47-5.814a3.519,3.519,0,0,0-.578-.044,1.547,1.547,0,0,0-1.568.984V0H43.678V-6.868h1.143l.019.793A1.829,1.829,0,0,1,46.478-7,1.2,1.2,0,0,1,47-6.906Z" transform="translate(287.95 343.74)" fill="#12263f"/>
        <path id="Trazado_172281" data-name="Trazado 172281" d="M5.129,0a2.467,2.467,0,0,1-.165-.724A2.62,2.62,0,0,1,3.009.127,2.424,2.424,0,0,1,1.343-.448,1.859,1.859,0,0,1,.692-1.9a1.942,1.942,0,0,1,.816-1.666A3.846,3.846,0,0,1,3.8-4.164H4.945V-4.7a1.319,1.319,0,0,0-.368-.981,1.48,1.48,0,0,0-1.085-.365,1.712,1.712,0,0,0-1.054.317.935.935,0,0,0-.425.768H.832A1.621,1.621,0,0,1,1.2-5.957a2.491,2.491,0,0,1,.99-.759A3.331,3.331,0,0,1,3.561-7a2.715,2.715,0,0,1,1.86.594,2.141,2.141,0,0,1,.7,1.635v3.161A3.865,3.865,0,0,0,6.36-.1V0ZM3.18-.9a2.064,2.064,0,0,0,1.047-.286,1.728,1.728,0,0,0,.717-.743V-3.333h-.92q-2.158,0-2.158,1.263a1.069,1.069,0,0,0,.368.863A1.415,1.415,0,0,0,3.18-.9Zm7.211-8.7H9.179V1.016h1.212V1.98H8V-10.562h2.393ZM17.342,0H11.286V-.844l3.2-3.555a7.6,7.6,0,0,0,.981-1.311,2.188,2.188,0,0,0,.27-1.044A1.658,1.658,0,0,0,15.3-7.941,1.531,1.531,0,0,0,14.13-8.4a1.814,1.814,0,0,0-1.362.5,1.9,1.9,0,0,0-.486,1.387H11.108a2.726,2.726,0,0,1,.822-2.063,3.047,3.047,0,0,1,2.2-.787,2.928,2.928,0,0,1,2.038.676,2.306,2.306,0,0,1,.749,1.8,5.287,5.287,0,0,1-1.739,3.25L12.7-.958h4.64Zm.533-10.562h2.4V1.98h-2.4V1.016H19.1V-9.6H17.875ZM28.126-.832a1.692,1.692,0,0,0,1.1-.381,1.34,1.34,0,0,0,.521-.952h1.111a2.13,2.13,0,0,1-.406,1.124,2.676,2.676,0,0,1-1,.851,2.885,2.885,0,0,1-1.323.317A2.829,2.829,0,0,1,25.9-.809a3.729,3.729,0,0,1-.828-2.561v-.2a4.135,4.135,0,0,1,.368-1.784,2.8,2.8,0,0,1,1.057-1.212A3,3,0,0,1,28.12-7a2.755,2.755,0,0,1,1.92.692,2.473,2.473,0,0,1,.816,1.8H29.745a1.618,1.618,0,0,0-.5-1.095,1.57,1.57,0,0,0-1.12-.428,1.644,1.644,0,0,0-1.387.644,3.026,3.026,0,0,0-.492,1.863V-3.3a2.965,2.965,0,0,0,.489,1.828A1.651,1.651,0,0,0,28.126-.832ZM31.865-3.5a4.057,4.057,0,0,1,.4-1.815,2.96,2.96,0,0,1,1.1-1.244A3.007,3.007,0,0,1,34.982-7a2.9,2.9,0,0,1,2.269.971,3.736,3.736,0,0,1,.866,2.583v.083a4.092,4.092,0,0,1-.384,1.8,2.916,2.916,0,0,1-1.1,1.241,3.041,3.041,0,0,1-1.641.444,2.889,2.889,0,0,1-2.263-.971,3.718,3.718,0,0,1-.866-2.571Zm1.181.14a2.938,2.938,0,0,0,.53,1.834,1.7,1.7,0,0,0,1.419.692,1.686,1.686,0,0,0,1.422-.7A3.213,3.213,0,0,0,36.943-3.5a2.933,2.933,0,0,0-.536-1.831,1.705,1.705,0,0,0-1.425-.7,1.686,1.686,0,0,0-1.4.692A3.189,3.189,0,0,0,33.046-3.358ZM40.7-6.868,40.739-6A2.5,2.5,0,0,1,42.8-7q2.177,0,2.2,2.457V0H43.818V-4.545a1.581,1.581,0,0,0-.34-1.1A1.361,1.361,0,0,0,42.44-6a1.7,1.7,0,0,0-1,.3,2.069,2.069,0,0,0-.673.8V0H39.59V-6.868ZM54.222,0a2.467,2.467,0,0,1-.165-.724A2.62,2.62,0,0,1,52.1.127a2.424,2.424,0,0,1-1.666-.574A1.859,1.859,0,0,1,49.785-1.9,1.942,1.942,0,0,1,50.6-3.571,3.846,3.846,0,0,1,52.9-4.164h1.143V-4.7a1.319,1.319,0,0,0-.368-.981,1.48,1.48,0,0,0-1.085-.365,1.712,1.712,0,0,0-1.054.317.935.935,0,0,0-.425.768H49.924a1.621,1.621,0,0,1,.365-.993,2.491,2.491,0,0,1,.99-.759A3.331,3.331,0,0,1,52.654-7a2.715,2.715,0,0,1,1.86.594,2.141,2.141,0,0,1,.7,1.635v3.161a3.865,3.865,0,0,0,.241,1.5V0ZM52.273-.9a2.064,2.064,0,0,0,1.047-.286,1.728,1.728,0,0,0,.717-.743V-3.333h-.92q-2.158,0-2.158,1.263a1.069,1.069,0,0,0,.368.863A1.415,1.415,0,0,0,52.273-.9Zm7.211-8.7H58.271V1.016h1.212V1.98H57.091V-10.562h2.393Zm2.6,4.405h.882a1.939,1.939,0,0,0,1.308-.438,1.463,1.463,0,0,0,.476-1.149A1.434,1.434,0,0,0,63.134-8.4a1.684,1.684,0,0,0-1.216.435,1.522,1.522,0,0,0-.454,1.152H60.29a2.358,2.358,0,0,1,.8-1.825,2.925,2.925,0,0,1,2.041-.727,2.891,2.891,0,0,1,2.05.692,2.5,2.5,0,0,1,.743,1.923,2.029,2.029,0,0,1-.39,1.168,2.357,2.357,0,0,1-1.063.844,2.271,2.271,0,0,1,1.177.8,2.221,2.221,0,0,1,.416,1.365A2.521,2.521,0,0,1,65.254-.6a3.043,3.043,0,0,1-2.114.73,3.123,3.123,0,0,1-2.117-.7,2.337,2.337,0,0,1-.816-1.86h1.181a1.511,1.511,0,0,0,.476,1.168,1.811,1.811,0,0,0,1.276.438,1.777,1.777,0,0,0,1.3-.444,1.712,1.712,0,0,0,.451-1.276,1.554,1.554,0,0,0-.5-1.238,2.157,2.157,0,0,0-1.428-.444h-.882Zm4.881-5.37h2.4V1.98h-2.4V1.016h1.225V-9.6H66.968Z" transform="translate(263.31 359.34)" fill="#12263f"/>
      </g>
      <g id="Grupo-4" data-name="Grupo">
        <path id="Trazado_172283" data-name="Trazado 172283" d="M2.38,0H1.162V-9.242H2.38ZM5.535-6.868,5.573-6A2.5,2.5,0,0,1,7.63-7q2.177,0,2.2,2.457V0H8.652V-4.545a1.581,1.581,0,0,0-.34-1.1A1.361,1.361,0,0,0,7.274-6a1.7,1.7,0,0,0-1,.3,2.069,2.069,0,0,0-.673.8V0H4.424V-6.868ZM13.19-8.531v1.663h1.282v.908H13.19V-1.7a.953.953,0,0,0,.171.62.721.721,0,0,0,.584.207A2.843,2.843,0,0,0,14.5-.946V0a3.424,3.424,0,0,1-.9.126,1.462,1.462,0,0,1-1.187-.476,2.045,2.045,0,0,1-.4-1.352V-5.96h-1.25v-.908h1.25V-8.531Zm5.5,8.658A3,3,0,0,1,16.421-.79a3.4,3.4,0,0,1-.876-2.453v-.216a4.121,4.121,0,0,1,.39-1.825,3.045,3.045,0,0,1,1.092-1.257A2.745,2.745,0,0,1,18.548-7a2.572,2.572,0,0,1,2.082.882,3.82,3.82,0,0,1,.743,2.526V-3.1H16.72a2.441,2.441,0,0,0,.594,1.641,1.866,1.866,0,0,0,1.444.625,2.045,2.045,0,0,0,1.054-.254,2.648,2.648,0,0,0,.755-.673l.717.559A2.884,2.884,0,0,1,18.694.127ZM18.548-6.03a1.566,1.566,0,0,0-1.193.517,2.515,2.515,0,0,0-.6,1.45H20.2v-.089a2.237,2.237,0,0,0-.482-1.387A1.475,1.475,0,0,0,18.548-6.03Z" transform="translate(352.08 343.74)" fill="#12263f"/>
        <text id="r-4" data-name="r" transform="translate(373.92 343.74)" fill="#12263f" font-size="13" font-family="Roboto-Regular, Roboto" letter-spacing="-0.01em"><tspan x="0" y="0">r</tspan></text>
        <path id="Trazado_172282" data-name="Trazado 172282" d="M3.644-.832a1.692,1.692,0,0,0,1.1-.381,1.34,1.34,0,0,0,.521-.952H6.373a2.13,2.13,0,0,1-.406,1.124,2.676,2.676,0,0,1-1,.851A2.885,2.885,0,0,1,3.644.127,2.829,2.829,0,0,1,1.412-.809,3.729,3.729,0,0,1,.584-3.371v-.2A4.135,4.135,0,0,1,.952-5.351,2.8,2.8,0,0,1,2.009-6.563,3,3,0,0,1,3.637-7a2.755,2.755,0,0,1,1.92.692,2.473,2.473,0,0,1,.816,1.8H5.262a1.618,1.618,0,0,0-.5-1.095,1.57,1.57,0,0,0-1.12-.428,1.644,1.644,0,0,0-1.387.644,3.026,3.026,0,0,0-.492,1.863V-3.3a2.965,2.965,0,0,0,.489,1.828A1.651,1.651,0,0,0,3.644-.832ZM11.934,0a2.467,2.467,0,0,1-.165-.724A2.62,2.62,0,0,1,9.813.127,2.424,2.424,0,0,1,8.147-.448,1.859,1.859,0,0,1,7.5-1.9a1.942,1.942,0,0,1,.816-1.666,3.846,3.846,0,0,1,2.295-.594H11.75V-4.7a1.319,1.319,0,0,0-.368-.981A1.48,1.48,0,0,0,10.3-6.049a1.712,1.712,0,0,0-1.054.317.935.935,0,0,0-.425.768H7.636A1.621,1.621,0,0,1,8-5.957a2.491,2.491,0,0,1,.99-.759A3.331,3.331,0,0,1,10.366-7a2.715,2.715,0,0,1,1.86.594,2.141,2.141,0,0,1,.7,1.635v3.161a3.865,3.865,0,0,0,.241,1.5V0ZM9.985-.9a2.064,2.064,0,0,0,1.047-.286,1.728,1.728,0,0,0,.717-.743V-3.333h-.92q-2.158,0-2.158,1.263a1.069,1.069,0,0,0,.368.863A1.415,1.415,0,0,0,9.985-.9Zm5.884-5.973.032.762A2.536,2.536,0,0,1,17.938-7a1.964,1.964,0,0,1,1.961,1.1,2.6,2.6,0,0,1,.892-.8,2.634,2.634,0,0,1,1.3-.3q2.26,0,2.3,2.393V0H23.213V-4.532a1.577,1.577,0,0,0-.336-1.1A1.482,1.482,0,0,0,21.747-6a1.557,1.557,0,0,0-1.085.39,1.584,1.584,0,0,0-.5,1.051V0H18.979V-4.5A1.31,1.31,0,0,0,17.513-6a1.571,1.571,0,0,0-1.581.984V0H14.758V-6.868Zm16.1,3.51a4.084,4.084,0,0,1-.724,2.53,2.312,2.312,0,0,1-1.942.955,2.394,2.394,0,0,1-2.012-.92L27.238,0H26.159V-9.75h1.174v3.637A2.381,2.381,0,0,1,29.294-7a2.326,2.326,0,0,1,1.965.946,4.206,4.206,0,0,1,.714,2.59ZM30.8-3.491a3.173,3.173,0,0,0-.463-1.854A1.534,1.534,0,0,0,29-6a1.724,1.724,0,0,0-1.669,1.079v2.971A1.772,1.772,0,0,0,29.015-.87a1.526,1.526,0,0,0,1.314-.654A3.375,3.375,0,0,0,30.8-3.491ZM34.728,0H33.554V-6.868h1.174Zm-1.27-8.69a.7.7,0,0,1,.175-.482.655.655,0,0,1,.517-.2.666.666,0,0,1,.521.2.694.694,0,0,1,.178.482.671.671,0,0,1-.178.476.678.678,0,0,1-.521.19.667.667,0,0,1-.517-.19A.678.678,0,0,1,33.458-8.69ZM40.847,0a2.467,2.467,0,0,1-.165-.724,2.62,2.62,0,0,1-1.955.851,2.424,2.424,0,0,1-1.666-.574A1.859,1.859,0,0,1,36.41-1.9a1.942,1.942,0,0,1,.816-1.666,3.846,3.846,0,0,1,2.295-.594h1.143V-4.7a1.319,1.319,0,0,0-.368-.981,1.48,1.48,0,0,0-1.085-.365,1.712,1.712,0,0,0-1.054.317.935.935,0,0,0-.425.768H36.55a1.621,1.621,0,0,1,.365-.993,2.491,2.491,0,0,1,.99-.759A3.331,3.331,0,0,1,39.279-7a2.715,2.715,0,0,1,1.86.594,2.141,2.141,0,0,1,.7,1.635v3.161a3.865,3.865,0,0,0,.241,1.5V0ZM38.9-.9a2.064,2.064,0,0,0,1.047-.286,1.728,1.728,0,0,0,.717-.743V-3.333h-.92q-2.158,0-2.158,1.263a1.069,1.069,0,0,0,.368.863A1.415,1.415,0,0,0,38.9-.9ZM47-5.814a3.519,3.519,0,0,0-.578-.044,1.547,1.547,0,0,0-1.568.984V0H43.678V-6.868h1.143l.019.793A1.829,1.829,0,0,1,46.478-7,1.2,1.2,0,0,1,47-6.906Z" transform="translate(378.2 343.74)" fill="#12263f"/>
        <path id="Trazado_172284" data-name="Trazado 172284" d="M5.129,0a2.467,2.467,0,0,1-.165-.724A2.62,2.62,0,0,1,3.009.127,2.424,2.424,0,0,1,1.343-.448,1.859,1.859,0,0,1,.692-1.9a1.942,1.942,0,0,1,.816-1.666A3.846,3.846,0,0,1,3.8-4.164H4.945V-4.7a1.319,1.319,0,0,0-.368-.981,1.48,1.48,0,0,0-1.085-.365,1.712,1.712,0,0,0-1.054.317.935.935,0,0,0-.425.768H.832A1.621,1.621,0,0,1,1.2-5.957a2.491,2.491,0,0,1,.99-.759A3.331,3.331,0,0,1,3.561-7a2.715,2.715,0,0,1,1.86.594,2.141,2.141,0,0,1,.7,1.635v3.161A3.865,3.865,0,0,0,6.36-.1V0ZM3.18-.9a2.064,2.064,0,0,0,1.047-.286,1.728,1.728,0,0,0,.717-.743V-3.333h-.92q-2.158,0-2.158,1.263a1.069,1.069,0,0,0,.368.863A1.415,1.415,0,0,0,3.18-.9Zm7.211-8.7H9.179V1.016h1.212V1.98H8V-10.562h2.393Zm2.6,4.405h.882a1.939,1.939,0,0,0,1.308-.438,1.463,1.463,0,0,0,.476-1.149A1.434,1.434,0,0,0,14.041-8.4a1.684,1.684,0,0,0-1.216.435,1.522,1.522,0,0,0-.454,1.152H11.2A2.358,2.358,0,0,1,12-8.642a2.925,2.925,0,0,1,2.041-.727,2.891,2.891,0,0,1,2.05.692,2.5,2.5,0,0,1,.743,1.923,2.029,2.029,0,0,1-.39,1.168,2.357,2.357,0,0,1-1.063.844,2.271,2.271,0,0,1,1.177.8,2.221,2.221,0,0,1,.416,1.365A2.521,2.521,0,0,1,16.161-.6a3.043,3.043,0,0,1-2.114.73,3.123,3.123,0,0,1-2.117-.7,2.337,2.337,0,0,1-.816-1.86H12.3a1.511,1.511,0,0,0,.476,1.168,1.811,1.811,0,0,0,1.276.438,1.777,1.777,0,0,0,1.3-.444A1.712,1.712,0,0,0,15.8-2.552a1.554,1.554,0,0,0-.5-1.238,2.157,2.157,0,0,0-1.428-.444h-.882Zm4.881-5.37h2.4V1.98h-2.4V1.016H19.1V-9.6H17.875ZM28.126-.832a1.692,1.692,0,0,0,1.1-.381,1.34,1.34,0,0,0,.521-.952h1.111a2.13,2.13,0,0,1-.406,1.124,2.676,2.676,0,0,1-1,.851,2.885,2.885,0,0,1-1.323.317A2.829,2.829,0,0,1,25.9-.809a3.729,3.729,0,0,1-.828-2.561v-.2a4.135,4.135,0,0,1,.368-1.784,2.8,2.8,0,0,1,1.057-1.212A3,3,0,0,1,28.12-7a2.755,2.755,0,0,1,1.92.692,2.473,2.473,0,0,1,.816,1.8H29.745a1.618,1.618,0,0,0-.5-1.095,1.57,1.57,0,0,0-1.12-.428,1.644,1.644,0,0,0-1.387.644,3.026,3.026,0,0,0-.492,1.863V-3.3a2.965,2.965,0,0,0,.489,1.828A1.651,1.651,0,0,0,28.126-.832ZM31.865-3.5a4.057,4.057,0,0,1,.4-1.815,2.96,2.96,0,0,1,1.1-1.244A3.007,3.007,0,0,1,34.982-7a2.9,2.9,0,0,1,2.269.971,3.736,3.736,0,0,1,.866,2.583v.083a4.092,4.092,0,0,1-.384,1.8,2.916,2.916,0,0,1-1.1,1.241,3.041,3.041,0,0,1-1.641.444,2.889,2.889,0,0,1-2.263-.971,3.718,3.718,0,0,1-.866-2.571Zm1.181.14a2.938,2.938,0,0,0,.53,1.834,1.7,1.7,0,0,0,1.419.692,1.686,1.686,0,0,0,1.422-.7A3.213,3.213,0,0,0,36.943-3.5a2.933,2.933,0,0,0-.536-1.831,1.705,1.705,0,0,0-1.425-.7,1.686,1.686,0,0,0-1.4.692A3.189,3.189,0,0,0,33.046-3.358ZM40.7-6.868,40.739-6A2.5,2.5,0,0,1,42.8-7q2.177,0,2.2,2.457V0H43.818V-4.545a1.581,1.581,0,0,0-.34-1.1A1.361,1.361,0,0,0,42.44-6a1.7,1.7,0,0,0-1,.3,2.069,2.069,0,0,0-.673.8V0H39.59V-6.868ZM54.222,0a2.467,2.467,0,0,1-.165-.724A2.62,2.62,0,0,1,52.1.127a2.424,2.424,0,0,1-1.666-.574A1.859,1.859,0,0,1,49.785-1.9,1.942,1.942,0,0,1,50.6-3.571,3.846,3.846,0,0,1,52.9-4.164h1.143V-4.7a1.319,1.319,0,0,0-.368-.981,1.48,1.48,0,0,0-1.085-.365,1.712,1.712,0,0,0-1.054.317.935.935,0,0,0-.425.768H49.924a1.621,1.621,0,0,1,.365-.993,2.491,2.491,0,0,1,.99-.759A3.331,3.331,0,0,1,52.654-7a2.715,2.715,0,0,1,1.86.594,2.141,2.141,0,0,1,.7,1.635v3.161a3.865,3.865,0,0,0,.241,1.5V0ZM52.273-.9a2.064,2.064,0,0,0,1.047-.286,1.728,1.728,0,0,0,.717-.743V-3.333h-.92q-2.158,0-2.158,1.263a1.069,1.069,0,0,0,.368.863A1.415,1.415,0,0,0,52.273-.9Zm7.211-8.7H58.271V1.016h1.212V1.98H57.091V-10.562h2.393Zm1.435,4.964.47-4.608h4.735v1.085H62.385l-.279,2.52a2.983,2.983,0,0,1,1.542-.4,2.55,2.55,0,0,1,2.006.835A3.271,3.271,0,0,1,66.4-2.945,3.158,3.158,0,0,1,65.625-.7,2.811,2.811,0,0,1,63.47.127a2.921,2.921,0,0,1-2-.679,2.711,2.711,0,0,1-.882-1.879H61.7a1.865,1.865,0,0,0,.565,1.2,1.757,1.757,0,0,0,1.206.4,1.585,1.585,0,0,0,1.285-.559,2.335,2.335,0,0,0,.467-1.542,2.143,2.143,0,0,0-.5-1.489,1.717,1.717,0,0,0-1.343-.562,1.936,1.936,0,0,0-1.206.336l-.311.254Zm6.049-5.929h2.4V1.98h-2.4V1.016h1.225V-9.6H66.968Z" transform="translate(353.56 359.34)" fill="#12263f"/>
      </g>
      <path id="Trazado_172265" data-name="Trazado 172265" d="M8.182-4.323a5.717,5.717,0,0,1-.457,2.371A3.462,3.462,0,0,1,6.43-.406,3.563,3.563,0,0,1,4.475.127,3.532,3.532,0,0,1,2.539-.409a3.545,3.545,0,0,1-1.311-1.53,5.486,5.486,0,0,1-.479-2.3v-.667a5.649,5.649,0,0,1,.463-2.355A3.532,3.532,0,0,1,2.523-8.826a3.517,3.517,0,0,1,1.939-.543,3.583,3.583,0,0,1,1.958.536,3.455,3.455,0,0,1,1.3,1.555,5.745,5.745,0,0,1,.457,2.371Zm-1.212-.6a4.144,4.144,0,0,0-.66-2.523,2.177,2.177,0,0,0-1.847-.879,2.154,2.154,0,0,0-1.819.879A4.059,4.059,0,0,0,1.961-5v.679a4.15,4.15,0,0,0,.67,2.5,2.163,2.163,0,0,0,1.844.911A2.154,2.154,0,0,0,6.3-1.768,4.126,4.126,0,0,0,6.97-4.234Zm6.176-.9a3.519,3.519,0,0,0-.578-.044A1.547,1.547,0,0,0,11-4.875V0H9.826V-6.868h1.143l.019.793A1.829,1.829,0,0,1,12.625-7a1.2,1.2,0,0,1,.521.089Zm.663,2.323a4.023,4.023,0,0,1,.749-2.542A2.369,2.369,0,0,1,16.52-7a2.382,2.382,0,0,1,1.911.825V-9.75H19.6V0H18.526l-.057-.736a2.391,2.391,0,0,1-1.961.863,2.346,2.346,0,0,1-1.946-.978A4.069,4.069,0,0,1,13.809-3.4Zm1.174.133a3.046,3.046,0,0,0,.482,1.828A1.56,1.56,0,0,0,16.8-.87a1.713,1.713,0,0,0,1.631-1V-5.027A1.726,1.726,0,0,0,16.812-6a1.567,1.567,0,0,0-1.346.667A3.354,3.354,0,0,0,14.984-3.358ZM24.277.127A3,3,0,0,1,22-.79a3.4,3.4,0,0,1-.876-2.453v-.216a4.121,4.121,0,0,1,.39-1.825A3.045,3.045,0,0,1,22.61-6.541,2.745,2.745,0,0,1,24.131-7a2.572,2.572,0,0,1,2.082.882,3.82,3.82,0,0,1,.743,2.526V-3.1H22.3A2.441,2.441,0,0,0,22.9-1.457a1.866,1.866,0,0,0,1.444.625,2.045,2.045,0,0,0,1.054-.254,2.648,2.648,0,0,0,.755-.673l.717.559A2.884,2.884,0,0,1,24.277.127ZM24.131-6.03a1.566,1.566,0,0,0-1.193.517,2.515,2.515,0,0,0-.6,1.45h3.44v-.089A2.237,2.237,0,0,0,25.3-5.538,1.475,1.475,0,0,0,24.131-6.03Zm5.294-.838L29.463-6A2.5,2.5,0,0,1,31.519-7q2.177,0,2.2,2.457V0H32.541V-4.545a1.581,1.581,0,0,0-.34-1.1A1.361,1.361,0,0,0,31.164-6a1.7,1.7,0,0,0-1,.3,2.069,2.069,0,0,0-.673.8V0H28.314V-6.868ZM39.727,0a2.467,2.467,0,0,1-.165-.724,2.62,2.62,0,0,1-1.955.851,2.424,2.424,0,0,1-1.666-.574A1.859,1.859,0,0,1,35.29-1.9a1.942,1.942,0,0,1,.816-1.666A3.846,3.846,0,0,1,38.4-4.164h1.143V-4.7a1.319,1.319,0,0,0-.368-.981,1.48,1.48,0,0,0-1.085-.365,1.712,1.712,0,0,0-1.054.317.935.935,0,0,0-.425.768H35.43a1.621,1.621,0,0,1,.365-.993,2.491,2.491,0,0,1,.99-.759A3.331,3.331,0,0,1,38.159-7a2.715,2.715,0,0,1,1.86.594,2.141,2.141,0,0,1,.7,1.635v3.161a3.865,3.865,0,0,0,.241,1.5V0ZM37.778-.9a2.064,2.064,0,0,0,1.047-.286,1.728,1.728,0,0,0,.717-.743V-3.333h-.92q-2.158,0-2.158,1.263a1.069,1.069,0,0,0,.368.863A1.415,1.415,0,0,0,37.778-.9Zm5.884-5.973.032.762A2.536,2.536,0,0,1,45.732-7a1.964,1.964,0,0,1,1.961,1.1,2.6,2.6,0,0,1,.892-.8,2.634,2.634,0,0,1,1.3-.3q2.26,0,2.3,2.393V0H51.007V-4.532a1.577,1.577,0,0,0-.336-1.1A1.482,1.482,0,0,0,49.54-6a1.557,1.557,0,0,0-1.085.39,1.584,1.584,0,0,0-.5,1.051V0H46.773V-4.5A1.31,1.31,0,0,0,45.307-6a1.571,1.571,0,0,0-1.581.984V0H42.552V-6.868ZM55.228,0H54.054V-6.868h1.174Zm-1.27-8.69a.7.7,0,0,1,.175-.482.655.655,0,0,1,.517-.2.666.666,0,0,1,.521.2.694.694,0,0,1,.178.482.671.671,0,0,1-.178.476.678.678,0,0,1-.521.19.667.667,0,0,1-.517-.19A.678.678,0,0,1,53.958-8.69Zm6,8.817A3,3,0,0,1,57.684-.79a3.4,3.4,0,0,1-.876-2.453v-.216a4.121,4.121,0,0,1,.39-1.825,3.045,3.045,0,0,1,1.092-1.257A2.745,2.745,0,0,1,59.811-7a2.572,2.572,0,0,1,2.082.882,3.82,3.82,0,0,1,.743,2.526V-3.1H57.983a2.441,2.441,0,0,0,.594,1.641,1.866,1.866,0,0,0,1.444.625,2.045,2.045,0,0,0,1.054-.254,2.648,2.648,0,0,0,.755-.673l.717.559A2.884,2.884,0,0,1,59.957.127ZM59.811-6.03a1.566,1.566,0,0,0-1.193.517,2.515,2.515,0,0,0-.6,1.45h3.44v-.089a2.237,2.237,0,0,0-.482-1.387A1.475,1.475,0,0,0,59.811-6.03ZM65.1-6.868,65.143-6A2.5,2.5,0,0,1,67.2-7q2.177,0,2.2,2.457V0H68.222V-4.545a1.581,1.581,0,0,0-.34-1.1A1.361,1.361,0,0,0,66.844-6a1.7,1.7,0,0,0-1,.3,2.069,2.069,0,0,0-.673.8V0H63.994V-6.868ZM72.76-8.531v1.663h1.282v.908H72.76V-1.7a.953.953,0,0,0,.171.62.721.721,0,0,0,.584.207,2.843,2.843,0,0,0,.559-.076V0a3.424,3.424,0,0,1-.9.126,1.462,1.462,0,0,1-1.187-.476,2.045,2.045,0,0,1-.4-1.352V-5.96h-1.25v-.908h1.25V-8.531ZM74.845-3.5a4.057,4.057,0,0,1,.4-1.815,2.96,2.96,0,0,1,1.1-1.244A3.007,3.007,0,0,1,77.962-7a2.9,2.9,0,0,1,2.269.971A3.736,3.736,0,0,1,81.1-3.44v.083a4.092,4.092,0,0,1-.384,1.8,2.916,2.916,0,0,1-1.1,1.241,3.041,3.041,0,0,1-1.641.444,2.889,2.889,0,0,1-2.263-.971,3.718,3.718,0,0,1-.866-2.571Zm1.181.14a2.938,2.938,0,0,0,.53,1.834,1.7,1.7,0,0,0,1.419.692,1.686,1.686,0,0,0,1.422-.7A3.213,3.213,0,0,0,79.924-3.5a2.933,2.933,0,0,0-.536-1.831,1.705,1.705,0,0,0-1.425-.7,1.686,1.686,0,0,0-1.4.692A3.189,3.189,0,0,0,76.026-3.358Zm15.564,0a4.113,4.113,0,0,1-.717,2.526,2.3,2.3,0,0,1-1.942.958,2.519,2.519,0,0,1-1.968-.793V2.641H85.789V-6.868h1.073l.057.762A2.419,2.419,0,0,1,88.912-7a2.342,2.342,0,0,1,1.958.933,4.157,4.157,0,0,1,.72,2.6Zm-1.174-.133a3.035,3.035,0,0,0-.5-1.834A1.6,1.6,0,0,0,88.563-6a1.726,1.726,0,0,0-1.6.946v3.282a1.73,1.73,0,0,0,1.612.939,1.587,1.587,0,0,0,1.343-.67A3.313,3.313,0,0,0,90.416-3.491ZM92.771-3.5a4.057,4.057,0,0,1,.4-1.815,2.96,2.96,0,0,1,1.1-1.244A3.007,3.007,0,0,1,95.888-7a2.9,2.9,0,0,1,2.269.971,3.736,3.736,0,0,1,.866,2.583v.083a4.092,4.092,0,0,1-.384,1.8,2.916,2.916,0,0,1-1.1,1.241A3.041,3.041,0,0,1,95.9.127a2.889,2.889,0,0,1-2.263-.971,3.718,3.718,0,0,1-.866-2.571Zm1.181.14a2.938,2.938,0,0,0,.53,1.834A1.7,1.7,0,0,0,95.9-.832a1.686,1.686,0,0,0,1.422-.7A3.213,3.213,0,0,0,97.849-3.5a2.933,2.933,0,0,0-.536-1.831,1.705,1.705,0,0,0-1.425-.7,1.686,1.686,0,0,0-1.4.692A3.189,3.189,0,0,0,93.952-3.358Zm9.864-2.457a3.519,3.519,0,0,0-.578-.044,1.547,1.547,0,0,0-1.568.984V0H100.5V-6.868h1.143l.019.793A1.829,1.829,0,0,1,103.3-7a1.2,1.2,0,0,1,.521.089Zm7.2,1.695a5.731,5.731,0,0,1-2.282-1.108,2.116,2.116,0,0,1-.714-1.622,2.236,2.236,0,0,1,.873-1.806,3.469,3.469,0,0,1,2.269-.714,3.786,3.786,0,0,1,1.7.368,2.792,2.792,0,0,1,1.155,1.016,2.6,2.6,0,0,1,.409,1.416H113.2a1.69,1.69,0,0,0-.533-1.322,2.168,2.168,0,0,0-1.5-.481,2.22,2.22,0,0,0-1.406.4,1.326,1.326,0,0,0-.5,1.1,1.193,1.193,0,0,0,.479.957,4.7,4.7,0,0,0,1.631.715,7.569,7.569,0,0,1,1.8.715,2.736,2.736,0,0,1,.965.911,2.325,2.325,0,0,1,.314,1.225,2.159,2.159,0,0,1-.876,1.8,3.735,3.735,0,0,1-2.342.676,4.344,4.344,0,0,1-1.777-.365,2.991,2.991,0,0,1-1.273-1,2.44,2.44,0,0,1-.448-1.441h1.225a1.592,1.592,0,0,0,.619,1.323,2.606,2.606,0,0,0,1.654.486,2.4,2.4,0,0,0,1.479-.394,1.278,1.278,0,0,0,.514-1.073,1.255,1.255,0,0,0-.476-1.051A5.489,5.489,0,0,0,111.021-4.12ZM118.676.127A3,3,0,0,1,116.4-.79a3.4,3.4,0,0,1-.876-2.453v-.216a4.121,4.121,0,0,1,.39-1.825,3.045,3.045,0,0,1,1.092-1.257A2.745,2.745,0,0,1,118.53-7a2.572,2.572,0,0,1,2.082.882,3.82,3.82,0,0,1,.743,2.526V-3.1H116.7a2.441,2.441,0,0,0,.594,1.641,1.866,1.866,0,0,0,1.444.625,2.045,2.045,0,0,0,1.054-.254,2.648,2.648,0,0,0,.755-.673l.717.559A2.884,2.884,0,0,1,118.676.127ZM118.53-6.03a1.566,1.566,0,0,0-1.193.517,2.515,2.515,0,0,0-.6,1.45h3.44v-.089a2.237,2.237,0,0,0-.482-1.387A1.475,1.475,0,0,0,118.53-6.03ZM123.989,0h-1.174V-9.75h1.174Zm4.729.127a3,3,0,0,1-2.272-.917,3.4,3.4,0,0,1-.876-2.453v-.216a4.121,4.121,0,0,1,.39-1.825,3.045,3.045,0,0,1,1.092-1.257A2.745,2.745,0,0,1,128.572-7a2.572,2.572,0,0,1,2.082.882,3.82,3.82,0,0,1,.743,2.526V-3.1h-4.653a2.441,2.441,0,0,0,.594,1.641,1.866,1.866,0,0,0,1.444.625,2.045,2.045,0,0,0,1.054-.254,2.647,2.647,0,0,0,.755-.673l.717.559A2.884,2.884,0,0,1,128.718.127Zm-.146-6.157a1.566,1.566,0,0,0-1.193.517,2.515,2.515,0,0,0-.6,1.45h3.44v-.089a2.237,2.237,0,0,0-.482-1.387A1.475,1.475,0,0,0,128.572-6.03Zm6.938,5.2a1.692,1.692,0,0,0,1.1-.381,1.34,1.34,0,0,0,.521-.952h1.111a2.13,2.13,0,0,1-.406,1.124,2.676,2.676,0,0,1-1,.851,2.885,2.885,0,0,1-1.323.317,2.829,2.829,0,0,1-2.231-.936,3.729,3.729,0,0,1-.828-2.561v-.2a4.135,4.135,0,0,1,.368-1.784,2.8,2.8,0,0,1,1.057-1.212A3,3,0,0,1,135.5-7a2.755,2.755,0,0,1,1.92.692,2.473,2.473,0,0,1,.816,1.8h-1.111a1.618,1.618,0,0,0-.5-1.095,1.57,1.57,0,0,0-1.12-.428,1.644,1.644,0,0,0-1.387.644,3.026,3.026,0,0,0-.492,1.863V-3.3a2.965,2.965,0,0,0,.489,1.828A1.651,1.651,0,0,0,135.51-.832Zm6.8,0a1.692,1.692,0,0,0,1.1-.381,1.34,1.34,0,0,0,.521-.952h1.111a2.13,2.13,0,0,1-.406,1.124,2.676,2.676,0,0,1-1,.851,2.885,2.885,0,0,1-1.323.317,2.829,2.829,0,0,1-2.231-.936,3.729,3.729,0,0,1-.828-2.561v-.2a4.135,4.135,0,0,1,.368-1.784,2.8,2.8,0,0,1,1.057-1.212A3,3,0,0,1,142.308-7a2.755,2.755,0,0,1,1.92.692,2.473,2.473,0,0,1,.816,1.8h-1.111a1.618,1.618,0,0,0-.5-1.095,1.57,1.57,0,0,0-1.12-.428,1.644,1.644,0,0,0-1.387.644,3.026,3.026,0,0,0-.492,1.863V-3.3a2.965,2.965,0,0,0,.489,1.828A1.651,1.651,0,0,0,142.315-.832ZM147.64,0h-1.174V-6.868h1.174Zm-1.27-8.69a.7.7,0,0,1,.175-.482.655.655,0,0,1,.517-.2.666.666,0,0,1,.521.2.694.694,0,0,1,.178.482.671.671,0,0,1-.178.476.678.678,0,0,1-.521.19.667.667,0,0,1-.517-.19A.678.678,0,0,1,146.371-8.69ZM149.208-3.5a4.057,4.057,0,0,1,.4-1.815,2.959,2.959,0,0,1,1.1-1.244A3.007,3.007,0,0,1,152.325-7a2.9,2.9,0,0,1,2.269.971,3.736,3.736,0,0,1,.866,2.583v.083a4.092,4.092,0,0,1-.384,1.8,2.916,2.916,0,0,1-1.1,1.241,3.041,3.041,0,0,1-1.641.444,2.889,2.889,0,0,1-2.263-.971,3.718,3.718,0,0,1-.866-2.571Zm1.181.14a2.938,2.938,0,0,0,.53,1.834,1.7,1.7,0,0,0,1.419.692,1.686,1.686,0,0,0,1.422-.7,3.213,3.213,0,0,0,.527-1.965,2.933,2.933,0,0,0-.536-1.831,1.705,1.705,0,0,0-1.425-.7,1.686,1.686,0,0,0-1.4.692A3.189,3.189,0,0,0,150.389-3.358Zm2.469-6.392h1.422l-1.7,1.866-.946,0Zm5.186,2.882.038.863A2.5,2.5,0,0,1,160.139-7q2.177,0,2.2,2.457V0h-1.174V-4.545a1.581,1.581,0,0,0-.34-1.1A1.361,1.361,0,0,0,159.783-6a1.7,1.7,0,0,0-1,.3,2.069,2.069,0,0,0-.673.8V0h-1.174V-6.868ZM169.572-1.72l1.6-5.148h1.257L169.667,1.06q-.641,1.714-2.038,1.714l-.222-.019-.438-.083V1.72l.317.025a1.563,1.563,0,0,0,.93-.241,1.746,1.746,0,0,0,.549-.882l.26-.7-2.45-6.792h1.282Zm10.442-4.094a3.519,3.519,0,0,0-.578-.044,1.547,1.547,0,0,0-1.568.984V0h-1.174V-6.868h1.143l.019.793A1.829,1.829,0,0,1,179.493-7a1.2,1.2,0,0,1,.521.089Zm3.8,5.941A3,3,0,0,1,181.54-.79a3.4,3.4,0,0,1-.876-2.453v-.216a4.121,4.121,0,0,1,.39-1.825,3.045,3.045,0,0,1,1.092-1.257A2.745,2.745,0,0,1,183.667-7a2.572,2.572,0,0,1,2.082.882,3.82,3.82,0,0,1,.743,2.526V-3.1h-4.653a2.441,2.441,0,0,0,.594,1.641,1.866,1.866,0,0,0,1.444.625,2.045,2.045,0,0,0,1.054-.254,2.647,2.647,0,0,0,.755-.673l.717.559A2.884,2.884,0,0,1,183.813.127Zm-.146-6.157a1.566,1.566,0,0,0-1.193.517,2.515,2.515,0,0,0-.6,1.45h3.44v-.089a2.237,2.237,0,0,0-.482-1.387A1.475,1.475,0,0,0,183.667-6.03ZM190.7.127a3,3,0,0,1-2.272-.917,3.4,3.4,0,0,1-.876-2.453v-.216a4.121,4.121,0,0,1,.39-1.825,3.045,3.045,0,0,1,1.092-1.257A2.745,2.745,0,0,1,190.554-7a2.572,2.572,0,0,1,2.082.882,3.82,3.82,0,0,1,.743,2.526V-3.1h-4.653a2.441,2.441,0,0,0,.594,1.641,1.866,1.866,0,0,0,1.444.625,2.045,2.045,0,0,0,1.054-.254,2.647,2.647,0,0,0,.755-.673l.717.559A2.884,2.884,0,0,1,190.7.127Zm-.146-6.157a1.566,1.566,0,0,0-1.193.517,2.515,2.515,0,0,0-.6,1.45h3.44v-.089a2.237,2.237,0,0,0-.482-1.387A1.475,1.475,0,0,0,190.554-6.03Zm5.288-.838.032.762A2.536,2.536,0,0,1,197.911-7a1.964,1.964,0,0,1,1.961,1.1,2.6,2.6,0,0,1,.892-.8,2.634,2.634,0,0,1,1.3-.3q2.26,0,2.3,2.393V0h-1.174V-4.532a1.577,1.577,0,0,0-.336-1.1A1.482,1.482,0,0,0,201.719-6a1.557,1.557,0,0,0-1.085.39,1.584,1.584,0,0,0-.5,1.051V0h-1.181V-4.5A1.31,1.31,0,0,0,197.485-6a1.571,1.571,0,0,0-1.581.984V0h-1.174V-6.868Zm16.091,3.51a4.112,4.112,0,0,1-.717,2.526,2.3,2.3,0,0,1-1.942.958,2.519,2.519,0,0,1-1.968-.793V2.641h-1.174V-6.868H207.2l.057.762A2.419,2.419,0,0,1,209.254-7a2.342,2.342,0,0,1,1.958.933,4.157,4.157,0,0,1,.72,2.6Zm-1.174-.133a3.035,3.035,0,0,0-.5-1.834A1.6,1.6,0,0,0,208.9-6a1.726,1.726,0,0,0-1.6.946v3.282a1.73,1.73,0,0,0,1.612.939,1.587,1.587,0,0,0,1.343-.67A3.312,3.312,0,0,0,210.758-3.491ZM214.7,0h-1.174V-9.75H214.7Zm6.119,0a2.467,2.467,0,0,1-.165-.724A2.62,2.62,0,0,1,218.7.127a2.424,2.424,0,0,1-1.666-.574,1.859,1.859,0,0,1-.651-1.457,1.942,1.942,0,0,1,.816-1.666,3.846,3.846,0,0,1,2.295-.594h1.143V-4.7a1.319,1.319,0,0,0-.368-.981,1.48,1.48,0,0,0-1.085-.365,1.712,1.712,0,0,0-1.054.317.935.935,0,0,0-.425.768h-1.181a1.621,1.621,0,0,1,.365-.993,2.491,2.491,0,0,1,.99-.759A3.331,3.331,0,0,1,219.252-7a2.715,2.715,0,0,1,1.86.594,2.141,2.141,0,0,1,.7,1.635v3.161a3.865,3.865,0,0,0,.241,1.5V0Zm-1.949-.9a2.064,2.064,0,0,0,1.047-.286,1.728,1.728,0,0,0,.717-.743V-3.333h-.92q-2.158,0-2.158,1.263a1.069,1.069,0,0,0,.368.863A1.415,1.415,0,0,0,218.871-.9Zm5.884-.063h4.018V0H223.32V-.863L227.11-5.9h-3.732v-.971h5.205v.832Zm4.8-2.539a4.057,4.057,0,0,1,.4-1.815,2.959,2.959,0,0,1,1.1-1.244A3.007,3.007,0,0,1,232.667-7a2.9,2.9,0,0,1,2.269.971A3.736,3.736,0,0,1,235.8-3.44v.083a4.092,4.092,0,0,1-.384,1.8,2.916,2.916,0,0,1-1.1,1.241,3.041,3.041,0,0,1-1.641.444,2.889,2.889,0,0,1-2.263-.971,3.718,3.718,0,0,1-.866-2.571Zm1.181.14a2.938,2.938,0,0,0,.53,1.834,1.7,1.7,0,0,0,1.419.692,1.686,1.686,0,0,0,1.422-.7,3.213,3.213,0,0,0,.527-1.965,2.933,2.933,0,0,0-.536-1.831,1.705,1.705,0,0,0-1.425-.7,1.686,1.686,0,0,0-1.4.692A3.189,3.189,0,0,0,230.731-3.358Z" transform="translate(183.67 30.24)" fill="#12263f"/>
      <g id="Grupo-5" data-name="Grupo">
        <path id="Trazado_172287" data-name="Trazado 172287" d="M2.38,0H1.162V-9.242H2.38ZM5.535-6.868,5.573-6A2.5,2.5,0,0,1,7.63-7q2.177,0,2.2,2.457V0H8.652V-4.545a1.581,1.581,0,0,0-.34-1.1A1.361,1.361,0,0,0,7.274-6a1.7,1.7,0,0,0-1,.3,2.069,2.069,0,0,0-.673.8V0H4.424V-6.868ZM13.19-8.531v1.663h1.282v.908H13.19V-1.7a.953.953,0,0,0,.171.62.721.721,0,0,0,.584.207A2.843,2.843,0,0,0,14.5-.946V0a3.424,3.424,0,0,1-.9.126,1.462,1.462,0,0,1-1.187-.476,2.045,2.045,0,0,1-.4-1.352V-5.96h-1.25v-.908h1.25V-8.531Zm5.5,8.658A3,3,0,0,1,16.421-.79a3.4,3.4,0,0,1-.876-2.453v-.216a4.121,4.121,0,0,1,.39-1.825,3.045,3.045,0,0,1,1.092-1.257A2.745,2.745,0,0,1,18.548-7a2.572,2.572,0,0,1,2.082.882,3.82,3.82,0,0,1,.743,2.526V-3.1H16.72a2.441,2.441,0,0,0,.594,1.641,1.866,1.866,0,0,0,1.444.625,2.045,2.045,0,0,0,1.054-.254,2.648,2.648,0,0,0,.755-.673l.717.559A2.884,2.884,0,0,1,18.694.127ZM18.548-6.03a1.566,1.566,0,0,0-1.193.517,2.515,2.515,0,0,0-.6,1.45H20.2v-.089a2.237,2.237,0,0,0-.482-1.387A1.475,1.475,0,0,0,18.548-6.03Z" transform="translate(442.71 343.74)" fill="#12263f"/>
        <text id="r-5" data-name="r" transform="translate(464.55 343.74)" fill="#12263f" font-size="13" font-family="Roboto-Regular, Roboto" letter-spacing="-0.01em"><tspan x="0" y="0">r</tspan></text>
        <path id="Trazado_172285" data-name="Trazado 172285" d="M3.644-.832a1.692,1.692,0,0,0,1.1-.381,1.34,1.34,0,0,0,.521-.952H6.373a2.13,2.13,0,0,1-.406,1.124,2.676,2.676,0,0,1-1,.851A2.885,2.885,0,0,1,3.644.127,2.829,2.829,0,0,1,1.412-.809,3.729,3.729,0,0,1,.584-3.371v-.2A4.135,4.135,0,0,1,.952-5.351,2.8,2.8,0,0,1,2.009-6.563,3,3,0,0,1,3.637-7a2.755,2.755,0,0,1,1.92.692,2.473,2.473,0,0,1,.816,1.8H5.262a1.618,1.618,0,0,0-.5-1.095,1.57,1.57,0,0,0-1.12-.428,1.644,1.644,0,0,0-1.387.644,3.026,3.026,0,0,0-.492,1.863V-3.3a2.965,2.965,0,0,0,.489,1.828A1.651,1.651,0,0,0,3.644-.832ZM11.934,0a2.467,2.467,0,0,1-.165-.724A2.62,2.62,0,0,1,9.813.127,2.424,2.424,0,0,1,8.147-.448,1.859,1.859,0,0,1,7.5-1.9a1.942,1.942,0,0,1,.816-1.666,3.846,3.846,0,0,1,2.295-.594H11.75V-4.7a1.319,1.319,0,0,0-.368-.981A1.48,1.48,0,0,0,10.3-6.049a1.712,1.712,0,0,0-1.054.317.935.935,0,0,0-.425.768H7.636A1.621,1.621,0,0,1,8-5.957a2.491,2.491,0,0,1,.99-.759A3.331,3.331,0,0,1,10.366-7a2.715,2.715,0,0,1,1.86.594,2.141,2.141,0,0,1,.7,1.635v3.161a3.865,3.865,0,0,0,.241,1.5V0ZM9.985-.9a2.064,2.064,0,0,0,1.047-.286,1.728,1.728,0,0,0,.717-.743V-3.333h-.92q-2.158,0-2.158,1.263a1.069,1.069,0,0,0,.368.863A1.415,1.415,0,0,0,9.985-.9Zm5.884-5.973.032.762A2.536,2.536,0,0,1,17.938-7a1.964,1.964,0,0,1,1.961,1.1,2.6,2.6,0,0,1,.892-.8,2.634,2.634,0,0,1,1.3-.3q2.26,0,2.3,2.393V0H23.213V-4.532a1.577,1.577,0,0,0-.336-1.1A1.482,1.482,0,0,0,21.747-6a1.557,1.557,0,0,0-1.085.39,1.584,1.584,0,0,0-.5,1.051V0H18.979V-4.5A1.31,1.31,0,0,0,17.513-6a1.571,1.571,0,0,0-1.581.984V0H14.758V-6.868Zm16.1,3.51a4.084,4.084,0,0,1-.724,2.53,2.312,2.312,0,0,1-1.942.955,2.394,2.394,0,0,1-2.012-.92L27.238,0H26.159V-9.75h1.174v3.637A2.381,2.381,0,0,1,29.294-7a2.326,2.326,0,0,1,1.965.946,4.206,4.206,0,0,1,.714,2.59ZM30.8-3.491a3.173,3.173,0,0,0-.463-1.854A1.534,1.534,0,0,0,29-6a1.724,1.724,0,0,0-1.669,1.079v2.971A1.772,1.772,0,0,0,29.015-.87a1.526,1.526,0,0,0,1.314-.654A3.375,3.375,0,0,0,30.8-3.491ZM34.728,0H33.554V-6.868h1.174Zm-1.27-8.69a.7.7,0,0,1,.175-.482.655.655,0,0,1,.517-.2.666.666,0,0,1,.521.2.694.694,0,0,1,.178.482.671.671,0,0,1-.178.476.678.678,0,0,1-.521.19.667.667,0,0,1-.517-.19A.678.678,0,0,1,33.458-8.69ZM40.847,0a2.467,2.467,0,0,1-.165-.724,2.62,2.62,0,0,1-1.955.851,2.424,2.424,0,0,1-1.666-.574A1.859,1.859,0,0,1,36.41-1.9a1.942,1.942,0,0,1,.816-1.666,3.846,3.846,0,0,1,2.295-.594h1.143V-4.7a1.319,1.319,0,0,0-.368-.981,1.48,1.48,0,0,0-1.085-.365,1.712,1.712,0,0,0-1.054.317.935.935,0,0,0-.425.768H36.55a1.621,1.621,0,0,1,.365-.993,2.491,2.491,0,0,1,.99-.759A3.331,3.331,0,0,1,39.279-7a2.715,2.715,0,0,1,1.86.594,2.141,2.141,0,0,1,.7,1.635v3.161a3.865,3.865,0,0,0,.241,1.5V0ZM38.9-.9a2.064,2.064,0,0,0,1.047-.286,1.728,1.728,0,0,0,.717-.743V-3.333h-.92q-2.158,0-2.158,1.263a1.069,1.069,0,0,0,.368.863A1.415,1.415,0,0,0,38.9-.9ZM47-5.814a3.519,3.519,0,0,0-.578-.044,1.547,1.547,0,0,0-1.568.984V0H43.678V-6.868h1.143l.019.793A1.829,1.829,0,0,1,46.478-7,1.2,1.2,0,0,1,47-6.906Z" transform="translate(468.83 343.74)" fill="#12263f"/>
        <path id="Trazado_172286" data-name="Trazado 172286" d="M5.129,0a2.467,2.467,0,0,1-.165-.724A2.62,2.62,0,0,1,3.009.127,2.424,2.424,0,0,1,1.343-.448,1.859,1.859,0,0,1,.692-1.9a1.942,1.942,0,0,1,.816-1.666A3.846,3.846,0,0,1,3.8-4.164H4.945V-4.7a1.319,1.319,0,0,0-.368-.981,1.48,1.48,0,0,0-1.085-.365,1.712,1.712,0,0,0-1.054.317.935.935,0,0,0-.425.768H.832A1.621,1.621,0,0,1,1.2-5.957a2.491,2.491,0,0,1,.99-.759A3.331,3.331,0,0,1,3.561-7a2.715,2.715,0,0,1,1.86.594,2.141,2.141,0,0,1,.7,1.635v3.161A3.865,3.865,0,0,0,6.36-.1V0ZM3.18-.9a2.064,2.064,0,0,0,1.047-.286,1.728,1.728,0,0,0,.717-.743V-3.333h-.92q-2.158,0-2.158,1.263a1.069,1.069,0,0,0,.368.863A1.415,1.415,0,0,0,3.18-.9Zm7.211-8.7H9.179V1.016h1.212V1.98H8V-10.562h2.393ZM16.244-3.1h1.282v.958H16.244V0H15.063V-2.146H10.854v-.692l4.139-6.4h1.25Zm-4.056,0h2.875V-7.636l-.14.254Zm5.688-7.458h2.4V1.98h-2.4V1.016H19.1V-9.6H17.875ZM28.126-.832a1.692,1.692,0,0,0,1.1-.381,1.34,1.34,0,0,0,.521-.952h1.111a2.13,2.13,0,0,1-.406,1.124,2.676,2.676,0,0,1-1,.851,2.885,2.885,0,0,1-1.323.317A2.829,2.829,0,0,1,25.9-.809a3.729,3.729,0,0,1-.828-2.561v-.2a4.135,4.135,0,0,1,.368-1.784,2.8,2.8,0,0,1,1.057-1.212A3,3,0,0,1,28.12-7a2.755,2.755,0,0,1,1.92.692,2.473,2.473,0,0,1,.816,1.8H29.745a1.618,1.618,0,0,0-.5-1.095,1.57,1.57,0,0,0-1.12-.428,1.644,1.644,0,0,0-1.387.644,3.026,3.026,0,0,0-.492,1.863V-3.3a2.965,2.965,0,0,0,.489,1.828A1.651,1.651,0,0,0,28.126-.832ZM31.865-3.5a4.057,4.057,0,0,1,.4-1.815,2.96,2.96,0,0,1,1.1-1.244A3.007,3.007,0,0,1,34.982-7a2.9,2.9,0,0,1,2.269.971,3.736,3.736,0,0,1,.866,2.583v.083a4.092,4.092,0,0,1-.384,1.8,2.916,2.916,0,0,1-1.1,1.241,3.041,3.041,0,0,1-1.641.444,2.889,2.889,0,0,1-2.263-.971,3.718,3.718,0,0,1-.866-2.571Zm1.181.14a2.938,2.938,0,0,0,.53,1.834,1.7,1.7,0,0,0,1.419.692,1.686,1.686,0,0,0,1.422-.7A3.213,3.213,0,0,0,36.943-3.5a2.933,2.933,0,0,0-.536-1.831,1.705,1.705,0,0,0-1.425-.7,1.686,1.686,0,0,0-1.4.692A3.189,3.189,0,0,0,33.046-3.358ZM40.7-6.868,40.739-6A2.5,2.5,0,0,1,42.8-7q2.177,0,2.2,2.457V0H43.818V-4.545a1.581,1.581,0,0,0-.34-1.1A1.361,1.361,0,0,0,42.44-6a1.7,1.7,0,0,0-1,.3,2.069,2.069,0,0,0-.673.8V0H39.59V-6.868ZM54.222,0a2.467,2.467,0,0,1-.165-.724A2.62,2.62,0,0,1,52.1.127a2.424,2.424,0,0,1-1.666-.574A1.859,1.859,0,0,1,49.785-1.9,1.942,1.942,0,0,1,50.6-3.571,3.846,3.846,0,0,1,52.9-4.164h1.143V-4.7a1.319,1.319,0,0,0-.368-.981,1.48,1.48,0,0,0-1.085-.365,1.712,1.712,0,0,0-1.054.317.935.935,0,0,0-.425.768H49.924a1.621,1.621,0,0,1,.365-.993,2.491,2.491,0,0,1,.99-.759A3.331,3.331,0,0,1,52.654-7a2.715,2.715,0,0,1,1.86.594,2.141,2.141,0,0,1,.7,1.635v3.161a3.865,3.865,0,0,0,.241,1.5V0ZM52.273-.9a2.064,2.064,0,0,0,1.047-.286,1.728,1.728,0,0,0,.717-.743V-3.333h-.92q-2.158,0-2.158,1.263a1.069,1.069,0,0,0,.368.863A1.415,1.415,0,0,0,52.273-.9Zm7.211-8.7H58.271V1.016h1.212V1.98H57.091V-10.562h2.393Zm1.435,4.964.47-4.608h4.735v1.085H62.385l-.279,2.52a2.983,2.983,0,0,1,1.542-.4,2.55,2.55,0,0,1,2.006.835A3.271,3.271,0,0,1,66.4-2.945,3.158,3.158,0,0,1,65.625-.7,2.811,2.811,0,0,1,63.47.127a2.921,2.921,0,0,1-2-.679,2.711,2.711,0,0,1-.882-1.879H61.7a1.865,1.865,0,0,0,.565,1.2,1.757,1.757,0,0,0,1.206.4,1.585,1.585,0,0,0,1.285-.559,2.335,2.335,0,0,0,.467-1.542,2.143,2.143,0,0,0-.5-1.489,1.717,1.717,0,0,0-1.343-.562,1.936,1.936,0,0,0-1.206.336l-.311.254Zm6.049-5.929h2.4V1.98h-2.4V1.016h1.225V-9.6H66.968Z" transform="translate(444.19 359.34)" fill="#12263f"/>
      </g>
      <g id="Grupo_88232" data-name="Grupo 88232">
        <path id="Trazado_162604" data-name="Trazado 162604" d="M226.5,247.28h-1.66c-6.75,0-12.39-4.2-13.78-9.82-.22-.87-17.77-111.21-18-112-1.31-5.72-7-10-13.83-10" fill="none" stroke="#12263f" stroke-miterlimit="10" stroke-width="1"/>
        <path id="Trazado_162605" data-name="Trazado 162605" d="M225.05,242.29l8.63,4.99-8.63,4.98Z" fill="#12263f"/>
      </g>
      <g id="Grupo_88233" data-name="Grupo 88233">
        <path id="Trazado_162606" data-name="Trazado 162606" d="M226.5,115.42h-1.66c-6.75,0-12.39,4.2-13.78,9.82-.22.87-17.77,111.21-18,112-1.31,5.72-7,10-13.83,10" fill="none" stroke="#12263f" stroke-miterlimit="10" stroke-width="1"/>
        <path id="Trazado_162607" data-name="Trazado 162607" d="M225.05,110.43l8.63,4.99-8.63,4.98Z" fill="#12263f"/>
      </g>
      <g id="Grupo_88234" data-name="Grupo 88234">
        <path id="Trazado_162608" data-name="Trazado 162608" d="M132.36,205.69h-.64a12.36,12.36,0,0,1-12.21-9.21c-.19-.82-15.73-104.28-15.89-105A12.34,12.34,0,0,0,91.37,82" fill="none" stroke="#12263f" stroke-miterlimit="10" stroke-width="1"/>
        <path id="Trazado_162609" data-name="Trazado 162609" d="M130.93,200.66l8.61,5.03-8.66,4.95Z" fill="#12263f"/>
      </g>
      <g id="Grupo_88235" data-name="Grupo 88235">
        <path id="Trazado_162610" data-name="Trazado 162610" d="M132.36,82h-.64a12.36,12.36,0,0,0-12.21,9.21c-.19.82-15.73,104.28-15.89,105a12.34,12.34,0,0,1-12.25,9.4" fill="none" stroke="#12263f" stroke-miterlimit="10" stroke-width="1"/>
        <path id="Trazado_162611" data-name="Trazado 162611" d="M130.88,77.09l8.66,4.95-8.61,5.03Z" fill="#12263f"/>
      </g>
      <g id="Grupo_88236" data-name="Grupo 88236">
        <path id="Trazado_162612" data-name="Trazado 162612" d="M408.23,283.33h-1a13.13,13.13,0,0,1-11.9-7.3c-.76-1.59-17.56-68-18.09-69.41A13.09,13.09,0,0,0,365,198.47" fill="none" stroke="#12263f" stroke-miterlimit="10" stroke-width="1"/>
        <path id="Trazado_162613" data-name="Trazado 162613" d="M406.77,278.34l8.63,4.99-8.64,4.99Z" fill="#12263f"/>
      </g>
      <g id="Grupo_88237" data-name="Grupo 88237">
        <path id="Trazado_162614" data-name="Trazado 162614" d="M408.23,198.47h-1a13.14,13.14,0,0,0-11.9,7.31c-.76,1.59-17.56,68-18.09,69.41A13.08,13.08,0,0,1,365,283.33" fill="none" stroke="#12263f" stroke-miterlimit="10" stroke-width="1"/>
        <path id="Trazado_162615" data-name="Trazado 162615" d="M406.76,193.49l8.64,4.98-8.63,4.99Z" fill="#12263f"/>
      </g>
      <g id="Grupo_88238" data-name="Grupo 88238">
        <path id="Trazado_162616" data-name="Trazado 162616" d="M316.23,208h-1c-5.28,0-9.83-1.74-11.9-4.26-.76-.92-17.56-39.67-18.09-40.47-1.85-2.77-6.64-4.75-12.26-4.75" fill="none" stroke="#12263f" stroke-miterlimit="10" stroke-width="1"/>
        <path id="Trazado_162617" data-name="Trazado 162617" d="M314.77,202.96l8.63,4.99-8.63,4.99Z" fill="#12263f"/>
      </g>
      <g id="Grupo_88239" data-name="Grupo 88239">
        <path id="Trazado_162618" data-name="Trazado 162618" d="M316.23,158.47h-1c-5.28,0-9.83,1.75-11.9,4.26-.76.93-17.56,39.68-18.09,40.47-1.87,2.8-6.66,4.8-12.24,4.8" fill="none" stroke="#12263f" stroke-miterlimit="10" stroke-width="1"/>
        <path id="Trazado_162619" data-name="Trazado 162619" d="M314.77,153.49l8.63,4.98-8.63,4.99Z" fill="#12263f"/>
      </g>
      <g id="Grupo_88240" data-name="Grupo 88240">
        <path id="Trazado_162620" data-name="Trazado 162620" d="M498.21,285.9h-1c-5.28,0-9.83-1.74-11.89-4.26-.77-.92-17.56-39.67-18.09-40.46-1.86-2.78-6.65-4.76-12.27-4.76" fill="none" stroke="#12263f" stroke-miterlimit="10" stroke-width="1"/>
        <path id="Trazado_162621" data-name="Trazado 162621" d="M496.75,280.92l8.64,4.98-8.64,4.99Z" fill="#12263f"/>
      </g>
      <g id="Grupo_88241" data-name="Grupo 88241">
        <path id="Trazado_162622" data-name="Trazado 162622" d="M498.21,236.42h-1c-5.28,0-9.83,1.75-11.89,4.26-.77.93-17.56,39.68-18.09,40.47-1.86,2.78-6.65,4.75-12.27,4.75" fill="none" stroke="#12263f" stroke-miterlimit="10" stroke-width="1"/>
        <path id="Trazado_162623" data-name="Trazado 162623" d="M496.75,231.44l8.64,4.98-8.64,4.99Z" fill="#12263f"/>
      </g>
      <rect id="Rectángulo_37714" data-name="Rectángulo 37714" width="604" height="400" fill="none"/>
    </g>
  </g>
</svg>
