<svg xmlns="http://www.w3.org/2000/svg" xmlns:xlink="http://www.w3.org/1999/xlink" width="345.551" height="343.084" viewBox="0 0 345.551 343.084">
  <defs>
    <linearGradient id="linear-gradient" x1="0.046" y1="0.5" x2="1.086" y2="0.5" gradientUnits="objectBoundingBox">
      <stop offset="0" stop-color="#cdd2f3"/>
      <stop offset="0.43" stop-color="#e5e9ff"/>
      <stop offset="0.48" stop-color="#eff2ff"/>
      <stop offset="0.54" stop-color="#fff"/>
      <stop offset="0.59" stop-color="#ebedf9"/>
      <stop offset="0.7" stop-color="#b9bfe8"/>
      <stop offset="0.72" stop-color="#afb6e5"/>
      <stop offset="0.91" stop-color="#afb6e5"/>
      <stop offset="0.95" stop-color="#bac0ea"/>
      <stop offset="1" stop-color="#cdd2f3"/>
    </linearGradient>
    <linearGradient id="linear-gradient-2" x1="0.679" y1="-0.056" x2="0.392" y2="0.835" gradientUnits="objectBoundingBox">
      <stop offset="0" stop-color="#afb6e5"/>
      <stop offset="0.14" stop-color="#b6bce8"/>
      <stop offset="0.35" stop-color="#c8cdf1"/>
      <stop offset="0.58" stop-color="#e5e9ff"/>
      <stop offset="0.86" stop-color="#f5f6ff"/>
      <stop offset="1" stop-color="#fff"/>
    </linearGradient>
    <linearGradient id="linear-gradient-3" x1="0.446" y1="0.657" x2="1.031" y2="-1.05" xlink:href="#linear-gradient-2"/>
    <linearGradient id="linear-gradient-4" x1="-0.698" y1="0.309" x2="1.492" y2="0.658" xlink:href="#linear-gradient-2"/>
    <linearGradient id="linear-gradient-5" x1="-18.211" y1="0.004" x2="-17.23" y2="1.066" gradientUnits="objectBoundingBox">
      <stop offset="0.01" stop-color="#2daea0"/>
      <stop offset="0.17" stop-color="#289e9b"/>
      <stop offset="0.5" stop-color="#1c758f"/>
      <stop offset="0.78" stop-color="#104c82"/>
    </linearGradient>
    <linearGradient id="linear-gradient-6" x1="0.282" y1="-0.094" x2="1.032" y2="0.992" gradientUnits="objectBoundingBox">
      <stop offset="0" stop-color="#b3bae7"/>
      <stop offset="0.19" stop-color="#b7bde9"/>
      <stop offset="0.28" stop-color="#bac0e9"/>
      <stop offset="0.41" stop-color="#afb6e5"/>
      <stop offset="0.91" stop-color="#afb6e5"/>
      <stop offset="1" stop-color="#b3bae7"/>
    </linearGradient>
    <linearGradient id="linear-gradient-7" x1="0.282" y1="-0.094" x2="1.032" y2="0.992" gradientUnits="objectBoundingBox">
      <stop offset="0" stop-color="#b4bbe8"/>
      <stop offset="0.19" stop-color="#b9beea"/>
      <stop offset="0.28" stop-color="#bcc2ea"/>
      <stop offset="0.41" stop-color="#b2b8e6"/>
      <stop offset="0.43" stop-color="#b2b8e6"/>
      <stop offset="0.54" stop-color="#b3b9e6"/>
      <stop offset="0.72" stop-color="#afb6e5"/>
      <stop offset="0.91" stop-color="#afb6e5"/>
      <stop offset="1" stop-color="#b4bbe8"/>
    </linearGradient>
    <linearGradient id="linear-gradient-8" x1="0.282" y1="-0.094" x2="1.033" y2="0.992" gradientUnits="objectBoundingBox">
      <stop offset="0" stop-color="#b5bce8"/>
      <stop offset="0.19" stop-color="#bac0ea"/>
      <stop offset="0.28" stop-color="#bdc3eb"/>
      <stop offset="0.41" stop-color="#b4bbe7"/>
      <stop offset="0.43" stop-color="#b4bbe7"/>
      <stop offset="0.54" stop-color="#b7bde7"/>
      <stop offset="0.72" stop-color="#afb6e5"/>
      <stop offset="0.91" stop-color="#afb6e5"/>
      <stop offset="1" stop-color="#b5bce8"/>
    </linearGradient>
    <linearGradient id="linear-gradient-9" x1="0.282" y1="-0.094" x2="1.033" y2="0.992" gradientUnits="objectBoundingBox">
      <stop offset="0" stop-color="#b7bde9"/>
      <stop offset="0.19" stop-color="#bcc1eb"/>
      <stop offset="0.28" stop-color="#bfc5ec"/>
      <stop offset="0.41" stop-color="#b7bde9"/>
      <stop offset="0.43" stop-color="#b7bde9"/>
      <stop offset="0.54" stop-color="#bac0e9"/>
      <stop offset="0.72" stop-color="#afb6e5"/>
      <stop offset="0.91" stop-color="#afb6e5"/>
      <stop offset="1" stop-color="#b7bde9"/>
    </linearGradient>
    <linearGradient id="linear-gradient-10" x1="0.282" y1="-0.094" x2="1.033" y2="0.993" gradientUnits="objectBoundingBox">
      <stop offset="0" stop-color="#b8bfe9"/>
      <stop offset="0.19" stop-color="#bdc3ec"/>
      <stop offset="0.28" stop-color="#c1c6ec"/>
      <stop offset="0.41" stop-color="#b9c0ea"/>
      <stop offset="0.43" stop-color="#b9c0ea"/>
      <stop offset="0.54" stop-color="#bec4ea"/>
      <stop offset="0.72" stop-color="#afb6e5"/>
      <stop offset="0.91" stop-color="#afb6e5"/>
      <stop offset="1" stop-color="#b8bfe9"/>
    </linearGradient>
    <linearGradient id="linear-gradient-11" x1="0.282" y1="-0.095" x2="1.033" y2="0.993" gradientUnits="objectBoundingBox">
      <stop offset="0" stop-color="#b9c0ea"/>
      <stop offset="0.19" stop-color="#bfc4ed"/>
      <stop offset="0.28" stop-color="#c2c8ed"/>
      <stop offset="0.41" stop-color="#bcc2eb"/>
      <stop offset="0.43" stop-color="#bcc2eb"/>
      <stop offset="0.54" stop-color="#c2c7eb"/>
      <stop offset="0.72" stop-color="#afb6e5"/>
      <stop offset="0.91" stop-color="#afb6e5"/>
      <stop offset="1" stop-color="#b9c0ea"/>
    </linearGradient>
    <linearGradient id="linear-gradient-12" x1="0.282" y1="-0.095" x2="1.033" y2="0.993" gradientUnits="objectBoundingBox">
      <stop offset="0" stop-color="#bac1ea"/>
      <stop offset="0.19" stop-color="#c0c6ed"/>
      <stop offset="0.28" stop-color="#c4c9ee"/>
      <stop offset="0.41" stop-color="#bec4ec"/>
      <stop offset="0.43" stop-color="#bec5ec"/>
      <stop offset="0.54" stop-color="#c6cbec"/>
      <stop offset="0.7" stop-color="#b2b9e6"/>
      <stop offset="0.72" stop-color="#afb6e5"/>
      <stop offset="0.91" stop-color="#afb6e5"/>
      <stop offset="1" stop-color="#bac1ea"/>
    </linearGradient>
    <linearGradient id="linear-gradient-13" x1="0.282" y1="-0.095" x2="1.034" y2="0.993" gradientUnits="objectBoundingBox">
      <stop offset="0" stop-color="#bcc2eb"/>
      <stop offset="0.19" stop-color="#c2c7ee"/>
      <stop offset="0.28" stop-color="#c6cbef"/>
      <stop offset="0.41" stop-color="#c1c7ed"/>
      <stop offset="0.43" stop-color="#c1c7ee"/>
      <stop offset="0.54" stop-color="#caceee"/>
      <stop offset="0.68" stop-color="#b6bde7"/>
      <stop offset="0.72" stop-color="#afb6e5"/>
      <stop offset="0.91" stop-color="#afb6e5"/>
      <stop offset="0.99" stop-color="#bac0ea"/>
      <stop offset="1" stop-color="#bcc2eb"/>
    </linearGradient>
    <linearGradient id="linear-gradient-14" x1="0.282" y1="-0.095" x2="1.034" y2="0.993" gradientUnits="objectBoundingBox">
      <stop offset="0" stop-color="#bdc3ec"/>
      <stop offset="0.19" stop-color="#c4c9ef"/>
      <stop offset="0.28" stop-color="#c7cdf0"/>
      <stop offset="0.41" stop-color="#c3c9ef"/>
      <stop offset="0.43" stop-color="#c4c9ef"/>
      <stop offset="0.54" stop-color="#cdd2ef"/>
      <stop offset="0.66" stop-color="#b9c0e8"/>
      <stop offset="0.72" stop-color="#afb6e5"/>
      <stop offset="0.91" stop-color="#afb6e5"/>
      <stop offset="0.98" stop-color="#bac0ea"/>
      <stop offset="1" stop-color="#bdc3ec"/>
    </linearGradient>
    <linearGradient id="linear-gradient-15" x1="0.281" y1="-0.095" x2="1.034" y2="0.993" gradientUnits="objectBoundingBox">
      <stop offset="0" stop-color="#bec4ec"/>
      <stop offset="0.19" stop-color="#c5caef"/>
      <stop offset="0.28" stop-color="#c9cef1"/>
      <stop offset="0.41" stop-color="#c6cbf0"/>
      <stop offset="0.43" stop-color="#c6ccf0"/>
      <stop offset="0.53" stop-color="#d0d4f0"/>
      <stop offset="0.54" stop-color="#d1d5f0"/>
      <stop offset="0.65" stop-color="#bdc3ea"/>
      <stop offset="0.72" stop-color="#afb6e5"/>
      <stop offset="0.91" stop-color="#afb6e5"/>
      <stop offset="0.98" stop-color="#bac0ea"/>
      <stop offset="1" stop-color="#bec4ec"/>
    </linearGradient>
    <linearGradient id="linear-gradient-16" x1="0.282" y1="-0.095" x2="1.035" y2="0.993" gradientUnits="objectBoundingBox">
      <stop offset="0" stop-color="#bfc5ed"/>
      <stop offset="0.19" stop-color="#c7ccf0"/>
      <stop offset="0.28" stop-color="#cbd0f2"/>
      <stop offset="0.41" stop-color="#c8cef1"/>
      <stop offset="0.43" stop-color="#c9cef1"/>
      <stop offset="0.52" stop-color="#d3d7f1"/>
      <stop offset="0.54" stop-color="#d5d9f1"/>
      <stop offset="0.64" stop-color="#c1c7eb"/>
      <stop offset="0.72" stop-color="#afb6e5"/>
      <stop offset="0.91" stop-color="#afb6e5"/>
      <stop offset="0.98" stop-color="#bac0ea"/>
      <stop offset="1" stop-color="#bfc5ed"/>
    </linearGradient>
    <linearGradient id="linear-gradient-17" x1="0.281" y1="-0.095" x2="1.035" y2="0.993" gradientUnits="objectBoundingBox">
      <stop offset="0" stop-color="#c1c7ed"/>
      <stop offset="0.19" stop-color="#c8cdf1"/>
      <stop offset="0.28" stop-color="#ccd1f2"/>
      <stop offset="0.41" stop-color="#cbd0f2"/>
      <stop offset="0.43" stop-color="#cbd1f3"/>
      <stop offset="0.51" stop-color="#d5d9f3"/>
      <stop offset="0.54" stop-color="#d9dcf3"/>
      <stop offset="0.63" stop-color="#c5caec"/>
      <stop offset="0.72" stop-color="#afb6e5"/>
      <stop offset="0.91" stop-color="#afb6e5"/>
      <stop offset="0.97" stop-color="#bac0ea"/>
      <stop offset="1" stop-color="#c1c7ed"/>
    </linearGradient>
    <linearGradient id="linear-gradient-18" x1="0.281" y1="-0.095" x2="1.035" y2="0.993" gradientUnits="objectBoundingBox">
      <stop offset="0" stop-color="#c2c8ee"/>
      <stop offset="0.19" stop-color="#cacff2"/>
      <stop offset="0.28" stop-color="#ced3f3"/>
      <stop offset="0.41" stop-color="#cdd3f3"/>
      <stop offset="0.43" stop-color="#ced3f4"/>
      <stop offset="0.51" stop-color="#d8dcf4"/>
      <stop offset="0.54" stop-color="#dde0f4"/>
      <stop offset="0.62" stop-color="#c9ceee"/>
      <stop offset="0.72" stop-color="#afb6e5"/>
      <stop offset="0.91" stop-color="#afb6e5"/>
      <stop offset="0.97" stop-color="#bac0ea"/>
      <stop offset="1" stop-color="#c2c8ee"/>
    </linearGradient>
    <linearGradient id="linear-gradient-19" x1="0.281" y1="-0.095" x2="1.035" y2="0.993" gradientUnits="objectBoundingBox">
      <stop offset="0" stop-color="#c3c9ee"/>
      <stop offset="0.19" stop-color="#cbd0f2"/>
      <stop offset="0.28" stop-color="#d0d4f4"/>
      <stop offset="0.41" stop-color="#d0d5f4"/>
      <stop offset="0.43" stop-color="#d0d6f5"/>
      <stop offset="0.5" stop-color="#dadef5"/>
      <stop offset="0.54" stop-color="#e1e3f5"/>
      <stop offset="0.62" stop-color="#cdd1ef"/>
      <stop offset="0.72" stop-color="#afb6e5"/>
      <stop offset="0.91" stop-color="#afb6e5"/>
      <stop offset="0.97" stop-color="#bac0ea"/>
      <stop offset="1" stop-color="#c3c9ee"/>
    </linearGradient>
    <linearGradient id="linear-gradient-20" x1="0.281" y1="-0.096" x2="1.036" y2="0.993" gradientUnits="objectBoundingBox">
      <stop offset="0" stop-color="#c4caef"/>
      <stop offset="0.19" stop-color="#cdd2f3"/>
      <stop offset="0.28" stop-color="#d1d6f5"/>
      <stop offset="0.41" stop-color="#d2d7f6"/>
      <stop offset="0.43" stop-color="#d3d8f6"/>
      <stop offset="0.5" stop-color="#dde1f6"/>
      <stop offset="0.54" stop-color="#e4e7f6"/>
      <stop offset="0.61" stop-color="#d0d5f0"/>
      <stop offset="0.72" stop-color="#afb6e5"/>
      <stop offset="0.91" stop-color="#afb6e5"/>
      <stop offset="0.96" stop-color="#bac0ea"/>
      <stop offset="1" stop-color="#c4caef"/>
    </linearGradient>
    <linearGradient id="linear-gradient-21" x1="0.281" y1="-0.096" x2="1.036" y2="0.993" gradientUnits="objectBoundingBox">
      <stop offset="0" stop-color="#c6cbf0"/>
      <stop offset="0.19" stop-color="#cfd3f4"/>
      <stop offset="0.28" stop-color="#d3d8f6"/>
      <stop offset="0.41" stop-color="#d5daf7"/>
      <stop offset="0.43" stop-color="#d6daf8"/>
      <stop offset="0.5" stop-color="#e0e3f8"/>
      <stop offset="0.54" stop-color="#e8eaf8"/>
      <stop offset="0.61" stop-color="#d4d8f1"/>
      <stop offset="0.72" stop-color="#afb6e5"/>
      <stop offset="0.91" stop-color="#afb6e5"/>
      <stop offset="0.96" stop-color="#bac0ea"/>
      <stop offset="1" stop-color="#c6cbf0"/>
    </linearGradient>
    <linearGradient id="linear-gradient-22" x1="0.281" y1="-0.096" x2="1.036" y2="0.994" gradientUnits="objectBoundingBox">
      <stop offset="0" stop-color="#c7ccf0"/>
      <stop offset="0.19" stop-color="#d0d5f4"/>
      <stop offset="0.28" stop-color="#d5d9f7"/>
      <stop offset="0.41" stop-color="#d7dcf8"/>
      <stop offset="0.43" stop-color="#d8ddf9"/>
      <stop offset="0.49" stop-color="#e2e6f9"/>
      <stop offset="0.54" stop-color="#eceef9"/>
      <stop offset="0.61" stop-color="#d8dcf3"/>
      <stop offset="0.72" stop-color="#afb6e5"/>
      <stop offset="0.91" stop-color="#afb6e5"/>
      <stop offset="0.96" stop-color="#bac0ea"/>
      <stop offset="1" stop-color="#c7ccf0"/>
    </linearGradient>
    <linearGradient id="linear-gradient-23" x1="0.281" y1="-0.096" x2="1.036" y2="0.993" gradientUnits="objectBoundingBox">
      <stop offset="0" stop-color="#c8cdf1"/>
      <stop offset="0.19" stop-color="#d2d6f5"/>
      <stop offset="0.28" stop-color="#d6dbf8"/>
      <stop offset="0.41" stop-color="#dadef9"/>
      <stop offset="0.43" stop-color="#dbdffa"/>
      <stop offset="0.49" stop-color="#e5e8fa"/>
      <stop offset="0.54" stop-color="#f0f1fa"/>
      <stop offset="0.6" stop-color="#dcdff4"/>
      <stop offset="0.72" stop-color="#afb6e5"/>
      <stop offset="0.91" stop-color="#afb6e5"/>
      <stop offset="0.96" stop-color="#bac0ea"/>
      <stop offset="1" stop-color="#c8cdf1"/>
    </linearGradient>
    <linearGradient id="linear-gradient-24" x1="0.281" y1="-0.096" x2="1.036" y2="0.994" gradientUnits="objectBoundingBox">
      <stop offset="0" stop-color="#c9cff1"/>
      <stop offset="0.19" stop-color="#d3d8f6"/>
      <stop offset="0.28" stop-color="#d8dcf8"/>
      <stop offset="0.41" stop-color="#dce1fa"/>
      <stop offset="0.43" stop-color="#dde2fb"/>
      <stop offset="0.49" stop-color="#e7eafb"/>
      <stop offset="0.54" stop-color="#f4f5fb"/>
      <stop offset="0.6" stop-color="#e0e3f5"/>
      <stop offset="0.72" stop-color="#afb6e5"/>
      <stop offset="0.91" stop-color="#afb6e5"/>
      <stop offset="0.96" stop-color="#bac0ea"/>
      <stop offset="1" stop-color="#c9cff1"/>
    </linearGradient>
    <linearGradient id="linear-gradient-25" x1="0.281" y1="-0.096" x2="1.036" y2="0.994" gradientUnits="objectBoundingBox">
      <stop offset="0" stop-color="#cbd0f2"/>
      <stop offset="0.19" stop-color="#d5d9f7"/>
      <stop offset="0.28" stop-color="#dadef9"/>
      <stop offset="0.41" stop-color="#dfe3fc"/>
      <stop offset="0.43" stop-color="#e0e4fd"/>
      <stop offset="0.49" stop-color="#eaedfd"/>
      <stop offset="0.54" stop-color="#f7f8fd"/>
      <stop offset="0.6" stop-color="#e3e6f6"/>
      <stop offset="0.72" stop-color="#b1b8e6"/>
      <stop offset="0.72" stop-color="#afb6e5"/>
      <stop offset="0.91" stop-color="#afb6e5"/>
      <stop offset="0.95" stop-color="#bac0ea"/>
      <stop offset="1" stop-color="#cbd0f2"/>
    </linearGradient>
    <linearGradient id="linear-gradient-26" x1="0.281" y1="-0.096" x2="1.037" y2="0.994" gradientUnits="objectBoundingBox">
      <stop offset="0" stop-color="#ccd1f2"/>
      <stop offset="0.19" stop-color="#d6dbf7"/>
      <stop offset="0.28" stop-color="#dbdffa"/>
      <stop offset="0.41" stop-color="#e1e6fd"/>
      <stop offset="0.43" stop-color="#e2e7fe"/>
      <stop offset="0.48" stop-color="#eceffe"/>
      <stop offset="0.54" stop-color="#fbfcfe"/>
      <stop offset="0.59" stop-color="#e7eaf8"/>
      <stop offset="0.71" stop-color="#b5bbe7"/>
      <stop offset="0.72" stop-color="#afb6e5"/>
      <stop offset="0.91" stop-color="#afb6e5"/>
      <stop offset="0.95" stop-color="#bac0ea"/>
      <stop offset="1" stop-color="#ccd1f2"/>
    </linearGradient>
    <linearGradient id="linear-gradient-27" x1="0.28" y1="-0.096" x2="1.037" y2="0.994" xlink:href="#linear-gradient"/>
    <linearGradient id="linear-gradient-28" x1="1.012" y1="0.26" x2="0.218" y2="0.634" gradientUnits="objectBoundingBox">
      <stop offset="0.01" stop-color="#2be9a3"/>
      <stop offset="0.29" stop-color="#07cdbf"/>
      <stop offset="0.34" stop-color="#00c7c5"/>
      <stop offset="0.44" stop-color="#09beca"/>
      <stop offset="0.59" stop-color="#21a7d9"/>
      <stop offset="0.77" stop-color="#4881f1"/>
      <stop offset="0.82" stop-color="#5277f7"/>
    </linearGradient>
    <linearGradient id="linear-gradient-29" x1="-0.065" y1="-0.186" x2="0.895" y2="0.979" xlink:href="#linear-gradient-28"/>
    <linearGradient id="linear-gradient-30" x1="-0.014" y1="-0.278" x2="0.859" y2="1.043" gradientUnits="objectBoundingBox">
      <stop offset="0.01" stop-color="#b4f759"/>
      <stop offset="0.12" stop-color="#90ed6f"/>
      <stop offset="0.39" stop-color="#35d5a5"/>
      <stop offset="0.54" stop-color="#00c7c5"/>
      <stop offset="0.78" stop-color="#2d9be0"/>
      <stop offset="1" stop-color="#5277f7"/>
    </linearGradient>
    <linearGradient id="linear-gradient-31" x1="0.311" y1="0.175" x2="0.851" y2="1.171" gradientUnits="objectBoundingBox">
      <stop offset="0" stop-color="#bcc2eb"/>
      <stop offset="0.19" stop-color="#c6ccf0"/>
      <stop offset="0.28" stop-color="#d0d4f0"/>
      <stop offset="0.28" stop-color="#d1d5f0"/>
      <stop offset="0.36" stop-color="#bdc3ea"/>
      <stop offset="0.41" stop-color="#afb6e5"/>
      <stop offset="0.91" stop-color="#afb6e5"/>
      <stop offset="0.99" stop-color="#bac0ea"/>
      <stop offset="1" stop-color="#bcc2eb"/>
    </linearGradient>
    <linearGradient id="linear-gradient-32" x1="-33.83" y1="32.254" x2="-35.189" y2="33.685" gradientUnits="objectBoundingBox">
      <stop offset="0" stop-color="#afb6e5"/>
      <stop offset="0.14" stop-color="#b6bce8"/>
      <stop offset="0.35" stop-color="#c8cdf1"/>
      <stop offset="0.58" stop-color="#e5e9ff"/>
      <stop offset="0.95" stop-color="#f5f4fc"/>
      <stop offset="1" stop-color="#f7f6fb"/>
    </linearGradient>
    <radialGradient id="radial-gradient" cx="0.5" cy="0.5" r="0.481" gradientTransform="translate(-0.043) scale(1.086 1)" gradientUnits="objectBoundingBox">
      <stop offset="0" stop-color="#fff"/>
      <stop offset="1"/>
    </radialGradient>
    <linearGradient id="linear-gradient-33" x1="-10.13" y1="37.441" x2="-11.248" y2="38.664" gradientUnits="objectBoundingBox">
      <stop offset="0.01" stop-color="#2daea0"/>
      <stop offset="0.3" stop-color="#31beae"/>
      <stop offset="0.4" stop-color="#32c4b4"/>
      <stop offset="0.59" stop-color="#28a0a5"/>
      <stop offset="1" stop-color="#104c82"/>
    </linearGradient>
    <linearGradient id="linear-gradient-34" x1="0.068" y1="0.027" x2="1.038" y2="1.273" gradientUnits="objectBoundingBox">
      <stop offset="0" stop-color="#00c7c5"/>
      <stop offset="0.07" stop-color="#16d8b4"/>
      <stop offset="0.14" stop-color="#25e5a7"/>
      <stop offset="0.2" stop-color="#2be9a3"/>
      <stop offset="0.21" stop-color="#32ea9f"/>
      <stop offset="0.28" stop-color="#60ee86"/>
      <stop offset="0.34" stop-color="#85f273"/>
      <stop offset="0.4" stop-color="#9ff565"/>
      <stop offset="0.45" stop-color="#aef65c"/>
      <stop offset="0.49" stop-color="#b4f759"/>
      <stop offset="0.59" stop-color="#daee6f"/>
      <stop offset="0.7" stop-color="#ffe585"/>
      <stop offset="0.73" stop-color="#ffdc82"/>
      <stop offset="0.79" stop-color="#ffc47a"/>
      <stop offset="0.85" stop-color="#ff9e6e"/>
      <stop offset="1" stop-color="#ff4572"/>
    </linearGradient>
    <linearGradient id="linear-gradient-35" x1="-2.816" y1="-2.081" x2="0.804" y2="0.561" xlink:href="#linear-gradient-34"/>
    <linearGradient id="linear-gradient-36" x1="-0.967" y1="-2.324" x2="2.045" y2="3.474" xlink:href="#linear-gradient-33"/>
    <radialGradient id="radial-gradient-2" cx="0.912" cy="0.855" r="1.066" gradientTransform="translate(0.174) scale(0.651 1)" gradientUnits="objectBoundingBox">
      <stop offset="0" stop-color="#b4f759"/>
      <stop offset="0" stop-color="#b3f659"/>
      <stop offset="0.12" stop-color="#8abd44"/>
      <stop offset="0.24" stop-color="#658b32"/>
      <stop offset="0.36" stop-color="#466023"/>
      <stop offset="0.49" stop-color="#2d3e16"/>
      <stop offset="0.61" stop-color="#19230c"/>
      <stop offset="0.74" stop-color="#0b0f06"/>
      <stop offset="0.87" stop-color="#030401"/>
      <stop offset="1"/>
    </radialGradient>
    <linearGradient id="linear-gradient-37" x1="0.101" y1="0.086" x2="0.913" y2="0.929" xlink:href="#linear-gradient-31"/>
    <linearGradient id="linear-gradient-38" x1="110.667" y1="276.534" x2="109.283" y2="278.493" xlink:href="#linear-gradient-32"/>
    <linearGradient id="linear-gradient-39" x1="0.282" y1="-0.614" x2="0.598" y2="0.62" xlink:href="#linear-gradient-32"/>
    <linearGradient id="linear-gradient-40" x1="-55.778" y1="101.201" x2="-57.362" y2="102.121" xlink:href="#linear-gradient-31"/>
    <linearGradient id="linear-gradient-41" x1="-0.031" y1="0.993" x2="1.015" y2="0.022" xlink:href="#linear-gradient-32"/>
    <radialGradient id="radial-gradient-3" cx="0.5" cy="0.5" r="0.421" gradientTransform="translate(-0.272) scale(1.545 1)" xlink:href="#radial-gradient"/>
    <linearGradient id="linear-gradient-42" x1="0.786" y1="0.095" x2="-0.044" y2="1.27" xlink:href="#linear-gradient-32"/>
  </defs>
  <g id="Grupo_90679" data-name="Grupo 90679" transform="translate(-1020 -3066.458)">
    <g id="cf10_2.3_Optimización_de_consultas" data-name="cf10_2.3 Optimización de consultas" transform="translate(870.04 3024.983)">
      <g id="Capa_1" data-name="Capa 1">
        <path id="Trazado_164818" data-name="Trazado 164818" d="M474.44,193.14a.55.55,0,0,1-.55-.55V189.3a.55.55,0,1,1,1.1,0v3.29a.54.54,0,0,1-.55.55Zm0-6.58a.55.55,0,0,1-.55-.55v-3.29a.55.55,0,0,1,.55-.55.54.54,0,0,1,.55.55V186a.55.55,0,0,1-.55.56Zm0-6.59a.55.55,0,0,1-.55-.55v-3.29a.55.55,0,1,1,1.1,0v3.29a.54.54,0,0,1-.55.58Zm0-6.58a.55.55,0,0,1-.55-.55v-3.3a.55.55,0,1,1,1.1,0v3.3a.55.55,0,0,1-.55.55Zm0-6.59a.55.55,0,0,1-.55-.55V163a.55.55,0,1,1,1.1,0v3.29a.54.54,0,0,1-.55.51Zm0-6.58a.55.55,0,0,1-.55-.55v-3.3a.55.55,0,1,1,1.1,0v3.3A.55.55,0,0,1,474.44,160.22Zm0-6.59a.55.55,0,0,1-.55-.55v-3.29a.55.55,0,1,1,1.1,0v3.29a.54.54,0,0,1-.55.55Zm0-6.58a.55.55,0,0,1-.55-.55v-3.3a.55.55,0,1,1,1.1,0v3.3a.55.55,0,0,1-.55.55Zm0-6.59a.55.55,0,0,1-.55-.55v-3.29a.55.55,0,0,1,.55-.55.54.54,0,0,1,.55.55v3.29a.54.54,0,0,1-.55.55Zm0-6.58a.55.55,0,0,1-.55-.55V130a.55.55,0,1,1,1.1,0v3.3a.55.55,0,0,1-.55.58Z" fill="#1565b2" opacity="0.95"/>
        <g id="Grupo_89142" data-name="Grupo 89142">
          <ellipse id="Elipse_7451" data-name="Elipse 7451" cx="12.51" cy="21.66" rx="12.51" ry="21.66" transform="translate(452.049 121.088) rotate(-30.31)" fill="#fff"/>
          <path id="Trazado_164819" data-name="Trazado 164819" d="M480.67,153.76a14.51,14.51,0,0,1-7.18-2.19c-8.62-5-15.64-17.08-15.64-27,0-6.93,3.54-11.42,9-11.42a14.48,14.48,0,0,1,7.17,2.19c8.63,5,15.65,17.08,15.65,27C489.69,149.27,486.15,153.76,480.67,153.76Zm-13.8-39.49c-4.88,0-7.92,4-7.92,10.32,0,9.55,6.77,21.23,15.09,26a13.44,13.44,0,0,0,6.63,2c4.88,0,7.92-4,7.92-10.32,0-9.55-6.77-21.23-15.1-26a13.4,13.4,0,0,0-6.62-2Z" fill="#1565b2" opacity="0.95"/>
        </g>
        <g id="Grupo_89146" data-name="Grupo 89146">
          <g id="Grupo_89143" data-name="Grupo 89143" opacity="0.2">
            <path id="Trazado_164820" data-name="Trazado 164820" d="M335.53,384.55a30.53,30.53,0,0,1-15.26-3.68L158.72,287.6c-5.57-3.21-8.76-8.29-8.76-13.94,0-6.19,3.85-12,10.54-15.83l91.69-52.93a37.53,37.53,0,0,1,18.52-4.71A30.63,30.63,0,0,1,286,203.86l161.55,93.28c5.57,3.21,8.76,8.29,8.76,13.94,0,6.19-3.85,12-10.54,15.83l-91.69,52.93a37.53,37.53,0,0,1-18.55,4.71Z" fill="#9fa4d8" opacity="0.19"/>
            <path id="Trazado_164821" data-name="Trazado 164821" d="M252.35,205.89a36.69,36.69,0,0,1,18.48-4.57,35.082,35.082,0,0,1,7.56.92,30,30,0,0,1,7.55,3l160.94,92.91c5.54,3.2,8.42,8.27,8.09,13.77a16,16,0,0,1-1,4.45c-1.4,3.94-5.39,8.12-9.91,10.74L353.7,379.27a35,35,0,0,1-3.93,1.94A38.23,38.23,0,0,1,335.48,384a29.709,29.709,0,0,1-15-3.56L158.88,287.2c-5.55-3.2-8.42-8.29-8.06-13.79a17,17,0,0,1,.77-3.85c1.29-4.16,5.42-8.62,10.17-11.36Z" fill="#9a9ed4" opacity="0.26"/>
            <path id="Trazado_164822" data-name="Trazado 164822" d="M252.52,206.89a35.93,35.93,0,0,1,18.42-4.44,31.2,31.2,0,0,1,15,4.12l160.33,92.56c5.51,3.18,8.1,8.23,7.42,13.59a17.749,17.749,0,0,1-1.19,4.25c-1.38,3.49-6,7.94-10,10.3L353.36,378.7a39.686,39.686,0,0,1-3.86,1.93,37.919,37.919,0,0,1-14.06,2.89,29.2,29.2,0,0,1-14.84-3.45L159.05,286.8c-5.54-3.2-8.1-8.27-7.36-13.65a19.41,19.41,0,0,1,1-3.66c1.29-3.71,6.07-8.45,10.35-10.92Z" fill="#9498cf" opacity="0.32"/>
            <path id="Trazado_164823" data-name="Trazado 164823" d="M252.69,207.89a35.1,35.1,0,0,1,18.36-4.31,33.938,33.938,0,0,1,7.45,1.18,41,41,0,0,1,7.39,3.16L445.6,300.13c5.48,3.17,7.78,8.18,6.76,13.41a20.535,20.535,0,0,1-1.43,4c-1.31,3.07-6.52,7.77-10.14,9.86L353,378.12c-.92.53-2.78,1.5-3.79,1.93A37.35,37.35,0,0,1,335.4,383a28.62,28.62,0,0,1-14.63-3.33L159.21,286.39c-5.52-3.18-7.77-8.24-6.66-13.49a22.472,22.472,0,0,1,1.19-3.49c1.25-3.25,6.72-8.27,10.52-10.47Z" fill="#8f92cb" opacity="0.39"/>
            <path id="Trazado_164824" data-name="Trazado 164824" d="M252.85,208.89a34.42,34.42,0,0,1,18.31-4.19,34.9,34.9,0,0,1,7.39,1.32,49,49,0,0,1,7.31,3.25L445,301.13c5.46,3.15,7.48,8.13,6.1,13.23a24.309,24.309,0,0,1-1.65,3.83c-1.24,2.65-7.09,7.6-10.26,9.43l-86.48,49.93c-.8.46-2.84,1.54-3.72,1.92a36.75,36.75,0,0,1-13.59,3,28,28,0,0,1-14.42-3.21L159.38,286c-5.51-3.18-7.47-8.22-6-13.34a30,30,0,0,1,1.4-3.31c1.2-2.81,7.38-8.11,10.7-10Z" fill="#898cc7" opacity="0.45"/>
            <path id="Trazado_164825" data-name="Trazado 164825" d="M253,209.88a32,32,0,0,1,25.58-2.6,59.1,59.1,0,0,1,7.23,3.35l158.48,91.5c5.43,3.13,7.19,8.09,5.43,13.05a33,33,0,0,1-1.87,3.63c-1.14,2.23-7.66,7.42-10.38,9L352.32,377c-.69.4-2.91,1.58-3.66,1.91A36.139,36.139,0,0,1,335.31,382a27.1,27.1,0,0,1-14.21-3.1L159.55,285.59c-5.5-3.17-7.19-8.2-5.28-13.2.4-1.06,1.09-2,1.61-3.13,1.12-2.37,8-7.93,10.88-9.57Z" fill="#8486c3" opacity="0.52"/>
            <path id="Trazado_164826" data-name="Trazado 164826" d="M253.18,210.88a30.93,30.93,0,0,1,25.47-2.34A72.668,72.668,0,0,1,285.8,212l157.87,91.14c5.4,3.12,6.9,8.05,4.77,12.88a14.141,14.141,0,0,1-2.11,3.42c-.64,2-8.22,7.25-10.49,8.56L352,376.41c-.57.33-3,1.62-3.59,1.9a35.55,35.55,0,0,1-13.11,3.14,26.61,26.61,0,0,1-14-3L159.71,285.19c-5.48-3.17-6.9-8.18-4.58-13.05a14.391,14.391,0,0,1,1.83-3c.58-2.1,8.68-7.75,11-9.12Z" fill="#7e7fbe" opacity="0.58"/>
            <path id="Trazado_164827" data-name="Trazado 164827" d="M253.35,211.88a32.22,32.22,0,0,1,18.15-3.79,32.728,32.728,0,0,1,7.2,1.71c1,.32,6.26,3.06,7.07,3.53L443,304.12c5.38,3.11,6.63,8,4.1,12.7a14.2,14.2,0,0,1-2.3,3.18c-.51,1.59-8.79,7.08-10.6,8.13L351.62,375.8c-.46.27-3,1.68-3.52,1.9a35,35,0,0,1-12.87,3.2c-5.18.21-10.12-.75-13.8-2.87L159.88,284.79c-5.47-3.16-6.64-8.17-3.89-12.9a14.439,14.439,0,0,1,2-2.78c.47-1.68,9.33-7.58,11.23-8.68Z" fill="#7979ba" opacity="0.65"/>
            <path id="Trazado_164828" data-name="Trazado 164828" d="M253.52,212.88a31.47,31.47,0,0,1,18.09-3.66,32.42,32.42,0,0,1,7.14,1.84c.74.25,6.38,3.27,7,3.62l156.63,90.44c5.36,3.09,6.38,8,3.44,12.52a14.278,14.278,0,0,1-2.55,3c-.39,1.2-9.37,6.91-10.72,7.7l-81.27,46.92c-.35.2-3.08,1.72-3.46,1.89a34.4,34.4,0,0,1-12.64,3.26c-5.08.25-10-.67-13.58-2.75L160,284.38c-5.45-3.15-6.38-8.16-3.19-12.75a15.751,15.751,0,0,1,2.26-2.6c.35-1.26,10-7.41,11.4-8.23Z" fill="#7373b6" opacity="0.71"/>
            <path id="Trazado_164829" data-name="Trazado 164829" d="M253.68,213.88a30.81,30.81,0,0,1,18.05-3.53,31.611,31.611,0,0,1,7.07,2c.49.17,6.51,3.48,6.92,3.72l156,90.08c5.33,3.07,6.13,8,2.78,12.34a15.3,15.3,0,0,1-2.78,2.8c-.26.79-9.94,6.73-10.84,7.26l-80,46.17c-.23.13-3.14,1.77-3.39,1.89a34,34,0,0,1-12.4,3.31c-5,.28-9.84-.59-13.38-2.64L160.21,284c-5.44-3.14-6.13-8.17-2.5-12.6a15.36,15.36,0,0,1,2.47-2.42c.23-.84,10.63-7.24,11.58-7.79Z" fill="#6e6db2" opacity="0.77"/>
            <path id="Trazado_164830" data-name="Trazado 164830" d="M253.85,214.87a30.23,30.23,0,0,1,18-3.39,30.779,30.779,0,0,1,7,2.1c.25.09,6.64,3.69,6.84,3.81L441.1,307.11c5.3,3.07,5.88,8,2.11,12.17a16,16,0,0,1-3,2.59c-.13.4-10.5,6.56-10.95,6.82l-78.67,45.42c-.11.07-3.19,1.83-3.32,1.89a33.42,33.42,0,0,1-12.16,3.38c-4.9.3-9.7-.53-13.17-2.53L160.38,283.58c-5.43-3.13-5.9-8.19-1.81-12.45a16.67,16.67,0,0,1,2.69-2.25c.11-.42,11.28-7.06,11.75-7.34Z" fill="#6867ad" opacity="0.84"/>
            <path id="Trazado_164831" data-name="Trazado 164831" d="M322.1,376.45,160.54,283.18c-6.38-3.69-5.58-10.12,1.79-14.37L254,215.87c7.37-4.25,18.51-4.71,24.89-1l161.56,93.27c6.38,3.69,5.58,10.12-1.79,14.37L347,375.42C339.62,379.67,328.47,380.13,322.1,376.45Z" fill="#6361a9" opacity="0.9"/>
          </g>
          <path id="Trazado_164832" data-name="Trazado 164832" d="M322.1,376.3,160.54,283c-2.84-1.64-4.26-3.83-4.3-6.13v-8c0-2.79,2.11,2.05,6.09-.24L254,215.72c7.37-4.25,18.51-4.71,24.89-1L440.46,308c2.13,1.23,3.67-4,4.22-2.33.19.56.07,7.88.08,8.45.06,2.86-2,5.89-6.09,8.25L347,375.27C339.62,379.52,328.47,380,322.1,376.3Z" fill="url(#linear-gradient)"/>
          <path id="Trazado_164833" data-name="Trazado 164833" d="M322.1,368.45,160.54,275.17c-6.38-3.68-5.58-10.11,1.79-14.37L254,207.87c7.37-4.25,18.51-4.72,24.89-1l161.56,93.27c6.38,3.68,5.58,10.12-1.79,14.37L347,367.41C339.62,371.67,328.47,372.13,322.1,368.45Z" fill="url(#linear-gradient-2)"/>
          <path id="Trazado_164834" data-name="Trazado 164834" d="M438.67,313.15,347,366.08c-7.36,4.25-18.5,4.71-24.88,1L160.54,273.84c-2.64-1.53-4-3.53-4.26-5.65-.33,2.6,1.07,5.14,4.26,7L322.1,368.45c6.38,3.68,17.52,3.22,24.88-1l91.69-52.93c4.31-2.49,6.35-5.72,6-8.72C444.38,308.36,442.35,311,438.67,313.15Z" fill="#fff"/>
          <path id="Trazado_164835" data-name="Trazado 164835" d="M350.8,334.09,219.62,258.35c-2.63-1.52-2.3-4.17.73-5.92L269.61,224c3-1.75,7.62-1.94,10.24-.42L411,299.31c2.63,1.52,2.3,4.16-.73,5.92l-49.26,28.43C358,335.41,353.43,335.6,350.8,334.09Z" fill="url(#linear-gradient-3)"/>
          <path id="Trazado_164836" data-name="Trazado 164836" d="M272.48,230.74l8.4,4.85a4.27,4.27,0,0,0,3.86,0,1.178,1.178,0,0,0,0-2.23l-8.4-4.85a4.27,4.27,0,0,0-3.86,0C271.4,229.13,271.41,230.12,272.48,230.74Zm14.39,8.31,4,2.3a4.27,4.27,0,0,0,3.86,0,1.178,1.178,0,0,0,0-2.23l-4-2.3a4.27,4.27,0,0,0-3.86,0,1.18,1.18,0,0,0,0,2.23Zm10,5.76,4,2.29a4.24,4.24,0,0,0,3.86,0,1.18,1.18,0,0,0,0-2.23l-4-2.3a4.27,4.27,0,0,0-3.86,0,1.18,1.18,0,0,0-.03,2.24Zm10,5.75,4,2.3a4.27,4.27,0,0,0,3.86,0,1.18,1.18,0,0,0,0-2.23l-4-2.3a4.27,4.27,0,0,0-3.86,0,1.18,1.18,0,0,0-.06,2.23Zm10,5.76,4,2.3a4.27,4.27,0,0,0,3.86,0,1.17,1.17,0,0,0,0-2.22l-4-2.3a4.27,4.27,0,0,0-3.86,0c-1.17.6-1.16,1.6-.09,2.22Zm10,5.75,4,2.3a4.27,4.27,0,0,0,3.86,0,1.18,1.18,0,0,0,0-2.23l-4-2.3a4.27,4.27,0,0,0-3.86,0,1.18,1.18,0,0,0-.12,2.23Zm10,5.76,4,2.3a4.27,4.27,0,0,0,3.86,0,1.17,1.17,0,0,0,0-2.22l-4-2.3a4.25,4.25,0,0,0-3.85,0c-1.24.6-1.23,1.6-.16,2.22Zm10,5.75,4,2.3a4.27,4.27,0,0,0,3.86,0,1.18,1.18,0,0,0,0-2.23l-4-2.3a4.27,4.27,0,0,0-3.86,0c-1.26.65-1.25,1.65-.18,2.23Zm10,5.76,4,2.3a4.27,4.27,0,0,0,3.86,0,1.18,1.18,0,0,0,0-2.23l-4-2.3a4.27,4.27,0,0,0-3.86,0c-1.29.62-1.28,1.61-.21,2.23Zm10,5.76,4,2.29a4.24,4.24,0,0,0,3.86,0c1.06-.61,1-1.61,0-2.23l-4-2.3a4.27,4.27,0,0,0-3.86,0,1.18,1.18,0,0,0-.25,2.24Zm10,5.75,4,2.3a4.27,4.27,0,0,0,3.86,0,1.181,1.181,0,0,0,0-2.23l-4-2.3a4.27,4.27,0,0,0-3.86,0,1.18,1.18,0,0,0-.28,2.23Zm10,5.76,4,2.3a4.25,4.25,0,0,0,3.85,0,1.178,1.178,0,0,0,0-2.23l-4-2.29a4.27,4.27,0,0,0-3.86,0,1.18,1.18,0,0,0-.3,2.22Zm10.18,5.87,4,2.3a4.27,4.27,0,0,0,3.86,0,1.18,1.18,0,0,0,0-2.23l-4-2.3a4.27,4.27,0,0,0-3.86,0,1.18,1.18,0,0,0-.31,2.23ZM263.51,236.23l3.45,2a4.85,4.85,0,0,0,4.39,0l3.43-2a1.344,1.344,0,0,0,0-2.54l-3.44-2a4.87,4.87,0,0,0-4.4,0l-3.42,2C262.29,234.39,262.3,235.52,263.51,236.23ZM281.32,244l3.43-2a1.337,1.337,0,0,0,0-2.53l-3.44-2a4.84,4.84,0,0,0-4.4,0l-3.42,2a1.335,1.335,0,0,0,0,2.53l3.45,2A4.85,4.85,0,0,0,281.32,244Zm2.13,3.76,3.45,2a4.88,4.88,0,0,0,4.39,0l3.43-2a1.344,1.344,0,0,0,0-2.54l-3.45-2a4.85,4.85,0,0,0-4.39,0l-3.42,2c-1.23.68-1.23,1.78-.01,2.52Zm10,5.75,3.45,2a4.82,4.82,0,0,0,4.39,0l3.43-2a1.34,1.34,0,0,0,0-2.53l-3.45-2a4.82,4.82,0,0,0-4.39,0l-3.42,2c-1.26.67-1.26,1.81-.04,2.51Zm21.22,3.24-3.45-2a4.88,4.88,0,0,0-4.39,0l-3.43,2a1.34,1.34,0,0,0,0,2.54l3.45,2a4.88,4.88,0,0,0,4.39,0l3.42-2a1.34,1.34,0,0,0-.02-2.56Zm10,5.76-3.45-2a4.85,4.85,0,0,0-4.39,0l-3.43,2a1.337,1.337,0,0,0,0,2.53l3.44,2a4.84,4.84,0,0,0,4.4,0l3.42-2a1.355,1.355,0,0,0-.05-2.55Zm10,5.75-3.45-2a4.85,4.85,0,0,0-4.39,0l-3.43,2a1.344,1.344,0,0,0,0,2.54l3.44,2a4.87,4.87,0,0,0,4.4,0l3.42-2c1.14-.72,1.14-1.8-.08-2.56Zm10,5.76-3.45-2a4.85,4.85,0,0,0-4.39,0l-3.43,2a1.344,1.344,0,0,0,0,2.54l3.44,2a4.87,4.87,0,0,0,4.4,0l3.42-2a1.34,1.34,0,0,0-.11-2.56Zm10,5.76-3.45-2a4.85,4.85,0,0,0-4.39,0l-3.43,2a1.34,1.34,0,0,0,0,2.54l3.45,2a4.85,4.85,0,0,0,4.39,0l3.43-2a1.34,1.34,0,0,0-.15-2.56Zm10,5.75-3.45-2a4.85,4.85,0,0,0-4.39,0l-3.43,2a1.344,1.344,0,0,0,0,2.54l3.45,2a4.85,4.85,0,0,0,4.39,0l3.43-2a1.34,1.34,0,0,0-.18-2.56Zm-1.29,8.27,3.45,2a4.85,4.85,0,0,0,4.39,0l3.43-2a1.34,1.34,0,0,0,0-2.53l-3.45-2a4.82,4.82,0,0,0-4.39,0l-3.43,2c-1.38.67-1.38,1.81-.18,2.51Zm21.04,3.2L381,295a4.9,4.9,0,0,0-4.4,0l-3.42,2a1.34,1.34,0,0,0,0,2.54l3.45,2a4.88,4.88,0,0,0,4.39,0l3.43-2C385.65,298.86,385.64,297.72,384.42,297ZM399,305.45l-7.88-4.54a4.82,4.82,0,0,0-4.39,0l-3.42,2a1.33,1.33,0,0,0,0,2.53l7.87,4.55a4.88,4.88,0,0,0,4.39,0l3.43-2a1.34,1.34,0,0,0,0-2.54ZM254.28,241.56l7.87,4.54a4.85,4.85,0,0,0,4.39,0l3.43-2a1.337,1.337,0,0,0,0-2.53l-7.87-4.55a4.85,4.85,0,0,0-4.39,0l-3.43,2C253.06,239.72,253.06,240.85,254.28,241.56Zm14.39,8.31,3.45,2a4.85,4.85,0,0,0,4.39,0l3.43-2a1.344,1.344,0,0,0,0-2.54l-3.44-2a4.87,4.87,0,0,0-4.4,0l-3.42,2C267.45,248,267.46,249.16,268.67,249.87Zm13.42,7.74a4.82,4.82,0,0,0,4.39,0l3.43-2a1.337,1.337,0,0,0,0-2.53l-3.44-2a4.84,4.84,0,0,0-4.4,0l-3.42,2a1.335,1.335,0,0,0,0,2.53Zm10,5.76a4.88,4.88,0,0,0,4.39,0l3.43-2a1.344,1.344,0,0,0,0-2.54l-3.45-2a4.88,4.88,0,0,0-4.39,0l-3.42,2a1.34,1.34,0,0,0,0,2.54Zm9.93-.75-3.42,2a1.33,1.33,0,0,0,0,2.53l3.45,2a4.82,4.82,0,0,0,4.39,0l3.43-2a1.339,1.339,0,0,0,0-2.53l-3.45-2a4.85,4.85,0,0,0-4.42,0Zm10.18,5.63-3.85,2.22a1.219,1.219,0,0,0,0,2.3l3.87,2.23a4.37,4.37,0,0,0,4,0l3.84-2.22a1.21,1.21,0,0,0,0-2.29l-3.87-2.24a4.41,4.41,0,0,0-4.02,0Zm10,5.76-3.85,2.22a1.21,1.21,0,0,0,0,2.29l3.87,2.24a4.37,4.37,0,0,0,4,0l3.84-2.22c1.1-.63,1.09-1.65,0-2.29L326.11,274a4.37,4.37,0,0,0-3.97,0Zm10,5.76L328.26,282a1.212,1.212,0,0,0,0,2.29l3.88,2.23a4.37,4.37,0,0,0,4,0L340,284.3a1.21,1.21,0,0,0,0-2.29l-3.87-2.24a4.37,4.37,0,0,0-4.02,0Zm10,5.75-3.85,2.22a1.21,1.21,0,0,0,0,2.29l3.88,2.24a4.38,4.38,0,0,0,4,0l3.85-2.22a1.216,1.216,0,0,0,0-2.3l-3.87-2.23a4.37,4.37,0,0,0-4.13,0Zm10,5.76-3.85,2.22a1.211,1.211,0,0,0,0,2.29l3.87,2.23a4.37,4.37,0,0,0,4,0l3.85-2.22a1.21,1.21,0,0,0,0-2.29L356,291.28a4.41,4.41,0,0,0-3.95,0Zm14,12.51,3.85-2.22a1.22,1.22,0,0,0,0-2.3L366,297a4.37,4.37,0,0,0-4,0l-3.85,2.22a1.22,1.22,0,0,0,0,2.3l3.87,2.23a4.37,4.37,0,0,0,3.98.04Zm10,5.75,3.85-2.22a1.211,1.211,0,0,0,0-2.29L376,302.79a4.41,4.41,0,0,0-4,0L368.14,305a1.21,1.21,0,0,0,0,2.29l3.87,2.24a4.41,4.41,0,0,0,3.99.01Zm14,1.37-3.87-2.24a4.41,4.41,0,0,0-4,0l-3.84,2.22a1.216,1.216,0,0,0,0,2.3l3.87,2.23a4.37,4.37,0,0,0,4,0L390,313.2a1.21,1.21,0,0,0,0-2.29ZM244.83,246.76l12.5,7.22a4.37,4.37,0,0,0,4,0l3.85-2.22a1.21,1.21,0,0,0,0-2.29l-12.5-7.22a4.37,4.37,0,0,0-4,0l-3.85,2.22a1.21,1.21,0,0,0,0,2.29Zm18.6,10.74,3.87,2.24a4.37,4.37,0,0,0,4,0l3.85-2.22a1.211,1.211,0,0,0,0-2.29L271.23,253a4.37,4.37,0,0,0-4,0l-3.84,2.22a1.21,1.21,0,0,0,.04,2.28Zm10,5.76,3.87,2.23a4.37,4.37,0,0,0,4,0l3.85-2.22a1.21,1.21,0,0,0,0-2.29l-3.87-2.24a4.41,4.41,0,0,0-4,0L273.39,261c-1.1.6-1.09,1.62.01,2.26Zm10,5.75,3.87,2.24a4.41,4.41,0,0,0,4,0l3.85-2.23a1.212,1.212,0,0,0,0-2.29l-3.87-2.23a4.37,4.37,0,0,0-4,0l-3.84,2.22a1.21,1.21,0,0,0-.07,2.28Zm17.81,8,3.85-2.22a1.21,1.21,0,0,0,0-2.29l-3.87-2.24a4.37,4.37,0,0,0-4,0l-3.85,2.22a1.212,1.212,0,0,0,0,2.29l3.87,2.23a4.37,4.37,0,0,0,3.94,0Zm10,5.76,3.84-2.22a1.216,1.216,0,0,0,0-2.3L311.11,276a4.37,4.37,0,0,0-4,0l-3.85,2.22a1.21,1.21,0,0,0,0,2.29l3.87,2.24a4.41,4.41,0,0,0,4.02.02Zm10,5.75L325,286.3a1.21,1.21,0,0,0,0-2.29l-3.87-2.24a4.41,4.41,0,0,0-4,0L313.26,284a1.21,1.21,0,0,0,0,2.29l3.87,2.24a4.41,4.41,0,0,0,3.99-.01Zm10,5.76,3.84-2.22a1.21,1.21,0,0,0,0-2.29l-3.87-2.24a4.41,4.41,0,0,0-4,0l-3.85,2.22a1.22,1.22,0,0,0,0,2.3l3.88,2.23a4.37,4.37,0,0,0,3.85,0Zm10,5.75,3.85-2.22a1.211,1.211,0,0,0,0-2.29L341,293.29a4.37,4.37,0,0,0-4,0l-3.85,2.22a1.21,1.21,0,0,0,0,2.29l3.88,2.24a4.35,4.35,0,0,0,4.02-.04Zm10,5.76,3.85-2.22a1.21,1.21,0,0,0,0-2.29L351,299a4.41,4.41,0,0,0-4,0l-3.85,2.23a1.211,1.211,0,0,0,0,2.29l3.87,2.23a4.37,4.37,0,0,0,3.98.04Zm2.13,3.51,3.87,2.24a4.41,4.41,0,0,0,4,0l3.85-2.23a1.211,1.211,0,0,0,0-2.29L361,304.8a4.37,4.37,0,0,0-4,0l-3.86,2.2a1.21,1.21,0,0,0,.01,2.3Zm27.62,6.94-9.84-5.69a4.37,4.37,0,0,0-4,0l-3.85,2.22a1.211,1.211,0,0,0,0,2.29l9.85,5.68a4.37,4.37,0,0,0,4,0l3.84-2.22a1.21,1.21,0,0,0-.22-2.28ZM235.64,252.37l17.73,10.24a5,5,0,0,0,4.49,0l3.33-1.93a1.361,1.361,0,0,0,0-2.58l-17.74-10.24a5,5,0,0,0-4.48,0l-3.34,1.92C234.39,250.5,234.39,251.65,235.64,252.37ZM260,266.43l3.35,1.94a5,5,0,0,0,4.49,0l3.33-1.93a1.37,1.37,0,0,0,0-2.59l-3.36-1.94a5,5,0,0,0-4.48,0L260,263.84C258.74,264.55,258.74,265.71,260,266.43Zm10,5.76,3.35,1.93a5,5,0,0,0,4.48,0l3.34-1.92a1.37,1.37,0,0,0,0-2.59l-3.36-1.94a5,5,0,0,0-4.48,0l-3.34,1.93C268.71,270.31,268.71,271.47,270,272.19Zm10,5.75,3.36,1.94a5,5,0,0,0,4.48,0L291.1,278a1.37,1.37,0,0,0,0-2.59l-3.35-1.93a4.94,4.94,0,0,0-4.49,0l-3.33,1.92c-1.25.66-1.25,1.82-.01,2.54Zm10,5.76,3.36,1.93a5,5,0,0,0,4.48,0l3.34-1.92a1.37,1.37,0,0,0,0-2.59l-3.35-1.94a5,5,0,0,0-4.49,0l-3.33,1.93c-1.36.71-1.36,1.89-.12,2.59Zm10,5.75,3.36,1.94a5,5,0,0,0,4.48,0l3.34-1.93a1.372,1.372,0,0,0,0-2.59L307.67,285a5,5,0,0,0-4.49,0l-3.33,1.92a1.37,1.37,0,0,0,.01,2.53Zm10,5.76,3.36,1.94a5,5,0,0,0,4.48,0l3.34-1.92a1.372,1.372,0,0,0,0-2.59l-3.35-1.94a5,5,0,0,0-4.49,0l-3.33,1.93c-1.43.7-1.42,1.86-.18,2.58Zm10,5.75,3.36,1.94a5,5,0,0,0,4.48,0L331,301a1.361,1.361,0,0,0,0-2.58l-3.35-1.94a5,5,0,0,0-4.49,0l-3.33,1.92a1.37,1.37,0,0,0-.03,2.6Zm10,5.76,3.36,1.94a5,5,0,0,0,4.48,0l3.33-1.92c1.24-.71,1.23-1.87,0-2.59l-3.36-1.94a5,5,0,0,0-4.48,0L330,304.13c-1.48.71-1.47,1.87-.23,2.59Zm10,5.76,3.35,1.93a5,5,0,0,0,4.49,0l3.33-1.92a1.37,1.37,0,0,0,0-2.59l-3.63-1.9a5,5,0,0,0-4.48,0l-3.33,1.93c-1.24.67-1.23,1.83.01,2.55Zm10,5.75,3.35,1.94a5,5,0,0,0,4.49,0l3.33-1.93c1.24-.71,1.23-1.87,0-2.59l-3.36-1.94a5,5,0,0,0-4.48,0l-3.34,1.92c-1.53.72-1.52,1.88-.28,2.6Zm21.35,3.32-3.36-1.94a5,5,0,0,0-4.48,0l-3.34,1.93a1.365,1.365,0,0,0,0,2.58l3.35,1.94a5,5,0,0,0,4.49,0l3.33-1.93c.97-.71.96-1.87-.28-2.58ZM242,257.69l-7.78-4.49a5,5,0,0,0-4.49,0l-3.33,1.92a1.37,1.37,0,0,0,0,2.59l7.78,4.49a4.94,4.94,0,0,0,4.49,0l3.33-1.92C243.24,259.57,243.23,258.41,242,257.69Zm10,5.75-3.36-1.93a5,5,0,0,0-4.48,0l-3.34,1.92a1.37,1.37,0,0,0,0,2.59l3.35,1.94a5,5,0,0,0,4.49,0L252,266C253.21,265.32,253.2,264.16,252,263.44Zm10,5.76-3.36-1.94a5,5,0,0,0-4.48,0l-3.34,1.93a1.37,1.37,0,0,0,0,2.59l3.35,1.94a5,5,0,0,0,4.49,0l3.33-1.92c1.18-.72,1.18-1.88-.06-2.6Zm69.78,40.29L268.54,273a5,5,0,0,0-4.48,0l-3.34,1.93a1.363,1.363,0,0,0,0,2.58L323.91,314a5,5,0,0,0,4.48,0l3.33-1.92c1.28-.71,1.28-1.87-.01-2.59Zm10,5.76-3.36-1.94a5,5,0,0,0-4.48,0l-3.33,1.93a1.361,1.361,0,0,0,0,2.58l3.35,1.94a5,5,0,0,0,4.49,0l3.33-1.93c1.15-.71,1.14-1.83-.1-2.58Zm10,5.75-3.36-1.94a5,5,0,0,0-4.48,0L340.47,321a1.372,1.372,0,0,0,0,2.59l3.35,1.94a5,5,0,0,0,4.49,0l3.33-1.93c1.26-.72,1.25-1.88.01-2.6Zm10.18,5.88-3.36-1.94a5,5,0,0,0-4.48,0l-3.34,1.93a1.37,1.37,0,0,0,0,2.59l3.35,1.93a5,5,0,0,0,4.48,0l3.34-1.92a1.37,1.37,0,0,0-.12-2.59Z" fill="#ced3f4"/>
          <path id="Trazado_164837" data-name="Trazado 164837" d="M272.48,229.53l8.4,4.85a4.27,4.27,0,0,0,3.86,0,1.178,1.178,0,0,0,0-2.23l-8.4-4.86a4.27,4.27,0,0,0-3.86,0A1.181,1.181,0,0,0,272.48,229.53Zm14.39,8.31,4,2.3a4.27,4.27,0,0,0,3.86,0,1.178,1.178,0,0,0,0-2.23l-4-2.29a4.24,4.24,0,0,0-3.86,0,1.18,1.18,0,0,0,0,2.22Zm10,5.75,4,2.3a4.27,4.27,0,0,0,3.86,0,1.18,1.18,0,0,0,0-2.23l-4-2.3a4.27,4.27,0,0,0-3.86,0,1.18,1.18,0,0,0-.03,2.23Zm10,5.76,4,2.3a4.27,4.27,0,0,0,3.86,0,1.17,1.17,0,0,0,0-2.22l-4-2.3a4.27,4.27,0,0,0-3.86,0,1.18,1.18,0,0,0-.06,2.22Zm10,5.75,4,2.3a4.27,4.27,0,0,0,3.86,0,1.18,1.18,0,0,0,0-2.23l-4-2.3a4.24,4.24,0,0,0-3.86,0,1.17,1.17,0,0,0-.09,2.23Zm10,5.76,4,2.3a4.27,4.27,0,0,0,3.86,0,1.18,1.18,0,0,0,0-2.23l-4-2.3a4.27,4.27,0,0,0-3.86,0c-1.2.61-1.19,1.61-.12,2.23Zm10,5.75,4,2.3a4.27,4.27,0,0,0,3.86,0,1.18,1.18,0,0,0,0-2.23l-4-2.3a4.25,4.25,0,0,0-3.85,0,1.17,1.17,0,0,0-.16,2.23Zm10,5.76,4,2.3a4.27,4.27,0,0,0,3.86,0,1.18,1.18,0,0,0,0-2.23l-4-2.3a4.27,4.27,0,0,0-3.86,0c-1.26.62-1.25,1.61-.18,2.23Zm10,5.76,4,2.3a4.27,4.27,0,0,0,3.86,0,1.18,1.18,0,0,0,0-2.23l-4-2.3a4.27,4.27,0,0,0-3.86,0c-1.29.61-1.28,1.61-.21,2.23Zm10,5.75,4,2.3a4.27,4.27,0,0,0,3.86,0c1.06-.62,1-1.61,0-2.23l-4-2.3a4.27,4.27,0,0,0-3.86,0,1.18,1.18,0,0,0-.25,2.23Zm10,5.76,4,2.3a4.27,4.27,0,0,0,3.86,0,1.174,1.174,0,0,0,0-2.22l-4-2.3a4.27,4.27,0,0,0-3.86,0,1.18,1.18,0,0,0-.28,2.22Zm10,5.75,4,2.3a4.25,4.25,0,0,0,3.85,0,1.178,1.178,0,0,0,0-2.23l-4-2.3a4.27,4.27,0,0,0-3.86,0,1.18,1.18,0,0,0-.3,2.23Zm10.18,5.88,4,2.3a4.27,4.27,0,0,0,3.86,0,1.17,1.17,0,0,0,0-2.22l-4-2.3a4.27,4.27,0,0,0-3.86,0,1.18,1.18,0,0,0-.31,2.22ZM263.51,235l3.45,2a4.85,4.85,0,0,0,4.39,0l3.43-2a1.337,1.337,0,0,0,0-2.53l-3.44-2a4.84,4.84,0,0,0-4.4,0l-3.42,2A1.332,1.332,0,0,0,263.51,235Zm17.81,7.76,3.43-2a1.344,1.344,0,0,0,0-2.54l-3.44-2a4.9,4.9,0,0,0-4.4,0l-3.42,2a1.342,1.342,0,0,0,0,2.54l3.45,2a4.88,4.88,0,0,0,4.38.01Zm2.13,3.75,3.45,2a4.82,4.82,0,0,0,4.39,0l3.43-2a1.337,1.337,0,0,0,0-2.53l-3.45-2a4.82,4.82,0,0,0-4.39,0l-3.42,2a1.337,1.337,0,0,0-.01,2.54Zm10,5.76,3.45,2a4.88,4.88,0,0,0,4.39,0l3.43-2a1.346,1.346,0,0,0,0-2.54l-3.45-2a4.88,4.88,0,0,0-4.39,0l-3.42,2a1.34,1.34,0,0,0-.04,2.55Zm21.22,3.24-3.45-2a4.85,4.85,0,0,0-4.39,0l-3.43,2a1.34,1.34,0,0,0,0,2.53l3.45,2a4.82,4.82,0,0,0,4.39,0l3.42-2c1.2-.68,1.2-1.82-.02-2.52Zm10,5.75-3.45-2a4.85,4.85,0,0,0-4.39,0l-3.43,2a1.344,1.344,0,0,0,0,2.54l3.44,2a4.87,4.87,0,0,0,4.4,0l3.42-2c1.17-.69,1.17-1.8-.05-2.53Zm10,5.76-3.45-2a4.85,4.85,0,0,0-4.39,0l-3.43,2a1.344,1.344,0,0,0,0,2.54l3.44,2a4.87,4.87,0,0,0,4.4,0l3.42-2a1.34,1.34,0,0,0-.08-2.56Zm10,5.76-3.45-2a4.82,4.82,0,0,0-4.39,0l-3.43,2a1.337,1.337,0,0,0,0,2.53l3.44,2a4.87,4.87,0,0,0,4.4,0l3.42-2a1.34,1.34,0,0,0-.11-2.52Zm10,5.75-3.45-2a4.85,4.85,0,0,0-4.39,0l-3.43,2a1.344,1.344,0,0,0,0,2.54l3.45,2a4.88,4.88,0,0,0,4.39,0l3.43-2a1.34,1.34,0,0,0-.15-2.53Zm10,5.76-3.45-2a4.82,4.82,0,0,0-4.39,0l-3.43,2a1.337,1.337,0,0,0,0,2.53l3.45,2a4.82,4.82,0,0,0,4.39,0l3.43-2a1.34,1.34,0,0,0-.18-2.52Zm-1.29,8.27,3.45,2a4.88,4.88,0,0,0,4.39,0l3.43-2a1.344,1.344,0,0,0,0-2.54l-3.45-2a4.88,4.88,0,0,0-4.39,0l-3.43,2a1.34,1.34,0,0,0-.18,2.55Zm21.22,3.24-3.44-2a4.87,4.87,0,0,0-4.4,0l-3.42,2a1.34,1.34,0,0,0,0,2.53l3.45,2a4.82,4.82,0,0,0,4.39,0l3.43-2c1.04-.68,1.03-1.82-.19-2.52Zm14.4,8.44-7.88-4.55a4.85,4.85,0,0,0-4.39,0l-3.42,2a1.34,1.34,0,0,0,0,2.54l7.87,4.54a4.82,4.82,0,0,0,4.39,0l3.43-2C400.25,306.08,400.24,304.94,399,304.24Zm-144.75-63.9,7.87,4.55a4.88,4.88,0,0,0,4.39,0l3.43-2a1.344,1.344,0,0,0,0-2.54l-7.87-4.54a4.82,4.82,0,0,0-4.39,0l-3.43,2c-1.19.69-1.19,1.83.03,2.53Zm14.39,8.31,3.45,2a4.82,4.82,0,0,0,4.39,0l3.43-2a1.337,1.337,0,0,0,0-2.53l-3.44-2a4.84,4.84,0,0,0-4.4,0l-3.42,2a1.337,1.337,0,0,0,.02,2.53Zm13.42,7.75a4.88,4.88,0,0,0,4.39,0l3.43-2a1.344,1.344,0,0,0,0-2.54l-3.44-2a4.9,4.9,0,0,0-4.4,0l-3.42,2a1.34,1.34,0,0,0,0,2.54Zm10,5.75a4.82,4.82,0,0,0,4.39,0l3.43-2a1.337,1.337,0,0,0,0-2.53l-3.45-2a4.85,4.85,0,0,0-4.39,0l-3.42,2a1.33,1.33,0,0,0,0,2.53Zm9.93-.74-3.42,2a1.34,1.34,0,0,0,0,2.54l3.45,2a4.85,4.85,0,0,0,4.39,0l3.43-2a1.346,1.346,0,0,0,0-2.54l-3.45-2a4.85,4.85,0,0,0-4.39,0ZM312.17,267l-3.85,2.22a1.21,1.21,0,0,0,0,2.29l3.87,2.24a4.41,4.41,0,0,0,4,0l3.84-2.23c1.1-.63,1.09-1.65,0-2.29L316.16,267a4.37,4.37,0,0,0-3.99,0Zm10,5.76L318.29,275a1.212,1.212,0,0,0,0,2.29l3.87,2.23a4.37,4.37,0,0,0,4,0L330,277.3a1.21,1.21,0,0,0,0-2.29l-3.87-2.24a4.37,4.37,0,0,0-3.99.03Zm10,5.75-3.85,2.22a1.21,1.21,0,0,0,0,2.29l3.88,2.24a4.41,4.41,0,0,0,4,0l3.84-2.22a1.216,1.216,0,0,0,0-2.3l-3.87-2.23a4.37,4.37,0,0,0-4.06.04Zm10,5.76-3.85,2.22a1.21,1.21,0,0,0,0,2.29l3.88,2.24a4.38,4.38,0,0,0,4,0l3.85-2.22a1.21,1.21,0,0,0,0-2.29l-3.87-2.24a4.41,4.41,0,0,0-4.1.04Zm10,5.75-3.85,2.22a1.22,1.22,0,0,0,0,2.3l3.87,2.23a4.37,4.37,0,0,0,4,0l3.85-2.22a1.22,1.22,0,0,0,0-2.3L356,290.07a4.37,4.37,0,0,0-3.95-.01Zm14,12.51,3.85-2.22a1.211,1.211,0,0,0,0-2.29L366,295.83a4.37,4.37,0,0,0-4,0L358.17,298a1.21,1.21,0,0,0,0,2.29l3.87,2.24a4.41,4.41,0,0,0,3.96.04Zm10,5.76,3.85-2.22a1.21,1.21,0,0,0,0-2.29l-4.02-2.2a4.41,4.41,0,0,0-4,0l-3.85,2.23a1.211,1.211,0,0,0,0,2.29l3.87,2.23a4.37,4.37,0,0,0,3.98,0Zm14,1.36-3.87-2.23a4.37,4.37,0,0,0-4,0l-3.84,2.22a1.21,1.21,0,0,0,0,2.29l3.87,2.24a4.37,4.37,0,0,0,4,0L390,312a1.219,1.219,0,0,0,0-2.31Zm-145.34-64.1,12.5,7.22a4.37,4.37,0,0,0,4,0l3.85-2.22a1.211,1.211,0,0,0,0-2.29l-12.5-7.21a4.37,4.37,0,0,0-4,0l-3.85,2.22a1.21,1.21,0,0,0,0,2.28Zm18.6,10.74,3.87,2.23a4.37,4.37,0,0,0,4,0l3.85-2.22a1.21,1.21,0,0,0,0-2.29l-3.88-2.24a4.37,4.37,0,0,0-4,0L263.42,254C262.32,254.63,262.33,255.65,263.43,256.29Zm10,5.75,3.87,2.24a4.41,4.41,0,0,0,4,0l3.85-2.23a1.212,1.212,0,0,0,0-2.29l-3.87-2.23a4.37,4.37,0,0,0-4,0l-3.84,2.22a1.21,1.21,0,0,0-.04,2.25Zm10,5.76,3.87,2.23a4.37,4.37,0,0,0,4,0l3.85-2.22a1.21,1.21,0,0,0,0-2.29l-3.87-2.24a4.41,4.41,0,0,0-4,0l-3.84,2.22c-1.18.64-1.17,1.66-.07,2.3Zm17.81,8,3.85-2.22a1.219,1.219,0,0,0,0-2.3l-3.87-2.23a4.37,4.37,0,0,0-4,0l-3.85,2.22a1.219,1.219,0,0,0,0,2.3l3.87,2.23a4.37,4.37,0,0,0,3.94,0Zm10,5.75,3.84-2.22a1.21,1.21,0,0,0,0-2.29l-3.87-2.24a4.41,4.41,0,0,0-4,0l-3.92,2.2a1.21,1.21,0,0,0,0,2.29l3.87,2.24a4.41,4.41,0,0,0,3.99.02Zm10,5.76,3.84-2.22a1.21,1.21,0,0,0,0-2.29l-3.87-2.24a4.41,4.41,0,0,0-4,0l-3.85,2.22a1.219,1.219,0,0,0,0,2.3l3.87,2.23a4.37,4.37,0,0,0,3.89,0Zm10,5.75,3.84-2.22c1.1-.63,1.09-1.65,0-2.29l-3.87-2.23a4.37,4.37,0,0,0-4,0l-3.85,2.22a1.21,1.21,0,0,0,0,2.29l3.88,2.24a4.37,4.37,0,0,0,3.85-.01Zm10,5.76,3.85-2.22a1.21,1.21,0,0,0,0-2.29L341,292.07a4.41,4.41,0,0,0-4,0l-3.85,2.23a1.211,1.211,0,0,0,0,2.29l3.88,2.23a4.35,4.35,0,0,0,4.02,0Zm10,5.76,3.85-2.23a1.211,1.211,0,0,0,0-2.29L351,297.83a4.37,4.37,0,0,0-4,0L343.17,300a1.21,1.21,0,0,0,0,2.29l3.87,2.24a4.41,4.41,0,0,0,3.96.05Zm2.13,3.51,3.87,2.23a4.37,4.37,0,0,0,4,0l3.85-2.22a1.21,1.21,0,0,0,0-2.29L361,303.58a4.41,4.41,0,0,0-4,0l-3.85,2.22a1.207,1.207,0,0,0,0,2.29Zm27.4,6.91-9.84-5.68a4.37,4.37,0,0,0-4,0l-3.85,2.22a1.21,1.21,0,0,0,0,2.29l9.85,5.69a4.41,4.41,0,0,0,4,0l3.84-2.23C381.88,316.68,381.87,315.66,380.77,315ZM235.64,251.16l17.73,10.24a5,5,0,0,0,4.49,0l3.33-1.93c1.24-.71,1.23-1.87,0-2.59l-17.74-10.24a5,5,0,0,0-4.48,0l-3.34,1.93C234.39,249.28,234.39,250.44,235.64,251.16ZM260,265.22l3.35,1.93a5,5,0,0,0,4.49,0l3.33-1.92a1.37,1.37,0,0,0,0-2.59l-3.36-1.94a5,5,0,0,0-4.48,0L260,262.63C258.74,263.34,258.74,264.5,260,265.22ZM270,271l3.35,1.94a5,5,0,0,0,4.48,0l3.34-1.93a1.37,1.37,0,0,0,0-2.59l-3.36-1.93a4.92,4.92,0,0,0-4.48,0l-3.34,1.92C268.71,269.1,268.71,270.25,270,271Zm10,5.76,3.36,1.93a4.92,4.92,0,0,0,4.48,0l3.34-1.92a1.37,1.37,0,0,0,0-2.59l-3.35-1.94a5,5,0,0,0-4.49,0l-3.33,1.93c-1.33.68-1.33,1.83-.09,2.56Zm10,5.75,3.36,1.94a5,5,0,0,0,4.48,0l3.34-1.93a1.37,1.37,0,0,0,0-2.59L297.7,278a5,5,0,0,0-4.49,0l-3.33,1.92a1.37,1.37,0,0,0,.01,2.56Zm10,5.76,3.36,1.94a5,5,0,0,0,4.48,0l3.34-1.92a1.372,1.372,0,0,0,0-2.59l-3.35-1.94a5,5,0,0,0-4.49,0l-3.33,1.93c-1.4.67-1.39,1.83-.15,2.55Zm10,5.75,3.36,1.94a5,5,0,0,0,4.48,0L321,294a1.365,1.365,0,0,0,0-2.58l-3.35-1.94a5,5,0,0,0-4.49,0l-3.33,1.93c-1.25.71-1.24,1.87,0,2.59Zm10,5.76,3.36,1.94a5,5,0,0,0,4.48,0l3.33-1.93c1.24-.71,1.23-1.87,0-2.59l-3.35-1.94a5,5,0,0,0-4.49,0L320,297.18c-1.45.69-1.44,1.82-.2,2.57Zm10,5.76,3.36,1.93a5,5,0,0,0,4.48,0l3.33-1.92a1.37,1.37,0,0,0,0-2.59l-3.6-1.96a5,5,0,0,0-4.48,0l-3.33,1.93c-1.24.7-1.23,1.86.01,2.58Zm10,5.75,3.35,1.94a5,5,0,0,0,4.49,0l3.33-1.93c1.24-.71,1.23-1.87,0-2.59l-3.36-1.93a4.92,4.92,0,0,0-4.48,0L340,308.7c-1.51.69-1.5,1.84-.26,2.56Zm10,5.76,3.35,1.93a4.94,4.94,0,0,0,4.49,0l3.33-1.92c1.24-.72,1.23-1.87,0-2.59l-3.36-1.94a5,5,0,0,0-4.48,0l-3.34,1.93c-1.53.68-1.52,1.84-.28,2.54Zm21.35,3.31-3.36-1.94a5,5,0,0,0-4.48,0l-3.34,1.92a1.372,1.372,0,0,0,0,2.59l3.35,1.94a5,5,0,0,0,4.49,0l3.33-1.93c.97-.73.96-1.89-.28-2.61ZM242,256.47,234.21,252a5,5,0,0,0-4.49,0l-3.33,1.92a1.37,1.37,0,0,0,0,2.59l7.78,4.49a5,5,0,0,0,4.49,0l3.33-1.93A1.374,1.374,0,0,0,242,256.47Zm10,5.76-3.36-1.94a5,5,0,0,0-4.48,0l-3.34,1.92a1.372,1.372,0,0,0,0,2.59l3.35,1.94a5,5,0,0,0,4.49,0l3.33-1.92C253.21,264.11,253.2,263,252,262.23Zm10,5.76-3.36-1.94a5,5,0,0,0-4.48,0L250.75,268a1.37,1.37,0,0,0,0,2.59l3.35,1.93a5,5,0,0,0,4.49,0l3.33-1.92a1.37,1.37,0,0,0,.01-2.6Zm69.78,40.29L268.54,271.8a5,5,0,0,0-4.48,0l-3.34,1.92a1.37,1.37,0,0,0,0,2.59l63.17,36.47a5,5,0,0,0,4.48,0l3.33-1.92a1.37,1.37,0,0,0,.01-2.58Zm10,5.75-3.36-1.94a5,5,0,0,0-4.48,0L330.51,314c-1.24.71-1.23,1.87,0,2.59l3.35,1.94a5,5,0,0,0,4.49,0l3.33-1.93c1.25-.69,1.24-1.85,0-2.6Zm10,5.76-3.36-1.94a5,5,0,0,0-4.48,0l-3.34,1.93a1.372,1.372,0,0,0,0,2.59l3.35,1.93a5,5,0,0,0,4.49,0l3.33-1.92a1.37,1.37,0,0,0-.12-2.59Zm10.18,5.87-3.36-1.93a4.92,4.92,0,0,0-4.48,0l-3.34,1.92a1.37,1.37,0,0,0,0,2.59l3.35,1.94a5,5,0,0,0,4.48,0l3.34-1.93c1.12-.71,1.12-1.87-.12-2.59Z" fill="#e5e9ff"/>
          <g id="Grupo_89145" data-name="Grupo 89145">
            <path id="Trazado_164838" data-name="Trazado 164838" d="M440.3,299.86l-166-95.74c-5.7-3.3-10.33-12.13-10.33-19.74V53.28c0-7.61,4.63-11.1,10.33-7.81l166,95.74c5.7,3.3,10.33,12.13,10.33,19.74v131.1C450.63,299.65,446,303.15,440.3,299.86Z" fill="url(#linear-gradient-4)"/>
            <path id="Trazado_164839" data-name="Trazado 164839" d="M441.63,293.92,277.17,199.09c-4.59-2.91-7.43-8.74-7.43-14.71V52.72a1.84,1.84,0,0,1,2.76-1.58l.33.19,164.57,94.9c5.46,3.15,7.42,8.75,7.42,14.72V292.34a2,2,0,0,1-2.95,1.71Z" fill="url(#linear-gradient-5)"/>
            <path id="Trazado_164840" data-name="Trazado 164840" d="M437.4,146.23,272.83,51.33l-.33-.19a1.84,1.84,0,0,0-2.76,1.58V184.38c0,6,2.84,11.8,7.43,14.71l164.46,94.83.24.13a2,2,0,0,0,2.95-1.71V161C444.82,155,442.86,149.38,437.4,146.23Zm6.26,146.11a.82.82,0,0,1-.82.82.86.86,0,0,1-.4-.11l-164.69-95c-4.14-2.64-6.85-8-6.85-13.71V52.72a.68.68,0,0,1,.68-.67.72.72,0,0,1,.34.09l164.89,95.1c5.67,3.26,6.85,9.25,6.85,13.71Z" fill="#afb6e5"/>
            <g id="Grupo_89144" data-name="Grupo 89144">
              <path id="Trazado_164841" data-name="Trazado 164841" d="M445.05,138.45,279,42.71c-2.26-1.3-4.35-1.54-6-.88-.21.08-4.92,2.81-5.12,2.93h0c1.77-.85,4-.69,6.43.71l166,95.74c5.7,3.3,10.33,12.13,10.33,19.74v131.1c0,4.74-1.81,7.89-4.55,8.78a1.64,1.64,0,0,0,.91-.3c.13-.08,5.08-3,5.21-3.14,2-1.37,3.18-4.19,3.18-8.1V158.19C455.38,150.58,450.76,141.75,445.05,138.45Z" fill="url(#linear-gradient-6)"/>
              <path id="Trazado_164842" data-name="Trazado 164842" d="M445,138.51,279,42.77c-2.26-1.3-4.35-1.54-6-.89-.22.09-4.84,2.76-5,2.88h0c1.77-.85,4-.69,6.43.71l166,95.74c5.7,3.3,10.33,12.13,10.33,19.74v131.1c0,4.74-1.81,7.89-4.55,8.78a1.64,1.64,0,0,0,.91-.3c.13-.08,5-3,5.12-3.08,2-1.37,3.18-4.2,3.18-8.1V158.24C455.29,150.64,450.67,141.8,445,138.51Z" fill="url(#linear-gradient-7)"/>
              <path id="Trazado_164843" data-name="Trazado 164843" d="M444.88,138.57l-166-95.74c-2.26-1.31-4.34-1.55-6-.89-.22.08-4.75,2.7-4.95,2.82h0c1.77-.85,4-.69,6.43.71l166,95.74c5.7,3.3,10.33,12.13,10.33,19.74v131.1c0,4.74-1.81,7.89-4.55,8.78a1.64,1.64,0,0,0,.91-.3c.13-.08,4.91-2.93,5-3,2-1.37,3.19-4.2,3.19-8.11V158.3C455.21,150.7,450.58,141.86,444.88,138.57Z" fill="url(#linear-gradient-8)"/>
              <path id="Trazado_164844" data-name="Trazado 164844" d="M444.79,138.62l-166-95.74c-2.25-1.3-4.34-1.54-6-.88-.22.08-4.66,2.64-4.86,2.76h0c1.77-.85,4-.69,6.43.71l166,95.74c5.7,3.3,10.33,12.13,10.33,19.74v131.1c0,4.74-1.81,7.89-4.55,8.78a1.64,1.64,0,0,0,.91-.3l4.94-3c2-1.38,3.19-4.2,3.19-8.11V158.36C455.12,150.75,450.49,141.92,444.79,138.62Z" fill="url(#linear-gradient-9)"/>
              <path id="Trazado_164845" data-name="Trazado 164845" d="M444.7,138.68l-166-95.74c-2.26-1.3-4.35-1.54-6.05-.89-.21.09-4.57,2.59-4.77,2.71h0c1.77-.85,4-.69,6.43.71l166,95.74c5.7,3.3,10.33,12.13,10.33,19.74v131.1c0,4.74-1.81,7.89-4.55,8.78a1.64,1.64,0,0,0,.91-.3c.13-.08,4.73-2.82,4.86-2.91,2-1.37,3.18-4.19,3.18-8.1V158.42C455,150.81,450.41,142,444.7,138.68Z" fill="url(#linear-gradient-10)"/>
              <path id="Trazado_164846" data-name="Trazado 164846" d="M444.62,138.74,278.59,43c-2.26-1.3-4.34-1.54-6-.89-.22.09-4.49,2.53-4.69,2.65h0c1.77-.85,4-.69,6.43.71l166,95.74c5.7,3.3,10.33,12.13,10.33,19.74v131.1c0,4.74-1.81,7.89-4.55,8.78a1.64,1.64,0,0,0,.91-.3c.13-.08,4.65-2.76,4.77-2.85,2-1.37,3.18-4.2,3.18-8.11V158.47C454.94,150.87,450.32,142,444.62,138.74Z" fill="url(#linear-gradient-11)"/>
              <path id="Trazado_164847" data-name="Trazado 164847" d="M444.53,138.8l-166-95.74c-2.25-1.31-4.34-1.55-6-.89-.22.08-4.4,2.47-4.6,2.59h0c1.77-.85,4-.69,6.43.71l166,95.74c5.7,3.3,10.33,12.13,10.33,19.74v131.1c0,4.74-1.81,7.89-4.55,8.78a1.64,1.64,0,0,0,.91-.3c.13-.08,4.56-2.7,4.68-2.79,2-1.38,3.19-4.2,3.19-8.11V158.53C454.86,150.92,450.23,142.09,444.53,138.8Z" fill="url(#linear-gradient-12)"/>
              <path id="Trazado_164848" data-name="Trazado 164848" d="M444.44,138.85l-166-95.74c-2.26-1.3-4.35-1.54-6.05-.88-.21.08-4.31,2.41-4.51,2.53h0c1.77-.85,4-.69,6.43.71l166,95.74c5.7,3.3,10.33,12.13,10.33,19.74v131.1c0,4.74-1.81,7.89-4.55,8.78a1.64,1.64,0,0,0,.91-.3l4.6-2.73c2-1.38,3.18-4.2,3.18-8.11V158.59C454.77,151,450.15,142.15,444.44,138.85Z" fill="url(#linear-gradient-13)"/>
              <path id="Trazado_164849" data-name="Trazado 164849" d="M444.36,138.91l-166-95.74c-2.26-1.3-4.34-1.54-6-.89-.22.09-4.23,2.36-4.43,2.48h0c1.77-.85,4-.69,6.43.71l166,95.74c5.7,3.3,10.33,12.13,10.33,19.74v131.1c0,4.74-1.81,7.89-4.55,8.78a1.64,1.64,0,0,0,.91-.3c.13-.08,4.39-2.59,4.51-2.68,2-1.37,3.18-4.19,3.18-8.1V158.65C454.68,151,450.06,142.2,444.36,138.91Z" fill="url(#linear-gradient-14)"/>
              <path id="Trazado_164850" data-name="Trazado 164850" d="M444.27,139l-166-95.74c-2.25-1.3-4.34-1.54-6-.89-.22.09-4.14,2.3-4.34,2.42h0c1.77-.85,4-.69,6.43.71l166,95.74c5.7,3.3,10.33,12.13,10.33,19.74v131.1c0,4.74-1.81,7.89-4.55,8.78a1.64,1.64,0,0,0,.91-.3c.13-.08,4.3-2.53,4.42-2.62,2-1.37,3.19-4.2,3.19-8.11V158.7C454.6,151.1,450,142.26,444.27,139Z" fill="url(#linear-gradient-15)"/>
              <path id="Trazado_164851" data-name="Trazado 164851" d="M444.18,139l-166-95.74c-2.26-1.31-4.35-1.55-6.05-.89-.21.08-4.05,2.24-4.25,2.36h0c1.77-.85,4-.69,6.43.71l166,95.74c5.7,3.3,10.33,12.13,10.33,19.74v131.1c0,4.74-1.81,7.89-4.55,8.78a1.64,1.64,0,0,0,.91-.3c.13-.08,4.21-2.47,4.34-2.56,2-1.38,3.18-4.2,3.18-8.11V158.76C454.51,151.15,449.89,142.32,444.18,139Z" fill="url(#linear-gradient-16)"/>
              <path id="Trazado_164852" data-name="Trazado 164852" d="M444.09,139.08l-166-95.74c-2.26-1.3-4.35-1.54-6-.88-.22.08-4,2.18-4.17,2.3h0c1.77-.85,4-.69,6.43.71l166,95.74c5.7,3.3,10.33,12.13,10.33,19.74v131.1c0,4.74-1.81,7.89-4.55,8.78a1.64,1.64,0,0,0,.91-.3l4.25-2.5c2-1.38,3.18-4.2,3.18-8.11V158.82C454.42,151.21,449.8,142.38,444.09,139.08Z" fill="url(#linear-gradient-17)"/>
              <path id="Trazado_164853" data-name="Trazado 164853" d="M444,139.14,278,43.4c-2.25-1.3-4.34-1.54-6-.89-.22.09-3.88,2.13-4.08,2.25h0c1.77-.85,4-.69,6.43.71l166,95.74c5.7,3.3,10.33,12.13,10.33,19.74v131.1c0,4.74-1.81,7.89-4.55,8.78a1.64,1.64,0,0,0,.91-.3c.13-.08,4-2.36,4.16-2.45,2-1.37,3.19-4.19,3.19-8.1V158.87C454.34,151.27,449.71,142.43,444,139.14Z" fill="url(#linear-gradient-18)"/>
              <path id="Trazado_164854" data-name="Trazado 164854" d="M443.92,139.2l-166-95.74c-2.25-1.3-4.34-1.55-6-.89-.21.08-3.79,2.07-4,2.19h0c1.77-.85,4-.69,6.43.71l166,95.74c5.7,3.3,10.33,12.13,10.33,19.74v131.1c0,4.74-1.81,7.89-4.55,8.78a1.64,1.64,0,0,0,.91-.3c.13-.08,3.95-2.3,4.07-2.39,2-1.37,3.19-4.2,3.19-8.11V158.93C454.25,151.33,449.62,142.49,443.92,139.2Z" fill="url(#linear-gradient-19)"/>
              <path id="Trazado_164855" data-name="Trazado 164855" d="M443.83,139.26l-166-95.74c-2.26-1.31-4.35-1.55-6.05-.89-.21.08-3.7,2-3.9,2.13h0c1.77-.85,4-.69,6.43.71l166,95.74c5.7,3.3,10.33,12.13,10.33,19.74v131.1c0,4.74-1.81,7.89-4.55,8.78a1.64,1.64,0,0,0,.91-.3c.13-.08,3.86-2.24,4-2.33,2-1.38,3.18-4.2,3.18-8.11V159C454.16,151.38,449.54,142.55,443.83,139.26Z" fill="url(#linear-gradient-20)"/>
              <path id="Trazado_164856" data-name="Trazado 164856" d="M443.75,139.31l-166-95.74c-2.26-1.3-4.34-1.54-6-.88-.22.08-3.62,2-3.82,2.07h0c1.77-.85,4-.69,6.43.71l166,95.74c5.7,3.3,10.33,12.13,10.33,19.74v131.1c0,4.74-1.81,7.89-4.55,8.78a1.64,1.64,0,0,0,.91-.3c.13-.08,3.78-2.19,3.9-2.27,2-1.38,3.18-4.2,3.18-8.11V159.05C454.07,151.44,449.45,142.61,443.75,139.31Z" fill="url(#linear-gradient-21)"/>
              <path id="Trazado_164857" data-name="Trazado 164857" d="M443.66,139.37l-166-95.74c-2.25-1.3-4.34-1.54-6-.89-.22.09-3.53,1.9-3.73,2h0c1.77-.85,4-.69,6.43.71l166,95.74c5.7,3.3,10.33,12.13,10.33,19.74v131.1c0,4.74-1.81,7.89-4.55,8.78a1.64,1.64,0,0,0,.91-.3c.13-.08,3.69-2.13,3.81-2.22,2-1.37,3.19-4.19,3.19-8.1V159.1C454,151.5,449.36,142.66,443.66,139.37Z" fill="url(#linear-gradient-22)"/>
              <path id="Trazado_164858" data-name="Trazado 164858" d="M443.57,139.43l-166-95.74c-2.26-1.31-4.35-1.55-6.05-.89-.21.08-3.44,1.84-3.64,2h0c1.77-.85,4-.69,6.43.71l166,95.74c5.7,3.3,10.33,12.13,10.33,19.74v131.1c0,4.74-1.81,7.89-4.55,8.78a1.64,1.64,0,0,0,.91-.3c.13-.08,3.6-2.07,3.73-2.16,2-1.37,3.18-4.2,3.18-8.11V159.16C453.9,151.56,449.28,142.72,443.57,139.43Z" fill="url(#linear-gradient-23)"/>
              <path id="Trazado_164859" data-name="Trazado 164859" d="M443.49,139.48l-166-95.74c-2.26-1.3-4.34-1.54-6-.88-.22.08-3.36,1.78-3.56,1.9h0c1.77-.85,4-.69,6.43.71l166,95.74c5.7,3.3,10.33,12.13,10.33,19.74v131.1c0,4.74-1.81,7.89-4.55,8.78a1.64,1.64,0,0,0,.91-.3c.13-.08,3.52-2,3.64-2.1,2-1.38,3.18-4.2,3.18-8.11V159.22C453.81,151.61,449.19,142.78,443.49,139.48Z" fill="url(#linear-gradient-24)"/>
              <path id="Trazado_164860" data-name="Trazado 164860" d="M443.4,139.54,277.4,43.8c-2.25-1.3-4.34-1.54-6-.88-.22.08-3.27,1.72-3.47,1.84h0c1.77-.85,4-.69,6.43.71l166,95.74c5.7,3.3,10.33,12.13,10.33,19.74v131.1c0,4.74-1.81,7.89-4.55,8.78a1.64,1.64,0,0,0,.91-.3c.13-.08,3.43-2,3.55-2,2-1.37,3.19-4.19,3.19-8.1V159.28C453.73,151.67,449.1,142.84,443.4,139.54Z" fill="url(#linear-gradient-25)"/>
              <path id="Trazado_164861" data-name="Trazado 164861" d="M443.31,139.6l-166-95.74c-2.26-1.3-4.35-1.54-6.05-.89-.21.09-3.18,1.67-3.38,1.79h0c1.77-.85,4-.69,6.43.71l166,95.74c5.7,3.3,10.33,12.13,10.33,19.74v131.1c0,4.74-1.81,7.89-4.55,8.78a1.64,1.64,0,0,0,.91-.3c.13-.08,3.34-1.9,3.47-2,2-1.37,3.18-4.2,3.18-8.1V159.33C453.64,151.73,449,142.89,443.31,139.6Z" fill="url(#linear-gradient-26)"/>
              <path id="Trazado_164862" data-name="Trazado 164862" d="M443.22,139.66l-166-95.74c-2.26-1.31-4.35-1.55-6-.89-.22.08-3.1,1.61-3.3,1.73h0c1.77-.85,4-.69,6.43.71l166,95.74c5.7,3.3,10.33,12.13,10.33,19.74v131.1c0,4.74-1.81,7.89-4.55,8.78a1.64,1.64,0,0,0,.91-.3c.13-.08,3.25-1.84,3.38-1.93,2-1.37,3.18-4.2,3.18-8.11V159.39C453.55,151.79,448.93,143,443.22,139.66Z" fill="url(#linear-gradient-27)"/>
            </g>
            <path id="Trazado_164863" data-name="Trazado 164863" d="M440.79,141l-166-95.74c-2.34-1.35-4.49-1.54-6.22-.79a7.63,7.63,0,0,1,5,1.17l166,95.74c5.71,3.29,10.33,12.12,10.33,19.73v131.1c0,4.49-1.61,7.53-4.11,8.61,3.19-.51,5.35-3.78,5.35-9V160.7C451.12,153.09,446.5,144.26,440.79,141Z" fill="#fff"/>
          </g>
        </g>
        <path id="Trazado_164864" data-name="Trazado 164864" d="M291.7,194.05a.56.56,0,0,1-.27-.08l-2.85-1.64a.568.568,0,0,1,.54-1L292,193a.55.55,0,0,1-.28,1Zm-5.7-3.29a.55.55,0,0,1-.28-.07l-2.85-1.64a.56.56,0,0,1-.2-.76.55.55,0,0,1,.75-.2l2.85,1.64a.56.56,0,0,1,.2.76.55.55,0,0,1-.47.27Zm-5.71-3.28a.53.53,0,0,1-.27-.08l-2.86-1.64a.55.55,0,0,1,.55-.95l2.85,1.64a.55.55,0,0,1,.21.75.56.56,0,0,1-.48.28Zm-5.71-3.29a.52.52,0,0,1-.27-.07l-2.86-1.64a.56.56,0,0,1-.2-.76.55.55,0,0,1,.75-.2l2.86,1.65a.55.55,0,0,1,.2.75.56.56,0,0,1-.48.27Zm-5.7-3.28a.57.57,0,0,1-.28-.08l-2.85-1.64a.55.55,0,0,1-.21-.75.56.56,0,0,1,.76-.2l2.85,1.64a.55.55,0,0,1,.2.75.53.53,0,0,1-.47.28Zm-5.71-3.29a.55.55,0,0,1-.28-.07L260,175.91a.56.56,0,0,1-.2-.75.55.55,0,0,1,.75-.21l2.85,1.65a.53.53,0,0,1,.2.75.55.55,0,0,1-.43.27Zm-5.71-3.28a.53.53,0,0,1-.27-.08l-2.86-1.64a.571.571,0,1,1,.55-1l2.85,1.64a.55.55,0,0,1,.21.75.56.56,0,0,1-.48.33Zm-5.71-3.29a.52.52,0,0,1-.27-.07l-2.85-1.64a.568.568,0,0,1,.54-1L252,170a.55.55,0,0,1,.2.75.56.56,0,0,1-.45.3Z" opacity="0.95" fill="url(#linear-gradient-28)"/>
        <g id="Grupo_89147" data-name="Grupo 89147">
          <ellipse id="Elipse_7452" data-name="Elipse 7452" cx="12.51" cy="21.66" rx="12.51" ry="21.66" transform="translate(210.03 144.752) rotate(-30.31)" fill="#fff"/>
          <path id="Trazado_164865" data-name="Trazado 164865" d="M238.66,177.42a14.48,14.48,0,0,1-7.17-2.19c-8.63-5-15.64-17.08-15.64-27,0-6.93,3.54-11.42,9-11.42A14.51,14.51,0,0,1,232,139c8.62,5,15.64,17.08,15.64,27C247.68,172.94,244.14,177.42,238.66,177.42Zm-13.79-39.49c-4.89,0-7.92,4-7.92,10.32,0,9.55,6.77,21.23,15.09,26a13.43,13.43,0,0,0,6.62,2c4.88,0,7.92-4,7.92-10.32,0-9.55-6.77-21.23-15.09-26a13.43,13.43,0,0,0-6.62-2Z" fill="#039be5"/>
        </g>
        <path id="Trazado_164866" data-name="Trazado 164866" d="M464.2,128.67l6.86,15.85,13.86-14.55-5.41-4.57-7.45,12.55-3.51-8.44Z" fill="#1565b2" opacity="0.95"/>
        <g id="Grupo_89151" data-name="Grupo 89151">
          <g id="Grupo_89148" data-name="Grupo 89148">
            <path id="Trazado_164867" data-name="Trazado 164867" d="M327.35,173.3l-48.79-28.4v-4.39l48.79,28.4Z" fill="#104c82"/>
            <path id="Trazado_164868" data-name="Trazado 164868" d="M327.35,179.83l-48.79-28.4v-2.4l48.79,28.4Z" fill="#104c82"/>
          </g>
          <path id="Trazado_164869" data-name="Trazado 164869" d="M327.35,164.29l-48.79-28.4V111.92l48.79,28.4Z" fill="#104c82"/>
          <g id="Grupo_89149" data-name="Grupo 89149">
            <path id="Trazado_164870" data-name="Trazado 164870" d="M381.66,205.37l-48.78-28.41v-4.39l48.78,28.4Z" fill="#104c82"/>
            <path id="Trazado_164871" data-name="Trazado 164871" d="M381.66,211.89l-48.78-28.4v-2.4l48.78,28.4Z" fill="#104c82"/>
          </g>
          <path id="Trazado_164872" data-name="Trazado 164872" d="M381.66,196.35l-48.78-28.4V143.99l48.78,28.4Z" fill="#104c82"/>
          <g id="Grupo_89150" data-name="Grupo 89150">
            <path id="Trazado_164873" data-name="Trazado 164873" d="M436.36,236.8l-48.79-28.4v-4.39l48.79,28.4Z" fill="#104c82"/>
            <path id="Trazado_164874" data-name="Trazado 164874" d="M436.36,243.33l-48.79-28.4v-2.4l48.79,28.4Z" fill="#104c82"/>
          </g>
          <path id="Trazado_164875" data-name="Trazado 164875" d="M436.36,227.79l-48.79-28.4V175.42l48.79,28.4Z" fill="#104c82"/>
          <path id="Trazado_164876" data-name="Trazado 164876" d="M436.24,197.34,278.53,106.89V65.17l157.71,90.46Z" opacity="0.95" fill="url(#linear-gradient-29)"/>
          <path id="Trazado_164877" data-name="Trazado 164877" d="M398.56,154.05,278.72,85.18V73.52l119.84,68.87Z" fill="url(#linear-gradient-30)"/>
          <path id="Trazado_164878" data-name="Trazado 164878" d="M393.89,165.47l-83.84-48.21v-4.41l83.84,48.2Z" fill="#1565b2" opacity="0.95"/>
        </g>
        <g id="Grupo_89153" data-name="Grupo 89153">
          <path id="Trazado_164879" data-name="Trazado 164879" d="M482.66,272.64l-124.14-78c-3.09-1.78-5.6-6.58-5.6-10.7l-4.32,1.7c0-44.23,40.82-60.56,74-41.41l7,4.1c33.18,19.16,62.88,72,62.88,116.21h0c0,2.35-.81,4-2.08,4.61C489.48,269.65,484,273.41,482.66,272.64Z" fill="url(#linear-gradient-31)"/>
          <path id="Trazado_164880" data-name="Trazado 164880" d="M481.14,272,352.73,197.88c-3.09-1.79-5.6-6.58-5.6-10.71h0c0-44.23,36.5-58.86,69.68-39.7l7.05,4.1c33.18,19.16,62.88,72,62.88,116.21h0C486.74,271.91,484.23,273.8,481.14,272Z" fill="url(#linear-gradient-32)"/>
          <path id="Trazado_164881" data-name="Trazado 164881" d="M424,151.18l-7.05-4.1c-19-11-39.11-10.84-52.81-.41,13.66-9.67,33.24-9.52,51.78,1.18l7,4.11c33.18,19.15,62.88,72,62.88,116.21h0a5.87,5.87,0,0,1-1.17,3.88c1.34-.6,2.2-2.24,2.2-4.66h0C486.87,223.15,457.17,170.34,424,151.18Z" fill="url(#radial-gradient)"/>
          <path id="Trazado_164882" data-name="Trazado 164882" d="M357.71,192.45a7.86,7.86,0,0,1-3.59-6.5c2-36.67,29.36-50.84,62.82-31.52s60.82,65.08,62.81,104.05c.13,2.47-1.5,3.57-3.59,2.36Z" fill="url(#linear-gradient-33)"/>
          <g id="Grupo_89152" data-name="Grupo 89152">
            <path id="Trazado_164883" data-name="Trazado 164883" d="M443.55,220.52l17.78-4c-9.81-21.69-26-41.53-44.39-52.13-27.76-16-50.64-5.3-53.85,23.7l22,12.67c3-15.31,16.15-20.56,31.9-11.47C427.94,195.65,437.66,207.53,443.55,220.52Z" fill="url(#linear-gradient-34)"/>
            <path id="Trazado_164884" data-name="Trazado 164884" d="M444.53,222.77a66.889,66.889,0,0,1,4.31,14.82l22,12.68a106.64,106.64,0,0,0-7.84-30Z" fill="url(#linear-gradient-35)"/>
          </g>
          <ellipse id="Elipse_7453" data-name="Elipse 7453" cx="14.52" cy="25.16" rx="14.52" ry="25.16" transform="translate(391.711 212.114) rotate(-30.31)" fill="url(#linear-gradient-36)"/>
          <path id="Trazado_164885" data-name="Trazado 164885" d="M437.71,219c-5.81-11.23-14.22-20.61-23.09-25.73-4.36-2.52-8.61-3.86-12.29-3.86-6.67,0-11.2,4.34-12.75,12.21L388.33,208l-30.18-17.43.33-3c2.42-21.75,15.49-35.27,34.12-35.27,8.41,0,17.38,2.72,26.65,8.07,15.58,9,30.63,25.16,41.29,44.33Z" opacity="0.5" fill="url(#radial-gradient-2)"/>
          <ellipse id="Elipse_7454" data-name="Elipse 7454" cx="12.36" cy="21.42" rx="12.36" ry="21.42" transform="translate(396.495 213.832) rotate(-30.31)" fill="url(#linear-gradient-37)"/>
          <path id="Trazado_164886" data-name="Trazado 164886" d="M409.09,215.17l51.57-10.84-35.89,36.71Z" fill="url(#linear-gradient-38)"/>
          <path id="Trazado_164887" data-name="Trazado 164887" d="M409.09,215.17l51.57-10.84-44.63,24.33Z" fill="url(#linear-gradient-39)"/>
          <ellipse id="Elipse_7455" data-name="Elipse 7455" cx="12.36" cy="21.42" rx="12.36" ry="21.42" transform="translate(395.774 214.191) rotate(-30.31)" fill="url(#linear-gradient-40)"/>
          <ellipse id="Elipse_7456" data-name="Elipse 7456" cx="12.36" cy="21.42" rx="12.36" ry="21.42" transform="translate(395.463 214.263) rotate(-30.31)" fill="url(#linear-gradient-41)"/>
          <path id="Trazado_164888" data-name="Trazado 164888" d="M416.94,209.08c-3.75-2.17-7.18-2.58-9.83-1.52,2.56-.79,5.76-.3,9.25,1.71,8.39,4.84,15.19,16.57,15.19,26.2,0,5.33-2.09,8.88-5.36,10.18,3.6-1.1,5.94-4.74,5.94-10.37C432.13,225.65,425.33,213.92,416.94,209.08Z" fill="url(#radial-gradient-3)"/>
          <path id="Trazado_164889" data-name="Trazado 164889" d="M425.62,231.52c0,5.5-3.89,7.72-8.68,4.95s-8.68-9.47-8.68-15,3.88-7.72,8.68-4.95S425.62,226,425.62,231.52Z" fill="url(#linear-gradient-42)"/>
        </g>
        <g id="Grupo_89154" data-name="Grupo 89154">
          <path id="Trazado_164890" data-name="Trazado 164890" d="M416.29,269.34l-119.54-69a7.3,7.3,0,0,1-3-5.82h0c0-2.24,1.36-3.27,3-2.3l119.54,69a7.3,7.3,0,0,1,3,5.82h0C419.33,269.28,418,270.31,416.29,269.34Z" fill="#e5e9ff"/>
          <path id="Trazado_164891" data-name="Trazado 164891" d="M297.25,199.5a5.69,5.69,0,0,1-2.6-4.47c0-1.65,1.16-2.31,2.6-1.48L415.79,262a5.72,5.72,0,0,1,2.6,4.48c0,1.64-1.16,2.31-2.6,1.48Z" fill="#104c82"/>
          <path id="Trazado_164892" data-name="Trazado 164892" d="M390,247l-92.74-53.46c-1.44-.83-2.6-.17-2.6,1.48a5.69,5.69,0,0,0,2.6,4.47L390,253Z" fill="#36dac9"/>
        </g>
        <g id="Grupo_89155" data-name="Grupo 89155">
          <path id="Trazado_164893" data-name="Trazado 164893" d="M324.56,186.76l2.34,1.35v14.66l3.86,2.23v2.44l-6.2-3.57Z" fill="#91e6dd"/>
          <path id="Trazado_164894" data-name="Trazado 164894" d="M332.55,207.6a7.45,7.45,0,0,1-.92-3.71v-9c0-1.37.3-2.25.92-2.65s1.49-.26,2.64.4a6.93,6.93,0,0,1,2.64,2.65,7.53,7.53,0,0,1,.91,3.71v9c0,1.37-.3,2.25-.91,2.64s-1.49.27-2.64-.4a6.83,6.83,0,0,1-2.64-2.64Zm3.85-.78v-9.34a2.56,2.56,0,0,0-1.21-2.39c-.81-.46-1.22-.13-1.22,1v9.33a2.53,2.53,0,0,0,1.22,2.39C336,208.27,336.4,207.94,336.4,206.82Z" fill="#91e6dd"/>
          <path id="Trazado_164895" data-name="Trazado 164895" d="M342.08,196.88l3.18,1.83,2.43,18.51-2.35-1.36-.42-3.64v.05l-2.66-1.54-.43,3.11-2.17-1.26Zm2.56,12.91-1-9.06h-.05l-1,7.86Z" fill="#91e6dd"/>
          <path id="Trazado_164896" data-name="Trazado 164896" d="M348.81,200.76l3.58,2.07a6.73,6.73,0,0,1,2.62,2.59,7.44,7.44,0,0,1,.87,3.65v8.65c0,1.39-.29,2.27-.87,2.65s-1.46.24-2.62-.44l-3.58-2.06Zm3.54,16.71c.38.22.68.26.88.11s.31-.5.31-1.09V207.6a3,3,0,0,0-.31-1.45,2.24,2.24,0,0,0-.88-.9l-1.19-.69v12.22Z" fill="#91e6dd"/>
          <path id="Trazado_164897" data-name="Trazado 164897" d="M357.46,205.75l2.34,1.36v17.1l-2.34-1.35Z" fill="#91e6dd"/>
          <path id="Trazado_164898" data-name="Trazado 164898" d="M361.55,208.12l2.93,1.69,2.28,11.56h.05V211.15l2.08,1.21v17.1l-2.4-1.39L363.68,214h-.05v12.48l-2.08-1.2Z" fill="#91e6dd"/>
          <path id="Trazado_164899" data-name="Trazado 164899" d="M371.36,230a7.65,7.65,0,0,1-.89-3.71v-9c0-1.38.3-2.27.89-2.67s1.46-.27,2.6.39a6.66,6.66,0,0,1,2.6,2.61,7.64,7.64,0,0,1,.89,3.7v1.47l-2.21-1.28v-1.63a2.53,2.53,0,0,0-1.22-2.39c-.8-.47-1.21-.14-1.21,1v9.36a2.51,2.51,0,0,0,1.21,2.36c.81.47,1.22.15,1.22-1v-3.34l-1.17-.68V222.8l3.38,1.95v5.6c0,1.38-.3,2.27-.89,2.67s-1.46.27-2.6-.39a6.79,6.79,0,0,1-2.6-2.63Z" fill="#91e6dd"/>
          <path id="Trazado_164900" data-name="Trazado 164900" d="M379,232.69l2.26,1.3v2.59l-2.26-1.3Z" fill="#91e6dd"/>
          <path id="Trazado_164901" data-name="Trazado 164901" d="M383,235l2.25,1.3v2.59l-2.25-1.3Z" fill="#91e6dd"/>
          <path id="Trazado_164902" data-name="Trazado 164902" d="M387,237.31l2.26,1.3v2.59L387,239.9Z" fill="#91e6dd"/>
        </g>
        <path id="Trazado_164903" data-name="Trazado 164903" d="M231.76,144.69c-6-3.45-10.84-.68-10.84,6.18s4.87,15.24,10.84,18.69,10.84.68,10.84-6.18S237.74,148.14,231.76,144.69Zm0,23c-5.09-2.94-9.23-10.08-9.23-15.93s4.14-8.2,9.23-5.26S241,156.61,241,162.46s-4.15,8.2-9.24,5.26Zm.81-10.61V148.3a1.77,1.77,0,0,0-.81-1.38.5.5,0,0,0-.8.46v9a2.53,2.53,0,0,0,.35,1.19l3.45,6a1.69,1.69,0,0,0,.57.61.57.57,0,0,0,.57.06c.31-.18.32-.76,0-1.3Zm-.81,7.6c-.37-.22-.67-.05-.67.38a1.47,1.47,0,0,0,.67,1.15.413.413,0,0,0,.67-.38,1.47,1.47,0,0,0-.67-1.12Zm7.36-4.2a.415.415,0,0,0-.67.38,1.49,1.49,0,0,0,.67,1.16.415.415,0,0,0,.67-.38,1.47,1.47,0,0,0-.67-1.13ZM224.4,152a.415.415,0,0,0-.67.38,1.49,1.49,0,0,0,.67,1.16.415.415,0,0,0,.67-.38,1.49,1.49,0,0,0-.67-1.16Z" fill="#039be5"/>
      </g>
    </g>
  </g>
</svg>
