<svg xmlns="http://www.w3.org/2000/svg" xmlns:xlink="http://www.w3.org/1999/xlink" width="604" height="550" viewBox="0 0 604 550">
  <defs>
    <clipPath id="clip-path">
      <ellipse id="Elipse_7423" data-name="Elipse 7423" cx="30.21" cy="17.44" rx="30.21" ry="17.44" transform="translate(76.053 392.674) rotate(-0.36)" fill="none"/>
    </clipPath>
  </defs>
  <g id="Grupo_90667" data-name="Grupo 90667" transform="translate(-810 -4529)">
    <g id="Capa_1" data-name="Capa 1" transform="translate(810 4529)">
      <g id="Grupo_88138" data-name="Grupo 88138">
        <path id="Trazado_162368" data-name="Trazado 162368" d="M571,146.32,328.67,5.07C322.29,1.34,308,5.62,308,16l6.29,227.26L567,397.66c4.73,2.89,11.12.31,12.1-5.14a12.372,12.372,0,0,0,.21-2.3V160.69A16.64,16.64,0,0,0,571,146.32Z" fill="#396caa"/>
        <path id="Trazado_162369" data-name="Trazado 162369" d="M564.57,150.15,322.32,9a9.58,9.58,0,0,0-14.4,8.28V244.45a4.66,4.66,0,0,0,2.3,4L566,397.51a4.64,4.64,0,0,0,7-4V164.73a16.87,16.87,0,0,0-8.43-14.58Z" fill="#173d7a"/>
        <path id="Trazado_162370" data-name="Trazado 162370" d="M320.5,239.84l135.08,78.74,12.6,7.35,92.18,53.75V163.33L320.5,23.48Z" fill="#104c82"/>
        <path id="Trazado_162371" data-name="Trazado 162371" d="M142.92,362c-2.63,1.52-2.65,4,0,5.49L398,515.73a10.44,10.44,0,0,0,9.49,0l163-94.11c2.63-1.52,2.64-4,0-5.5L315.41,267.87a10.42,10.42,0,0,0-9.48,0Z" fill="#c4dbf2"/>
        <path id="Trazado_162372" data-name="Trazado 162372" d="M571.8,402.06a3.32,3.32,0,0,1-2,2.76l-163,94.12a10.45,10.45,0,0,1-9.49,0L142.22,350.69h0a3.33,3.33,0,0,1-1.95-2.73v9a3.36,3.36,0,0,0,2,2.72h0L397.35,508a10.42,10.42,0,0,0,9.48,0l163-94.11a3.38,3.38,0,0,0,2-2.77Z" fill="#396caa"/>
        <path id="Trazado_162373" data-name="Trazado 162373" d="M142.25,345.19c-2.63,1.52-2.64,4,0,5.5l255.1,148.25a10.45,10.45,0,0,0,9.49,0l163-94.12c2.63-1.51,2.65-4,0-5.49L314.75,251.08a10.42,10.42,0,0,0-9.48,0Z" fill="#f5f9fc"/>
        <g id="Grupo_88137" data-name="Grupo 88137">
          <path id="Trazado_162374" data-name="Trazado 162374" d="M300.53,273.41l14.19,8.24,14.27-8.23-14.19-8.25Z" fill="#b3ccea"/>
          <path id="Trazado_162375" data-name="Trazado 162375" d="M318.34,283.76,332.53,292l14.27-8.23-14.19-8.25Z" fill="#b3ccea"/>
          <path id="Trazado_162376" data-name="Trazado 162376" d="M336.15,294.11l14.19,8.25,14.27-8.24-14.19-8.25Z" fill="#b3ccea"/>
          <path id="Trazado_162377" data-name="Trazado 162377" d="M353.98,304.47l14.17,8.24,14.27-8.24-14.17-8.24Z" fill="#b3ccea"/>
          <path id="Trazado_162378" data-name="Trazado 162378" d="M371.79,314.82l14.18,8.24,14.27-8.24-14.18-8.24Z" fill="#b3ccea"/>
          <path id="Trazado_162379" data-name="Trazado 162379" d="M389.6,325.17l14.19,8.25,14.27-8.24-14.19-8.25Z" fill="#b3ccea"/>
          <path id="Trazado_162380" data-name="Trazado 162380" d="M407.42,335.52l14.18,8.25,14.27-8.24-14.19-8.24Z" fill="#b3ccea"/>
          <path id="Trazado_162381" data-name="Trazado 162381" d="M425.23,345.88l14.19,8.24,14.27-8.24-14.19-8.24Z" fill="#b3ccea"/>
          <path id="Trazado_162382" data-name="Trazado 162382" d="M443.04,356.23l14.19,8.24,14.27-8.23-14.19-8.25Z" fill="#b3ccea"/>
          <path id="Trazado_162383" data-name="Trazado 162383" d="M460.87,366.59l14.17,8.23,14.27-8.23-14.18-8.24Z" fill="#b3ccea"/>
          <path id="Trazado_162384" data-name="Trazado 162384" d="M478.68,376.94l14.17,8.24,14.27-8.24-14.17-8.24Z" fill="#b3ccea"/>
          <path id="Trazado_162385" data-name="Trazado 162385" d="M496.49,387.29l14.18,8.24,14.27-8.24-14.18-8.24Z" fill="#b3ccea"/>
          <path id="Trazado_162386" data-name="Trazado 162386" d="M514.3,397.64l14.19,8.25,14.27-8.24-14.19-8.25Z" fill="#b3ccea"/>
          <path id="Trazado_162387" data-name="Trazado 162387" d="M283.49,284.17l28.87,16.77,14.27-8.24-28.87-16.77Z" fill="#b3ccea"/>
          <path id="Trazado_162388" data-name="Trazado 162388" d="M315.58,302.81l14.19,8.25,14.27-8.24-14.19-8.25Z" fill="#b3ccea"/>
          <path id="Trazado_162389" data-name="Trazado 162389" d="M332.57,312.69l14.19,8.24,14.27-8.24-14.19-8.24Z" fill="#b3ccea"/>
          <path id="Trazado_162390" data-name="Trazado 162390" d="M349.56,322.56l14.19,8.25,14.27-8.24-14.19-8.25Z" fill="#b3ccea"/>
          <path id="Trazado_162391" data-name="Trazado 162391" d="M366.57,332.44l14.18,8.24,14.26-8.24-14.17-8.24Z" fill="#b3ccea"/>
          <path id="Trazado_162392" data-name="Trazado 162392" d="M383.56,342.32l14.18,8.24,14.27-8.24-14.18-8.24Z" fill="#b3ccea"/>
          <path id="Trazado_162393" data-name="Trazado 162393" d="M400.55,352.19l14.18,8.24L429,352.19l-14.18-8.24Z" fill="#b3ccea"/>
          <path id="Trazado_162394" data-name="Trazado 162394" d="M417.55,362.07l14.18,8.24L446,362.08l-14.19-8.25Z" fill="#b3ccea"/>
          <path id="Trazado_162395" data-name="Trazado 162395" d="M434.54,371.94l14.19,8.25L463,371.95l-14.19-8.25Z" fill="#b3ccea"/>
          <path id="Trazado_162396" data-name="Trazado 162396" d="M451.53,381.82l14.19,8.24,14.27-8.24-14.19-8.24Z" fill="#b3ccea"/>
          <path id="Trazado_162397" data-name="Trazado 162397" d="M468.52,391.69l14.19,8.25,14.27-8.24-14.19-8.25Z" fill="#b3ccea"/>
          <path id="Trazado_162398" data-name="Trazado 162398" d="M485.69,401.67l25.04,14.55L525,407.99l-25.04-14.56Z" fill="#b3ccea"/>
          <path id="Trazado_162399" data-name="Trazado 162399" d="M265.65,294.47l35.96,20.89,14.28-8.24-35.96-20.9Z" fill="#b3ccea"/>
          <path id="Trazado_162400" data-name="Trazado 162400" d="M304.82,317.23l14.19,8.25,14.29-8.25-14.19-8.24Z" fill="#b3ccea"/>
          <path id="Trazado_162401" data-name="Trazado 162401" d="M321.58,326.97l14.18,8.24,14.28-8.25-14.17-8.23Z" fill="#b3ccea"/>
          <path id="Trazado_162402" data-name="Trazado 162402" d="M338.33,336.7l14.18,8.24,14.28-8.24-14.18-8.24Z" fill="#b3ccea"/>
          <path id="Trazado_162403" data-name="Trazado 162403" d="M355.08,346.44l14.18,8.24,14.28-8.25-14.18-8.24Z" fill="#b3ccea"/>
          <path id="Trazado_162404" data-name="Trazado 162404" d="M371.83,356.17,386,364.41l14.29-8.25-14.18-8.23Z" fill="#b3ccea"/>
          <path id="Trazado_162405" data-name="Trazado 162405" d="M388.57,365.9l14.18,8.24,14.28-8.24-14.17-8.24Z" fill="#b3ccea"/>
          <path id="Trazado_162406" data-name="Trazado 162406" d="M405.32,375.64l14.18,8.23,14.28-8.24-14.17-8.24Z" fill="#b3ccea"/>
          <path id="Trazado_162407" data-name="Trazado 162407" d="M422.07,385.37l14.19,8.24,14.28-8.24-14.19-8.25Z" fill="#b3ccea"/>
          <path id="Trazado_162408" data-name="Trazado 162408" d="M438.82,395.1,453,403.35l14.29-8.25-14.19-8.24Z" fill="#b3ccea"/>
          <path id="Trazado_162409" data-name="Trazado 162409" d="M456.74,405.52l36.15,21,14.28-8.24-36.15-21.01Z" fill="#b3ccea"/>
          <path id="Trazado_162410" data-name="Trazado 162410" d="M229.99,315.06l17.98,10.45,18.1-10.45,8.14,4.73,14.02-8.09L262.1,296.51Z" fill="#b3ccea"/>
          <path id="Trazado_162411" data-name="Trazado 162411" d="M277.2,321.84l14.18,8.23,14.28-8.24-14.18-8.24Z" fill="#b3ccea"/>
          <path id="Trazado_162412" data-name="Trazado 162412" d="M251.53,327.58l14.19,8.24L280,327.58l-14.18-8.25Z" fill="#b3ccea"/>
          <path id="Trazado_162413" data-name="Trazado 162413" d="M211.53,325.71l35.96,20.9,14.28-8.25-35.96-20.89Z" fill="#b3ccea"/>
          <path id="Trazado_162414" data-name="Trazado 162414" d="M294.11,331.66l14.17,8.24,14.28-8.25-14.17-8.23Z" fill="#b3ccea"/>
          <path id="Trazado_162415" data-name="Trazado 162415" d="M311.01,341.49l14.19,8.24,14.28-8.24-14.19-8.25Z" fill="#b3ccea"/>
          <path id="Trazado_162416" data-name="Trazado 162416" d="M327.92,351.31l14.19,8.25,14.28-8.25-14.19-8.24Z" fill="#b3ccea"/>
          <path id="Trazado_162417" data-name="Trazado 162417" d="M344.83,361.14l14.19,8.24,14.28-8.24-14.19-8.25Z" fill="#b3ccea"/>
          <path id="Trazado_162418" data-name="Trazado 162418" d="M361.73,370.96l14.19,8.25,14.28-8.25-14.19-8.24Z" fill="#b3ccea"/>
          <path id="Trazado_162419" data-name="Trazado 162419" d="M378.65,380.79l14.18,8.24,14.28-8.24-14.18-8.24Z" fill="#b3ccea"/>
          <path id="Trazado_162420" data-name="Trazado 162420" d="M395.56,390.62l14.18,8.24,14.28-8.25-14.18-8.24Z" fill="#b3ccea"/>
          <path id="Trazado_162421" data-name="Trazado 162421" d="M412.47,400.44l14.18,8.25,14.29-8.25-14.19-8.24Z" fill="#b3ccea"/>
          <path id="Trazado_162422" data-name="Trazado 162422" d="M429.37,410.27l14.19,8.24,14.28-8.24-14.19-8.25Z" fill="#b3ccea"/>
          <path id="Trazado_162423" data-name="Trazado 162423" d="M447.04,420.54l28.02,16.28,14.28-8.25-28.02-16.28Z" fill="#b3ccea"/>
          <path id="Trazado_162424" data-name="Trazado 162424" d="M268.44,337.4l14.19,8.25,14.28-8.25-14.19-8.24Z" fill="#b3ccea"/>
          <path id="Trazado_162425" data-name="Trazado 162425" d="M285.36,347.23l14.18,8.24,14.28-8.24-14.18-8.24Z" fill="#b3ccea"/>
          <path id="Trazado_162426" data-name="Trazado 162426" d="M302.27,357.06l14.17,8.24,14.28-8.25-14.17-8.24Z" fill="#b3ccea"/>
          <path id="Trazado_162427" data-name="Trazado 162427" d="M319.17,366.88l14.19,8.25,14.28-8.25-14.19-8.24Z" fill="#b3ccea"/>
          <path id="Trazado_162428" data-name="Trazado 162428" d="M336.08,376.71l14.19,8.24,14.28-8.24-14.19-8.25Z" fill="#b3ccea"/>
          <path id="Trazado_162429" data-name="Trazado 162429" d="M352.99,386.53l14.19,8.25,14.28-8.24-14.19-8.25Z" fill="#b3ccea"/>
          <path id="Trazado_162430" data-name="Trazado 162430" d="M369.89,396.36l14.19,8.25,14.28-8.25-14.18-8.25Z" fill="#b3ccea"/>
          <path id="Trazado_162431" data-name="Trazado 162431" d="M386.81,406.19l14.18,8.24,14.28-8.24-14.18-8.24Z" fill="#b3ccea"/>
          <path id="Trazado_162432" data-name="Trazado 162432" d="M403.72,416.02l14.18,8.23,14.28-8.24L418,407.77Z" fill="#b3ccea"/>
          <path id="Trazado_162433" data-name="Trazado 162433" d="M421.08,426.11l36.15,21.01,14.28-8.25-36.15-21.01Z" fill="#b3ccea"/>
          <path id="Trazado_162434" data-name="Trazado 162434" d="M250.72,348.49l14.19,8.24,14.28-8.24L265,340.24Z" fill="#b3ccea"/>
          <path id="Trazado_162435" data-name="Trazado 162435" d="M267.5,358.24l14.19,8.25,14.28-8.25L281.78,350Z" fill="#b3ccea"/>
          <path id="Trazado_162436" data-name="Trazado 162436" d="M284.29,367.99l14.17,8.24,14.28-8.24-14.17-8.24Z" fill="#b3ccea"/>
          <path id="Trazado_162437" data-name="Trazado 162437" d="M301.06,377.74l14.19,8.25,14.28-8.25-14.19-8.24Z" fill="#b3ccea"/>
          <path id="Trazado_162438" data-name="Trazado 162438" d="M317.78,387.46l64.37,37.41,14.28-8.25-64.37-37.41Z" fill="#b3ccea"/>
          <path id="Trazado_162439" data-name="Trazado 162439" d="M385.5,426.82l14.19,8.24,14.29-8.24-14.19-8.25Z" fill="#b3ccea"/>
          <path id="Trazado_162440" data-name="Trazado 162440" d="M402.62,436.76l36.15,21.01,14.28-8.24L416.9,428.52Z" fill="#b3ccea"/>
        </g>
        <path id="Trazado_162441" data-name="Trazado 162441" d="M250.27,404.57a4.85,4.85,0,0,0,1.67,1.5l59,34.05a11.67,11.67,0,0,0,10.58,0L349,424.24a4.92,4.92,0,0,0,1.67-1.48c1.06-1.55.5-3.38-1.67-4.63l-59-34.07a11.76,11.76,0,0,0-10.56,0L251.94,400C249.79,401.21,249.23,403,250.27,404.57Z" fill="#396caa"/>
        <path id="Trazado_162442" data-name="Trazado 162442" d="M250.27,404.57a4.85,4.85,0,0,0,1.67,1.5l59,34.05a11.67,11.67,0,0,0,10.58,0L349,424.24a4.92,4.92,0,0,0,1.67-1.48,4.76,4.76,0,0,0-1.67-1.5l-59-34.07a11.63,11.63,0,0,0-10.56,0l-27.54,15.9a4.62,4.62,0,0,0-1.63,1.48Z" fill="#b3ccea"/>
      </g>
      <g id="Grupo_88150" data-name="Grupo 88150">
        <g id="Grupo_88142" data-name="Grupo 88142">
          <path id="Trazado_162443" data-name="Trazado 162443" d="M427.34,261.09l-95.46-55.11V79.66l95.46,55.11Z" fill="#3a6da0"/>
          <g id="Grupo_88139" data-name="Grupo 88139">
            <path id="Trazado_162444" data-name="Trazado 162444" d="M400,141.54a3.32,3.32,0,0,0-1.52-2.61l-41.29-23.84c-.84-.48-1.51-.1-1.51.86v47.34a3.33,3.33,0,0,0,1.51,2.61l41.29,23.84c.84.48,1.52.1,1.52-.86Zm-1.41,44.92c0,1-.67,1.34-1.51.86L358.61,165.1a3.34,3.34,0,0,1-1.51-2.61V118.37c0-1,.68-1.34,1.51-.86l38.49,22.22a3.31,3.31,0,0,1,1.51,2.61Z" fill="#104c82"/>
            <path id="Trazado_162445" data-name="Trazado 162445" d="M360.57,159.58v-.15c.27-1.07.55-2.14.81-3.21a2.51,2.51,0,0,1,3.26-2.13l5.51,1.08a1.34,1.34,0,0,0,1.29-.35,4.61,4.61,0,0,0,1.13-2.51,1.16,1.16,0,0,0-.17-.54,11.67,11.67,0,0,1-1.77-5.15,1.45,1.45,0,0,0-.35-.91,1.54,1.54,0,0,1-.27-.58c-.22-.93-.44-1.87-.61-2.79s-.12-1.45.38-1.72a.54.54,0,0,0,.19-.44c0-1.16,0-2.33,0-3.49a5.61,5.61,0,0,1,1-3.41c1.81-2.4,5.32-1.7,8.66,1.66a8,8,0,0,1,2.33,4.18,1,1,0,0,0,.14.35,7.31,7.31,0,0,1,1.21,4v4.41a1.651,1.651,0,0,0,.2.68,2.91,2.91,0,0,1,.45,1.55,8.18,8.18,0,0,1-.67,2.66.4.4,0,0,1-.3.27c-.24,0-.32.22-.34.49a3.44,3.44,0,0,1-1.75,3.12c-.18.09-.25.23-.17.53.18.73.33,1.45.55,2.18a8.26,8.26,0,0,0,2.32,3.77c1.71,1.55,3.38,3.21,5.06,4.83a10.88,10.88,0,0,1,3.24,5.87c.23,1.2.46,2.4.7,3.61.16.84.1,1-.45,1l-31-17.92Z" fill="#104c82"/>
          </g>
          <g id="Grupo_88140" data-name="Grupo 88140">
            <path id="Trazado_162446" data-name="Trazado 162446" d="M356.92,177.38l2.87-.07-.55,3.35,2.33,3.93-3.21-1.31-1.44,2.5-1.43-4.16-3.21-2.39,2.32-1.25-.55-3.98Z" fill="#104c82"/>
            <path id="Trazado_162447" data-name="Trazado 162447" d="M369.7,184.76l2.87-.07-.55,3.34,2.32,3.94-3.21-1.32-1.43,2.51-1.44-4.17-3.21-2.38,2.33-1.26-.55-3.98Z" fill="#104c82"/>
            <path id="Trazado_162448" data-name="Trazado 162448" d="M382.55,192.18l2.87-.07-.55,3.34,2.32,3.94-3.21-1.32-1.43,2.5-1.44-4.16-3.21-2.38,2.33-1.26-.55-3.98Z" fill="#104c82"/>
            <path id="Trazado_162449" data-name="Trazado 162449" d="M395.4,199.6l2.87-.08-.55,3.35,2.32,3.94-3.21-1.32-1.43,2.5-1.44-4.16-3.21-2.39,2.32-1.25-.54-3.98Z" fill="#104c82"/>
          </g>
          <g id="Grupo_88141" data-name="Grupo 88141">
            <path id="Trazado_162450" data-name="Trazado 162450" d="M347.42,191.54l58.93,34.03v-2.88l-58.93-34.02Z" fill="#104c82"/>
            <path id="Trazado_162451" data-name="Trazado 162451" d="M356.43,201.35v2.88l36.65,21.16v-2.88Z" fill="#104c82"/>
          </g>
        </g>
        <g id="Grupo_88146" data-name="Grupo 88146">
          <path id="Trazado_162452" data-name="Trazado 162452" d="M545.65,328.58l-95.46-55.11V147.15l95.46,55.11Z" fill="#3a6da0"/>
          <g id="Grupo_88143" data-name="Grupo 88143">
            <path id="Trazado_162453" data-name="Trazado 162453" d="M518.33,209a3.33,3.33,0,0,0-1.51-2.61l-41.29-23.84c-.84-.48-1.52-.09-1.52.86v47.34a3.32,3.32,0,0,0,1.52,2.61l41.29,23.84c.84.48,1.51.1,1.51-.86Zm-1.4,45c0,1-.68,1.34-1.51.86l-38.49-22.22a3.31,3.31,0,0,1-1.51-2.61V185.86c0-1,.67-1.34,1.51-.86l38.49,22.22a3.34,3.34,0,0,1,1.51,2.61Z" fill="#104c82"/>
            <path id="Trazado_162454" data-name="Trazado 162454" d="M478.88,227.07v-.14c.28-1.08.55-2.14.82-3.22a2.51,2.51,0,0,1,3.26-2.13l5.5,1.09a1.38,1.38,0,0,0,1.29-.35,4.61,4.61,0,0,0,1.14-2.51,1.08,1.08,0,0,0-.18-.54,11.731,11.731,0,0,1-1.76-5.16,1.49,1.49,0,0,0-.36-.91,1.57,1.57,0,0,1-.27-.57c-.22-.94-.43-1.88-.61-2.8s-.12-1.45.38-1.72a.5.5,0,0,0,.2-.44v-3.49a5.54,5.54,0,0,1,1-3.41c1.81-2.4,5.32-1.7,8.66,1.67a8,8,0,0,1,2.34,4.17,1,1,0,0,0,.14.36,7.37,7.37,0,0,1,1.21,4c0,1.49,0,2.94,0,4.42a1.65,1.65,0,0,0,.2.67,3,3,0,0,1,.45,1.55,8.569,8.569,0,0,1-.68,2.67c-.06.13-.16.26-.29.27a.511.511,0,0,0-.34.48,3.44,3.44,0,0,1-1.76,3.12c-.18.09-.24.23-.16.53.18.73.32,1.45.55,2.19a8.14,8.14,0,0,0,2.32,3.76c1.7,1.55,3.37,3.22,5.06,4.83a10.8,10.8,0,0,1,3.23,5.87c.24,1.2.47,2.41.7,3.61.17.84.11,1-.44,1l-31-17.93Z" fill="#104c82"/>
          </g>
          <g id="Grupo_88144" data-name="Grupo 88144">
            <path id="Trazado_162455" data-name="Trazado 162455" d="M475.24,244.88l2.87-.08-.55,3.35,2.32,3.94-3.21-1.32-1.43,2.5-1.44-4.16-3.21-2.39,2.33-1.25-.55-3.98Z" fill="#104c82"/>
            <path id="Trazado_162456" data-name="Trazado 162456" d="M488.01,252.25l2.87-.07-.54,3.35,2.32,3.93-3.21-1.32-1.44,2.51-1.43-4.16-3.21-2.39,2.32-1.26-.55-3.97Z" fill="#104c82"/>
            <path id="Trazado_162457" data-name="Trazado 162457" d="M500.86,259.67l2.87-.07-.54,3.34,2.32,3.94-3.21-1.32-1.44,2.51-1.43-4.17-3.21-2.38,2.32-1.26-.55-3.98Z" fill="#104c82"/>
            <path id="Trazado_162458" data-name="Trazado 162458" d="M513.71,267.09l2.87-.07-.55,3.34,2.33,3.94-3.21-1.32-1.44,2.51-1.43-4.17-3.21-2.38,2.32-1.26-.55-3.98Z" fill="#104c82"/>
          </g>
          <g id="Grupo_88145" data-name="Grupo 88145">
            <path id="Trazado_162459" data-name="Trazado 162459" d="M465.73,259.04l58.94,34.02v-2.87l-58.94-34.03Z" fill="#104c82"/>
            <path id="Trazado_162460" data-name="Trazado 162460" d="M474.75,268.85v2.87l36.65,21.16v-2.87Z" fill="#104c82"/>
          </g>
        </g>
        <g id="Grupo_88149" data-name="Grupo 88149">
          <path id="Trazado_162461" data-name="Trazado 162461" d="M494.11,314.37,374.29,245.2V86.65l119.82,69.17Z" fill="#fff"/>
          <g id="Grupo_88147" data-name="Grupo 88147">
            <path id="Trazado_162462" data-name="Trazado 162462" d="M393.8,227.08l73.97,42.71v-3.61L393.8,223.47Z" fill="#2c4c8c"/>
            <path id="Trazado_162463" data-name="Trazado 162463" d="M405.11,239.39V243l46.01,26.56v-3.61Z" fill="#2c4c8c"/>
          </g>
          <g id="Grupo_88148" data-name="Grupo 88148">
            <path id="Trazado_162464" data-name="Trazado 162464" d="M503,184.38l-27-15.57c-.89-.51-1.61-.1-1.61.92v30.9a3.55,3.55,0,0,0,1.61,2.78L503,219c.89.51,1.62.1,1.62-.92v-30.9a3.56,3.56,0,0,0-1.62-2.8Z" fill="#ed5353"/>
            <path id="Trazado_162465" data-name="Trazado 162465" d="M487.39,195.74l.24-.18,7.92-4.51c.59-.33,1.25-.09,1.87.68.8,1,1,2.28.41,2.76l-.25.16-9,5c-.73.41-1.49,0-2.24-1.24l-4.68-7.58a3.05,3.05,0,0,1-.57-1.85c.05-.59.32-.89.83-.84a2,2,0,0,1,1.44,1c.81,1.28,1.6,2.58,2.4,3.87Z" fill="#fff"/>
          </g>
        </g>
      </g>
      <g id="Grupo_88157" data-name="Grupo 88157">
        <ellipse id="Elipse_7418" data-name="Elipse 7418" cx="27.14" cy="47.01" rx="27.14" ry="47.01" transform="translate(474.537 526.583) rotate(-89.64)" fill="#396caa" opacity="0.35"/>
        <g id="Grupo_88156" data-name="Grupo 88156">
          <path id="Trazado_162466" data-name="Trazado 162466" d="M484.08,499.87s13.7-.36,16.93.11a41.47,41.47,0,0,0,20.71,8v7.93s-5.38,4.9-14.7,1.43v-1.07s-10.63.59-16.13-1.32c0,0-10.63-1.79-11.59-8.84C479.3,506.08,479.78,500.71,484.08,499.87Z" fill="#103468"/>
          <path id="Trazado_162467" data-name="Trazado 162467" d="M528.28,477.37c.64-1.83,2.66-5.08,8.81-3.76,0,0,.74,7.4,6.65,8.6l7.11,1.43,3.58,3.71,3.11,2.66s-.36,5.22-1.79,6.17-6.93,2.39-8.85,0-3.58-4.57-3.58-4.57v-1.28a73.716,73.716,0,0,1-7.05-3.46,29,29,0,0,1-4.57-3.33h0C528.27,479.92,528.28,477.37,528.28,477.37Z" fill="#103468"/>
          <g id="Grupo_88152" data-name="Grupo 88152">
            <path id="Trazado_162468" data-name="Trazado 162468" d="M462.24,310.01l21.6,49.61,26.92-11.72.85,1.93-29.28,12.75-22.45-51.54Z" fill="#396caa"/>
            <rect id="Rect치ngulo_37504" data-name="Rect치ngulo 37504" width="31.93" height="56.22" transform="translate(461.265 308.26) rotate(-23.52)" fill="#fff"/>
            <g id="Grupo_88151" data-name="Grupo 88151">
              <path id="Trazado_162469" data-name="Trazado 162469" d="M469.48,316.3l-.65-1.48,22.14-9.69.64,1.48Z" fill="#b3ccea"/>
              <path id="Trazado_162470" data-name="Trazado 162470" d="M471.23,320.33l-.64-1.48,22.13-9.69.65,1.48Z" fill="#b3ccea"/>
              <path id="Trazado_162471" data-name="Trazado 162471" d="M472.93,324.22l-.65-1.48,22.14-9.69.64,1.47Z" fill="#b3ccea"/>
              <path id="Trazado_162472" data-name="Trazado 162472" d="M474.63,328.14l-.64-1.48,22.14-9.69.64,1.48Z" fill="#b3ccea"/>
              <path id="Trazado_162473" data-name="Trazado 162473" d="M476.45,332.31l-.64-1.48,22.13-9.69.64,1.48Z" fill="#b3ccea"/>
              <path id="Trazado_162474" data-name="Trazado 162474" d="M478.2,336.31l-.65-1.48,22.14-9.69.64,1.48Z" fill="#b3ccea"/>
              <path id="Trazado_162475" data-name="Trazado 162475" d="M480.02,340.5l-.65-1.48,22.14-9.69.64,1.48Z" fill="#b3ccea"/>
              <path id="Trazado_162476" data-name="Trazado 162476" d="M481.86,344.72l-.65-1.48,22.14-9.69.64,1.48Z" fill="#b3ccea"/>
              <path id="Trazado_162477" data-name="Trazado 162477" d="M483.61,348.75l-.64-1.48,22.14-9.69.64,1.48Z" fill="#b3ccea"/>
            </g>
          </g>
          <path id="Trazado_162478" data-name="Trazado 162478" d="M503,360.8v-.84h0Z" fill="none"/>
          <g id="Grupo_88153" data-name="Grupo 88153">
            <path id="Trazado_162479" data-name="Trazado 162479" d="M561.8,345.39s0,4-.74,5.47c0,0-7.4,18.88-8.36,20.22,0,0-3.75-14.8-3-23.63C549.74,347.45,553.07,348.9,561.8,345.39Z" fill="#f3a984"/>
            <path id="Trazado_162480" data-name="Trazado 162480" d="M557.77,288.41s8.79,7.69,5.23,25.28c0,0-2.18,19.59-2,27.47,0,0-7.94,2.39-12.15,0,0,0,2.4-25.32,7.46-30.58C556.27,310.58,559.64,291.41,557.77,288.41Z" fill="#db8f14"/>
            <path id="Trazado_162481" data-name="Trazado 162481" d="M548.93,340.37a5.17,5.17,0,0,0,4.52,1.52c4.85-.89,7.59-4.6,7.62-5.74l.42.41a5.9,5.9,0,0,1,1,2.9l.22,2.76a6.53,6.53,0,0,1-.4,2.78c-1.15,2-4.53,5.77-13.37,3.77l-.24-3.38h0C548.68,344.36,548.83,341.79,548.93,340.37Z" fill="#fff"/>
          </g>
          <path id="Trazado_162482" data-name="Trazado 162482" d="M536.38,372.89c-7.34,4.86-16.19,4.74-23.07,3.47A51.318,51.318,0,0,1,502,372.89h0l1-12.09h0l.07-.81h0l1-20.52c.71-1.43-1.2-18.58-1.2-18.58.24-11.18,8.84-21.08,8.84-21.08,2.63-2.62,11.24-14.81,11.24-14.81,3.1.24,21.51-5.49,21.51-5.49a6.85,6.85,0,0,1,2.22-.1c4.91.67,9.69,4.1,12,6a10.22,10.22,0,0,1,2.42,3.46c5,13-1.17,27.65-7.57,39.62-7.41,13.86-1.2,33.93-1.2,33.93h0C549.31,364.66,536.38,372.89,536.38,372.89Z" fill="#ffa726"/>
          <path id="Trazado_162483" data-name="Trazado 162483" d="M502,372.89a51.32,51.32,0,0,0,11.35,3.47C505.81,375.58,502,372.89,502,372.89Z" fill="none"/>
          <path id="Trazado_162484" data-name="Trazado 162484" d="M495.8,343.05v.28A2.611,2.611,0,0,0,495.8,343.05Z" fill="none"/>
          <g id="Grupo_88154" data-name="Grupo 88154">
            <path id="Trazado_162485" data-name="Trazado 162485" d="M522.92,285.21s11.62.73,21.79-4.79c0,0-1.72-7.39-1.6-8.83l-11.83-9.08-6.76-8.95-4.95-8.72-2.87,2.29s-3.34,3.2-2.51,6.66c0,0,1.63,3.47,1.11,4.78,0,0-1.66,3.78.05,6.73a45.421,45.421,0,0,1,3.15,7.61l4.89,3.1a3.77,3.77,0,0,1,.6,2.87C523.75,280.79,522.92,285.21,522.92,285.21Z" fill="#f3a984"/>
            <path id="Trazado_162486" data-name="Trazado 162486" d="M543.55,274.06s4.3-10.51,6.53-16.24-.32-20.39-17.05-23.1c0,0-15.74-.79-16.71,8a15.12,15.12,0,0,0,1.26,7,6,6,0,0,0,0,5.42c1.43,3,2.55,9.08,1,10,0,0-2.24,1.91-3.19.16,0,0-.64,9.72,2.87,12.11,0,0,2.55,1.59,5.17-1.4a6.81,6.81,0,0,1-3.46-6.09c-.12-4.54,1.41-9.8,4.59-6s5.21,10.87,5.21,10.87A12.79,12.79,0,0,0,543.55,274.06Z" fill="#173d7a"/>
          </g>
          <path id="Trazado_162487" data-name="Trazado 162487" d="M505.75,329.18c-.19-.39-.36-.79-.52-1.2C505.41,328.36,505.58,328.76,505.75,329.18Z" fill="none"/>
          <g id="Grupo_88155" data-name="Grupo 88155">
            <path id="Trazado_162488" data-name="Trazado 162488" d="M469.07,337.35c-.13-1.88,1.78-1.52,1.78-1.52-.23,1.41,3.73,2.77,3.73,2.77,1.91,1.42,4.46-.73,4.46-.73a4.74,4.74,0,0,1-2.33-2h0a9.251,9.251,0,0,1-1.14-2.23,2.139,2.139,0,0,1-.15-.42h0a1,1,0,0,1,.47-1.27h0a1,1,0,0,1,.91.35l.1.12h0c1.54,1.87,5.63,3.69,5.63,3.69,3,.6,5.74,4.51,6.12,5.31s11.67.15,11.67.15l-.32,13.2c-3,0-9.47-3.36-11.72-4.57h0a11.109,11.109,0,0,0-6.06-.65h0c-4.2,1.32-8,0-9.23-.18s-1.29-1.53-1.31-2.05l-.1-.06c-3.08-1.94-.66-4.22-.66-4.22-3-1.59-.48-3.33-.48-3.33a4.48,4.48,0,0,1-1.37-2.36Z" fill="#f3a984"/>
            <path id="Trazado_162489" data-name="Trazado 162489" d="M497.31,340l7.92-.38a24.588,24.588,0,0,0-.88,3.54h0s-.74,3.6,2.34,8h0a36.354,36.354,0,0,0,4.56,4.36c-2.31.63-8.19.73-8.19.73a6.1,6.1,0,0,1-4.36-3.19c-2-1.87-2.67-6.58-2.88-9.8h0v-.28a3.15,3.15,0,0,1,1.49-2.98Z" fill="#fff"/>
            <path id="Trazado_162490" data-name="Trazado 162490" d="M505.75,329.18c-.17-.42-.34-.82-.52-1.2a30.928,30.928,0,0,1-1.8-8.66l.09.12c-1-6.39,2.23-12.86,2.23-12.86a34.169,34.169,0,0,1,2.63-3.4,11.45,11.45,0,0,1,9.89-3.72,10.31,10.31,0,0,1,6.9,5.79c5.61,11.05,6.16,29,5.47,38.08s-19.39,12.26-19.39,12.26-10.72-9.53-6-15.94c2.1-2.87,1.88-6.25,1-9.12A5.459,5.459,0,0,0,505.75,329.18Z" fill="#db8f14"/>
          </g>
          <path id="Trazado_162491" data-name="Trazado 162491" d="M497.5,409.84c0-11.47,4.46-36.95,4.46-36.95h0s3.85,2.69,11.35,3.47c6.88,1.27,15.73,1.39,23.07-3.47,0,0,12.93-8.23,15.93-10.51h0a118.445,118.445,0,0,1,1.08,19h0s-2.24,11.72-20.95,16.35l-4.89,19.41c-5.89,15.25-3.6,23.91-3.6,23.91s5.74,21.34,4.46,26.43-5.09,37.91-6.69,40.46c0,0-12.65,0-20.71-8,0,0,3.5-27.07,3.5-35S497.5,421.31,497.5,409.84Z" fill="#173d7a"/>
          <path id="Trazado_162492" data-name="Trazado 162492" d="M553.39,381.39h0a45.579,45.579,0,0,1-1.08,8.7c-2.55,10.51,1.63,30.9,1.14,35.68s6.19,20.38,5.56,32.17c0,0-1,30.58-1.92,32.17s-5.41,3.19-9.56-1.59-10.48-9.56-10.81-13.06.62-17.52-1.3-30.58-7.86-27.7-7.87-27.73l4.89-19.41C551.15,393.11,553.39,381.39,553.39,381.39Z" fill="#295491"/>
        </g>
      </g>
      <g id="Grupo_88165" data-name="Grupo 88165">
        <ellipse id="Elipse_7419" data-name="Elipse 7419" cx="27.14" cy="47.01" rx="27.14" ry="47.01" transform="translate(268.063 372.491) rotate(-89.64)" fill="#396caa" opacity="0.35"/>
        <g id="Grupo_88164" data-name="Grupo 88164">
          <path id="Trazado_162493" data-name="Trazado 162493" d="M323,134.29a2.459,2.459,0,0,1-.18-.84h0c-.09-.35-.19-.69-.3-1-1.08-2.29-4.56-3.31-5.3-3.5h-.13c-1.38-.36-2.94-.84-4.42-1.33a29.14,29.14,0,0,0-5.45-.54s-2.21,6-6.22,7.22c.81,2.44,3.34,4.09,5.76,4.76l3,.84s10.93,4,12.56,1.5C323.17,140,323.45,137,323,134.29Z" fill="#daa782"/>
          <g id="Grupo_88158" data-name="Grupo 88158">
            <path id="Trazado_162494" data-name="Trazado 162494" d="M293.59,336.09c-.27-.52-5.43-3.45-5.43-3.45l-5.08,2.62-.2,6.9,2.68,5.73,6,1,3.53-3.46-.75-3.62A12.58,12.58,0,0,1,293.59,336.09Z" fill="#ffcda8"/>
            <path id="Trazado_162495" data-name="Trazado 162495" d="M294.37,341.77c-.07,2.89-2.48,3.86-4.68,3.75-4.34-.17-6.77-8.26-6.61-10.26a15.19,15.19,0,0,0-1.52,7.31c.11,2.17,1.84,5,3.31,8,1.29,2.6,2.77,5.92,4,7.14,2.58,2.58,9.36,5.85,12.57.81C303,356,293.7,340.56,294.37,341.77Z" fill="#103468"/>
          </g>
          <g id="Grupo_88159" data-name="Grupo 88159">
            <path id="Trazado_162496" data-name="Trazado 162496" d="M328,316.61c-1.47-.71-5.71-2.19-5.71-2.19L314,317.23v2.39s-.52,4.77,2.17,6.86,2.2,1.93,5.34,2.17,7.34-.15,8.89-1.25,1.74-4.29,1.74-4.29a9.93,9.93,0,0,1-4.14-6.5Z" fill="#ffcda8"/>
            <path id="Trazado_162497" data-name="Trazado 162497" d="M332.09,323.11c-2.61,5.3-18.66,1.61-18.14-3.49-1.74,2.48-3,7.93-1.95,10.08s13.82,3.21,13.82,3.21,21.3,8.83,24,4.38C354.35,329.59,342.7,329.49,332.09,323.11Z" fill="#103468"/>
          </g>
          <g id="Grupo_88160" data-name="Grupo 88160">
            <path id="Trazado_162498" data-name="Trazado 162498" d="M310.37,222.19l1.13,50.07a53.557,53.557,0,0,0-3.1,13c-.4,6,2.48,16.65,5.15,33.35,7,3.19,14.4-2,14.4-2s-3.84-21.41-.82-39.25a19.77,19.77,0,0,0,2.33-9.19c2.46-8.67,9.21-29.25,9.86-42.87s-.91-20.12-.91-20.12Z" fill="#295491"/>
            <path id="Trazado_162499" data-name="Trazado 162499" d="M287.8,217.87c-.42,6.74.43,60.76.43,60.76s-5.35,8.64-6.4,14.62,1.25,42,1.25,42a6.87,6.87,0,0,0,7.66,3.29,4.56,4.56,0,0,0,3.56-3.29s4.18-44.68,8.42-49.21c12.27-22.66,14.55-55,14.55-55s20.47-14,21.14-25.88c-2.74-1.23-45.36-2.87-45.36-2.87S288.73,204.24,287.8,217.87Z" fill="#173d7a"/>
          </g>
          <g id="Grupo_88161" data-name="Grupo 88161">
            <path id="Trazado_162500" data-name="Trazado 162500" d="M391.7,197.35c.25-1.15,7.57,2.87,8.54.93.7-1.44-12.26-9.25-16.35-8-5.47-.17-31.58-12.8-35.15-13.13-4.39-.9-9.17,6.84-8.43,8.12,6.2,7.89,32.53,9.34,40.28,11.42,2,.82,3.61,6,7.6,9.78s11.59,4.32,12.05,3.19C401.63,204,391.29,202.92,391.7,197.35Z" fill="#ffcda8"/>
            <path id="Trazado_162501" data-name="Trazado 162501" d="M341.39,146.89s-2.52-18.08-10.78-19h-.78c-1.84,0-6.17.11-6.17.11l12.44,46.85s1.27,7.23,4.36,10.72c1.23.93,7.93-5.13,8.43-8.3C345,163.8,341.39,146.89,341.39,146.89Z" fill="#db8f14"/>
          </g>
          <path id="Trazado_162502" data-name="Trazado 162502" d="M304.94,131.06a11.9,11.9,0,0,0,.41-1.46A4.841,4.841,0,0,0,304.94,131.06Z" fill="none"/>
          <path id="Trazado_162503" data-name="Trazado 162503" d="M288.52,144.76l.11-.1h-.09Z" fill="#512c20"/>
          <path id="Trazado_162504" data-name="Trazado 162504" d="M293,106l-.06.56Z" fill="none"/>
          <path id="Trazado_162505" data-name="Trazado 162505" d="M336.88,178.81c.87-1.94,6.91-6.26,6.59-11.95-.61-11.5-12.66-25.29-19.74-38.92-.1,1.47-1.77,10.23-6.66,11.55s-14.68-5.88-14.68-5.88C295.75,136,288,145.25,288,145.25l2.2,38.12s2.16,8.31,2.61,12.28S290,206.83,290,206.83s2.58,3.91,13.82,9.4c11,5.39,33.11-7.21,34.66-10.92C339,203.86,336,180.77,336.88,178.81Z" fill="#ffa726"/>
          <path id="Trazado_162506" data-name="Trazado 162506" d="M331.93,108c.1-3.6-4.16-5.42-4.16-5.42-4.2-.79-10.27-1.06-14,2.66-4.49,4.41-6.27,8-7.22,11.23a30.771,30.771,0,0,0-.13,7.53c.59,2.68,1.39,5.22,2.46,6.52,2.52,3.05,11.95,7.09,13.7,7.09s5.17-1.65,5.79-2.92,2.94-15.83,2.66-17a7.54,7.54,0,0,0-.8-2.15s.19-.43.72-1.67a45.512,45.512,0,0,0,.98-5.87Z" fill="#ffcda8"/>
          <path id="Trazado_162507" data-name="Trazado 162507" d="M306.33,183.7c2.66,12.69,30.55-4.89,30.55-4.89S311.24,191.87,306.33,183.7Z" fill="#3e4fb6"/>
          <g id="Grupo_88162" data-name="Grupo 88162">
            <path id="Trazado_162508" data-name="Trazado 162508" d="M325.19,226.03l-30.88-6.53,8.63-40.9,30.87,6.54Z" fill="#ed5353"/>
            <path id="Trazado_162509" data-name="Trazado 162509" d="M320.81,195.64l-10.49-2.23a1.52,1.52,0,0,1-1.18-1.8l1.06-5a1.51,1.51,0,0,1,1.8-1.17l10.49,2.22a1.52,1.52,0,0,1,1.17,1.8l-1,5a1.53,1.53,0,0,1-1.85,1.18Z" fill="#fff"/>
          </g>
          <g id="Grupo_88163" data-name="Grupo 88163">
            <path id="Trazado_162510" data-name="Trazado 162510" d="M292.83,204.64h0s5.44.79,10.76,1.72h.06l.4.07c3.55.64,7.91,1.88,7.91,1.88,4.35,2.07,10.39,4.78,12.1,5.25,4.79,1.34,6.62-.37,8.06-4.23,1.05-2.93,1.09-6.31-.37-7.21a21.24,21.24,0,0,0-6.07-2.2,95.767,95.767,0,0,0-10.67-.52,18.311,18.311,0,0,1-7-1.64h0c-4.37-2.17-10.34-5.87-10.34-5.87h0c-3.75-2-6.44-3.68-6.44-3.68-10.47,1.65-14,9-14,9l.26.45C279.05,199.69,286.15,202.42,292.83,204.64Z" fill="#ffcda8"/>
            <path id="Trazado_162511" data-name="Trazado 162511" d="M294.18,143.68c-7.93-.92-10.6,6.65-11.48,12.7h0s-2.42,16.73-3.06,20.2c-1.62,8.53-3.22,18.45-2.42,20.62,0,0,3.54-7.36,14-9l8.42-33.2S303.07,144.73,294.18,143.68Z" fill="#db8f14"/>
          </g>
          <path id="Trazado_162512" data-name="Trazado 162512" d="M300.66,96.06c-3.71.15-12.17,8.58-11.73,18.28.48,10.65,8.08,18.11,8.08,18.11a45.455,45.455,0,0,0,4.86-4.11C305.81,115.23,301.12,97.7,300.66,96.06Z" fill="#2c5a91"/>
          <path id="Trazado_162513" data-name="Trazado 162513" d="M308.66,100.89a5.56,5.56,0,1,1-5.55-5.48,5.48,5.48,0,0,1,5.55,5.48Z" fill="#ffa726"/>
          <path id="Trazado_162514" data-name="Trazado 162514" d="M307.21,127s-2.15-5.8,0-6.11c4-.08,6.06,5.69,7.64,4.07a10.93,10.93,0,0,0,3.21-4.9c.88-2.29.29-5.38,1.89-5.52,13.58-.35,12-8,12-8s-11.24-18.72-27.73-4.67c-9.34,8-6.15,18-4.13,21C303.58,128,307.21,127,307.21,127Z" fill="#204984"/>
        </g>
      </g>
      <g id="Grupo_88181" data-name="Grupo 88181">
        <g id="Grupo_88167" data-name="Grupo 88167">
          <path id="Trazado_162515" data-name="Trazado 162515" d="M77.28,439.1l4.51,2.6L116,461.44a5.71,5.71,0,0,0,5.14,0l34.48-19.91,4.49-2.59a1.87,1.87,0,0,0,1.06-1.4,1.73,1.73,0,0,0-1-1.57L121.4,413.63a5.66,5.66,0,0,0-5.13,0l-39,22.5c-1,.54-1.26,1.31-1,2a2.1,2.1,0,0,0,1.01.97Z" fill="#c4dbf2"/>
          <g id="Grupo_88166" data-name="Grupo 88166">
            <path id="Trazado_162516" data-name="Trazado 162516" d="M160.07,426.52l-4.49,2.59L121.1,449a5.71,5.71,0,0,1-5.14,0L81.79,429.3l-4.51-2.61a2.1,2.1,0,0,1-.94-1h-.12v7.52a1.221,1.221,0,0,0,0,.27h0a1.84,1.84,0,0,0,1,1.31L116,457.19a5.71,5.71,0,0,0,5.14,0l39-22.5a2,2,0,0,0,1.06-1.31h0v-8.25h0A1.87,1.87,0,0,1,160.07,426.52Z" fill="#173d7a"/>
            <path id="Trazado_162517" data-name="Trazado 162517" d="M77.28,426.69l4.51,2.61L116,449a5.71,5.71,0,0,0,5.14,0l34.48-19.91,4.49-2.59a1.87,1.87,0,0,0,1.06-1.4,1.73,1.73,0,0,0-1-1.57L121.4,401.22a5.66,5.66,0,0,0-5.13,0l-39,22.5c-1,.54-1.26,1.31-1,2A2.1,2.1,0,0,0,77.28,426.69Z" fill="#ffa726"/>
          </g>
        </g>
        <g id="Grupo_88169" data-name="Grupo 88169">
          <path id="Trazado_162518" data-name="Trazado 162518" d="M139.78,476.5l4.5,2.6,34.18,19.74a5.68,5.68,0,0,0,5.14,0l34.48-19.9,4.49-2.59a1.87,1.87,0,0,0,1.06-1.4,1.72,1.72,0,0,0-1-1.57L183.9,451a5.65,5.65,0,0,0-5.14,0l-39,22.49c-.94.55-1.26,1.31-1,2A2.23,2.23,0,0,0,139.78,476.5Z" fill="#c4dbf2"/>
          <g id="Grupo_88168" data-name="Grupo 88168">
            <path id="Trazado_162519" data-name="Trazado 162519" d="M222.76,463.44,218.27,466l-34.48,19.91a5.68,5.68,0,0,1-5.14,0l-34.17-19.73-4.51-2.6a2.16,2.16,0,0,1-.94-1h-.12v7.52a1.219,1.219,0,0,0,0,.27h0a1.87,1.87,0,0,0,1,1.32l38.68,22.33a5.68,5.68,0,0,0,5.14,0l39-22.5a2,2,0,0,0,1.06-1.3h0v-8.25h0A1.88,1.88,0,0,1,222.76,463.44Z" fill="#173d7a"/>
            <path id="Trazado_162520" data-name="Trazado 162520" d="M140,463.62l4.51,2.6L178.65,486a5.68,5.68,0,0,0,5.14,0l34.48-20,4.49-2.59a1.88,1.88,0,0,0,1.06-1.39,1.72,1.72,0,0,0-1-1.57l-38.69-22.34a5.71,5.71,0,0,0-5.14,0l-39,22.5c-1,.54-1.26,1.31-1,2a2.16,2.16,0,0,0,1.01,1.01Z" fill="#ed5353"/>
          </g>
        </g>
        <g id="Grupo_88171" data-name="Grupo 88171">
          <path id="Trazado_162521" data-name="Trazado 162521" d="M203,514l4.51,2.6,34.18,19.73a5.63,5.63,0,0,0,5.13,0l34.48-19.9,4.49-2.6a1.86,1.86,0,0,0,1.07-1.39,1.73,1.73,0,0,0-1.05-1.57l-38.69-22.34a5.69,5.69,0,0,0-5.13,0L203,511c-.94.55-1.26,1.31-1,2a2.11,2.11,0,0,0,1,1Z" fill="#c4dbf2"/>
          <g id="Grupo_88170" data-name="Grupo 88170">
            <path id="Trazado_162522" data-name="Trazado 162522" d="M286.26,499.9l-4.49,2.59L247.29,522.4a5.69,5.69,0,0,1-5.13,0L208,502.68l-4.51-2.61a2.1,2.1,0,0,1-.94-1h-.11v7.52a1.219,1.219,0,0,0,0,.27h0a1.87,1.87,0,0,0,1,1.31l38.69,22.34a5.69,5.69,0,0,0,5.13,0l39-22.5a1.92,1.92,0,0,0,1.06-1.31h0v-8.2h0a1.86,1.86,0,0,1-1.06,1.4Z" fill="#396caa"/>
            <path id="Trazado_162523" data-name="Trazado 162523" d="M203.47,500.07l4.51,2.61,34.18,19.73a5.69,5.69,0,0,0,5.13,0l34.48-19.91,4.49-2.59a1.86,1.86,0,0,0,1.07-1.4,1.74,1.74,0,0,0-1.05-1.57L247.6,474.6a5.68,5.68,0,0,0-5.14,0l-39,22.5c-.94.54-1.26,1.31-1,2A2.1,2.1,0,0,0,203.47,500.07Z" fill="#173d7a"/>
          </g>
        </g>
        <path id="Trazado_162524" data-name="Trazado 162524" d="M107.94,419.83l17.52-8.3,15.24,8.79-5.2,3-10.81-6.24-7.42,3.51a14.271,14.271,0,0,1,5.28,1.68c2.59,1.49,3.69,3.2,3.3,5.11s-2.24,3.85-5.58,5.77a22.28,22.28,0,0,1-6.55,2.5,20.71,20.71,0,0,1-6.91.32,16.56,16.56,0,0,1-6.22-2.06,8.35,8.35,0,0,1-3.42-3.31,4.18,4.18,0,0,1-.09-3.8,8.43,8.43,0,0,1,3.47-3.5l5.34,3.09c-1.2.82-1.82,1.63-1.87,2.44s.48,1.53,1.57,2.17a6.88,6.88,0,0,0,4.34.75,14.13,14.13,0,0,0,5.29-1.91c1.78-1,2.77-2,3-3s-.41-1.88-1.81-2.68a8.52,8.52,0,0,0-4.28-1.13L111,423Z" fill="#fff"/>
        <path id="Trazado_162525" data-name="Trazado 162525" d="M197.5,463.37a14.68,14.68,0,0,1-5,1.77,18.438,18.438,0,0,1-5.55.06,4.05,4.05,0,0,1,.11,3.56,7.65,7.65,0,0,1-3.38,3.29,17.71,17.71,0,0,1-9.07,2.39,18.18,18.18,0,0,1-9.13-2.47c-2.83-1.63-4.26-3.4-4.29-5.29s1.34-3.64,4.12-5.24a16,16,0,0,1,5.7-2,19.75,19.75,0,0,1,6.14.06,3.64,3.64,0,0,1,.11-3.2,7.36,7.36,0,0,1,3.07-2.91,17.46,17.46,0,0,1,8.71-2.35,16.72,16.72,0,0,1,8.67,2.26q4,2.28,3.92,5C201.57,460.13,200.2,461.81,197.5,463.37Zm-18.82,5.29a4.176,4.176,0,0,0,2.25-2.49c.13-.87-.38-1.63-1.54-2.3a7,7,0,0,0-4-.88,9.43,9.43,0,0,0-4.31,1.3c-1.34.77-2.08,1.59-2.23,2.45s.38,1.64,1.57,2.33a7,7,0,0,0,3.94.9A9.459,9.459,0,0,0,178.68,468.66Zm13.13-8.23a3.94,3.94,0,0,0,2.1-2.18q.27-1.12-1.26-2a5.9,5.9,0,0,0-3.43-.74,8.87,8.87,0,0,0-3.82,1.23,4.27,4.27,0,0,0-2.18,2.23c-.2.77.21,1.44,1.23,2a5.79,5.79,0,0,0,3.51.7,9.39,9.39,0,0,0,3.85-1.24Z" fill="#fff"/>
        <path id="Trazado_162526" data-name="Trazado 162526" d="M265.38,500,227,510.07l-5.7-3.29,36.9-9.14-13.52-7.8,5-2.9L268.86,498Z" fill="#fff"/>
        <g id="Grupo_88175" data-name="Grupo 88175">
          <path id="Trazado_162527" data-name="Trazado 162527" d="M10.4,467a1.78,1.78,0,0,1,1-1.24l29.36-17a5.46,5.46,0,0,1,4.61-.15L78,429.82c-5.81-4.38-8.14-9.81-7-15.05-1.34-6.12,2.08-12.55,10.26-17.27,14-8.08,36.59-8.12,50.48-.1,8.06,4.65,11.42,11,10.08,17.08,1.34,6.12-2.08,12.54-10.26,17.27-12.64,7.3-32.32,8-46.24,2.19l-.18.12L50.18,454.23v1.12h0a1.8,1.8,0,0,1-1,1.36l-29.36,17a5.41,5.41,0,0,1-4.88,0l-3.54-2a1.74,1.74,0,0,1-1-1.34h0Z" fill="#396caa" opacity="0.35"/>
          <g id="Grupo_88174" data-name="Grupo 88174">
            <ellipse id="Elipse_7420" data-name="Elipse 7420" cx="35.7" cy="20.61" rx="35.7" ry="20.61" transform="translate(70.546 394.738) rotate(-0.36)" fill="#173d7a"/>
            <ellipse id="Elipse_7421" data-name="Elipse 7421" cx="35.7" cy="20.61" rx="35.7" ry="20.61" transform="translate(70.543 389.538) rotate(-0.36)" fill="#396caa"/>
            <ellipse id="Elipse_7422" data-name="Elipse 7422" cx="30.21" cy="17.44" rx="30.21" ry="17.44" transform="translate(76.053 392.674) rotate(-0.36)" fill="#fff"/>
            <path id="Trazado_162528" data-name="Trazado 162528" d="M85.66,428.05v0Z" fill="#007ded"/>
            <path id="Trazado_162529" data-name="Trazado 162529" d="M49.06,449.66l-.21.06Z" fill="none"/>
            <path id="Trazado_162530" data-name="Trazado 162530" d="M48.75,449.75h0Z" fill="none"/>
            <path id="Trazado_162531" data-name="Trazado 162531" d="M49.4,449.5l-.26.13Z" fill="none"/>
            <path id="Trazado_162532" data-name="Trazado 162532" d="M48.3,449.81Z" fill="none"/>
            <g id="Grupo_88172" data-name="Grupo 88172">
              <path id="Trazado_162533" data-name="Trazado 162533" d="M85.11,428.89,49.4,449.5l-.26.13h-.08l-.21.06h-.64a2.72,2.72,0,0,1-1.47-.3l-.6-.35-1.34-.77a1,1,0,0,1-.54-.72h0v3h0a.89.89,0,0,0,.54.79l1.94,1.12a3,3,0,0,0,2.66,0L85.11,432a.9.9,0,0,0,.55-.81h0v-3A.94.94,0,0,1,85.11,428.89Z" fill="#133568"/>
              <path id="Trazado_162534" data-name="Trazado 162534" d="M44.8,448.39l1.34.77.6.35a2.72,2.72,0,0,0,1.47.3h.64l.21-.06h.08l.26-.13,35.71-20.61a.94.94,0,0,0,.55-.77s0,0,0-.07a.94.94,0,0,0-.54-.7l-1.94-1.12a2.93,2.93,0,0,0-2.66,0l-35.71,20.5a.91.91,0,0,0-.55.82A1,1,0,0,0,44.8,448.39Z" fill="#133568"/>
            </g>
            <path id="Trazado_162535" data-name="Trazado 162535" d="M50.18,450.11a1.73,1.73,0,0,1-1,1.42l-29.36,17a5.41,5.41,0,0,1-4.88,0l-3.54-2.05a1.62,1.62,0,0,1-1-1.58h0v3.32h0a1.75,1.75,0,0,0,1,1.33l3.54,2.05a5.41,5.41,0,0,0,4.88,0l29.36-16.95a1.8,1.8,0,0,0,1-1.36h0v-3.14Z" fill="#173d7a"/>
            <path id="Trazado_162536" data-name="Trazado 162536" d="M11.38,466.45l3.54,2.05a5.41,5.41,0,0,0,4.88,0l29.36-17a1.73,1.73,0,0,0,1-1.42,1.68,1.68,0,0,0-1-1.39l-3.54-2.05a5.41,5.41,0,0,0-4.88,0l-29.36,17a1.83,1.83,0,0,0-1,1.23,1.62,1.62,0,0,0,1,1.58Z" fill="#396caa"/>
            <g id="Grupo_88173" data-name="Grupo 88173">
              <path id="Trazado_162537" data-name="Trazado 162537" d="M104.77,392.51v34.83q2.17.06,4.35-.06V392.54Q106.95,392.44,104.77,392.51Z" fill="#b3ccea"/>
              <path id="Trazado_162538" data-name="Trazado 162538" d="M110.76,392.65v34.51c.76-.07,1.52-.16,2.27-.26v-34C112.28,392.79,111.52,392.71,110.76,392.65Z" fill="#b3ccea"/>
            </g>
          </g>
        </g>
        <g id="Grupo_88179" data-name="Grupo 88179" clip-path="url(#clip-path)">
          <g id="Grupo_88178" data-name="Grupo 88178">
            <g id="Grupo_88177" data-name="Grupo 88177">
              <path id="Trazado_162539" data-name="Trazado 162539" d="M65.39,441.33l5.8,3.35,44,25.4a7.3,7.3,0,0,0,6.61,0l44.38-25.62,5.78-3.34a2.39,2.39,0,0,0,1.37-1.8,2.23,2.23,0,0,0-1.34-2l-49.8-28.74a7.3,7.3,0,0,0-6.61,0l-50.15,29c-1.22.7-1.63,1.68-1.24,2.57a2.75,2.75,0,0,0,1.2,1.18Z" fill="#c4dbf2"/>
              <g id="Grupo_88176" data-name="Grupo 88176">
                <path id="Trazado_162540" data-name="Trazado 162540" d="M172,425.14l-5.78,3.33L121.79,454.1a7.33,7.33,0,0,1-6.61,0l-44-25.4-5.8-3.35a2.75,2.75,0,0,1-1.21-1.24H64v9.68a1.37,1.37,0,0,0,0,.35h0a2.43,2.43,0,0,0,1.34,1.69l49.79,28.75a7.3,7.3,0,0,0,6.61,0l50.16-29a2.49,2.49,0,0,0,1.36-1.68h0V423.34h0A2.4,2.4,0,0,1,172,425.14Z" fill="#173d7a"/>
                <path id="Trazado_162541" data-name="Trazado 162541" d="M65.39,425.36l5.8,3.35,44,25.4a7.33,7.33,0,0,0,6.61,0l44.38-25.63,5.78-3.33a2.4,2.4,0,0,0,1.37-1.8,2.23,2.23,0,0,0-1.35-2L122.19,392.6a7.3,7.3,0,0,0-6.61,0l-50.16,29c-1.21.7-1.62,1.68-1.23,2.57a2.75,2.75,0,0,0,1.2,1.19Z" fill="#ffa726"/>
              </g>
            </g>
            <path id="Trazado_162542" data-name="Trazado 162542" d="M104.86,416.53l22.55-10.69L147,417.16,140.33,421l-13.91-8-9.55,4.52a18.521,18.521,0,0,1,6.79,2.15q5,2.89,4.25,6.59t-7.18,7.42a28.542,28.542,0,0,1-8.44,3.22,26.47,26.47,0,0,1-8.89.41,21,21,0,0,1-8-2.65,10.68,10.68,0,0,1-4.4-4.27,5.35,5.35,0,0,1-.11-4.88A10.75,10.75,0,0,1,95.34,421l6.87,4q-2.31,1.57-2.4,3.15c-.06,1,.62,2,2,2.78a8.76,8.76,0,0,0,5.58,1,18.1,18.1,0,0,0,6.81-2.46c2.29-1.33,3.56-2.62,3.81-3.89s-.54-2.42-2.33-3.46a11,11,0,0,0-5.51-1.45h-1.4Z" fill="#fff"/>
          </g>
        </g>
        <g id="Grupo_88180" data-name="Grupo 88180" opacity="0.32">
          <path id="Trazado_162543" data-name="Trazado 162543" d="M104.77,392.51v34.83q2.17.06,4.35-.06V392.54Q106.95,392.44,104.77,392.51Z" fill="#b3ccea"/>
          <path id="Trazado_162544" data-name="Trazado 162544" d="M110.76,392.65v34.51c.76-.07,1.52-.16,2.27-.26v-34C112.28,392.79,111.52,392.71,110.76,392.65Z" fill="#b3ccea"/>
        </g>
      </g>
      <path id="Trazado_162545" data-name="Trazado 162545" d="M406.26,175.34l4.19-46.84L451.19,152v16l-28.91-16.69-1.79,19.8q5.13-.69,10.93,2.65a40.92,40.92,0,0,1,16.28,18q5.88,12,5.89,27.43,0,9.39-3,15.1t-8.51,6.6q-5.55.88-13.09-3.46a45.77,45.77,0,0,1-12.23-10.62,55.259,55.259,0,0,1-8.91-15.17A48.641,48.641,0,0,1,404.41,195l14.28,8.24a26.891,26.891,0,0,0,3.17,11.25,18.86,18.86,0,0,0,7.11,7.47q4.9,2.82,7.54-.34t2.65-11.75a32.13,32.13,0,0,0-3.05-14.41,21.6,21.6,0,0,0-8.63-9.38q-5.14-3-8.34-1.22l-1.4.92Z" fill="#ffa726"/>
      <rect id="Rect치ngulo_37505" data-name="Rect치ngulo 37505" width="604" height="550" fill="none"/>
    </g>
  </g>
</svg>
